<svg xmlns="http://www.w3.org/2000/svg" xmlns:xlink="http://www.w3.org/1999/xlink" width="50" height="44" viewBox="0 0 50 44"><defs><path id="ydi1a" d="M291.09 94.2a12.57 12.57 0 1 1 25.13 0 12.57 12.57 0 0 1-25.13 0z"/><path id="ydi1b" d="M315.88 103.74a9.72 9.72 0 0 1-9.72 9.72h-14.32a13.2 13.2 0 0 1 0-26.41c5.18 0 9.67 2.97 11.84 7.31a9.69 9.69 0 0 1 12.2 9.38z"/><mask id="ydi1d" width="2" height="2" x="-1" y="-1"><path fill="#fff" d="M291 81h26v26h-26z"/><use xlink:href="#ydi1a"/></mask><filter id="ydi1c" width="66" height="69" x="271" y="71" filterUnits="userSpaceOnUse"><feOffset dy="3" in="SourceGraphic" result="FeOffset1023Out"/><feGaussianBlur in="FeOffset1023Out" result="FeGaussianBlur1024Out" stdDeviation="4 4"/></filter><linearGradient id="ydi1e" x1="310.52" x2="303.66" y1="85.79" y2="106.77" gradientUnits="userSpaceOnUse"><stop offset="0" stop-color="#fedf74"/><stop offset="1" stop-color="#fedf74"/></linearGradient><mask id="ydi1g" width="2" height="2" x="-1" y="-1"><path fill="#fff" d="M278 87h38v27h-38z"/><use xlink:href="#ydi1b"/></mask><filter id="ydi1f" width="68" height="60" x="263" y="77" filterUnits="userSpaceOnUse"><feOffset dy="3" in="SourceGraphic" result="FeOffset1042Out"/><feGaussianBlur in="FeOffset1042Out" result="FeGaussianBlur1043Out" stdDeviation="2 2"/></filter></defs><g><g transform="translate(-275 -76)"><g filter="url(#ydi1c)"><use fill="none" stroke-width="0" mask="url(&quot;#ydi1d&quot;)" xlink:href="#ydi1a"/><use fill="#fedf74" xlink:href="#ydi1a"/></g><use fill="url(#ydi1e)" xlink:href="#ydi1a"/></g><g transform="translate(-275 -76)"><g filter="url(#ydi1f)"><use fill="none" stroke-opacity=".1" stroke-width="0" mask="url(&quot;#ydi1g&quot;)" xlink:href="#ydi1b"/><use fill-opacity=".1" xlink:href="#ydi1b"/></g><use fill="#fff" xlink:href="#ydi1b"/></g></g></svg>