<?xml version="1.0" standalone="no"?><!-- Generator: Gravit.io --><svg xmlns="http://www.w3.org/2000/svg" xmlns:xlink="http://www.w3.org/1999/xlink" style="isolation:isolate" viewBox="0 0 389.736 135.509" width="389.736" height="135.509"><defs><clipPath id="_clipPath_V7vtZqgSvLZJfH5H9w86GQWnA0FQYhR2"><rect width="389.736" height="135.509"/></clipPath></defs><g clip-path="url(#_clipPath_V7vtZqgSvLZJfH5H9w86GQWnA0FQYhR2)"><rect x="0" y="0" width="389.736" height="135.509" transform="matrix(1,0,0,1,0,0)" fill="none"/><g id="Group"><g id="Groupe_1011"><g id="svg_1" filter="url(#NP3ZmMFVqWyeC3TUseTVJk49N3wIPPMo)"><g opacity="0.59"><path d=" M 0.205 135.887 L 0.205 82.226 C 18.14 90.373 43.638 96.508 84.505 96.226 C 202.569 95.401 204.025 52.517 281.279 52.517 C 326.789 52.517 358.168 75.487 390.285 94.53 L 390.285 135.887 L 0.205 135.887 Z " fill="rgb(255,255,255)"/></g></g><defs><filter id="NP3ZmMFVqWyeC3TUseTVJk49N3wIPPMo" x="-200%" y="-200%" width="400%" height="400%"><feOffset xmlns="http://www.w3.org/2000/svg" in="SourceAlpha" result="offOut" dx="-3" dy="-3"/><feGaussianBlur xmlns="http://www.w3.org/2000/svg" in="offOut" result="blurOut" stdDeviation="1.5"/><feComponentTransfer xmlns="http://www.w3.org/2000/svg" in="blurOut" result="opacOut"><feFuncA xmlns="http://www.w3.org/2000/svg" type="table" tableValues="0 0.5"/></feComponentTransfer><feBlend xmlns="http://www.w3.org/2000/svg" in="SourceGraphic" in2="opacOut" mode="normal"/></filter></defs><g id="svg_2" filter="url(#MNHC6nUfF32tGHHNEw4QvXLAVpyiHQjd)"><path d=" M 0.2 135.887 L 0.2 37.747 C 19.4 29.837 40.103 25.86 60.99 26.07 C 159.168 26.57 194.025 97.822 278.26 98.812 C 320.377 99.307 341.002 88.544 356.178 77.781 C 368.295 69.189 376.94 60.596 390.279 57.732 L 390.279 135.887 L 0.2 135.887 Z " fill="rgb(255,255,255)"/></g><defs><filter id="MNHC6nUfF32tGHHNEw4QvXLAVpyiHQjd" x="-200%" y="-200%" width="400%" height="400%"><feOffset xmlns="http://www.w3.org/2000/svg" in="SourceAlpha" result="offOut" dx="-3" dy="-3"/><feGaussianBlur xmlns="http://www.w3.org/2000/svg" in="offOut" result="blurOut" stdDeviation="1"/><feComponentTransfer xmlns="http://www.w3.org/2000/svg" in="blurOut" result="opacOut"><feFuncA xmlns="http://www.w3.org/2000/svg" type="table" tableValues="0 0.5"/></feComponentTransfer><feBlend xmlns="http://www.w3.org/2000/svg" in="SourceGraphic" in2="opacOut" mode="normal"/></filter></defs><g id="svg_3" filter="url(#mQVsXa3ACVqtVnnfg3kHsDcvczElW86I)"><g opacity="0.59"><path d=" M 0.204 135.887 L 0.204 40.092 C 24.929 27.25 56.248 17.022 93.148 17.208 C 191.328 17.703 226.183 88.96 310.419 89.95 C 352.536 90.445 372.767 74.981 387.553 59.518 Q 388.949 58.058 390.284 56.602 L 390.284 135.887 L 0.204 135.887 Z " fill="rgb(255,255,255)"/></g></g><defs><filter id="mQVsXa3ACVqtVnnfg3kHsDcvczElW86I" x="-200%" y="-200%" width="400%" height="400%"><feOffset xmlns="http://www.w3.org/2000/svg" in="SourceAlpha" result="offOut" dx="-3" dy="-3"/><feGaussianBlur xmlns="http://www.w3.org/2000/svg" in="offOut" result="blurOut" stdDeviation="2.5"/><feComponentTransfer xmlns="http://www.w3.org/2000/svg" in="blurOut" result="opacOut"><feFuncA xmlns="http://www.w3.org/2000/svg" type="table" tableValues="0 0.5"/></feComponentTransfer><feBlend xmlns="http://www.w3.org/2000/svg" in="SourceGraphic" in2="opacOut" mode="normal"/></filter></defs></g></g></g></svg>