<svg xmlns="http://www.w3.org/2000/svg" xmlns:xlink="http://www.w3.org/1999/xlink" viewBox="0 0 405 148.681">
  <defs>
    <style>
      .cls-1, .cls-2 {
        fill: #fff;
      }

      .cls-1 {
        opacity: 0.59;
      }

      .cls-3 {
        filter: url(#Intersection_1);
      }

      .cls-4 {
        filter: url(#Intersection_3);
      }

      .cls-5 {
        filter: url(#Intersection_2);
      }
    </style>
    <filter id="Intersection_2" x="6.001" y="41.308" width="392.999" height="101.373" filterUnits="userSpaceOnUse">
      <feOffset dx="-3" dy="-3" input="SourceAlpha"/>
      <feGaussianBlur stdDeviation="3" result="blur"/>
      <feFlood flood-opacity="0.161"/>
      <feComposite operator="in" in2="blur"/>
      <feComposite in="SourceGraphic"/>
    </filter>
    <filter id="Intersection_3" x="9" y="17.862" width="387" height="121.819" filterUnits="userSpaceOnUse">
      <feOffset dx="-3" dy="-3" input="SourceAlpha"/>
      <feGaussianBlur stdDeviation="2" result="blur-2"/>
      <feFlood flood-opacity="0.161"/>
      <feComposite operator="in" in2="blur-2"/>
      <feComposite in="SourceGraphic"/>
    </filter>
    <filter id="Intersection_1" x="0" y="0" width="405" height="148.681" filterUnits="userSpaceOnUse">
      <feOffset dx="-3" dy="-3" input="SourceAlpha"/>
      <feGaussianBlur stdDeviation="5" result="blur-3"/>
      <feFlood flood-opacity="0.161"/>
      <feComposite operator="in" in2="blur-3"/>
      <feComposite in="SourceGraphic"/>
    </filter>
  </defs>
  <g id="Groupe_1011" data-name="Groupe 1011" transform="translate(2495 -847.319)">
    <g class="cls-5" transform="matrix(1, 0, 0, 1, -2495, 847.32)">
      <path id="Intersection_2-2" data-name="Intersection 2" class="cls-1" d="M70.294,325V271.339c17.241,8.147,41.754,14.282,81.041,14,113.5-.825,114.9-43.709,189.167-43.709,43.751,0,73.917,22.97,104.792,42.013V325Z" transform="translate(-52.29 -188.32)"/>
    </g>
    <g class="cls-4" transform="matrix(1, 0, 0, 1, -2495, 847.32)">
      <path id="Intersection_3-2" data-name="Intersection 3" class="cls-2" d="M77.829,325V226.86a144.515,144.515,0,0,1,58.44-11.677c94.383.5,127.892,71.752,208.871,72.742,40.489.495,60.316-10.268,74.906-21.031,11.648-8.592,19.959-17.185,32.783-20.049V325Z" transform="translate(-59.83 -188.32)"/>
    </g>
    <g class="cls-3" transform="matrix(1, 0, 0, 1, -2495, 847.32)">
      <path id="Intersection_1-2" data-name="Intersection 1" class="cls-1" d="M61.453,325V229.205c23.769-12.842,53.877-23.07,89.351-22.884,94.384.495,127.892,71.752,208.872,72.742,40.489.495,59.938-14.969,74.152-30.432q1.342-1.46,2.625-2.916V325Z" transform="translate(-43.45 -188.32)"/>
    </g>
  </g>
</svg>
