<?xml version="1.0" standalone="no"?><!-- Generator: Gravit.io --><svg xmlns="http://www.w3.org/2000/svg" xmlns:xlink="http://www.w3.org/1999/xlink" style="isolation:isolate" viewBox="133.083 443.84 109.234 82.72" width="109.234" height="82.72"><g id="Event_sad"><g id="Group" filter="url(#VdV8ahpyfNKu2jCsTqUWE1LT3CxyiDlH)"><path d=" M 232.317 463.96 L 232.317 504.76 C 232.321 507.891 231.079 510.894 228.865 513.108 C 226.651 515.322 223.648 516.564 220.517 516.56 L 154.883 516.56 C 151.752 516.564 148.749 515.322 146.535 513.108 C 144.321 510.894 143.079 507.891 143.083 504.76 L 143.083 463.96 L 232.317 463.96 Z " fill="rgb(243,243,243)"/></g><defs><filter id="VdV8ahpyfNKu2jCsTqUWE1LT3CxyiDlH" x="-200%" y="-200%" width="400%" height="400%"><feOffset xmlns="http://www.w3.org/2000/svg" in="SourceAlpha" result="offOut" dx="0" dy="0"/><feGaussianBlur xmlns="http://www.w3.org/2000/svg" in="offOut" result="blurOut" stdDeviation="2.5"/><feComponentTransfer xmlns="http://www.w3.org/2000/svg" in="blurOut" result="opacOut"><feFuncA xmlns="http://www.w3.org/2000/svg" type="table" tableValues="0 0.5"/></feComponentTransfer><feBlend xmlns="http://www.w3.org/2000/svg" in="SourceGraphic" in2="opacOut" mode="normal"/></filter></defs><path d=" M 232.317 459.109 L 232.317 463.966 L 143.083 463.966 L 143.083 459.109 C 143.079 455.978 144.321 452.975 146.535 450.761 C 148.749 448.547 151.752 447.305 154.883 447.309 L 220.521 447.309 C 227.019 447.353 232.276 452.611 232.317 459.109 Z " fill="rgb(63,74,110)"/><path d=" M 179.026 502.853 C 187.185 495.275 193.181 496.747 200.398 502.853" fill="none" vector-effect="non-scaling-stroke" stroke-width="2" stroke="rgb(83,83,83)" stroke-linejoin="round" stroke-linecap="round" stroke-miterlimit="10"/><path d=" M 163.067 484.224 C 163.067 482.462 164.497 481.032 166.259 481.032 C 168.021 481.032 169.451 482.462 169.451 484.224 C 169.451 485.986 168.021 487.416 166.259 487.416 C 164.497 487.416 163.067 485.986 163.067 484.224 Z " fill="rgb(83,83,83)"/><path d=" M 209.141 484.224 C 209.141 482.462 210.571 481.032 212.333 481.032 C 214.095 481.032 215.525 482.462 215.525 484.224 C 215.525 485.986 214.095 487.416 212.333 487.416 C 210.571 487.416 209.141 485.986 209.141 484.224 Z " fill="rgb(83,83,83)"/><g opacity="0.3"><path d=" M 206.145 500.184 C 206.145 495.971 209.565 492.551 213.778 492.551 C 217.991 492.551 221.411 495.971 221.411 500.184 C 221.411 504.397 217.991 507.817 213.778 507.817 C 209.565 507.817 206.145 504.397 206.145 500.184 Z " fill="rgb(253,132,147)"/></g><g opacity="0.3"><path d=" M 157.357 500.184 C 157.357 495.971 160.777 492.551 164.99 492.551 C 169.203 492.551 172.623 495.971 172.623 500.184 C 172.623 504.397 169.203 507.817 164.99 507.817 C 160.777 507.817 157.357 504.397 157.357 500.184 Z " fill="rgb(253,132,147)"/></g><g id="Group_503"><path d=" M 160.847 450.224 L 160.847 450.224 C 159.708 450.197 158.791 449.279 158.765 448.14 L 158.765 445.922 C 158.792 444.784 159.709 443.867 160.847 443.84 L 160.847 443.84 C 161.985 443.867 162.902 444.784 162.929 445.922 L 162.929 448.14 C 162.903 449.279 161.986 450.197 160.847 450.224 Z " fill="rgb(122,130,165)"/><path d=" M 177.917 450.224 L 177.917 450.224 C 176.778 450.197 175.861 449.279 175.835 448.14 L 175.835 445.922 C 175.862 444.784 176.779 443.867 177.917 443.84 L 177.917 443.84 C 179.055 443.867 179.972 444.784 179.999 445.922 L 179.999 448.14 C 180.01 448.696 179.794 449.232 179.401 449.625 C 179.009 450.018 178.473 450.234 177.917 450.224 Z " fill="rgb(122,130,165)"/><path d=" M 195.125 450.224 L 195.125 450.224 C 193.986 450.197 193.069 449.279 193.043 448.14 L 193.043 445.922 C 193.07 444.784 193.987 443.867 195.125 443.84 L 195.125 443.84 C 196.263 443.867 197.18 444.784 197.207 445.922 L 197.207 448.14 C 197.181 449.279 196.264 450.197 195.125 450.224 Z " fill="rgb(122,130,165)"/><path d=" M 212.334 450.224 L 212.334 450.224 C 211.195 450.197 210.278 449.279 210.252 448.14 L 210.252 445.922 C 210.242 445.367 210.458 444.831 210.85 444.438 C 211.243 444.046 211.779 443.83 212.334 443.84 L 212.334 443.84 C 213.472 443.867 214.389 444.784 214.416 445.922 L 214.416 448.14 C 214.39 449.279 213.473 450.197 212.334 450.224 L 212.334 450.224 Z " fill="rgb(122,130,165)"/></g></g></svg>