<svg xmlns="http://www.w3.org/2000/svg" viewBox="0 0 39.677 28.98">
  <defs>
    <style>
      .cls-1 {
        fill: #e6e7e8;
      }

      .cls-2 {
        fill: #f22876;
        stroke: #e6e7e8;
      }

      .cls-2, .cls-3 {
        stroke-linecap: round;
        stroke-linejoin: round;
        stroke-miterlimit: 10;
      }

      .cls-3 {
        fill: none;
        stroke: #fff;
      }
    </style>
  </defs>
  <g id="add_img" transform="translate(0 0)">
    <g id="Group_526" data-name="Group 526" transform="translate(0)">
      <g id="Group_525" data-name="Group 525">
        <path id="Path_1122" data-name="Path 1122" class="cls-1" d="M33.052,0H9.515a3.272,3.272,0,0,0-3.3,3.3v1.15l-3.757,1A3.322,3.322,0,0,0,.468,6.977,3.065,3.065,0,0,0,.162,9.43l4.6,17.1A3.322,3.322,0,0,0,6.3,28.521a3.017,3.017,0,0,0,1.61.46,3.145,3.145,0,0,0,.843-.077L23.7,24.917h9.354a3.321,3.321,0,0,0,3.3-3.3V3.3a3.272,3.272,0,0,0-3.3-3.3ZM8.365,27.6a1.806,1.806,0,0,1-1.533-.23,1.9,1.9,0,0,1-.92-1.227l-4.6-17.1a1.806,1.806,0,0,1,.23-1.533,1.9,1.9,0,0,1,1.227-.92l3.45-.92v15.87a3.321,3.321,0,0,0,3.3,3.3h9.124Zm26.681-5.98a2.03,2.03,0,0,1-1.993,1.993H9.515A2.03,2.03,0,0,1,7.522,21.62V3.3A2.03,2.03,0,0,1,9.515,1.3H33.052A2.03,2.03,0,0,1,35.046,3.3v9.277L31.9,9.43a1.253,1.253,0,0,0-1.84,0l-7.513,7.437h0L18.792,13.11a1.4,1.4,0,0,0-1.84,0l-3.22,3.22a.651.651,0,1,0,.92.92l3.22-3.22,3.757,3.757h0L18.945,20.47a.7.7,0,0,0,0,.92.575.575,0,0,0,.92,0l11.04-11.04,3.91,3.91a.268.268,0,0,0,.153.077V21.62Zm0,0" transform="translate(-0.036)"/>
      </g>
      <path id="Path_1123" data-name="Path 1123" class="cls-1" d="M15.561,23.244l-.613.613a.7.7,0,0,0,0,.92.575.575,0,0,0,.92,0l.69-.69a.7.7,0,0,0,0-.92.943.943,0,0,0-1,.077Zm0,0" transform="translate(-3.475 -5.38)"/>
      <path id="Path_1124" data-name="Path 1124" class="cls-1" d="M19.793,8.4a3.3,3.3,0,1,0-3.3,3.3,3.321,3.321,0,0,0,3.3-3.3Zm-3.3,1.917A1.993,1.993,0,1,1,18.49,8.32,1.979,1.979,0,0,1,16.5,10.313Zm0,0" transform="translate(-3.108 -1.19)"/>
    </g>
    <circle id="Ellipse_2542" data-name="Ellipse 2542" class="cls-2" cx="5.597" cy="5.597" r="5.597" transform="translate(27.984 16.484)"/>
    <g id="Group_527" data-name="Group 527" transform="translate(31.434 19.934)">
      <line id="Line_64" data-name="Line 64" class="cls-3" x2="4.907" transform="translate(0 2.453)"/>
      <line id="Line_65" data-name="Line 65" class="cls-3" y2="4.907" transform="translate(2.453)"/>
    </g>
  </g>
</svg>
