<svg xmlns="http://www.w3.org/2000/svg" xmlns:xlink="http://www.w3.org/1999/xlink" viewBox="0 0 29 29">
  <defs>
    <style>
      .cls-1 {
        fill: url(#linear-gradient);
      }

      .cls-2 {
        fill: #fff;
      }
    </style>
    <linearGradient id="linear-gradient" x2="0" y2="1" gradientUnits="objectBoundingBox">
      <stop offset="0" stop-color="#efbad3"/>
      <stop offset="1" stop-color="#a254f2"/>
    </linearGradient>
  </defs>
  <g id="horaire_admin" transform="translate(-5)">
    <rect id="Shape" class="cls-1" width="29" height="29" rx="6" transform="translate(5)"/>
    <g id="clock_1_" data-name="clock (1)" transform="translate(12 5.582)">
      <path id="Path_870" data-name="Path 870" class="cls-2" d="M15.361,5.049A7.839,7.839,0,0,0,11.1.807,7.864,7.864,0,0,0,7.987.168,7.782,7.782,0,0,0,4.881.807,7.863,7.863,0,0,0,.63,5.049a7.993,7.993,0,0,0,0,6.22,7.88,7.88,0,0,0,4.252,4.252,7.783,7.783,0,0,0,3.105.638,7.866,7.866,0,0,0,3.114-.638,7.856,7.856,0,0,0,4.26-4.252,7.892,7.892,0,0,0,0-6.22Zm-1.277,6.64a7.019,7.019,0,0,1-2.572,2.563,6.89,6.89,0,0,1-3.525.945,6.774,6.774,0,0,1-2.729-.56,7.153,7.153,0,0,1-2.24-1.5,7.11,7.11,0,0,1-1.5-2.248A6.887,6.887,0,0,1,.971,8.155a6.877,6.877,0,0,1,.936-3.517A7.022,7.022,0,0,1,4.47,2.075,6.837,6.837,0,0,1,7.987,1.13a6.89,6.89,0,0,1,3.525.945,7.04,7.04,0,0,1,2.572,2.563,6.837,6.837,0,0,1,.945,3.517A6.9,6.9,0,0,1,14.084,11.689Z" transform="translate(0 0)"/>
      <path id="Path_871" data-name="Path 871" class="cls-2" d="M288.082,115.942v-4.531a.5.5,0,0,0-.508-.49.493.493,0,0,0-.481.49v4.6a.4.4,0,0,1,.018.07.457.457,0,0,0,.131.394l2.616,2.616a.5.5,0,0,0,.674,0,.472.472,0,0,0,0-.682Z" transform="translate(-279.587 -107.857)"/>
    </g>
  </g>
</svg>
