<svg xmlns="http://www.w3.org/2000/svg" xmlns:xlink="http://www.w3.org/1999/xlink" viewBox="0 0 29 29">
  <defs>
    <style>
      .cls-1 {
        fill: url(#linear-gradient);
      }

      .cls-2 {
        fill: #fff;
      }
    </style>
    <linearGradient id="linear-gradient" x2="0" y2="1" gradientUnits="objectBoundingBox">
      <stop offset="0" stop-color="#fb6b94"/>
      <stop offset="1" stop-color="#fd8493"/>
    </linearGradient>
  </defs>
  <g id="setting_admin" transform="translate(-5)">
    <rect id="Shape" class="cls-1" width="29" height="29" rx="6" transform="translate(5)"/>
    <g id="parametre" transform="translate(12 7)">
      <path id="Path_733" data-name="Path 733" class="cls-2" d="M15.161,6.323l-1.1-.194a7.87,7.87,0,0,0-.452-1.1l.645-.9a.993.993,0,0,0-.129-1.29l-.968-.968a.97.97,0,0,0-.71-.258,1.041,1.041,0,0,0-.581.194l-.9.645A7.87,7.87,0,0,0,9.871,2L9.677.9A1.034,1.034,0,0,0,8.645,0H7.226a.97.97,0,0,0-.968.839l-.194,1.1c-.387.129-.71.323-1.1.452l-.9-.645a.789.789,0,0,0-.581-.194.794.794,0,0,0-.645.323l-1.032.968a1.069,1.069,0,0,0-.129,1.29l.645.968c-.129.323-.258.645-.387,1.032l-1.1.194A.97.97,0,0,0,0,7.29V8.71a.97.97,0,0,0,.839.968l1.1.194a7.87,7.87,0,0,0,.452,1.1l-.645.9a.993.993,0,0,0,.129,1.29l.968.968a.97.97,0,0,0,.71.258,1.041,1.041,0,0,0,.581-.194l.968-.645A7.168,7.168,0,0,0,6.129,14l.194,1.1a1.031,1.031,0,0,0,.968.839H8.71a.97.97,0,0,0,.968-.839L9.871,14a7.87,7.87,0,0,0,1.1-.452l.9.645a1.041,1.041,0,0,0,.581.194,1.353,1.353,0,0,0,.71-.258l.968-.968a1.069,1.069,0,0,0,.129-1.29l-.645-.9a5.581,5.581,0,0,0,.452-1.1l1.1-.194A1.031,1.031,0,0,0,16,8.71V7.29a1.038,1.038,0,0,0-.839-.968ZM15.032,8.71c0,.065,0,.065-.065.065l-1.355.258a.409.409,0,0,0-.387.323,5.476,5.476,0,0,1-.581,1.419.707.707,0,0,0,0,.516l.839,1.161v.129l-.968.968h-.129l-1.161-.839a.39.39,0,0,0-.516,0,5.476,5.476,0,0,1-1.419.581.409.409,0,0,0-.323.387L8.71,15.1a.063.063,0,0,1-.065.065H7.226c-.065,0-.065,0-.065-.065L6.9,13.677a.409.409,0,0,0-.323-.387,5.056,5.056,0,0,1-1.355-.581c-.065-.065-.129-.065-.258-.065a.388.388,0,0,0-.258.065l-1.1.839H3.484l-.968-.968a.089.089,0,0,1,0-.129l.839-1.161a.39.39,0,0,0,0-.516,5.476,5.476,0,0,1-.581-1.419.661.661,0,0,0-.387-.323L.968,8.774A.063.063,0,0,1,.9,8.71V7.29c0-.065,0-.065.065-.065l1.419-.258a.409.409,0,0,0,.387-.323,5.476,5.476,0,0,1,.581-1.419.707.707,0,0,0,0-.516l-.9-1.1V3.484l.968-.968h.129l1.161.839a.39.39,0,0,0,.516,0,5.476,5.476,0,0,1,1.419-.581.409.409,0,0,0,.323-.387L7.226.968A.063.063,0,0,1,7.29.9H8.71c.065,0,.065,0,.065.065l.258,1.419a.409.409,0,0,0,.323.387,5.476,5.476,0,0,1,1.419.581.707.707,0,0,0,.516,0l1.161-.839h.129l.968.968a.089.089,0,0,1,0,.129L12.71,4.774a.39.39,0,0,0,0,.516A5.476,5.476,0,0,1,13.29,6.71a.409.409,0,0,0,.387.323L15.1,7.29a.063.063,0,0,1,.065.065L15.032,8.71Zm0,0" transform="translate(0)"/>
      <path id="Path_734" data-name="Path 734" class="cls-2" d="M10.484,7a3.452,3.452,0,1,0,3.355,3.484A3.362,3.362,0,0,0,10.484,7Zm0,6A2.516,2.516,0,1,1,13,10.484,2.562,2.562,0,0,1,10.484,13Zm0,0" transform="translate(-2.484 -2.484)"/>
    </g>
  </g>
</svg>
