<svg xmlns="http://www.w3.org/2000/svg" xmlns:xlink="http://www.w3.org/1999/xlink" width="11" height="9" viewBox="0 0 11 9"><defs><path id="vge0a" d="M342 56.17a.39.39 0 0 0-.38-.4.39.39 0 0 0-.4.4c0 .22.18.39.4.39.22 0 .39-.17.39-.4zM340.35 58a2.78 2.78 0 0 0-5.56 0 2.78 2.78 0 0 0 5.56 0zm1.67-3.33c.6 0 1.1.5 1.1 1.12v5c0 .6-.5 1.1-1.1 1.1h-8.9c-.61 0-1.11-.5-1.11-1.13v-5c0-.6.5-1.1 1.1-1.1h1.35a.5.5 0 0 0 .44-.32l.34-1.03a.5.5 0 0 1 .44-.31h3.78a.5.5 0 0 1 .43.31l.36 1.05a.5.5 0 0 0 .44.31zm-2.78 3.34a1.67 1.67 0 1 1-3.35 0 1.67 1.67 0 0 1 3.35 0z"/></defs><g><g transform="translate(-332 -53)"><use fill="#fff" xlink:href="#vge0a"/></g></g></svg>