<svg xmlns="http://www.w3.org/2000/svg" viewBox="0 0 78.089 91.628">
  <defs>
    <style>
      .cls-1, .cls-2 {
        fill: #fff;
      }

      .cls-2 {
        font-size: 22px;
        font-family: SegoeUI, Segoe UI;
      }
    </style>
  </defs>
  <g id="Logo" transform="translate(-1.488 -4.053)">
    <path id="Tracé_786" data-name="Tracé 786" class="cls-1" d="M74.89,22.306C70.759,18.057,45.451,4.78,41.319,2.124L41.835,0,39.253,1.593,36.154,0l1.033,2.124c-2.066,1.593-8.78,4.78-16.011,9.029C13.429,15.4,5.681,20.181,3.615,22.306A13,13,0,0,0,0,31.865a11.47,11.47,0,0,0,4.132,9.029c2.582,2.124,5.681,3.718,8.78,3.718h.516a10.918,10.918,0,0,0,8.78-4.249L23.242,39.3c1.033,5.842,5.681,10.091,11.879,11.684h.516l3.1,5.842,3.1-5.842h.516A17.855,17.855,0,0,0,49.583,47.8a12.46,12.46,0,0,0,5.165-9.029c.516.531,1.033,1.062,1.033,1.593a12.775,12.775,0,0,0,9.3,4.249,11.926,11.926,0,0,0,8.78-3.718,13.473,13.473,0,0,0,4.132-9.56C78.506,28.148,76.956,24.961,74.89,22.306ZM39.253,6.373C40.8,10.091,43.9,16.995,47,23.368H30.989c1.033-2.124,2.066-4.249,3.1-6.9A47.442,47.442,0,0,0,39.253,6.373Zm-12.4,27.086c.516-1.593,1.033-2.655,1.549-4.249h0c0-.531.516-1.062,1.033-2.124H48.55l3.1,6.373Zm-7.231,4.78c-3.615,3.718-9.3,3.718-13.429,0a10.256,10.256,0,0,1-2.582-6.9h0A11.369,11.369,0,0,1,6.2,24.43C8.78,21.244,25.308,12.746,35.121,7.435c-1.033,2.655-2.582,4.78-3.615,7.435h0c-2.066,4.78-4.132,9.029-5.681,12.746h0A88.7,88.7,0,0,1,19.626,38.238Zm27.89,6.9a10.4,10.4,0,0,1-8.78,2.655c-6.714,0-12.4-5.311-12.4-11.153H51.649v1.062C51.649,40.363,50.1,43.018,47.517,45.143Zm24.275-6.9a9.054,9.054,0,0,1-13.429-.531C55.78,34.521,47.517,17.526,43.385,7.435,53.2,12.746,69.209,21.244,72.308,24.43A10.141,10.141,0,0,1,71.792,38.238Z" transform="translate(1.488 4.053)"/>
    <text id="Beego" class="cls-2" transform="translate(6.095 89.682)"><tspan x="0" y="0">Beego</tspan></text>
  </g>
</svg>
