<svg xmlns="http://www.w3.org/2000/svg" viewBox="0 0 252.524 130.162">
  <defs>
    <style>
      .cls-1 {
        fill: #eaf3fa;
      }

      .cls-2 {
        fill: #606c7d;
      }

      .cls-3 {
        fill: #daeaf7;
      }

      .cls-4 {
        fill: #b0d1ec;
      }

      .cls-5 {
        fill: #ebf2ef;
      }

      .cls-6 {
        fill: #b1d2ec;
      }

      .cls-7 {
        fill: #eff7f3;
      }

      .cls-8 {
        fill: #f5fafc;
      }

      .cls-9 {
        fill: #fffef6;
      }

      .cls-10 {
        fill: #fffef5;
      }

      .cls-11 {
        fill: #b3d3ec;
      }

      .cls-12 {
        fill: #f3f9fb;
      }

      .cls-13 {
        fill: #fffef7;
      }

      .cls-14 {
        fill: #f2f8fb;
      }

      .cls-15 {
        fill: #fff;
      }

      .cls-16 {
        fill: #deebf6;
      }

      .cls-17 {
        fill: #c8def1;
      }

      .cls-18 {
        fill: #a8c7e6;
      }

      .cls-19 {
        fill: #ccdef1;
      }

      .cls-20 {
        fill: #6794c9;
      }

      .cls-21 {
        fill: #a9c7e6;
      }

      .cls-22 {
        fill: #6795c9;
      }

      .cls-23 {
        fill: #fefffe;
      }

      .cls-24 {
        fill: #ccdff1;
      }

      .cls-25 {
        fill: #719fd0;
      }

      .cls-26 {
        fill: #fbfcfa;
      }

      .cls-27 {
        fill: #6795ca;
      }

      .cls-28 {
        fill: #ddebf6;
      }

      .cls-29 {
        fill: #fbfdfc;
      }

      .cls-30 {
        fill: #f6f9f5;
      }

      .cls-31 {
        fill: #fefefd;
      }

      .cls-32 {
        fill: #a8c7e5;
      }

      .cls-33 {
        fill: #b5d3ec;
      }

      .cls-34 {
        fill: #b5d2ec;
      }

      .cls-35 {
        fill: #fafdfd;
      }

      .cls-36 {
        fill: #c4dcf0;
      }

      .cls-37 {
        fill: #d3e6f5;
      }

      .cls-38 {
        fill: #a9c8e6;
      }

      .cls-39 {
        fill: #a7c7e6;
      }

      .cls-40 {
        fill: #c5dcf1;
      }

      .cls-41 {
        fill: #487d97;
      }

      .cls-42 {
        fill: #c5dcf0;
      }

      .cls-43 {
        fill: #d3e5f5;
      }

      .cls-44 {
        fill: #f0f6f4;
      }

      .cls-45 {
        fill: #b6d3ec;
      }

      .cls-46 {
        fill: #f9fcf9;
      }

      .cls-47 {
        fill: #c4ddf1;
      }

      .cls-48 {
        fill: #c5ddf1;
      }

      .cls-49 {
        fill: #e9f2f4;
      }

      .cls-50 {
        fill: #b7d3ec;
      }

      .cls-51 {
        fill: #d4e6f5;
      }

      .cls-52 {
        fill: #b7d4ed;
      }

      .cls-53 {
        fill: #d4e7f5;
      }

      .cls-54 {
        fill: #f7faf1;
      }

      .cls-55 {
        fill: #f5f9f5;
      }

      .cls-56 {
        fill: #f8faf4;
      }

      .cls-57 {
        fill: #d3e6f2;
      }

      .cls-58 {
        fill: #c7def1;
      }

      .cls-59 {
        fill: #fdfefe;
      }

      .cls-60 {
        fill: #d6e8f6;
      }

      .cls-61 {
        fill: #f5f8ee;
      }

      .cls-62 {
        fill: #c6def1;
      }

      .cls-63 {
        fill: #d5e7f5;
      }

      .cls-64 {
        fill: #fefcf0;
      }

      .cls-65 {
        fill: #f5f4ed;
      }

      .cls-66 {
        fill: #76a4d2;
      }

      .cls-67 {
        fill: #fefefe;
      }

      .cls-68 {
        fill: #fcfdfe;
      }

      .cls-69 {
        fill: #fcfefe;
      }

      .cls-70 {
        fill: #b2d2ec;
      }

      .cls-71 {
        fill: #edf6fa;
      }

      .cls-72 {
        fill: #f4f9fc;
      }

      .cls-73 {
        fill: #f5f9fb;
      }

      .cls-74 {
        fill: #b1d1ec;
      }

      .cls-75 {
        fill: #e3eff9;
      }

      .cls-76 {
        fill: #daeaf6;
      }

      .cls-77 {
        fill: #d5e8f6;
      }

      .cls-78 {
        fill: #d3e7f5;
      }

      .cls-79 {
        fill: #dbeaf6;
      }

      .cls-80 {
        fill: #dae8f5;
      }

      .cls-81 {
        fill: #f4f9fb;
      }

      .cls-82 {
        fill: #fcfbf4;
      }

      .cls-83 {
        fill: #fae4b9;
      }

      .cls-84 {
        fill: #fbf7e5;
      }

      .cls-85 {
        fill: #d0e5f4;
      }

      .cls-86 {
        fill: #fffdef;
      }

      .cls-87 {
        fill: #f2f7f2;
      }

      .cls-88 {
        fill: #eef4ef;
      }

      .cls-89 {
        fill: #eef4f1;
      }

      .cls-90 {
        fill: #edf4f3;
      }

      .cls-91 {
        fill: #e9f1f0;
      }

      .cls-92 {
        fill: #ecf4f3;
      }

      .cls-93 {
        fill: #badaef;
      }

      .cls-94 {
        fill: #99c7e7;
      }

      .cls-95 {
        fill: #77a9d7;
      }

      .cls-96 {
        fill: #84b7df;
      }

      .cls-97 {
        fill: #f4f7ed;
      }

      .cls-98 {
        fill: #e0ebf1;
      }

      .cls-99 {
        fill: #a8c8e6;
      }

      .cls-100 {
        fill: #ecf4ed;
      }

      .cls-101 {
        fill: #f6f9f3;
      }

      .cls-102 {
        fill: #f2f8f3;
      }

      .cls-103 {
        fill: #f9fbf2;
      }

      .cls-104 {
        fill: #e2eff9;
      }

      .cls-105 {
        fill: #d4e8f6;
      }

      .cls-106 {
        fill: #d7e9f6;
      }

      .cls-107 {
        fill: #d7e9f7;
      }
    </style>
  </defs>
  <g id="pdc" transform="translate(0 -0.026)">
    <path id="Tracé_1835" data-name="Tracé 1835" class="cls-1" d="M79.2,31a63.332,63.332,0,0,1,5.6-8.9A62.028,62.028,0,0,1,97,10.3,41.145,41.145,0,0,1,104.3,6c.5-.3,1-.5.9-1.2a3.165,3.165,0,0,1,2-3.3c1.6-.9,3-.3,4.2.7a1.383,1.383,0,0,0,1.6.3A71.4,71.4,0,0,1,120.7.7,45.2,45.2,0,0,1,126,.1a63.033,63.033,0,0,1,13,.7A51.815,51.815,0,0,1,154.7,6a54.743,54.743,0,0,1,10.4,6.8,1.354,1.354,0,0,0,1.6.3,3.246,3.246,0,0,1,4,.8,3.36,3.36,0,0,1,.8,4.1c-.3.6,0,.9.3,1.3a60.791,60.791,0,0,1,7.4,10.8,4.874,4.874,0,0,1,.4,1.1,4.62,4.62,0,0,1,.7.7,2.506,2.506,0,0,1,.4.7,39.1,39.1,0,0,1,2.7,6.7c.2.5-.2,1.1.3,1.6a4.054,4.054,0,0,1,.5.9q.75,3.3,1.2,6.6a22.707,22.707,0,0,1,.3,4.5,1.97,1.97,0,0,0,1,1.9,3.825,3.825,0,0,1,2.1,3.9,3.572,3.572,0,0,1-2.5,3.4c-.8.3-.9,1-1,1.6a53.531,53.531,0,0,1-2.5,10.5,56.43,56.43,0,0,1-24.5,30,1.8,1.8,0,0,0-.9,1.6,3.871,3.871,0,0,1-6.2,3.1,1.992,1.992,0,0,0-2.1-.2,56.242,56.242,0,0,1-23,3.4,54.951,54.951,0,0,1-18.7-4.4,52.568,52.568,0,0,1-11.7-6.8,1.841,1.841,0,0,0-1.9-.3c-2.5.9-5.7-1-5.2-4a4.023,4.023,0,0,0-1.2-3.4A54.475,54.475,0,0,1,73.7,64.8a30.779,30.779,0,0,1-.6-6.1,1.88,1.88,0,0,0-.8-1.7c-2.8-2.1-2.7-5.2.3-7a2.151,2.151,0,0,0,1-1.5,45.425,45.425,0,0,1,.9-5.1c.2-1.1.2-1.2-.9-1.2H70.7c-.4,0-.9.1-1.1-.5.4-.5.9-.4,1.4-.4,1.3-.1,2.7.1,4-.1a1.05,1.05,0,0,0,.5-.9,22.51,22.51,0,0,1,2.7-7.5,2.092,2.092,0,0,1,.4-.6,1.623,1.623,0,0,0,.5-.9A.367.367,0,0,1,79.2,31Z"/>
    <path id="Tracé_1836" data-name="Tracé 1836" class="cls-2" d="M46.8,127.8c-1.9-2.8-1-6-1.2-9,0-.3.2-.5.5-.7a3.673,3.673,0,0,1,1.8-.1H58a2.879,2.879,0,0,0,1.3-.1,22.573,22.573,0,0,1,4.5-.1H145c2.1.1,4.2,0,6.3,0h46.6a4.194,4.194,0,0,1,1.6.1c2.3.2,4.6,0,6.9.1,1.7.1,3.5-.1,5.2.1.5.2.5.7.5,1.1v5a5.844,5.844,0,0,1-1.2,3.4q-.3.45.3.6a4.052,4.052,0,0,0,1.1,0h38.5c.6,0,1.3-.2,1.6.6v.4c-.1.3-.2.7-.7.6H1.4c-.5,0-1.1.2-1.4-.4v-.9c.3-.6.9-.4,1.4-.4H46.6C46.9,128.2,47,128,46.8,127.8Z"/>
    <path id="Tracé_1837" data-name="Tracé 1837" class="cls-3" d="M180,32a.752.752,0,0,1-.5-.7,4.293,4.293,0,0,0,4.3-1.7c1.5-1.9,3.7-2.8,6-3.5a2.115,2.115,0,0,0,1.4-1.2c1.5-3.6,5.2-3.4,7.5-1.4a1.824,1.824,0,0,0,2.2.3c4.5-1.9,9.1-1.6,12.3,2.9a9.418,9.418,0,0,1,1.8,4.8c.1.7.2,1.1,1,1.2a6.121,6.121,0,0,1,1.7.7c2.7,1.4,3.4,3.9,1.8,6.5a2.117,2.117,0,0,0-.2,1.9c1.2,4,1.1,7.9-1.4,11.5a13.185,13.185,0,0,1-6.9,4.9,2.919,2.919,0,0,0-2.2,1.7c-1.4,2.9-4.3,3.3-7,1.3-.5-.4-.9-1.5-1.9-.7-.1.1-.3,0-.4-.1a10.3,10.3,0,0,1-.1-3.5c0-.1.1-.2.2-.3h.1c2.1.8,3.4-.4,4.8-1.7a30.7,30.7,0,0,0,2.9-3.4,1.881,1.881,0,0,0,.5-1.1c.1-.6.2-1.2-.2-1.6s-.9.1-1.3.3c-1.2.4-2.4.9-3.6,1.4a4.136,4.136,0,0,1-.5-1.9c.8-.9,2-1,3-1.4,2.3-1,2.3-.9,1.7-3.4-.2-1-.6-1.4-1.7-1.2a1.531,1.531,0,0,1-1.3-.2c.1-.9.9-.5,1.4-.8.2-.1.4,0,.6-.1.4-.1,1,.2,1.1-.4.1-.5-.6-.4-.9-.6a9.979,9.979,0,0,1-1-2.9c.5-.4.9-1,1.6-1.1,1.1,1.1,1.1,2.6,1.6,3.9a26.644,26.644,0,0,1,1,3.8c.2.8.6.8,1.2.4a2.545,2.545,0,0,0,1.1-1.2,25.089,25.089,0,0,0,1.6-7.2,2.374,2.374,0,0,0-2.2-2.3,12.678,12.678,0,0,0-3.4.3h-.5c-.3,0-.9-.5-.7.4a1.938,1.938,0,0,1-1.6,1.4c-.4-1.2-1.5-1.2-2.5-1.5-.3-1,.2-1.9,0-2.9a7.635,7.635,0,0,0-2.1-3.7c-.5-.6-2.2-.5-3,.1a17.1,17.1,0,0,0-3.5,3.6c-.2.3-.3.7-.8.7C188.8,31.5,184.4,31.9,180,32Z"/>
    <path id="Tracé_1838" data-name="Tracé 1838" class="cls-3" d="M41,66.3c1.4-.5,2.9-1,4.3-1.4,2.6-1.5,5.4-2.1,8.2-3.1,1.3-.5,2.7-1,4-1.4.5-.2,1-.5,1.6-.1a5.022,5.022,0,0,1,.2,2.1c0,.1-.1.2-.1.4a1.374,1.374,0,0,1-.8.5,6.89,6.89,0,0,0-.8.3c-.5.2-1,.3-1.5.5-5.7,2.1-11.4,4-17.2,6a14.58,14.58,0,0,0-1.9.7A3.042,3.042,0,0,0,35,74a3.2,3.2,0,0,1-.5,1.9,2.092,2.092,0,0,0-.4.6c-.5,1.3,1.1,4.6,2.5,5A1.854,1.854,0,0,1,38,82.8c1,2.6,1.8,5.3,2.8,7.9a1.985,1.985,0,0,1-.3,2.2,2.044,2.044,0,0,0-.3,1.7,9.772,9.772,0,0,0,1.1,3,1.419,1.419,0,0,0,.9.8,2.87,2.87,0,0,1,2.1,1.9c.9,1.6,2.3,2,4.1,1.4,3.2-1.1,6.3-2.2,9.5-3.3.4-.1.8-.4,1.2-.1a5.65,5.65,0,0,1,.2,2.6c0,.6-.5.9-1.1,1.1-4.5,1.6-9.1,3.2-13.6,4.8a1.708,1.708,0,0,1-1.4,0,30.68,30.68,0,0,1-2-5c-3.3-9.6-6.8-19.1-10.1-28.7-.6-1.8-.4-2.7.8-3.7a14.039,14.039,0,0,1,3.5-1c.5-.2,1-.3,1.4-.5A10.4,10.4,0,0,1,41,66.3Z"/>
    <path id="Tracé_1839" data-name="Tracé 1839" class="cls-3" d="M79.2,31.2c0,.4.2.9-.5,1a2.276,2.276,0,0,0-1.6-.4H66.9c-.4-.9.3-.8.8-.9,1.1-.1,2.2,0,3.2-.1.3,0,.8.1.9-.4a1.128,1.128,0,0,0-.3-1.1c-.4-.4-.8-.2-1.2-.1-2.9.8-5.9,1.6-8.8,2.4-5.8,1.5-11.6,3.1-17.5,4.6-1.4.4-1.4.4-1.1,1.8.5,2.2,1.1,4.3,1.7,6.5.2.9.7,1.2,1.6.9,3.6-1.1,7.2-1.9,10.9-2.9a2.034,2.034,0,0,1,2,0,1.535,1.535,0,0,1,0,1.6,1,1,0,0,1-.5.4c-2.4.8-4.8,1.3-7.2,2-1.3.4-1.4.5-1,1.8.3,1,.6,2,.8,3,.1.8.5,1.1,1.3.8,1.6-.5,3.3-.9,4.9-1.3.5-.1,1.1-.4,1.6-.1a1.6,1.6,0,0,1,.1,1.5.67.67,0,0,1-.7.4A37.72,37.72,0,0,0,52.6,54c-2.6.7-2.8.7-3.3-2-.3-1.4-.7-2.8-1-4.3-.2-.6-.5-.8-1.2-.6-.8.3-1.6.3-2.3.6-1.1.5-1.5-.1-1.7-1-.9-3.4-1.8-6.9-2.7-10.4-.2-.8,0-1.3.9-1.5l2.4-.6c.7-.2.9-.4.7-1.2-.5-1.7-.9-3.4-1.4-5.2-.4-1.4-.3-1.6,1.1-2,2.4-.7,4.8-1.3,7.2-1.9,4.4-1.2,8.9-2.4,13.3-3.5,1.4-.4,1.6-.2,2,1.2.5,1.7,1,3.4,1.4,5.2.2.7.4,1,1.2.7.5-.2,1.1-.3,1.7-.5,1.7-.5,2-.2,2.4,1.5a4.792,4.792,0,0,0,.9,2.6A16.625,16.625,0,0,1,79.2,31.2Z"/>
    <path id="Tracé_1840" data-name="Tracé 1840" class="cls-4" d="M56.2,63.7c.4-.4,1-.3,1.4-.5.3-.2.5,0,.7.2.8.4.3-.6.7-.7v-.2c.2-.1.3,0,.4.1a3.722,3.722,0,0,1,.2,1.8v51.8c0,.7.1,1.4-.4,1.9H46c.3-.4.8-.2,1.2-.2H57.7c.4,0,.9.2,1.2-.2a2.2,2.2,0,0,1-.2-1.4V104.7a2.2,2.2,0,0,0-.2-1.4,4.667,4.667,0,0,0-3.9,3.1c-1.1,3.1-3.8,4.1-6.7,4.7-1.3.3-2.2-.5-2.8-2.2-.2-.7-.4-.9-1.2-.8a4.152,4.152,0,0,1-4.5-2.7c-.9-2.3-1.7-4.7-2.5-7.1-1.2-3.4-2.4-6.7-3.6-10.1C31.6,83,29.8,77.9,28,72.7a4.209,4.209,0,0,1,2.5-4.9c1.1-.4,2.2-.8,3.3-1.1s1.5.1,1.2,1.3c-.5.7-1.4.7-2.1,1-.4.2-.8.3-1.2.5-1.8,1-2.2,1.8-1.5,3.8,2.6,7.3,5.1,14.6,7.7,21.9,1,2.7,2,5.5,2.9,8.2a5.738,5.738,0,0,0,2.4,3.3,4.709,4.709,0,0,0,2.4-.5c4.2-1.4,8.4-3,12.6-4.4a.991.991,0,0,0,.8-1.1V98.4a.908.908,0,0,1-.3-.7c0-.3-.1-.6-.1-.9a20.9,20.9,0,0,0,.1-2.5,1.19,1.19,0,0,0-.4-1.1c-.6-.4-1.6-.2-1.8-1.3.1-.2.2-.2.4-.3.5-.1,1,0,1.4-.4a1.747,1.747,0,0,0,.3-1.7c.2-.7-.9-.8-.6-1.6a1.986,1.986,0,0,0,.7-1.8c.3-.9-.9-.7-1-1.3,1-1.1,1-2.5,1-3.9,0-.6.1-1.2-.7-1.4a.9.9,0,0,1-.6-.6c-.2-.4-.3-.8.1-1,.4-.3.7,0,1,.2.1.1.1.2.2.2v-1c.1-.9-.3-.4-.6-.2-1.1.2-.8-.9-1.2-1.3a.9.9,0,0,1,.1-.5,5.6,5.6,0,0,1,1.5-1c.4-.4.2-.9.1-1.4a4.348,4.348,0,0,1-.4-.7,1.884,1.884,0,0,1,.2-.8c.1-.3.3-.5.3-.8V66.2c0-.5.1-1-.4-1.3C57.5,64.4,56.7,64.3,56.2,63.7Z"/>
    <path id="Tracé_1841" data-name="Tracé 1841" class="cls-4" d="M199.7,56.7v3.9c.3.4.2.8.2,1.3V68a2,2,0,0,0,.2,1.3,15.274,15.274,0,0,1,12.6,6.5,9.075,9.075,0,0,1,1.7,3.4,2.767,2.767,0,0,0,2.3,2.2,11.641,11.641,0,0,1,5.6,19.4,10.743,10.743,0,0,1-7,3.5c-3,.4-5.8-.6-8.7-1.2-2.1-.4-4.2-.9-6.3-1.4-.3-.1-.5-.2-.7.1a1.721,1.721,0,0,1,.2,1.2v13.5a2.537,2.537,0,0,1-.2,1.2c.3.4.8.2,1.2.2h9.5c.4,0,.9-.1,1.2.2H199.3c-.6-.6-.4-1.4-.4-2.2V51a4.421,4.421,0,0,1,.2-2c.1-.1.2-.3.3-.3.3.1.3.3.4.5.1.6,0,1.2.1,1.8v4.3A1.7,1.7,0,0,1,199.7,56.7Z"/>
    <path id="Tracé_1842" data-name="Tracé 1842" class="cls-5" d="M0,129.6c.6.5,1.3.3,2,.3H250.8c.6,0,1.3.1,1.7-.6.1.5-.1.8-.7.8H1.4C.9,130.1.2,130.5,0,129.6Z"/>
    <path id="Tracé_1843" data-name="Tracé 1843" class="cls-6" d="M59.2,62.5H59V60.1c-1.2-.2-2.1.5-3.2.8-2.9,1-5.9,2-8.8,3.1a1.24,1.24,0,0,1-1.3-.1c-.6-1-.5-1.3.6-1.7,3.5-1.2,7-2.4,10.5-3.7.4-.1.7-.3,1.1-.4.5-.1.8-.4.7-.9V53.6a2,2,0,0,1,.2-1.3V50.6a.52.52,0,0,1-.2-.4,45.129,45.129,0,0,1-.1-5.2,1.613,1.613,0,0,1,.3-.9V42.4a.52.52,0,0,1-.2-.4,5.438,5.438,0,0,1,0-1.8c.1-.3.2-.7.6-.3a2.966,2.966,0,0,1,.2,1.6V60.4C59.7,61.3,59.8,61.9,59.2,62.5Z"/>
    <path id="Tracé_1844" data-name="Tracé 1844" class="cls-7" d="M46.8,127.8c.4.2.8.5,0,.6a2.134,2.134,0,0,1-.8,0H1.8a2.492,2.492,0,0,0-1.7.3c.1-.8.8-.5,1.2-.5H45.5C45.9,128.2,46.6,128.5,46.8,127.8Z"/>
    <path id="Tracé_1845" data-name="Tracé 1845" class="cls-7" d="M252.5,129c-.4-.6-1.1-.5-1.7-.5H211.2c-1,0-.5-.4-.2-.7.2.8.8.5,1.3.5h39.3C252.1,128.2,252.6,128.3,252.5,129Z"/>
    <path id="Tracé_1846" data-name="Tracé 1846" class="cls-8" d="M45.8,63.9c2.2-.4,4.3-1.4,6.4-2l6-2.1c.4-.1.7-.2.7.3-4.6,1.6-9.1,3.2-13.7,4.8C45.4,64.5,46.2,64.5,45.8,63.9Z"/>
    <path id="Tracé_1847" data-name="Tracé 1847" class="cls-9" d="M199.7,117.7V101.9c.6.1.4.6.4.9v13.9C200.1,117.1,200.3,117.5,199.7,117.7Z"/>
    <path id="Tracé_1848" data-name="Tracé 1848" class="cls-10" d="M58.6,103.3c1-.2.5.6.5.8v13.6c-.7-.2-.4-.8-.4-1.2C58.5,112.1,58.6,107.7,58.6,103.3Z"/>
    <path id="Tracé_1849" data-name="Tracé 1849" class="cls-11" d="M37,66.8c0-.1-.1-.2-.1-.3-.2-.7.3-1,.9-1.1,1.1-.2,2.1-1.4,3.3-.6.5.3.1.8-.2,1.1-.9.9-2.1,1-3.2,1.3A.842.842,0,0,1,37,66.8Z"/>
    <path id="Tracé_1850" data-name="Tracé 1850" class="cls-9" d="M200.2,69.2c-.7-.1-.5-.6-.5-1V60.6h.2c.4.3.2.8.2,1.2C200.2,64.2,200.2,66.7,200.2,69.2Z"/>
    <path id="Tracé_1851" data-name="Tracé 1851" class="cls-10" d="M59,52.4v5.3c-.2.1-.3.2-.5,0V52.6A.551.551,0,0,1,59,52.4Z"/>
    <path id="Tracé_1852" data-name="Tracé 1852" class="cls-12" d="M37,66.8c1.2.5,2.1-.6,3.2-.7.2,0,.4-.2.6-.3,0,.2,0,.4.2.5a19.845,19.845,0,0,1-4.1,1.4C37.5,67.4,36.9,67.1,37,66.8Z"/>
    <path id="Tracé_1853" data-name="Tracé 1853" class="cls-13" d="M79.2,31.2H74.4c0-.3.2-.4.5-.4,1.4.1,2.9-.2,4.3.2Z"/>
    <path id="Tracé_1854" data-name="Tracé 1854" class="cls-14" d="M31.7,69.2A13.061,13.061,0,0,1,35,68a.55.55,0,0,0,.5.3,13.764,13.764,0,0,1-3.4,1.2C32,69.4,31.8,69.4,31.7,69.2Z"/>
    <path id="Tracé_1855" data-name="Tracé 1855" class="cls-3" d="M58.6,57.7h.5c-.2.5-.5.5-1,.5A1.205,1.205,0,0,1,58.6,57.7Z"/>
    <path id="Tracé_1856" data-name="Tracé 1856" class="cls-15" d="M144.9,118.1H112.5a3.329,3.329,0,0,0-1.4-.1H70.3c-1.8,0-1.9,0-1.9-1.8V43.7a5.7,5.7,0,0,1,.1-1.3c.1-.5.4-.8.9-.5h4.7c.7,0,.9.1.7.9a39.67,39.67,0,0,0-1.1,6,1.687,1.687,0,0,1-1.1,1.5,3.611,3.611,0,0,0-2.2,3.1,3.662,3.662,0,0,0,2,3.5,1.551,1.551,0,0,1,.9,1.5,53.531,53.531,0,0,0,1.8,11.9,54.152,54.152,0,0,0,8.3,17.9,43.924,43.924,0,0,0,5.1,6.3,1.06,1.06,0,0,1,.3,1.3c-.4,1.5-.4,3,1,4.1a3.664,3.664,0,0,0,4.1.5.83.83,0,0,1,1.2.2,53.412,53.412,0,0,0,15,8.2,50.88,50.88,0,0,0,10.7,2.7,53.641,53.641,0,0,0,12,.5,56.649,56.649,0,0,0,16.3-3.6,1.4,1.4,0,0,1,1.5.3c1.8,1.6,4,1.1,5.4-.7a3.39,3.39,0,0,0,.6-2.1c-.1-.8.3-1.2,1-1.6a52.853,52.853,0,0,0,9.4-6.9,54.58,54.58,0,0,0,8.4-9.6,57.021,57.021,0,0,0,6.8-13.5,66.6,66.6,0,0,0,2.2-8.8,4.868,4.868,0,0,0,.1-1.2c.2-1,.1-2,1.6-2.4a2.824,2.824,0,0,0,2-2.8,3.169,3.169,0,0,0-1.8-3.6c-1.2-.5-1.4-1.3-1.4-2.5a38.166,38.166,0,0,0-1.3-9.5,2.573,2.573,0,0,1-.1-1.5c1-.7,2.2-.3,3.3-.3,3.1,0,3.1,0,3.1,3v71c0,2.6,0,2.6-2.5,2.6H146C145.9,118,145.4,117.9,144.9,118.1Z"/>
    <path id="Tracé_1857" data-name="Tracé 1857" class="cls-16" d="M183.3,41.1a.664.664,0,0,1-.4-.5c0-2.9-1.5-5.4-2.7-7.9a38.462,38.462,0,0,1,4.8-.1h4.2c5.3.2,8.9,3.7,9.1,9v74c0,.8.2,1.6-.4,2.3-2,.2-3.9,0-5.9.1a.908.908,0,0,1-1-.8,12.1,12.1,0,0,1-.1-1.9V43.1c0-2.6,0-2.6-2.6-2.6h-4.2C183.8,40.5,183.6,40.7,183.3,41.1Z"/>
    <path id="Tracé_1858" data-name="Tracé 1858" class="cls-17" d="M78.5,32.7c-.9,2.1-1.8,4.1-2.5,6.3-.2.8.1,1.7-.6,2.3a.758.758,0,0,1-.2-.4c0-.1-.1-.2-.2-.3a28.115,28.115,0,0,0-7.1,0c-.1.1-.2.2-.2.3a9.7,9.7,0,0,0-.1,1.7v73.1a3.121,3.121,0,0,1-.3,2.1c-2,.3-4.1,0-6.1.1a.661.661,0,0,1-.7-.6,7.084,7.084,0,0,1-.1-1.4V42.3a8.9,8.9,0,0,1,1.7-5.9c1.4-.6,2.4-1.9,3.8-2.5.4-.2.3-.6.5-.8a5.457,5.457,0,0,1,2.8-.6c2.9-.1,5.8,0,8.7,0C78.1,32.6,78.3,32.6,78.5,32.7Z"/>
    <path id="Tracé_1859" data-name="Tracé 1859" class="cls-15" d="M131.5,101.3c1-.5,2.1-.1,3,0,3.7.7,7.5,1,11.3,1.6,1.4.2,2.7.4,4.2.6-.1.9-.6,1.6-.5,2.5,0,.5-.4.5-.7.7a55.216,55.216,0,0,1-10.4,2.8,40.785,40.785,0,0,1-8.5.8,58.382,58.382,0,0,1-18.5-3.1,57.539,57.539,0,0,1-13.3-6.8c-.6-.4-1.1-.9-1.7-1.3-.7-.5-.2-1-.3-1.6-.1-1.6.8-1.3,1.9-1.2,2.7.4,5.3.7,8,1.1,1.9.3,3.8.5,5.8.8,2.9.4,5.7.7,8.6,1.1a16.5,16.5,0,0,1,4.3.9,1.913,1.913,0,0,1,1.5.4c.6.4,1.2.6,1.8,1a1.96,1.96,0,0,0,2.2,0C130.5,101.5,130.9,101,131.5,101.3Z"/>
    <path id="Tracé_1860" data-name="Tracé 1860" class="cls-15" d="M163.5,16.7c-3-.6-6-1.1-9-1.7-4.6-.8-9.3-1.7-13.9-2.5-4.2-.8-8.4-1.5-12.6-2.3-3-.5-6.1-1-9.1-1.6-2.1-.4-4.1-.7-6.2-1.1-.7-.2-.9-.4-.5-1.1,0-.1.1-.1.1-.2-.2-2.1,1.4-2.4,2.9-2.7a59.947,59.947,0,0,1,12-1.8A50.4,50.4,0,0,1,145.3,4,51.315,51.315,0,0,1,164,14a2.432,2.432,0,0,1,.2,2.7A1.634,1.634,0,0,1,163.5,16.7Z"/>
    <path id="Tracé_1861" data-name="Tracé 1861" class="cls-18" d="M118.3,66.8c-.4,1.1-.8,2.3-1.2,3.4a1.057,1.057,0,0,1-1.2.5,7.466,7.466,0,0,0-4.3,1.5c-.3.3-.7.6-1.2.3-1-.6-1.9-1.1-2.9-1.7a6.832,6.832,0,0,1-.6-3.4c0-4-.4-8.1-.3-12.1a62.2,62.2,0,0,1,1-10.5,2.716,2.716,0,0,1,.8-1.7c2.9-1.1,5.7-2.1,8.6-3.2,3.1-1.1,6.1-2.2,9.2-3.3a2.908,2.908,0,0,1,1.7,2.9c-1.6,4.5-3.2,9-4.7,13.6a35.362,35.362,0,0,0-1.8,5.5,1.02,1.02,0,0,1-.5.8c-.2-2.6-2.2-3.7-3.9-5s-3.6-.8-5,.9a3.712,3.712,0,0,0,.3,5c1.6,1.8,3.4,3.4,5.1,5.1A6.706,6.706,0,0,1,118.3,66.8Z"/>
    <path id="Tracé_1862" data-name="Tracé 1862" class="cls-15" d="M183.4,63.1a71.96,71.96,0,0,1-1.6,7.8,54.684,54.684,0,0,1-11,20.4,60.9,60.9,0,0,1-13.4,11.4c-.6.4-1.2.7-1.9-.1a1.623,1.623,0,0,0-.9-.5c-.6-.2-.6-.4-.3-.9,2.2-3.1,4.3-6.3,6.4-9.5l15-22.2c1.8-2.6,3.5-5.2,5.3-7.8.3-.4.5-1.2.9-.9.6.4,1.7.5,1.6,1.7A.726.726,0,0,0,183.4,63.1Z"/>
    <path id="Tracé_1863" data-name="Tracé 1863" class="cls-18" d="M158.6,32.4c-3.6,9.1-7.2,18.1-10.9,27.2-.1.3-.3.6-.4.9a3.118,3.118,0,0,1-3.1,0c-.6-1.4-1.3-2.9-1.9-4.3a71.505,71.505,0,0,0,6.2-6.1,3.744,3.744,0,0,0-.1-5.2,3.866,3.866,0,0,0-5.3-.1,36.837,36.837,0,0,0-3.9,4c-1.2-3-2.4-5.9-3.6-8.9-.1-.6.3-.9.7-1.2a5.581,5.581,0,0,0,1.9-5.7c-.1-.5-.3-.9.1-1.4a39.761,39.761,0,0,1,4.1-2.1,73.685,73.685,0,0,0,10.4,2.1,34.188,34.188,0,0,0,4.5.4C157.8,32.1,158.3,32.1,158.6,32.4Z"/>
    <path id="Tracé_1864" data-name="Tracé 1864" class="cls-15" d="M165.6,63.7a10.536,10.536,0,0,1,3.8-1.2c2.7-.6,5.3-1.2,8-1.8.7-.2,1.5-.2,2.3-.4a29.084,29.084,0,0,1-2.5,3.9c-3.2,4.9-6.5,9.7-9.8,14.6-4.3,6.4-8.7,12.8-13,19.1-.4.7-.9,1.3-1.3,2-.1.2-.2.6-.6.5-.3-.1-.2-.4-.3-.6-.4-1.9-.8-3.9-1.2-5.8-.3-1.4-.5-2.8-.7-4.2-.1-.5-.2-.9.2-1.3.1-.8.7-1.1,1.2-1.6,3.4-3,6.6-6.2,8.8-10.3a52.065,52.065,0,0,0,4.2-11.4C165,64.7,164.9,64,165.6,63.7Z"/>
    <path id="Tracé_1865" data-name="Tracé 1865" class="cls-18" d="M137.1,90.8C132,87,127,83.1,121.9,79.3a2.357,2.357,0,0,1,.5-3.1l12-3.6c1.7-.5,3.4-1,5-1.4a2.442,2.442,0,0,1,2.9.5,4.842,4.842,0,0,0,2.4,1.1,1.35,1.35,0,0,1,1.2.8c.5,3.1,1.1,6.1,1.6,9.2-.6,1.2-1.8,1.8-2.8,2.6C142.3,87.3,139.7,89.1,137.1,90.8Z"/>
    <path id="Tracé_1866" data-name="Tracé 1866" class="cls-15" d="M121.5,20.2a4.363,4.363,0,0,1-1.7-1.6l-7.5-8.7c-.2-.3-.5-.5-.5-1,16.8,3,33.5,6.1,50.4,9.1-.1.6-.6.7-1,.8-3.7,1.8-7.5,3.5-11.2,5.3a.75.75,0,0,1-.9,0,2.751,2.751,0,0,0-1.8-.2c-.5.4-1,.1-1.5,0a65.388,65.388,0,0,1-15.2-6.4,2.851,2.851,0,0,0-3.5.1,41.56,41.56,0,0,1-4.7,2.4C122.2,20.3,121.8,20.5,121.5,20.2Z"/>
    <path id="Tracé_1867" data-name="Tracé 1867" class="cls-15" d="M103.7,85.3c-.1.8-.7,1.1-1.2,1.6-2.2,2-4.5,4-6.7,6.1-.6.6-.9.6-1.2-.3-2.3-5.6-4.7-11.2-7.1-16.9-1.7-4-3.4-8.1-5.1-12.1-1-2.4-2-4.8-3-7.3-.1-.1,0-.3-.1-.6,2.4,1.4,4.6,2.7,6.8,4,1.4.9,2.8,1.8,4.3,2.6a4.664,4.664,0,0,1,2.3,2.5.367.367,0,0,1,.1.3c.2,1,.1,2.2.8,3.1a.367.367,0,0,1,.1.3c-.1.6.3.9.6,1.3.8,1.4,1.2,3,1.9,4.5a30.325,30.325,0,0,0,6.7,9.5C103.2,84.3,103.8,84.6,103.7,85.3Z"/>
    <path id="Tracé_1868" data-name="Tracé 1868" class="cls-2" d="M78.5,32.7a2.232,2.232,0,0,1-1.4.3H69.3a4.768,4.768,0,0,0-3.1.7c-1.2.8-2.4,1.7-3.6,2.6a8.035,8.035,0,0,0-1.9,5.5v74.9c0,1,.3,1.3,1.3,1.2,1.7-.1,3.4,0,5.2,0,.3-.4.1-.9.1-1.4V41.8a3.211,3.211,0,0,1,.1-1.4h0a65.951,65.951,0,0,1,7.7-.1c.2,0,.3.2.2.3v.2c-.1.6-.5.6-1,.6H70c-.9,0-1.3.3-1.3,1.4.1,3.1,0,6.1,0,9.2,0,20.2,0,40.5-.1,60.7a23.382,23.382,0,0,1-.1,5.3H59.1V39.5c-.2-1.5.6-2.6,1.2-3.8a9.04,9.04,0,0,1,4.8-4c.5-.2.9-.5,1.5-.2,3.8-.4,7.7-.1,11.5-.2.7,0,.6.4.5.7A1.285,1.285,0,0,1,78.5,32.7Z"/>
    <path id="Tracé_1869" data-name="Tracé 1869" class="cls-19" d="M108.5,43.2a28.659,28.659,0,0,0-1.2,6.5,65.947,65.947,0,0,0-.2,10.9c.2,3.4.1,6.8.4,10.2-2.7-1.6-5.4-3.2-8.2-4.8a99.789,99.789,0,0,1-2.6-14.3c-.1-1.4-.3-2.8-.5-4.2C100.3,46.1,104.4,44.7,108.5,43.2Z"/>
    <path id="Tracé_1870" data-name="Tracé 1870" class="cls-15" d="M89,26.9c-.5,1-.2,2-.2,3,0,.9-.2,1.3-1.2,1.3-2-.1-3.9,0-5.9,0-.6,0-.9,0-.5-.8A54.624,54.624,0,0,1,91.8,16.6a50.271,50.271,0,0,1,12.9-9.1,3.478,3.478,0,0,1,2.8.8c.2.3,0,.5-.2.8-1.4,2.1-2.8,4.1-4.3,6.2-2.2,3.2-4.5,6.4-6.7,9.6a3.465,3.465,0,0,1-2.4,1.5c-.6.5-1.3.3-1.9.3a20.9,20.9,0,0,0-2.5.1C89.4,27,89.2,27,89,26.9Z"/>
    <path id="Tracé_1871" data-name="Tracé 1871" class="cls-18" d="M149.3,60.3c2.2-5.4,4.3-10.9,6.5-16.3,1.5-3.7,2.9-7.3,4.4-11,.2-.4,0-1,.4-1.3,1.2.4,1.5,1.2,1.5,2.5a135.275,135.275,0,0,1-2.4,26.9,3.1,3.1,0,0,0,.1,1.9c-2.6.5-5.3,1.1-7.9,1.6-1-1-1.6-2.3-2.8-3.1C148.7,61.2,149.2,60.7,149.3,60.3Z"/>
    <path id="Tracé_1872" data-name="Tracé 1872" class="cls-15" d="M74.9,57.9c0-.4,0-.7.5-.8a.764.764,0,0,0,.5-.2c1.5-.9,1.5-.9,2.2.7,3.7,8.9,7.4,17.8,11.2,26.8,1.1,2.5,2.1,5,3.2,7.5.3.7.4,1-.6,1.3-1.4.5-2,0-3-1A53.375,53.375,0,0,1,80,78.9a56,56,0,0,1-3.8-11.1C75.5,64.5,75.3,61.2,74.9,57.9Z"/>
    <path id="Tracé_1873" data-name="Tracé 1873" class="cls-19" d="M109.4,41.1c-4.3,1.6-8.7,3.2-13,4.8-.7-1.3-.4-2.7-.5-4-.2-2.6-.1-5.2-.3-7.8-.1-1.6.3-2,1.9-2a60.221,60.221,0,0,0,24.4-5,5.638,5.638,0,0,1,1.2-.4c.3,0,.7-.1.8.3.1.3-.2.6-.4.8a22.549,22.549,0,0,1-3.6,2.4,27.575,27.575,0,0,0-8.5,7.1A33.856,33.856,0,0,0,109.4,41.1Z"/>
    <path id="Tracé_1874" data-name="Tracé 1874" class="cls-15" d="M173.7,41.8c.7.3.7,1.1.9,1.6,1.3,3.2,2.6,6.5,3.9,9.7.6,1.5,1.1,3,1.8,4.4.3.7.2,1-.7,1.2-2.6.5-5.1,1.1-7.7,1.7a43.114,43.114,0,0,0-4.9,1.1c-.4.2-.8.1-.6-.6.1-.6,0-1.2.1-1.8-.6-1.1,0-2,.2-3,.4-1.1,1.2-2,.5-3.3a2.768,2.768,0,0,1,.1-.9c.6-1.1.2-2.3.3-3.5a3.4,3.4,0,0,1,.1-1c.6-1.3.3-2.6.4-3.9,0-.2.1-.4.1-.6.4-.3.1-1.1.7-1.3C170.6,41.5,172.2,41.2,173.7,41.8Z"/>
    <path id="Tracé_1875" data-name="Tracé 1875" class="cls-15" d="M100.6,26H97.8a17.872,17.872,0,0,1,2.5-3.8c2.8-4.1,5.7-8.1,8.5-12.2.7-1,1-.7,1.6,0,2.8,3.4,5.6,6.7,8.6,9.9.3.3.8.7.4,1.3a.969.969,0,0,1-.8.7,62.4,62.4,0,0,1-11.9,3.5,4.624,4.624,0,0,0-2.6.4C102.8,26,101.8,26.6,100.6,26Z"/>
    <path id="Tracé_1876" data-name="Tracé 1876" class="cls-18" d="M122.6,59.6c2.1-5.9,4.1-11.8,6.2-17.7.2-.6.1-1.3.7-1.7,1.6.1,3.2-.2,4.6.7,1.3,3,2.6,6.1,3.8,9.1a7.471,7.471,0,0,0-1.4,1.2L126.7,61c-1.6,1.6-1.6,1.6-3.2,0C123.3,60.5,122.8,60.1,122.6,59.6Z"/>
    <path id="Tracé_1877" data-name="Tracé 1877" class="cls-2" d="M183.3,41.1c-.2-.7,0-1,.9-1,2,.1,4.1,0,6.1,0,.9,0,1.3.3,1.2,1.2v74.1c0,2.5,0,2.5,2.5,2.5,1.3,0,2.6,0,4-.1.1.1.1.1.1.2s0,.1-.1.1H144.9c.5-.4,1-.2,1.5-.2h42c1.2,0,1.5-.3,1.5-1.5V43.1c0-1.1-.3-1.6-1.4-1.5-1.5.1-3,0-4.6,0C183.7,41.6,183.5,41.3,183.3,41.1Z"/>
    <path id="Tracé_1878" data-name="Tracé 1878" class="cls-18" d="M109.5,82.4a6.529,6.529,0,0,1,1.6-1.3c.4-.1.7.2,1,.4a6.057,6.057,0,0,0,7.8-.4c.3-.3.5-.8,1.1-.5l14.4,10.8c-.7,1-1.9,1.4-2.9,2-3.3,2-3.3,2-6.6.2A80.193,80.193,0,0,1,111,83.4,7.837,7.837,0,0,1,109.5,82.4Z"/>
    <path id="Tracé_1879" data-name="Tracé 1879" class="cls-2" d="M198,118.1V41.7a8.429,8.429,0,0,0-8.8-8.7h-7.6c-.5,0-1,.1-1.4-.3-.1-.2-.2-.5-.3-.7.1-.6.5-.5.9-.5h9.7a10.224,10.224,0,0,1,2.9.7c1-.1,1.6.6,2.4,1.1a7.41,7.41,0,0,1,1.3,1.2,7.487,7.487,0,0,1,1.3,1.8,6.721,6.721,0,0,1,.6,1.2,9.366,9.366,0,0,1,.7,3.7v6a2.223,2.223,0,0,1-.3,1.6v69.3Z"/>
    <path id="Tracé_1880" data-name="Tracé 1880" class="cls-20" d="M161,31c.4-1,.8-2.1,1.2-3.1a29.462,29.462,0,0,1,4.2-.1,1.061,1.061,0,0,1,1.2,1.2,28.05,28.05,0,0,1,0,2.9c-.3,3.5-.2,7.1-.5,10.6A141.7,141.7,0,0,1,165,59.7a3.42,3.42,0,0,0,.1,2,31.166,31.166,0,0,1-4.4.9,1.81,1.81,0,0,1-.1-1.6,115.513,115.513,0,0,0,2.2-21.2c.1-2.2.2-4.4.2-6.6,0-1.7,0-1.7-1.6-2A.4.4,0,0,1,161,31Z"/>
    <path id="Tracé_1881" data-name="Tracé 1881" class="cls-15" d="M138.3,52.4c.2,0,.6-.2.6,0,.5,1.2,1.3,2.3,1.4,3.6a2.544,2.544,0,0,1-.2.7c.2.4-.1.7-.4.9-4.2,4-8.3,8.2-12.5,12.3a2.075,2.075,0,0,1-1,.6,7.388,7.388,0,0,1-2.1,0c-.2,0-.3-.1-.5-.2-.5-.5-.8-1.1-1.5-1.3-.7-.6-1.7-1-1.8-2.2,0-.3-.3-.6-.1-1,.4-1.1.8-2.2,1.2-3.2.1-.4.2-.9.8-1,.6-.2.8.3,1.1.5.6.5,1.1,1.2,1.7,1.6.8.5,1.4.1,2-.5l9.9-9.9C137.4,52.9,137.7,52.5,138.3,52.4Z"/>
    <path id="Tracé_1882" data-name="Tracé 1882" class="cls-20" d="M136.6,92.4c1.1.8,2.2,1.6,3.3,2.5a76.676,76.676,0,0,1-7.9,4.5l-8.7-1.2c-.4-.6-1.3-.6-1.7-1.3-.6-.8-1.5-1-2.2-1.6-.5-.3-1-.7-1.5-1-.8-.5-1.6-1.1-2.4-1.7-1.3-.9-2.5-1.9-3.8-2.9a11.12,11.12,0,0,1-2.7-2.6c-.1-.1-.2-.2-.2-.3-.6-.7-1.9-1.1-1.7-2,.1-.7,1.2-1.3,1.9-1.9a91.564,91.564,0,0,0,19.1,12.9,1.848,1.848,0,0,0,1.9,0c1.8-1,3.6-1.9,5.3-3A4.95,4.95,0,0,1,136.6,92.4Z"/>
    <path id="Tracé_1883" data-name="Tracé 1883" class="cls-21" d="M109.4,41.1c-.5-.4,0-.7.2-1a20.235,20.235,0,0,1,6.9-7.9c2.2-1.5,4.5-2.9,6.7-4.4.2-.1,1.2-.3.3-.9a.523.523,0,0,1,.8-.4,29.788,29.788,0,0,1,2.9,3.3.972.972,0,0,1,.1.9,10.441,10.441,0,0,0-1.2,3.9.55.55,0,0,1-.3.5c-3.7,1.4-7.4,2.8-11.2,4.1C112.9,39.9,111.2,40.5,109.4,41.1Z"/>
    <path id="Tracé_1884" data-name="Tracé 1884" class="cls-15" d="M119,97.1c-.5.9-1.3.5-1.9.4-4.3-.6-8.5-1.2-12.8-1.8-2.5-.4-5.1-.7-7.7-1,.8-.9,1.5-1.8,2.3-2.6,1.7-1.6,3.5-3.2,5.2-4.7.3-.3.5-.6,1-.6,1.4.3,2.2,1.5,3.3,2.3a92.011,92.011,0,0,0,9.5,6.9C118.3,96.2,118.9,96.4,119,97.1Z"/>
    <path id="Tracé_1885" data-name="Tracé 1885" class="cls-21" d="M139.9,69.2c-4.2,1.3-8.5,2.6-12.7,3.8-1.8.5-3.5,1-5.3,1.5-.5.1-.6-.3-.8-.5a10.037,10.037,0,0,0-1.9-2.2.955.955,0,0,1-.4-1.3c.3-1,.6-1.9,1-2.9a12.244,12.244,0,0,0,3,3.4c1.7,1.5,3.8,1.3,5.6-.5,3.6-3.5,7.1-7.1,10.6-10.6a25.033,25.033,0,0,0,2.2-2.4c.5,1.2,1,2.4,1.4,3.6.3.5-.1.7-.4,1a6.273,6.273,0,0,0-2.2,6.3A1.229,1.229,0,0,1,139.9,69.2Z"/>
    <path id="Tracé_1886" data-name="Tracé 1886" class="cls-22" d="M121.4,23.1a10.038,10.038,0,0,1,1.9,2.2,1.991,1.991,0,0,1-1.2.8,63.608,63.608,0,0,1-20.6,5.1c-1.8.1-3.6.2-5.4.2-.9,0-1.3.3-1.4,1.3-.1,3.9.2,7.8.3,11.7a8.469,8.469,0,0,0,.4,1.7c-2.1,1-2.1.9-2.2-1.2a3.21,3.21,0,0,0-.2-1.7,1.623,1.623,0,0,1-.5-.9.7.7,0,0,1,.4-.9c-.1-2.2-.1-4.5-.2-6.7a4.274,4.274,0,0,1,1.1-3.4c.7-.8,1-1.9,2.1-2.4a2.223,2.223,0,0,1,1.6-.3c1.3,0,2.7-.2,4-.3a2.2,2.2,0,0,1,.8-.1,7.717,7.717,0,0,0,2.6-.3c.1,0,.2-.1.4-.1a64.917,64.917,0,0,0,14.3-4.1C120.2,23.3,120.7,22.9,121.4,23.1Z"/>
    <path id="Tracé_1887" data-name="Tracé 1887" class="cls-22" d="M150.2,87.9c-.4-1.6-.6-3.2-.9-4.9a5.088,5.088,0,0,1,1.3-1.6c4.9-4.2,7.4-9.7,9-15.8a3.582,3.582,0,0,1,.4-1.1c1.4-.3,2.7-.6,4.1-.9-1.4,5.8-3.1,11.6-6.9,16.4a29.127,29.127,0,0,1-4.5,4.8A6.916,6.916,0,0,0,150.2,87.9Z"/>
    <path id="Tracé_1888" data-name="Tracé 1888" class="cls-21" d="M149,81.9l-.6-3.6c-.3-1.7-.6-3.4-.8-5-.1-.6.4-.7.8-.9a6.16,6.16,0,0,0,3.6-4.9c.1-.4.1-.9.5-1.2a60.124,60.124,0,0,1,6.1-1.4,1.183,1.183,0,0,1,.1,1c-1.3,4.3-2.9,8.5-5.8,12.1A47.8,47.8,0,0,0,149,81.9Z"/>
    <path id="Tracé_1889" data-name="Tracé 1889" class="cls-20" d="M147.2,25.5c-1.9.9-3.7,1.8-5.6,2.6-1-.2-2-.6-3-.9a54.822,54.822,0,0,1-8.5-4,1.951,1.951,0,0,0-2.3,0,10.493,10.493,0,0,1-2.8,1.4c-.5-.6-1.1-1.2-1.6-1.8-.2-.2-.1-.4,0-.6.3-.5.8-.6,1.2-.9a49.05,49.05,0,0,0,5-2.8c.4,0,.7.3,1.1.4a82.572,82.572,0,0,0,14.4,6C145.8,25.1,146.6,25,147.2,25.5Z"/>
    <path id="Tracé_1890" data-name="Tracé 1890" class="cls-17" d="M77.3,40.2a42.99,42.99,0,0,1,2.9-7.5,72.973,72.973,0,0,1,8.1-.1c.9,0,1.1.7,1.1,1.4,0,.3.1.5.4.5-1.4,1.9-2.7,3.9-4.1,5.8a60.918,60.918,0,0,1-7.4.1A1.163,1.163,0,0,1,77.3,40.2Z"/>
    <path id="Tracé_1891" data-name="Tracé 1891" class="cls-15" d="M91.7,60.7c-.2.1.2.9-.4.5-4-2.4-8-4.8-12.1-7.3,3.2-1.2,6.4-2.2,9.4-3.5.9-.4,1.2-.1,1.6.5a1.738,1.738,0,0,1,.6,1.1c.3,2.5.7,5,1.1,7.5A1.228,1.228,0,0,1,91.7,60.7Z"/>
    <path id="Tracé_1892" data-name="Tracé 1892" class="cls-15" d="M181.6,41.8c1,.9.8,2.1,1,3.2a44.337,44.337,0,0,1,1.2,8.8,6.671,6.671,0,0,1-2.1,2.3c-.4,0-.4-.4-.6-.7L179,50.3c-1.1-2.7-2.1-5.3-3.2-8-.1-.2-.1-.4.1-.5A9.25,9.25,0,0,1,181.6,41.8Z"/>
    <path id="Tracé_1893" data-name="Tracé 1893" class="cls-15" d="M171.8,31.2c-.8-.4-.8-1.2-1-1.8-1.1-2.7-2.2-5.4-3.3-8.2-.3-.7-.2-1.1.7-1h.1c1.7-1,2.4.4,3.2,1.3a50.115,50.115,0,0,1,6,9.2c-.7.5-1.4.2-2.1.2C174.3,31.1,173,30.8,171.8,31.2Z"/>
    <path id="Tracé_1894" data-name="Tracé 1894" class="cls-15" d="M84.5,41.8c-.5,1.4-1.6,2.4-2.4,3.6-1.3,1.9-2.6,3.7-3.9,5.6-.3.4-.6.8-1,.1a.918.918,0,0,0-.6-.4c-1.5-.7-1.4-1.9-1-3.2.4-1.5.6-3.1,1-4.6.1-.5.2-1,.8-1.1a1.209,1.209,0,0,1,1-.3h5.2A1.209,1.209,0,0,1,84.5,41.8Z"/>
    <path id="Tracé_1895" data-name="Tracé 1895" class="cls-16" d="M178.6,32.4c.7.3.4,1.1.6,1.6.9,2.1,1.7,4.2,2.5,6.4a23.808,23.808,0,0,1-3.8.1,24.369,24.369,0,0,0-2.7.1c-.8-2.1-1.7-4.2-2.5-6.4-.3-.7-1.1-1.1-.9-2A19.441,19.441,0,0,0,178.6,32.4Z"/>
    <path id="Tracé_1896" data-name="Tracé 1896" class="cls-15" d="M89.7,48.1c-.1.7-.8.5-1.2.7-2.7,1.1-5.5,2.1-8.3,3.1h-.6c1.1-1.7,2.2-3.2,3.3-4.8C84,45.6,85,44,86.1,42.5a1.387,1.387,0,0,1,.8-.7,1.92,1.92,0,0,1,1.8-.1c.7,1,.7,2.2,1.2,3.3a1.72,1.72,0,0,1-.1,1.4.367.367,0,0,1-.1.3A1.2,1.2,0,0,0,89.7,48.1Z"/>
    <path id="Tracé_1897" data-name="Tracé 1897" class="cls-20" d="M160.4,27.9a22.565,22.565,0,0,1-1.3,3.3c-2.1.3-4.1-.2-6.2-.4a48.176,48.176,0,0,1-7.4-1.4,2.1,2.1,0,0,1-1.4-.7,45.525,45.525,0,0,1,5.5-2.6c2.9.4,5.7,1,8.6,1.3C159,27.5,159.8,27.3,160.4,27.9Z"/>
    <path id="Tracé_1898" data-name="Tracé 1898" class="cls-15" d="M148.5,90.3c.6,0,.5.6.6.9.5,2.8,1.1,5.7,1.6,8.5.1.3.2.8-.2,1s-.6-.3-.8-.5c-2.1-1.5-4.1-3.1-6.2-4.6-.4-.3-.7-.5-.7-1a.764.764,0,0,1,.2-.5c1.6-1.2,3.2-2.5,4.9-3.6C148.1,90.3,148.3,90.2,148.5,90.3Z"/>
    <path id="Tracé_1899" data-name="Tracé 1899" class="cls-23" d="M120.5,59.6a7.151,7.151,0,0,1-1.9,5.2c-.3.2-.5,0-.7-.2-1.5-1.5-3.1-3-4.5-4.6a.864.864,0,0,1-.3-.6c-.2-2.4.7-3.5,3.2-3.9,1.9.6,3,2.3,4.3,3.7C120.6,59.4,120.5,59.5,120.5,59.6Z"/>
    <path id="Tracé_1900" data-name="Tracé 1900" class="cls-24" d="M100.5,68.5,108,73a46.009,46.009,0,0,0,1.4,7.4c-.4.3-.5.8-1,.9a20.886,20.886,0,0,0-2-2.2,24.557,24.557,0,0,1-5.9-9.8A.762.762,0,0,1,100.5,68.5Z"/>
    <path id="Tracé_1901" data-name="Tracé 1901" class="cls-23" d="M142,54.8c-1.2-1.2-1.5-2.7-1.9-4.3a18.011,18.011,0,0,1,4.3-4.4,3.018,3.018,0,0,1,3.4.1,1.891,1.891,0,0,1,.3,2.6,6.479,6.479,0,0,1-1.7,2l-3.3,3.3C142.9,54.5,142.6,55,142,54.8Z"/>
    <path id="Tracé_1902" data-name="Tracé 1902" class="cls-22" d="M107.7,81.9c-.3.3-.7.5-.9.9-.7.9-1.4,1.1-2.2.1-1.8-1.1-2.8-2.9-3.8-4.6a43.065,43.065,0,0,1-4.1-9.9c-.1-.5-.3-1-.4-1.5,0-.2,0-.4.2-.5a10.775,10.775,0,0,1,2.6,1.4,14.645,14.645,0,0,0,1.6,5A27.1,27.1,0,0,0,107.7,81.9Z"/>
    <path id="Tracé_1903" data-name="Tracé 1903" class="cls-15" d="M140.6,96c.3.1.6-.2.9,0,2.4,1.8,4.8,3.6,7.2,5.6-1.4,0-2.7-.3-4.1-.4-2.7-.3-5.4-.8-8.1-1.1-.6-.1-1.3.1-1.6-.7C135.4,98.7,139.6,96.1,140.6,96Z"/>
    <path id="Tracé_1904" data-name="Tracé 1904" class="cls-22" d="M141.3,93.9c-1-.8-2.1-1.6-3.1-2.4.1-.3.4-.5.6-.7a100.955,100.955,0,0,0,8.4-6.2.864.864,0,0,1,.6-.3c.2,1.4.5,2.7.7,4.1a54.305,54.305,0,0,1-5.3,4.2C142.6,93,142,93.5,141.3,93.9Z"/>
    <path id="Tracé_1905" data-name="Tracé 1905" class="cls-15" d="M152.9,24.5a31.743,31.743,0,0,0,4.2-1.9c1.9-.8,3.7-1.8,5.6-2.7.2-.1.5-.4.8-.2.4.3,0,.6-.1.8-.6,1.4-1.1,2.9-1.7,4.3-.3.7-.7,1.1-1.5,1a24.319,24.319,0,0,0-2.7,0,2.891,2.891,0,0,1-3.3-.5c-.3-.5-.9-.5-1.4-.5C152.5,24.7,152.7,24.7,152.9,24.5Z"/>
    <path id="Tracé_1906" data-name="Tracé 1906" class="cls-25" d="M68.6,118.1a10.2,10.2,0,0,0-.4-3.5c-.3-.6.5-1.2.5-1.9V56a4.012,4.012,0,0,0-.3-1.5,2.818,2.818,0,0,1,.1-1.8,9.253,9.253,0,0,0,.2-2.9V42.5c0-.9.2-1.2,1.1-1.2,1.4.1,2.9,0,4.3,0a1.379,1.379,0,0,0,1.3-.5v.5c-.4.5-1,.2-1.4.3-1.4.1-2.9-.2-4.3.2-.9,0-.7.6-.7,1.1v73.5c0,1.6,0,1.6,1.6,1.6h40.6c.5,0,1-.2,1.5.2-.3,0-.6.1-1,.1H69.8A5.987,5.987,0,0,0,68.6,118.1Z"/>
    <path id="Tracé_1907" data-name="Tracé 1907" class="cls-18" d="M128.6,28.8c-1-1.1-1.9-2.2-2.9-3.3a23.409,23.409,0,0,1,2.7-1.5,1.515,1.515,0,0,1,1.3.1A55.845,55.845,0,0,0,140,28.7c.1,0,.1.1.2.2-.8.6-1.8.7-2.6,1.2-.5.2-.8-.1-1.2-.3a6.118,6.118,0,0,0-6.7-.9C129.3,28.9,129,29.1,128.6,28.8Z"/>
    <path id="Tracé_1908" data-name="Tracé 1908" class="cls-26" d="M104.9,84.1c-5.8-4.9-8.6-11.5-10.3-18.7.1-.3.1-.6.5-.2a17.412,17.412,0,0,1,1.4,1.2v.4a8.33,8.33,0,0,0,.4,1.5,58.789,58.789,0,0,0,3.1,7.9,31.292,31.292,0,0,0,4.6,6.8c0,.5.4.6.6,1C105.4,84.3,105,84.1,104.9,84.1Z"/>
    <path id="Tracé_1909" data-name="Tracé 1909" class="cls-27" d="M95.3,48a61.145,61.145,0,0,0,1.3,11.3c.3,1.9.7,3.8,1.1,5.7-1-.6-2-1.1-2.1-2.4-.4-.3-.4-.8-.5-1.3-.6-2.7-.9-5.5-1.3-8.2,0-1.2-.3-2.4-.3-3.6a1.2,1.2,0,0,1,.2-.8A3.9,3.9,0,0,1,95.3,48Z"/>
    <path id="Tracé_1910" data-name="Tracé 1910" class="cls-28" d="M168.5,39.9c.1-2.2.2-4.4.2-6.7.3-.7,1.1-.5,1.7-.8.9,2.3,1.8,4.6,2.6,7,.2.5,1.1.7.7,1.5a9.379,9.379,0,0,0-3.7-.4C169.5,40.5,168.8,40.5,168.5,39.9Z"/>
    <path id="Tracé_1911" data-name="Tracé 1911" class="cls-29" d="M94,53.1l1.5,9.6c-.1.3.1.9-.3.9a1.273,1.273,0,0,1-1.1-.9c-.2-.4-.2-.8-.5-1.1-.3-.1-.4-.4-.5-.6a29.656,29.656,0,0,1-.8-5.2,1.505,1.505,0,0,0,0-1.7,1.839,1.839,0,0,1-.2-1.6,4.136,4.136,0,0,0,0-2.9c.2-.7.9-.6,1.4-.7v.7C93.1,50.8,93.6,51.9,94,53.1Z"/>
    <path id="Tracé_1912" data-name="Tracé 1912" class="cls-30" d="M105.6,27a83.988,83.988,0,0,0,14.8-4.4c.4.1.9-.2,1,.5a57.736,57.736,0,0,1-16.3,4.8c-.2-.1-.2-.3-.2-.5C105,27.1,105.3,27.1,105.6,27Z"/>
    <path id="Tracé_1913" data-name="Tracé 1913" class="cls-31" d="M167.5,26.5a24.1,24.1,0,0,1-3.8,0c-.2-.3-.8-.2-.5-.9.8-1.7,1.4-3.5,2.2-5.5.8,2,1.5,3.7,2.1,5.5A.907.907,0,0,1,167.5,26.5Z"/>
    <path id="Tracé_1914" data-name="Tracé 1914" class="cls-32" d="M125,63.9a2.024,2.024,0,0,0,1.4-.8l12-12c.4.5,0,.8-.2,1.2-3.8,3.8-7.6,7.7-11.4,11.5C126.2,64.6,125.6,64.1,125,63.9Z"/>
    <path id="Tracé_1915" data-name="Tracé 1915" class="cls-15" d="M108.7,2.7a2.353,2.353,0,0,1,2.2,2.1,2.151,2.151,0,1,1-4.3,0A2.182,2.182,0,0,1,108.7,2.7Z"/>
    <path id="Tracé_1916" data-name="Tracé 1916" class="cls-15" d="M151.2,105.7a2.159,2.159,0,0,1,2.3-2.1,2.44,2.44,0,0,1,2.1,2.2,2.353,2.353,0,0,1-2.2,2.1A2.447,2.447,0,0,1,151.2,105.7Z"/>
    <path id="Tracé_1917" data-name="Tracé 1917" class="cls-15" d="M186.9,58.2a2.308,2.308,0,0,1-2.2,2.3,2.337,2.337,0,0,1-2.1-2,2.225,2.225,0,0,1,2.1-2.3A2.267,2.267,0,0,1,186.9,58.2Z"/>
    <path id="Tracé_1918" data-name="Tracé 1918" class="cls-15" d="M76.5,53.4a2.11,2.11,0,1,1-4.2.3,2.274,2.274,0,0,1,2.1-2.2A2.077,2.077,0,0,1,76.5,53.4Z"/>
    <path id="Tracé_1919" data-name="Tracé 1919" class="cls-15" d="M94.6,97.1a2.05,2.05,0,0,1-2.2,2,2.159,2.159,0,0,1-2.1-2.3,2.276,2.276,0,0,1,2.3-2A2.459,2.459,0,0,1,94.6,97.1Z"/>
    <path id="Tracé_1920" data-name="Tracé 1920" class="cls-15" d="M167.9,18.5a1.944,1.944,0,0,1-2.1-2.1c0-1.3.8-2,2.2-2a2.049,2.049,0,0,1,2.1,2.1A2,2,0,0,1,167.9,18.5Z"/>
    <path id="Tracé_1921" data-name="Tracé 1921" class="cls-2" d="M89.3,26.8c0,2.6,0,5.2-.1,7.8-.4-1.6-.4-1.6-2.3-1.6H81.3c-.4,0-.8.1-1.1-.3.2-1,.8-1.3,1.8-1.2,2,.1,4.1,0,6.1,0,.7,0,1-.2,1-1-.1-1.2,0-2.4,0-3.6A.349.349,0,0,1,89.3,26.8Z"/>
    <path id="Tracé_1922" data-name="Tracé 1922" class="cls-33" d="M121,80.7a16.458,16.458,0,0,1-3.1,2,6.362,6.362,0,0,1-6.8-1.5,3.178,3.178,0,0,1,1-1c.4-.1.6.1.9.3,2.2,1.3,3.9,1.2,6-.4.2-.1.4-.3.6-.3A2.43,2.43,0,0,1,121,80.7Z"/>
    <path id="Tracé_1923" data-name="Tracé 1923" class="cls-2" d="M84.5,41.8H77.3c-.8-.5,0-1.1,0-1.6h7.6a1.077,1.077,0,0,1,.8.2C85.2,40.8,85,41.4,84.5,41.8Z"/>
    <path id="Tracé_1924" data-name="Tracé 1924" class="cls-33" d="M128.6,28.8a17.015,17.015,0,0,1,3.2-1,6.7,6.7,0,0,1,4.9,1.7,1.234,1.234,0,0,0,.8.4,3.25,3.25,0,0,1-1.7.7,1.209,1.209,0,0,1-1-.3,4.643,4.643,0,0,0-4.1-.6,1.4,1.4,0,0,1-1.1,0A1.707,1.707,0,0,1,128.6,28.8Z"/>
    <path id="Tracé_1925" data-name="Tracé 1925" class="cls-34" d="M138.2,31.7c.1,1.3.7,2.5.3,3.9a6.215,6.215,0,0,1-2.2,3.5,2.7,2.7,0,0,0-.7.8,1.905,1.905,0,0,1-.5-1c-.3-.5,0-.9.3-1.3a5.172,5.172,0,0,0,1.4-4.6,1.02,1.02,0,0,1,.2-.9C137.4,32,137.7,31.6,138.2,31.7Z"/>
    <path id="Tracé_1926" data-name="Tracé 1926" class="cls-33" d="M152.4,66.3c-.2,2.9-1.3,5.3-4.2,6.4a1.024,1.024,0,0,0-.6.5c-.4-.3-.2-.8-.2-1.2a.9.9,0,0,1-.1-.5,3.449,3.449,0,0,1,1.2-.9,3.907,3.907,0,0,0,1.9-2.9,1.35,1.35,0,0,1,.8-1.2C151.5,66.2,152,66.3,152.4,66.3Z"/>
    <path id="Tracé_1927" data-name="Tracé 1927" class="cls-33" d="M139.9,69.2a6.518,6.518,0,0,1,1.6-7.1c.3-.4.9-.5,1-1.1a2.567,2.567,0,0,1,.5,1.2c.3.5,0,.8-.3,1.1a4.381,4.381,0,0,0-1.4,4.3c.2,1-.5,1.2-1.2,1.5C140.1,69.2,140,69.2,139.9,69.2Z"/>
    <path id="Tracé_1928" data-name="Tracé 1928" class="cls-35" d="M91.6,47.5v-.1a.188.188,0,0,1,0-.3,4.676,4.676,0,0,0-.1-3.3,6.478,6.478,0,0,1-.2-2,21.476,21.476,0,0,0-.1-6.2c-.1-1,1-1.4,1.2-2.3a6.344,6.344,0,0,1,.3,2.3,7.206,7.206,0,0,0,.2,4.8c0,.3-.1.7.2,1-.1.3-.3.6-.2.9-.1,1.6,0,3.2-.1,4.8A1.594,1.594,0,0,1,91.6,47.5Z"/>
    <path id="Tracé_1929" data-name="Tracé 1929" class="cls-2" d="M175.2,40.6c0-.3.1-.5.4-.5a54.213,54.213,0,0,1,5.7.1c.1,0,.2.1.3.2-.1.5.5.9,0,1.4h-5.7C175.7,41.4,175.4,41,175.2,40.6Z"/>
    <path id="Tracé_1930" data-name="Tracé 1930" class="cls-2" d="M178.6,32.4c-.1.7-.6.5-1,.5h-4.3a1.562,1.562,0,0,1-1.5-.8c-.1-.4-.2-.8.5-.8h5.1C178.2,31.4,178.3,32,178.6,32.4Z"/>
    <path id="Tracé_1931" data-name="Tracé 1931" class="cls-2" d="M168.5,39.9c1.2.5,2.5.2,3.7.2a1.545,1.545,0,0,1,1.6.8c0,.3.3.6,0,.9h-5c-.2.3.1.7-.2,1v.4c0,.1-.1.1-.2.1C168,42.1,168.6,41,168.5,39.9Z"/>
    <path id="Tracé_1932" data-name="Tracé 1932" class="cls-36" d="M119.5,79.7c-1.9,2.4-4.7,2.6-7.4.5a1.575,1.575,0,0,1,.7-.7c.4-.3.7.1,1.1.2a3.831,3.831,0,0,0,4.1-.4c.3-.3.7-.6,1.1-.1C119.3,79.3,119.5,79.4,119.5,79.7Z"/>
    <path id="Tracé_1933" data-name="Tracé 1933" class="cls-34" d="M110.4,72.5c.8-.2,1.2-1,1.9-1.3a7.018,7.018,0,0,1,3.5-.9,2,2,0,0,0,1.3-.2c-.2.5-.3,1-.5,1.4a1.05,1.05,0,0,1-.9.5,5.1,5.1,0,0,0-3.1,1.1,1.073,1.073,0,0,1-1.1.1C111.2,73,110.7,72.9,110.4,72.5Z"/>
    <path id="Tracé_1934" data-name="Tracé 1934" class="cls-37" d="M119,79.2a.846.846,0,0,0-.7,0c-2,1.5-3.2,1.6-5.2.3a.367.367,0,0,0-.3-.1c.6-.7,1-1.5,2.2-.8a1.357,1.357,0,0,0,1.6-.1C117.7,77.7,118.4,78.6,119,79.2Z"/>
    <path id="Tracé_1935" data-name="Tracé 1935" class="cls-38" d="M109.4,80.4c-.4,0-.5-.4-.6-.7-.5-2.1-.9-4.2-1.2-6.4,0-.3.1-.3.3-.4a7.1,7.1,0,0,1,1.4,1,.819.819,0,0,1,.4,1,7.724,7.724,0,0,0,.2,4,1.128,1.128,0,0,1-.1.8A1.012,1.012,0,0,1,109.4,80.4Z"/>
    <path id="Tracé_1936" data-name="Tracé 1936" class="cls-39" d="M139.4,49.5c.5.4.7-.1,1-.3,1.1-1.1,2.2-2.3,3.4-3.4a2.5,2.5,0,0,1,4.1.6c-1.8-.9-3.3-.4-4.6,1.1-.9,1.1-2,2-3,3C139.8,50.2,139.4,50,139.4,49.5Z"/>
    <path id="Tracé_1937" data-name="Tracé 1937" class="cls-40" d="M140.2,69.2c.8-.4,1-.9.8-1.9a4.316,4.316,0,0,1,1.5-4.1c.3-.3.6-.5.6-.9a1.346,1.346,0,0,1,.5,1.2c.3.4,0,.8-.2,1.1a3.622,3.622,0,0,0-.8,3.1.863.863,0,0,1-.6,1.1C141.2,68.7,140.8,69.3,140.2,69.2Z"/>
    <g id="Groupe_840" data-name="Groupe 840">
      <path id="Tracé_1938" data-name="Tracé 1938" class="cls-41" d="M95.6,46.2c-.8-.3-.7-1.1-.7-1.7-.1-4-.4-8-.3-12,0-1.1.3-1.5,1.5-1.5a61.729,61.729,0,0,0,21.3-3.4c2-.7,4-1.6,6-2.4a4,4,0,0,1,1,1.2c-.3.1-.5.3-.8.4a69.849,69.849,0,0,1-16.7,5,60.75,60.75,0,0,1-9.5.7c-1,0-1.3.3-1.3,1.3.2,4,.3,8.1.4,12.1Z"/>
      <path id="Tracé_1939" data-name="Tracé 1939" class="cls-41" d="M165.2,61.8c-.6,0-.8-.2-.7-.9a125.374,125.374,0,0,0,1.9-13.7c.4-4.5.7-9,.7-13.6,0-.8.2-1.6.2-2.4,0-3.1,0-3.1-3.1-3.2-.7,0-1.4.2-2-.2.2-.8.4-1.5,1.4-1.4a4.235,4.235,0,0,1,3.8,0,2.96,2.96,0,0,1,1.2,2.6,14.718,14.718,0,0,1,0,2.1,3.4,3.4,0,0,1,.3,2c.2,2.2-.2,4.4-.2,6.6a18.567,18.567,0,0,1-.5,3.4,18.884,18.884,0,0,1-.3,4.1,2.768,2.768,0,0,1-.1.9c-.3,1.2.1,2.5-.4,3.7a2.768,2.768,0,0,1-.1.9,7.169,7.169,0,0,1-.5,3.2,10.588,10.588,0,0,0-.5,3.1,12.859,12.859,0,0,0-.4,1.9C166,61.5,165.7,61.8,165.2,61.8Z"/>
      <path id="Tracé_1940" data-name="Tracé 1940" class="cls-41" d="M161,31c2.6,0,2.4-.3,2.4,2.4,0,4.6-.2,9.2-.5,13.8a90.119,90.119,0,0,1-2.1,14.6c-.1.3,0,.6-.1.8l-.9.3c-.5,0-.8-.1-.7-.8a81.163,81.163,0,0,0,1.7-11c.2-2.2.5-4.4.6-6.5.2-3.7.4-7.3.3-11,0-.6.1-1.2-.8-1.2-.5,0-.3-.4-.4-.7A1.794,1.794,0,0,0,161,31Z"/>
      <path id="Tracé_1941" data-name="Tracé 1941" class="cls-41" d="M136.6,92.4a62.339,62.339,0,0,1-7.1,4.1,1.073,1.073,0,0,1-1.1-.1,100.965,100.965,0,0,1-16.2-10.3c-.7-.6-1.4-1.1-2.1-1.7-.4-.4-1-.7-1.1-1.4a2.651,2.651,0,0,0,.5-.6c.6-.2.9.2,1.3.5a95.543,95.543,0,0,0,16.8,11.4,2.414,2.414,0,0,0,2.7,0c1.7-1,3.4-1.9,5.1-2.8Z"/>
      <path id="Tracé_1942" data-name="Tracé 1942" class="cls-41" d="M150.2,87.9c-.1-1.9,1.5-2.6,2.5-3.5a30.439,30.439,0,0,0,7.8-10.6,58.232,58.232,0,0,0,3-8.9,3.1,3.1,0,0,1,.6-1.3c.5,0,.9-.5,1.4,0a87.23,87.23,0,0,1-3.1,9.9c-2.1,5.4-5.8,9.6-10,13.4-.6.5-1.2,1.1-1.7,1.6C150.1,88.7,150.3,88.2,150.2,87.9Z"/>
      <path id="Tracé_1943" data-name="Tracé 1943" class="cls-41" d="M141.1,57.4c.1.6-.3.9-.6,1.2l-12,12a4.163,4.163,0,0,1-6.4,0l-1.8-1.8a1.47,1.47,0,0,1-.5-1.4c.3-.2,0-.9.7-.8.7.6,1.3,1.3,2,1.9a16.605,16.605,0,0,1,1.4,1.3c.1.1.2.1.3.2a3.934,3.934,0,0,0,2.4,0,36.433,36.433,0,0,0,4.5-4.3c3.1-3,6.1-6.1,9.2-9.2C141,56.2,140.8,57.1,141.1,57.4Z"/>
      <path id="Tracé_1944" data-name="Tracé 1944" class="cls-41" d="M147.2,25.5c-2.8-.2-5.3-1.4-7.9-2.3a77.682,77.682,0,0,1-8.8-4.1l-.9-.6c-2.1.5-3.7,1.9-5.7,2.7-.5.2-.9.7-1.5.4-.3-.5-.9-.7-1-1.4a49.959,49.959,0,0,0,6.1-3.1,2.248,2.248,0,0,1,2.7-.1,64.106,64.106,0,0,0,16.4,6.9,1.7,1.7,0,0,0,.7.1c.5.2.9.4,1.5.6A3.268,3.268,0,0,1,147.2,25.5Z"/>
      <path id="Tracé_1945" data-name="Tracé 1945" class="cls-41" d="M100.6,26a12.574,12.574,0,0,0,3.3-.5,12.816,12.816,0,0,1,2.7-.5,56.549,56.549,0,0,0,12.7-3.9c.8.1,1.6.3,1.1,1.4-.3.5-.9.6-1.4.8a69.471,69.471,0,0,1-13.3,3.8,16.958,16.958,0,0,0-2.2.4,2.2,2.2,0,0,1-.8.1c-1,.1-2.1.2-3.1.4a4.869,4.869,0,0,1-1.2.1H97.2c-.3,0-.8,0-.9-.4-.2-.4.2-.7.5-.9.5-.7,1.3-.6,2-.7A3.673,3.673,0,0,0,100.6,26Z"/>
      <path id="Tracé_1946" data-name="Tracé 1946" class="cls-41" d="M113.3,59.6l5.3,5.3c.5.7-.1,1.3-.3,1.9a66.469,66.469,0,0,1-6.5-6.5,3.851,3.851,0,0,1,.4-5.5,4.024,4.024,0,0,1,5.5-.2c1.1,1,2.1,2.1,3.2,3.1.7.7,0,1.3.1,1.9-.1.2-.3,0-.5,0a24.65,24.65,0,0,0-4.1-3.8,2.745,2.745,0,0,0-1.3-.2,2,2,0,0,0-2.2,2.2A3.922,3.922,0,0,0,113.3,59.6Z"/>
      <path id="Tracé_1947" data-name="Tracé 1947" class="cls-41" d="M142,54.8c1.8-1.8,3.6-3.5,5.4-5.4.8-.9,1.2-1.9.4-3-1.7-1.5-2.8-1.5-4.4.1-.9.9-1.8,1.9-2.8,2.8-.3.3-.7.9-1.1.2-.1-.2-.2-.5-.3-.7,0-.2,0-.5.1-.6,1.5-1.5,2.8-3.3,4.7-4.4a4.056,4.056,0,0,1,5,1.2,4.113,4.113,0,0,1-.2,5.4c-1.4,1.5-2.9,3-4.4,4.4a15.936,15.936,0,0,0-1.3,1.3.483.483,0,0,1-.7.1C142.2,55.7,141.7,55.3,142,54.8Z"/>
      <path id="Tracé_1948" data-name="Tracé 1948" class="cls-41" d="M92.7,65V63.9a3.022,3.022,0,0,1,1.9,1.4,1.984,1.984,0,0,1,.6,1.3c1.3,4.5,2.9,8.9,5.8,12.7.9,1.2,1.8,2.2,2.8,3.3.4.5,1,.8,1.2,1.5,0,.8-.5,1.1-1.2,1.2A32.152,32.152,0,0,1,96,74.4c-.6-1.5-1.2-3-1.8-4.4a3.36,3.36,0,0,1-.5-1.4h0A8.15,8.15,0,0,1,92.7,65Z"/>
      <path id="Tracé_1949" data-name="Tracé 1949" class="cls-41" d="M125,63.9l-2.7-2.4c-.5-.7.1-1.3.3-1.9a6.479,6.479,0,0,1,1.7,1.6c.6.7,1.1.8,1.8,0,3.5-3.6,7.1-7.2,10.7-10.7.3-.3.5-.9,1.1-.5,0,.5.4.7.5,1.2-.1.5-.5.8-.8,1.2L126.7,63.3A1.511,1.511,0,0,1,125,63.9Z"/>
      <path id="Tracé_1950" data-name="Tracé 1950" class="cls-41" d="M149,81.9a1.859,1.859,0,0,1,.9-1.5c4.7-4.2,7.1-9.6,8.6-15.5.5-.1,1.1-.2,1.6-.3a22.213,22.213,0,0,1-1.7,6.1c-1.7,5-5,9-9,12.4A5.637,5.637,0,0,1,149,81.9Z"/>
      <path id="Tracé_1951" data-name="Tracé 1951" class="cls-41" d="M119,97.1a116.968,116.968,0,0,1-13.9-10.4c.9-1.4,1-1.4,2.1-.4a14.961,14.961,0,0,0,1.3,1.1c1.2.5,2.1,1.6,3.2,2.3,1.2,1.1,2.5,1.9,3.8,2.9.8.6,1.6,1.1,2.4,1.7a9.5,9.5,0,0,0,1.7,1c.6.6,1.5.9,2.1,1.5.6.4,1.2.7,1.7,1.1.4.3.1.3-.1.4A9.262,9.262,0,0,1,119,97.1Z"/>
      <path id="Tracé_1952" data-name="Tracé 1952" class="cls-41" d="M96.2,47.6c.4,0,.5.3.5.7a98.391,98.391,0,0,0,2.8,17.1c.1.3.2.6-.2.7-.6-.3-1.1-.7-1.7-1a5.576,5.576,0,0,1-.7-1.6,115.469,115.469,0,0,1-2.1-12.9,2.891,2.891,0,0,1,.3-2.4A6.4,6.4,0,0,1,96.2,47.6Z"/>
      <path id="Tracé_1953" data-name="Tracé 1953" class="cls-41" d="M140.2,28.9c-1.8-.1-3.3-1-4.9-1.7a45.325,45.325,0,0,1-5.4-2.7,1.5,1.5,0,0,0-1.8.1,4.779,4.779,0,0,1-2.3,1c-.2-.3-.5-.6-.7-.9,1-1.1,2.5-1.4,3.7-2.2.2-.2.6-.1.9.1a60.82,60.82,0,0,0,11.6,5.3,1.756,1.756,0,0,1,.5.4A3.354,3.354,0,0,0,140.2,28.9Z"/>
      <path id="Tracé_1954" data-name="Tracé 1954" class="cls-41" d="M107.7,81.9c-1.1,0-1.6-1-2.2-1.7a27.1,27.1,0,0,1-6.6-11.5c-.1-.3-.7-.8.2-1,.5.3.9.5,1.4.8A27.168,27.168,0,0,0,108,80.4c.3.3.6.5.4,1C108.2,81.5,108,81.7,107.7,81.9Z"/>
      <path id="Tracé_1955" data-name="Tracé 1955" class="cls-41" d="M144.2,28.8a73.172,73.172,0,0,0,10.4,1.9,34.414,34.414,0,0,1,4.5.5c-.1.4-.3.8-.4,1.2A60.466,60.466,0,0,1,142.9,30a1,1,0,0,1-.5-.4C143,29.3,143.6,29.1,144.2,28.8Z"/>
      <path id="Tracé_1956" data-name="Tracé 1956" class="cls-41" d="M92.6,55.5a38.255,38.255,0,0,0,1,5.9v1a2.493,2.493,0,0,1-1.9-1.8c-.5-3.3-1-6.5-1.5-9.8v-.7c.1-.7.7-.7,1.1-.8.5-.1.4.5.5.8a4.671,4.671,0,0,0,.3,1.7c.2.1.2.3.2.5C92.2,53.5,92.8,54.5,92.6,55.5Z"/>
      <path id="Tracé_1957" data-name="Tracé 1957" class="cls-41" d="M147.8,84.3a27.122,27.122,0,0,1-4.1,3.5,40.69,40.69,0,0,1-5.5,3.7,10.476,10.476,0,0,1-1.1-.8,1.012,1.012,0,0,1,.4-.7,93.573,93.573,0,0,0,10.1-7.4C147.7,83.2,147.4,83.8,147.8,84.3Z"/>
      <path id="Tracé_1958" data-name="Tracé 1958" class="cls-41" d="M89.7,34.6c-.2,0-.3.4-.5.1a29.11,29.11,0,0,1,.1-7.8c1-.6,2-.2,3-.3.6-.1,1.2,0,1.8-.1.3.2,1-.2.9.4a1.469,1.469,0,0,1-1.2,1.3h-2c-.3,0-.7-.2-.9.2a.454.454,0,0,1,0,.5,13.334,13.334,0,0,0,0,2A5.027,5.027,0,0,1,89.7,34.6Z"/>
      <path id="Tracé_1959" data-name="Tracé 1959" class="cls-41" d="M89.8,46.3a3.75,3.75,0,0,0-.1-1.1,19.932,19.932,0,0,1-.5-3.4c0-1.4-.2-2.9.4-4.2.4-.5.6-1.2,1.3-1.6.3,1.7-.1,3.2.3,4.8.4.3.3.8.4,1.2-.1,1.8.3,3.6.3,5.3a.758.758,0,0,1-.2.4l-.6.3c-.7.4-1.1.2-1-.7A5.387,5.387,0,0,1,89.8,46.3Z"/>
      <path id="Tracé_1960" data-name="Tracé 1960" class="cls-41" d="M154.1,25.5a12.573,12.573,0,0,0,3.3.5,8.329,8.329,0,0,0,2.2.3c1.5.2,1.5.2.8,1.6a48.335,48.335,0,0,1-10-1.5c-.2-.1-.5-.1-.6-.3C151,25,152.6,25.4,154.1,25.5Z"/>
      <path id="Tracé_1961" data-name="Tracé 1961" class="cls-41" d="M141.3,93.9a.891.891,0,0,1,.5-.8,57.264,57.264,0,0,0,6.3-4.7.6.6,0,0,1,.4-.1,2.118,2.118,0,0,1,0,1.9c-1.9,1.4-3.8,2.8-5.8,4.3C142.1,94.8,141.8,94.2,141.3,93.9Z"/>
      <path id="Tracé_1962" data-name="Tracé 1962" class="cls-41" d="M140.6,96c-1.9,1.1-3.8,2.3-5.7,3.4a4.785,4.785,0,0,1-2.9,0c1.4-1.3,3.3-2,4.9-3,.9-.6,1.8-1.5,3-1.5C140.2,95.2,141.1,95.2,140.6,96Z"/>
      <path id="Tracé_1963" data-name="Tracé 1963" class="cls-41" d="M131.5,101.3c-1.9,1.6-3.7,1-5.5-.3a6.109,6.109,0,0,0-1.4-.7.527.527,0,0,1,.7-.2c1.9.2,3.8.5,5.7.8C131.3,100.9,131.5,101,131.5,101.3Z"/>
    </g>
    <path id="Tracé_1964" data-name="Tracé 1964" class="cls-42" d="M137,32.2a12.745,12.745,0,0,1,.2,2.8,6.384,6.384,0,0,1-1.6,2.9,1.389,1.389,0,0,0-.5,1,9.292,9.292,0,0,1-.5-1,1.048,1.048,0,0,1,.1-1.2,5,5,0,0,0,1-3.7c0-.1.1-.2.1-.3C136.2,32.5,136.6,32.4,137,32.2Z"/>
    <path id="Tracé_1965" data-name="Tracé 1965" class="cls-43" d="M141.8,68.7c.2-.3.6-.4.4-.8-.6-1.6.2-2.9,1.1-4a.6.6,0,0,0,.1-.4c.6.8,1.1,1.7.4,2.7a1.421,1.421,0,0,0-.2.6C144.3,68.6,142.9,68.4,141.8,68.7Z"/>
    <path id="Tracé_1966" data-name="Tracé 1966" class="cls-44" d="M122.4,21.6c1.9-1,3.9-2,5.8-3,.5-.3.9-.5,1.4-.1a.755.755,0,0,1-.4.7,63.612,63.612,0,0,1-5.8,3C123,22.1,122.4,22.3,122.4,21.6Z"/>
    <path id="Tracé_1967" data-name="Tracé 1967" class="cls-45" d="M145.9,73.5c-.7-.7-1.8-.4-2.6-.9-.4-.2-1-.4-1.2-.7a2.328,2.328,0,0,0-2.7-.8c.7-.6,1.6-.4,2.4-.7a6.05,6.05,0,0,1,3.8,1.7A2.232,2.232,0,0,1,145.9,73.5Z"/>
    <path id="Tracé_1968" data-name="Tracé 1968" class="cls-33" d="M125.8,35.1a7.5,7.5,0,0,1,1.2-4.4,1.613,1.613,0,0,0,.3-.9c.5.1.7.6.9,1a1.02,1.02,0,0,1,.2.9c-.5.9-.5,2.1-1.1,2.9A13.082,13.082,0,0,0,125.8,35.1Z"/>
    <path id="Tracé_1969" data-name="Tracé 1969" class="cls-33" d="M109.9,79.8a8.44,8.44,0,0,1-.3-5.2,1.056,1.056,0,0,0-.2-.5c.4,0,.6.4,1,.5a1.189,1.189,0,0,1,.7,1.5c-.3,1,.4,1.9,0,2.8A3.778,3.778,0,0,1,109.9,79.8Z"/>
    <path id="Tracé_1970" data-name="Tracé 1970" class="cls-36" d="M129.6,29.8c.7.1,1.2-.4,1.9-.5a5.57,5.57,0,0,1,4.3,1.5,1.905,1.905,0,0,1-1,.5c-.3.2-.5.1-.8,0a4.78,4.78,0,0,0-2.9-.3,1.486,1.486,0,0,1-.9-.2A5.3,5.3,0,0,0,129.6,29.8Z"/>
    <path id="Tracé_1971" data-name="Tracé 1971" class="cls-43" d="M135.8,32.7a4.084,4.084,0,0,1-.9,4.2,1.431,1.431,0,0,0-.3,1.1c-1.2-1.4-.3-3-.2-4.5C134.5,33.1,135.3,32.8,135.8,32.7Z"/>
    <path id="Tracé_1972" data-name="Tracé 1972" class="cls-37" d="M147.4,71.6v.5a3.926,3.926,0,0,1,.6-4.7,2.21,2.21,0,0,1,1.8-.6c.5,1.4-.4,2.3-1.3,3.1A3.157,3.157,0,0,0,147.4,71.6Z"/>
    <path id="Tracé_1973" data-name="Tracé 1973" class="cls-36" d="M147.4,71.6a1.47,1.47,0,0,1,.8-1.7,3.7,3.7,0,0,0,1.6-3.1c.5-.1,1-.2,1.4-.3-.5.5-.4,1.2-.6,1.9A5.092,5.092,0,0,1,147.4,71.6Z"/>
    <path id="Tracé_1974" data-name="Tracé 1974" class="cls-33" d="M149.3,60.3a1.216,1.216,0,0,0,.6,1.5,5.779,5.779,0,0,1,2.1,2.9c-.3.3-.6.2-1,.2a.9.9,0,0,1-.5.1c-.7-.5-1.1-1.4-1.8-2-.3-.2-.3-.6-.1-1C148.9,61.5,148.7,60.7,149.3,60.3Z"/>
    <path id="Tracé_1975" data-name="Tracé 1975" class="cls-46" d="M90.8,28.9v-.5h2.7c.2,0,.4,0,.4.3,0,.1-.2.2-.4.2a.483.483,0,0,1-.7,0c-.3,1-.3,2.1-1.2,2.9-.2.2-.2.5-.5.4-.2-.2-.1-.5-.1-.8C90.8,30.6,91.2,29.7,90.8,28.9Z"/>
    <path id="Tracé_1976" data-name="Tracé 1976" class="cls-33" d="M118.8,70.4a1.077,1.077,0,0,0,.2.8c1.3.8,2,2.2,2.9,3.3a3.36,3.36,0,0,1-1.4.5.188.188,0,0,1-.3,0c-.6-.7-1-1.4-1.6-2s-.2-1.2,0-1.8C118.6,70.8,118.5,70.5,118.8,70.4Z"/>
    <path id="Tracé_1977" data-name="Tracé 1977" class="cls-45" d="M134.1,40.9c-.9-.5-1.9-.1-2.9-.3-.6-.1-1.1-.3-1.7-.4l.3-.9c1.2-.9,2.4-.4,3.6,0A2.637,2.637,0,0,1,134.1,40.9Z"/>
    <path id="Tracé_1978" data-name="Tracé 1978" class="cls-43" d="M130.3,30.8a5.72,5.72,0,0,1,4.6.5,3.923,3.923,0,0,1-1.4.8C132.2,32.6,131.5,32.3,130.3,30.8Z"/>
    <path id="Tracé_1979" data-name="Tracé 1979" class="cls-47" d="M111.6,73.3a1.7,1.7,0,0,0,.7-.1,4.814,4.814,0,0,1,3.8-1.3,1.421,1.421,0,0,0,.6-.2c-.2.4-.3.8-.5,1.2-1.1.4-2.1,1.2-3.4,1.2A3.6,3.6,0,0,1,111.6,73.3Z"/>
    <path id="Tracé_1980" data-name="Tracé 1980" class="cls-2" d="M89.6,37.5v4.3a.483.483,0,0,1-.7,0H87c-.2-.7.5-1,.7-1.6A2.139,2.139,0,0,0,89.3,38C89.3,37.8,89.3,37.6,89.6,37.5Z"/>
    <path id="Tracé_1981" data-name="Tracé 1981" class="cls-37" d="M112.8,74c1.1-.5,2.1-1.3,3.4-1.2C115.8,75,114.7,75.3,112.8,74Z"/>
    <path id="Tracé_1982" data-name="Tracé 1982" class="cls-36" d="M111.1,78.8c-.2-1-.7-2-.3-3,.2-.5-.2-.9-.4-1.3.7.1,1,.8,1.7,1a4.875,4.875,0,0,1,0,2.4A9.015,9.015,0,0,1,111.1,78.8Z"/>
    <path id="Tracé_1983" data-name="Tracé 1983" class="cls-47" d="M133.4,39.2c-1.2.3-2.4-.5-3.6,0,.2-.5.1-1,.5-1.4a3.344,3.344,0,0,1,2.6.2A6.116,6.116,0,0,1,133.4,39.2Z"/>
    <path id="Tracé_1984" data-name="Tracé 1984" class="cls-48" d="M118.6,71.1c-.2.9-.3,1.6.7,2.2a2.464,2.464,0,0,1,1,1.7c-1.5.6-2.5-.3-2.4-1.9C118.2,72.4,117.9,71.6,118.6,71.1Z"/>
    <path id="Tracé_1985" data-name="Tracé 1985" class="cls-49" d="M96.8,27c-.4.6-.6,1.2.5,1a4.033,4.033,0,0,1,1.1,0,2.622,2.622,0,0,0,1.5.2c.7,0,1.4-.2,1.9.3a22.68,22.68,0,0,1-5.8.4V27.7C96,27,96.3,26.9,96.8,27Z"/>
    <path id="Tracé_1986" data-name="Tracé 1986" class="cls-47" d="M127.2,34.6a4.953,4.953,0,0,1,.7-2.7,2.279,2.279,0,0,0,.3-1.1c.5.3.6.8,1,1.2.2.9-.3,1.5-.7,2.2C128,34.3,127.6,34.5,127.2,34.6Z"/>
    <path id="Tracé_1987" data-name="Tracé 1987" class="cls-47" d="M145.7,72.1c-1.3-.6-2.6-1.1-3.8-1.7.4-.4,1-.1,1.4-.5a2.242,2.242,0,0,1,2.2.7A7.721,7.721,0,0,0,145.7,72.1Z"/>
    <path id="Tracé_1988" data-name="Tracé 1988" class="cls-50" d="M144.2,60.5h3.1c-.2.4-.3.8-.5,1.2a2.17,2.17,0,0,1-2.2.2C144.3,61.6,144.4,61,144.2,60.5Z"/>
    <path id="Tracé_1989" data-name="Tracé 1989" class="cls-51" d="M132.9,38a10.978,10.978,0,0,1-2.6-.2v-.1c.4-.4-.1-1.5.9-1.4a1.812,1.812,0,0,1,1.7,1.6C132.9,37.8,132.9,37.9,132.9,38Z"/>
    <path id="Tracé_1990" data-name="Tracé 1990" class="cls-45" d="M127.9,39.7c0-1.3-1.2-1.9-1.7-2.9a2.567,2.567,0,0,1,1.2-.5c.8,0,.9.7,1.2,1.2v.2c-.2.4-.3.8-.5,1.2C128.1,39.2,128.2,39.5,127.9,39.7Z"/>
    <path id="Tracé_1991" data-name="Tracé 1991" class="cls-52" d="M122.4,76.1a4.781,4.781,0,0,0-.5,3.1,3.325,3.325,0,0,1-1.4-1.2c-.4-.6-.1-1,.3-1.4A14.24,14.24,0,0,0,122.4,76.1Z"/>
    <path id="Tracé_1992" data-name="Tracé 1992" class="cls-37" d="M117.8,73c.3,1.4,1.1,2.1,2.4,1.9h.2c-.7.6-1.6.5-2.4.8-.6.2-1-.5-.8-1.2Z"/>
    <path id="Tracé_1993" data-name="Tracé 1993" class="cls-48" d="M148.6,62c-.1.5.2.8.6,1.1a4.628,4.628,0,0,1,1.3,1.8,1.359,1.359,0,0,1-2-.3c-.5-.6-.8-1.2-.2-1.9C148.3,62.4,148.3,62.1,148.6,62Z"/>
    <path id="Tracé_1994" data-name="Tracé 1994" class="cls-53" d="M148.3,62.7c-.3,1.5.6,2.4,2.2,2.2h.5c-.9.6-2,.4-2.9.7-.4.1-.8-.3-.6-.6C147.7,64.2,147.6,63.2,148.3,62.7Z"/>
    <path id="Tracé_1995" data-name="Tracé 1995" class="cls-13" d="M171.8,31.2c.1-.6.7-.4,1-.4h4.7c.3.8-.4.4-.6.5C175.2,31.3,173.5,31.2,171.8,31.2Z"/>
    <path id="Tracé_1996" data-name="Tracé 1996" class="cls-54" d="M91.2,35.6c.3,0,.5.1.5.4-.1,1.9.3,3.9-.2,5.8-.1.1-.2.1-.2,0V40.7C91.2,39,91.2,37.3,91.2,35.6Z"/>
    <path id="Tracé_1997" data-name="Tracé 1997" class="cls-43" d="M112.1,77.8a3.313,3.313,0,0,1,0-2.4C113.8,76.6,113.8,76.6,112.1,77.8Z"/>
    <path id="Tracé_1998" data-name="Tracé 1998" class="cls-37" d="M128.4,34.1c-.1-.8.5-1.4.7-2.2.5.3,1.2.8,1,1.3C129.9,33.9,129.1,34.1,128.4,34.1Z"/>
    <path id="Tracé_1999" data-name="Tracé 1999" class="cls-55" d="M92.9,40.4c-1.4-1.2-.5-2.7-.7-4.1-.1-.3.1-.6.5-.7A19.324,19.324,0,0,0,92.9,40.4Z"/>
    <path id="Tracé_2000" data-name="Tracé 2000" class="cls-2" d="M170.4,32.5c-.2,1-1.3.2-1.7.8v-2h.2C169.6,31.5,170.2,31.7,170.4,32.5Z"/>
    <path id="Tracé_2001" data-name="Tracé 2001" class="cls-56" d="M92.9,47.1a7.872,7.872,0,0,1,.1-4.8c.3.2.2.6.2.9C92.9,44.5,93.4,45.8,92.9,47.1Z"/>
    <path id="Tracé_2002" data-name="Tracé 2002" class="cls-57" d="M111.5,89.8a14.246,14.246,0,0,1-3-2.5.55.55,0,0,0,.5-.3c1,.8,1.9,1.6,2.9,2.4C111.9,89.8,111.8,89.9,111.5,89.8Z"/>
    <path id="Tracé_2003" data-name="Tracé 2003" class="cls-47" d="M144.7,62a5.339,5.339,0,0,1,2.2-.2c-.2.4-.3.8-.5,1.2a.912.912,0,0,1-1.2,0A9.292,9.292,0,0,0,144.7,62Z"/>
    <path id="Tracé_2004" data-name="Tracé 2004" class="cls-58" d="M89.2,38v.3c0,1.7,0,1.7-1.6,1.9C88.2,39.4,88.7,38.7,89.2,38Z"/>
    <path id="Tracé_2005" data-name="Tracé 2005" class="cls-58" d="M128.6,37.5c-.6-.2-.7-1-1.2-1.2.5-.3,1.1-.8,1.6-.3C129.4,36.4,129,37,128.6,37.5Z"/>
    <path id="Tracé_2006" data-name="Tracé 2006" class="cls-59" d="M116.4,76.7a.576.576,0,0,1-.6.6c-.5,0-.7-.3-.7-.6a.684.684,0,0,1,.7-.7C116.1,76,116.3,76.3,116.4,76.7Z"/>
    <path id="Tracé_2007" data-name="Tracé 2007" class="cls-60" d="M145.4,70.6c-.7-.2-1.4-.5-2.2-.7.4-.4,1-.3,1.4-.4C145.5,69.3,145.4,70.1,145.4,70.6Z"/>
    <path id="Tracé_2008" data-name="Tracé 2008" class="cls-61" d="M92.2,52.4V49.5c.9.9.5,1.9.2,2.9C92.3,52.5,92.2,52.5,92.2,52.4Z"/>
    <path id="Tracé_2009" data-name="Tracé 2009" class="cls-62" d="M120.7,76.6c-.1.5-.2,1-.3,1.4-.5-.1-1-.4-1-.8C119.5,76.7,120.3,76.8,120.7,76.6Z"/>
    <path id="Tracé_2010" data-name="Tracé 2010" class="cls-63" d="M145.2,62.9h1.2a2.847,2.847,0,0,1-.6,1.4A1.974,1.974,0,0,1,145.2,62.9Z"/>
    <path id="Tracé_2011" data-name="Tracé 2011" class="cls-64" d="M169,31.2c.1-.6-.1-1.2.2-1.7,0,.6,1,1.3-.2,1.7Z"/>
    <path id="Tracé_2012" data-name="Tracé 2012" class="cls-65" d="M152.9,24.5c-.1.2-.2.3-.2.5-.4-.1-.9.1-1.5-.3C151.8,24.4,152.4,24.6,152.9,24.5Z"/>
    <path id="Tracé_2013" data-name="Tracé 2013" class="cls-55" d="M89.7,48.1q-1.05-.75,0-1.5Z"/>
    <path id="Tracé_2014" data-name="Tracé 2014" class="cls-66" d="M92.9,28.9h.7c-.2.3-.4.5-.7,1Z"/>
    <path id="Tracé_2015" data-name="Tracé 2015" class="cls-58" d="M128.2,38.9a1.346,1.346,0,0,1,.5-1.2A1.656,1.656,0,0,1,128.2,38.9Z"/>
    <path id="Tracé_2016" data-name="Tracé 2016" class="cls-16" d="M128.7,128.4H52.4c-1.8,0-3.5-.3-4.6-2.1a3.606,3.606,0,0,1-.6-2c0-1.1.1-2.2,0-3.4s.4-1.4,1.5-1.4H110c1.2,0,1.6.3,1.6,1.5-.1,1.8,1,2.8,2.8,2.8h28.8A2.53,2.53,0,0,0,146,121c-.1-1.3.4-1.5,1.6-1.5H209c1,0,1.5.2,1.4,1.3a13.094,13.094,0,0,0,0,2.8c.2,2.5-1.4,4.7-4.6,4.8H128.7Z"/>
    <path id="Tracé_2017" data-name="Tracé 2017" class="cls-15" d="M218.4,46.1A10.607,10.607,0,0,1,211,56.5c-1,.4-1.1-.1-1-.9a4.4,4.4,0,0,0,.2-1.6c-.6-3.2,1.6-5.5,2.8-8.1.2-.6,1.1-.9,1.7-1.3.5-.4,1-.7,1.4-1,.5-.4,1.2-1.3,1.6-1,.5.3.6,1.3.7,2.1A6.552,6.552,0,0,1,218.4,46.1Z"/>
    <path id="Tracé_2018" data-name="Tracé 2018" class="cls-4" d="M199.4,48.8V43.2a15.454,15.454,0,0,0-.7-6c2.9-1.1,4.5-.6,5.9,2.1.4.8,1.3.5,1.8,1h.8c.5.1.6.4.6.9s-.3.6-.7.6a5.759,5.759,0,0,0-2.9.5s.1.1,0,.1c-.6,1.2,0,1.8,1,2.3.5.3,1,.7.6,1.4a1.087,1.087,0,0,1-1.7.3c-.1,0-.1-.1-.2-.1-.5-.2-1-.8-1.5-.2a1.363,1.363,0,0,0-.2,1.7,1.445,1.445,0,0,1,.2.7c.2.6.7,1.2.5,1.9-.3.6-.7.5-1.2.2-.6-.4-.8-1.2-1.3-1.7a1.486,1.486,0,0,0-.9-.2C199.6,48.8,199.5,48.8,199.4,48.8Z"/>
    <path id="Tracé_2019" data-name="Tracé 2019" class="cls-15" d="M207.6,34.1a7.514,7.514,0,0,1,4.2-.4c1,.1,1.9,1.8,1.9,2.9a25.814,25.814,0,0,1-1.5,6.8,3.343,3.343,0,0,1-2.2,2c-.6.3-.6-.4-.7-.7a55.606,55.606,0,0,0-1.9-7,6.118,6.118,0,0,0-.5-1.2c-.2-.3,0-.5.2-.7A1.706,1.706,0,0,0,207.6,34.1Z"/>
    <path id="Tracé_2020" data-name="Tracé 2020" class="cls-15" d="M201.8,50.5a.912.912,0,0,0,1.2,0c.4-.7,1.2-.9,1.9-1.2a25.027,25.027,0,0,0,2.5-.9c.7-.4.8-.2,1,.6.5,2.4-1.4,3.5-2.5,5a15.388,15.388,0,0,1-2.6,2.5,2.594,2.594,0,0,1-3.3.3c0-1.9.1-3.8,0-5.7C200.3,50,201,50.1,201.8,50.5Z"/>
    <path id="Tracé_2021" data-name="Tracé 2021" class="cls-15" d="M197,34.6a12.909,12.909,0,0,0-3.6-2.5c-.1-.9.7-1.3,1.1-1.9.5-.7,1.3-1.2,1.8-1.9,1.6-1.7,3.9-1.7,5.2.7.4.7,1.3,1.3,1,2.4-.9.3-1.1,1.2-1.4,2A9.744,9.744,0,0,1,197,34.6Z"/>
    <path id="Tracé_2022" data-name="Tracé 2022" class="cls-15" d="M213.5,31.8c-.1.5-.5.5-.8.3a13.444,13.444,0,0,1-1.4-1.1,26.538,26.538,0,0,0-9.2-4.6c-.4-.1-1-.3-1-.7,0-.5.6-.5,1-.7a10.282,10.282,0,0,1,4.9-.7c3.4.6,5.2,2.7,6.2,5.9C213.3,30.7,213.4,31.2,213.5,31.8Z"/>
    <path id="Tracé_2023" data-name="Tracé 2023" class="cls-67" d="M202.6,48.5c-.5-.5-.9-1-.7-1.7.4-1.4.7-1.5,2.1-.8.2.1.5.3.7.4.5.3.8-.2,1.1-.5s0-.6-.2-.8a2.092,2.092,0,0,0-.6-.4c-1.6-.9-1.6-.9-.7-2.5h.6c.8.1,1.7-.8,2.2.1a7.714,7.714,0,0,1,.8,3.7c0,.5-.4.5-.7.6C205.6,47.4,204.1,47.9,202.6,48.5Z"/>
    <path id="Tracé_2024" data-name="Tracé 2024" class="cls-67" d="M206.4,40.4a1.75,1.75,0,0,1-2.3-1.3,3.239,3.239,0,0,0-4.4-1.8c-.4.1-.7.2-1,0a9.292,9.292,0,0,1-.5-1c-.3-.5-.1-.8.4-1a13.322,13.322,0,0,1,1.9-.5,2.038,2.038,0,0,0,2-.2h.2c1.4-.6,2,.2,2.2,1.5.2.5.1,1,.5,1.4A5.932,5.932,0,0,1,206.4,40.4Z"/>
    <path id="Tracé_2025" data-name="Tracé 2025" class="cls-23" d="M203,28.4a18.316,18.316,0,0,1,6.7,3.7c-1.4,0-2.6.4-4,.4a.755.755,0,0,1-.7-.4C204.4,30.9,203.7,29.7,203,28.4Z"/>
    <path id="Tracé_2026" data-name="Tracé 2026" class="cls-23" d="M184.8,30.8a10.08,10.08,0,0,1,4.8-3c.8-.3.8.3.7.7a8.2,8.2,0,0,0-.2,2.2A10.578,10.578,0,0,1,184.8,30.8Z"/>
    <path id="Tracé_2027" data-name="Tracé 2027" class="cls-59" d="M195.6,27c-1.2,1.4-2.6,2.4-3.4,3.8-.1.1-.3.2-.4.1a.758.758,0,0,1-.2-.4,27.414,27.414,0,0,1,.5-2.8c.1-.6.7-.6,1-.6A9.815,9.815,0,0,1,195.6,27Z"/>
    <path id="Tracé_2028" data-name="Tracé 2028" class="cls-68" d="M195.5,25.5h-1.8c-.3,0-.6.1-.7-.3-.1-.3.1-.5.3-.7.8-1.1,1.8-1.2,3.4-.4.5.3,1.5.5,1.3,1.1-.1.6-1.1.2-1.6.3Z"/>
    <path id="Tracé_2029" data-name="Tracé 2029" class="cls-69" d="M204.7,57.4c1.3-1.5,2.6-2.6,3.8-4.1.2,1.5.3,2.9-.5,3.8C207.3,57.9,206,57.3,204.7,57.4Z"/>
    <path id="Tracé_2030" data-name="Tracé 2030" class="cls-59" d="M215,37.5c.3.1.3.1.4.2,2.1,2.5,1.9,3.6-1.3,5.2a26.806,26.806,0,0,1,.7-2.7A7.822,7.822,0,0,0,215,37.5Z"/>
    <path id="Tracé_2031" data-name="Tracé 2031" class="cls-59" d="M218.1,39a21.709,21.709,0,0,0-2.5-3.9c-.2-.3-.6-.8.1-.7a3.618,3.618,0,0,1,2.8,1.8C219.2,37.2,218.9,38,218.1,39Z"/>
    <path id="Tracé_2032" data-name="Tracé 2032" class="cls-67" d="M205.2,60.8a3.74,3.74,0,0,1-2.5-1c-.2-.1-.5-.3-.4-.6a.574.574,0,0,1,.7-.2,12.108,12.108,0,0,0,3.8,0c.2,0,.4-.1.5.1a.6.6,0,0,1-.1.4C206.6,60.2,206.1,60.8,205.2,60.8Z"/>
    <path id="Tracé_2033" data-name="Tracé 2033" class="cls-70" d="M202.6,34.6c-.4.7-.8,1.3-1.7.5-.5-.6-.2-1.2.2-1.7.1-1,0-2,1.5-1.9C203.2,32.5,202.5,33.6,202.6,34.6Z"/>
    <path id="Tracé_2034" data-name="Tracé 2034" class="cls-70" d="M205.4,37.5c-.9-.2-.6-.9-.5-1.4a6.2,6.2,0,0,0,1.4-1.4c.1-.4.3-.6.7-.5h.5a.936.936,0,0,1,0,1.6,2.7,2.7,0,0,0-.7.8C206.5,37,206.2,37.6,205.4,37.5Z"/>
    <path id="Tracé_2035" data-name="Tracé 2035" class="cls-9" d="M199.9,50.9a14.165,14.165,0,0,1,0,5.8h-.2V51C199.8,50.8,199.8,50.8,199.9,50.9Z"/>
    <path id="Tracé_2036" data-name="Tracé 2036" class="cls-13" d="M184.8,30.8h5.3c0,.3-.2.5-.6.5h-4.6c-.2,0-.5.1-.4-.3C184.5,30.8,184.7,30.8,184.8,30.8Z"/>
    <path id="Tracé_2037" data-name="Tracé 2037" class="cls-71" d="M207.1,34.1c-.2.2-.5.3-.7.5-.3,0-.6-.2-.4-.5C206.3,33.7,206.7,33.8,207.1,34.1Z"/>
    <path id="Tracé_2038" data-name="Tracé 2038" class="cls-72" d="M209.8,47.6c0-.4.1-.5.4-.5.2,0,.2.2.2.3-.1.2-.1.5-.4.4C209.8,47.9,209.8,47.7,209.8,47.6Z"/>
    <path id="Tracé_2039" data-name="Tracé 2039" class="cls-73" d="M203.1,32c.3.3.5.5.2.9C202.8,32.6,203.1,32.2,203.1,32Z"/>
    <path id="Tracé_2040" data-name="Tracé 2040" class="cls-74" d="M56.2,63.7c.7.2,1.4.5,2.2.7-.1.7-.7.7-1.1.9-5.6,1.9-11.1,3.9-16.7,5.8a16.235,16.235,0,0,0-2.8,1.1,1.5,1.5,0,0,0-1,1.4c0,.7.7.5,1.1.7.2.1.3.1.4.2,1.4.7,2.6,4.8,1.7,6.1a1.992,1.992,0,0,0-.2,2.1c.9,2.4,1.7,4.7,2.5,7.1.3.8.6,1.3,1.5,1.5A2.555,2.555,0,0,1,45.6,93a24.13,24.13,0,0,1,.8,2.5,2.554,2.554,0,0,1-.4,2.4,1.228,1.228,0,0,0-.2,1.5,1.545,1.545,0,0,0,1.6.8,8.447,8.447,0,0,0,1.7-.5c2.6-.9,5.2-1.9,7.8-2.7.3-.1.7-.3,1-.2a2.925,2.925,0,0,1,1.2.7v.7c-3.7,1.3-7.3,2.6-11,3.9a3.638,3.638,0,0,1-4.2-2c-.3-.7-.5-1.3-1.5-1.4a1.546,1.546,0,0,1-1.2-.8,9.9,9.9,0,0,1-1.4-4.4,1.077,1.077,0,0,1,.2-.8c1-.7.7-1.6.3-2.5l-2.7-7.5a1.2,1.2,0,0,0-1.2-1c-2.1-.4-3.5-4.6-2.2-6.3a1.575,1.575,0,0,0,.4-1.3,3.3,3.3,0,0,1,2.2-3.8c1.3-.6,2.8-1,4.1-1.5C46.1,67.2,51.1,65.4,56.2,63.7Z"/>
    <path id="Tracé_2041" data-name="Tracé 2041" class="cls-23" d="M31.7,69.2a.55.55,0,0,1,.5.3c-1.7,1.4-.9,3-.3,4.6,2.7,7.7,5.4,15.4,8.1,23.2,1,2.9,2.1,5.8,3.1,8.7a1.7,1.7,0,0,1,.1.7c-1.3-.1-1.9-1-2.3-2.1-1.9-5.3-3.8-10.7-5.6-16-1.8-5.2-3.7-10.4-5.5-15.7C29.1,71,29.8,69.8,31.7,69.2Z"/>
    <path id="Tracé_2042" data-name="Tracé 2042" class="cls-74" d="M59,62.7c-.1.4.2,1-.2,1.3-.3.2-.6-.1-.8-.3a.952.952,0,0,0,.2-.7A1.009,1.009,0,0,1,59,62.7Z"/>
    <path id="Tracé_2043" data-name="Tracé 2043" class="cls-4" d="M58.3,62.9c.4.4,0,.5-.2.7a.472.472,0,0,0-.5-.5A.844.844,0,0,1,58.3,62.9Z"/>
    <path id="Tracé_2044" data-name="Tracé 2044" class="cls-15" d="M66.7,31.7a10.114,10.114,0,0,0-6,4.3c-.8.5-1.3.6-1.5-.6-.1-.5-.4-.6-.8-.2-.4.5-.8.5-1.4.3s-.7.1-.7.6v.1c.5.7-1.1,1.4-.3,1.9.7.4,1.1.6,1.3,1.5.1.5.7.2,1.1.4.7.6,0,1.6.6,2.2v.2c-3.2.7-6.4,1.6-9.5,2.5-1.3.4-2.6.7-3.9,1.1-.5.1-.8,0-1-.6-.7-2.7-1.4-5.5-2.2-8.2-.3-.9.4-1,.9-1.1,1.3-.4,2.7-.7,4-1.1,2.7-.7,5.4-1.4,8-2.1,3.5-.9,7.1-1.8,10.6-2.7,1.6-.4,3.3-.9,4.9-1.4.8-.3,1.1-.1,1.3.8.3,1.6.4,1.6-1.3,1.6a11.533,11.533,0,0,0-3.7.2C67,31.5,66.8,31.6,66.7,31.7Z"/>
    <path id="Tracé_2045" data-name="Tracé 2045" class="cls-15" d="M66.8,27.7c0,.6-.4.6-.8.7-4,1.1-8.1,2.2-12.1,3.3-2.3.6-4.5,1.2-6.8,1.8-.6.2-.9.1-1.1-.6-.3-1.5-.8-3-1.2-4.5-.2-.7,0-.9.7-1.1,4.3-1.1,8.5-2.2,12.8-3.4,2-.5,4.1-1.1,6.1-1.7.3-.1.7-.4.9.1Q66.05,25.15,66.8,27.7Z"/>
    <path id="Tracé_2046" data-name="Tracé 2046" class="cls-15" d="M59,50.5v.2c-2.4.6-4.7,1.3-7.1,1.9-.5.1-.7,0-.8-.4-.4-1.6-.8-3.3-1.3-4.9-.2-.7.3-.7.6-.8,2.1-.6,4.3-1.2,6.4-1.8.6-.2,1.1-.3,1.7-.5.4.6.2,1.2.2,1.9C58.9,47.5,58.5,49,59,50.5Z"/>
    <path id="Tracé_2047" data-name="Tracé 2047" class="cls-10" d="M59,50.5c-.7-.1-.5-.6-.5-1V44.3H59Z"/>
    <path id="Tracé_2048" data-name="Tracé 2048" class="cls-3" d="M58.1,97a61.941,61.941,0,0,0-6.5,2.2c-1.3.4-2.5.9-3.8,1.3a1.928,1.928,0,0,1-2.6-1.4c-.1-.4-.2-.8.2-1.1a2,2,0,0,0,.6-2.4c-.3-.8-.5-1.6-.8-2.4a2.229,2.229,0,0,0-2-1.7,1.077,1.077,0,0,1-1-.8c-1-2.9-2-5.7-3-8.5a1.237,1.237,0,0,1,.3-1.5,1.855,1.855,0,0,0,.5-2.2,22.5,22.5,0,0,1-.8-2.4,1.979,1.979,0,0,0-2.1-1.7c-.8,0-.8-.6-.7-1.2.2-.9,1-1.3,1.8-1.6,3-1.1,5.9-2.1,8.9-3.1l10.5-3.6a1.374,1.374,0,0,0,.8-.5c.7-.1.7.4.7.9v5.6a2.51,2.51,0,0,1-1.9-.1c-4.6-1.2-9.9,1.5-12.1,5.6A11.034,11.034,0,0,0,47,89.7a10.584,10.584,0,0,0,9.8,3.2c.6-.1,1.2.1,1.8-.2.2,0,.4.1.4.3,0,1.2.3,2.5-.2,3.7C58.6,97.1,58.4,97.3,58.1,97Z"/>
    <path id="Tracé_2049" data-name="Tracé 2049" class="cls-4" d="M57.8,84.8c.6.2,1.5.1,1.2,1.2-.5.6-1.2,1-1,1.9.2.5.9.7.7,1.4a4.719,4.719,0,0,1-4.2,1.2,8.86,8.86,0,0,1-8.3-8.4,8.641,8.641,0,0,1,2-5.9,8.806,8.806,0,0,1,9.4-2.6c.4.2,1,.2,1,.9-.7-.1-1,.8-1.7.7a1.81,1.81,0,0,1-1.6.1,2.719,2.719,0,0,0-.9,0c-.2.1-.4.1-.4.4,0,.2.2.3.4.3a3.627,3.627,0,0,0,2.5-.4c.7.1,0,1.3,1,1.2.5.2.7.6,1,1a4.485,4.485,0,0,1-.1,1.1c-.5-.4-.5-1.3-1.3-1-.5.1-.1.6-.1.8-.4.2-.7-.1-1-.3a3.666,3.666,0,0,0-4.1.6,3.439,3.439,0,0,0-1.1,3.7,4.088,4.088,0,0,0,3.4,2.8,5.549,5.549,0,0,0,2.2-.6C57.2,84.9,57.5,84.6,57.8,84.8Z"/>
    <path id="Tracé_2050" data-name="Tracé 2050" class="cls-74" d="M58.6,92.7a9.871,9.871,0,0,1-7.9-.1c-4.2-1.8-6.8-5-7.2-9.6-.5-5.2,1.8-9.1,6.3-11.5a11.564,11.564,0,0,1,9.3-.6l-.5.5c-.2.4-.7.5-1,.9a1.934,1.934,0,0,1-1.3,0,9.661,9.661,0,0,0-10.8,7.8c-1.2,6.2,4,11.7,9.5,11.4.6,0,1.2-.2,1.7.3A2.475,2.475,0,0,0,58.6,92.7Z"/>
    <path id="Tracé_2051" data-name="Tracé 2051" class="cls-75" d="M56.6,91.7a11.041,11.041,0,0,1-7.7-1.9,10.163,10.163,0,0,1-3.8-10.2A9.722,9.722,0,0,1,52.8,72a16.76,16.76,0,0,1,5,0H58a3.508,3.508,0,0,1,.8.5,1.654,1.654,0,0,1,0,1.9,7.4,7.4,0,0,0-7.6,0,7.7,7.7,0,0,0-4.5,7.3c.1,4.1,2.3,7.2,6.8,8.3a7.528,7.528,0,0,0,5.3-.8c.3.7.5,1.4-.2,1.9-.4.4-1,.2-1.4.5A1.486,1.486,0,0,1,56.6,91.7Z"/>
    <path id="Tracé_2052" data-name="Tracé 2052" class="cls-76" d="M57.8,84.8a4.146,4.146,0,0,1-6.6-1.4c-.8-1.6-.4-3.2,1.1-4.6a3.97,3.97,0,0,1,4.4-.6c.3.2.5.3.8.5l.5.5c.7.3.7.9.9,1.5A4.4,4.4,0,0,1,57.8,84.8Z"/>
    <path id="Tracé_2053" data-name="Tracé 2053" class="cls-3" d="M53.4,105c-.6,3-2.8,3.8-5.2,4.4-1.1.3-1.2-.5-1.5-1.3s.2-.9.8-1.1C49.4,106.4,51.4,105.7,53.4,105Z"/>
    <path id="Tracé_2054" data-name="Tracé 2054" class="cls-77" d="M57.1,75.7c-.4.6-2.6,1.1-3.2.6a1.08,1.08,0,0,1-.3-.7c-.1-.4.3-.4.6-.5,1-.4,1.9.2,2.9.1Z"/>
    <path id="Tracé_2055" data-name="Tracé 2055" class="cls-63" d="M58.1,87.9c-.7-1-.6-1.2,1-1.9C58.9,86.7,59.4,87.7,58.1,87.9Z"/>
    <path id="Tracé_2056" data-name="Tracé 2056" class="cls-78" d="M59,77.8c-.4-.3-.9-.4-1-1,0-.5.5-.6,1-1Z"/>
    <path id="Tracé_2057" data-name="Tracé 2057" class="cls-4" d="M59,80.7l-.9-1.5C59.4,79.1,59,80.1,59,80.7Z"/>
    <path id="Tracé_2058" data-name="Tracé 2058" class="cls-4" d="M58.1,97c.2-.1.5-.2.7-.3a.745.745,0,0,1,.3.7C58.8,97.2,58.1,97.8,58.1,97Z"/>
    <path id="Tracé_2059" data-name="Tracé 2059" class="cls-4" d="M57.8,72.1c-.3-.8.5-.4.7-.7a1.854,1.854,0,0,0-.2.7.446.446,0,0,1-.5,0Z"/>
    <path id="Tracé_2060" data-name="Tracé 2060" class="cls-74" d="M57.1,91.7c.4-.3,1-.3,1.4-.5C58.2,91.9,57.6,91.7,57.1,91.7Z"/>
    <path id="Tracé_2061" data-name="Tracé 2061" class="cls-74" d="M57.8,72.1h.5l.5.5A1.905,1.905,0,0,1,57.8,72.1Z"/>
    <path id="Tracé_2062" data-name="Tracé 2062" class="cls-79" d="M216.7,102.3a6.112,6.112,0,0,1-4.4.3c-3.7-.7-7.3-1.5-11-2.3-1.6-.3-1.7-.4-1.7-2.1V71.6c.4-.3.8-.2,1.3-.1a13.963,13.963,0,0,1,11.2,9.7,1.714,1.714,0,0,0,1.4,1.3,13.75,13.75,0,0,1,4.2,1.7,10.456,10.456,0,0,1-.8,17.9A.215.215,0,0,0,216.7,102.3Z"/>
    <path id="Tracé_2063" data-name="Tracé 2063" class="cls-23" d="M216.7,102.3a2.252,2.252,0,0,1-.7-.1,14.191,14.191,0,0,0,1.8-1.1c4.3-3.4,5.5-8.6,2.9-13.4a10.047,10.047,0,0,0-7.5-5.1,1.2,1.2,0,0,1-1.2-1.1,13.1,13.1,0,0,0-4.7-7,13.942,13.942,0,0,0-7.5-2.9c-.1-.9.5-.7,1-.7A13.2,13.2,0,0,1,212,77.4a12.95,12.95,0,0,1,1.6,4.1c.2.8.6,1.1,1.3,1.1,4.5.2,8.1,3.9,9,8.1A10.033,10.033,0,0,1,216.7,102.3Z"/>
    <path id="Tracé_2064" data-name="Tracé 2064" class="cls-80" d="M199.9,50.9h-.2V49.2a1.905,1.905,0,0,1,1-.5c.6.4.7,1.2,1.2,1.7A3.323,3.323,0,0,0,199.9,50.9Z"/>
    <path id="Tracé_2065" data-name="Tracé 2065" class="cls-81" d="M200.7,48.8c-.2.4-.5.5-1,.5v-.5C200,48.4,200.3,48.2,200.7,48.8Z"/>
    <path id="Tracé_2066" data-name="Tracé 2066" class="cls-82" d="M59,42.3c-.6-.1-.4-.6-.5-.9,0-.4.2-.9-.2-1.2-.2-.5-.1-.9.4-1s.6.4.6.8h0C58.8,40.7,59.2,41.5,59,42.3Z"/>
    <path id="Tracé_2067" data-name="Tracé 2067" class="cls-83" d="M94.6,112.9a7.083,7.083,0,0,0,2.9,0A2.264,2.264,0,0,1,94.6,112.9Z"/>
    <path id="Tracé_2068" data-name="Tracé 2068" class="cls-84" d="M90.2,111.4v-1.7C90.9,110.3,91.1,110.9,90.2,111.4Z"/>
    <path id="Tracé_2069" data-name="Tracé 2069" class="cls-25" d="M67.4,40.4v76c0,.5.2,1-.3,1.5V42C67.2,41.4,67,40.8,67.4,40.4Z"/>
    <path id="Tracé_2070" data-name="Tracé 2070" class="cls-85" d="M62.6,36.3a6.284,6.284,0,0,1,3.6-2.6c.1.1.2.1.4.2C65.1,34.5,64.1,35.8,62.6,36.3Z"/>
    <path id="Tracé_2071" data-name="Tracé 2071" class="cls-25" d="M75.4,40.6c-.3-.4-.8-.2-1.2-.2H67.5c.2-.3.6-.3.9-.3h6.4C75,40.1,75.6,39.8,75.4,40.6Z"/>
    <path id="Tracé_2072" data-name="Tracé 2072" class="cls-86" d="M129.5,103c-.1.2-.2.2-.4.2-.1,0-.4,0-.3-.3,0-.2.2-.2.4-.2C129.3,102.8,129.5,102.8,129.5,103Z"/>
    <path id="Tracé_2073" data-name="Tracé 2073" class="cls-87" d="M92.7,65a14.269,14.269,0,0,1,.9,3.4c-.6-.5-1.2-.9-.8-1.8C93,66.1,91.8,65.6,92.7,65Z"/>
    <path id="Tracé_2074" data-name="Tracé 2074" class="cls-87" d="M93.6,68.5a3.36,3.36,0,0,1,.5,1.4C93.8,69.5,92.8,69.3,93.6,68.5Z"/>
    <path id="Tracé_2075" data-name="Tracé 2075" class="cls-74" d="M59.3,39.9c-.2-.2-.2-.6-.5-.6-.4.1-.3.6-.5.8-.9.4-1.5.2-1.4-.8.1-.7-.2-.6-.6-.6a.874.874,0,0,1-.9-.5c-.1-.4,0-.8.3-.9.5-.2.5-.5.3-.9a.9.9,0,0,1,.1-1.1.76.76,0,0,1,1,0q.75.6.9-.3c.1-.4.5-.4.9-.4a.56.56,0,0,1,.5.6c-.2,1.2.6.9,1.2.9A14.168,14.168,0,0,0,59.3,39.9Z"/>
    <path id="Tracé_2076" data-name="Tracé 2076" class="cls-88" d="M167,56a11.851,11.851,0,0,1,.5-3.2C168.5,54,167.3,54.9,167,56Z"/>
    <path id="Tracé_2077" data-name="Tracé 2077" class="cls-89" d="M168.3,43.3c.1,0,.1-.1.2-.1-.1,1.4.4,2.8-.4,4.1C168.1,46,168.2,44.6,168.3,43.3Z"/>
    <path id="Tracé_2078" data-name="Tracé 2078" class="cls-90" d="M167.5,51.9a23.255,23.255,0,0,1,.4-3.7V51C168,51.4,168,51.8,167.5,51.9Z"/>
    <path id="Tracé_2079" data-name="Tracé 2079" class="cls-89" d="M168.5,42.8c0-.3-.2-.7.2-1C168.8,42.2,169.3,42.6,168.5,42.8Z"/>
    <path id="Tracé_2080" data-name="Tracé 2080" class="cls-91" d="M106.6,25a8.574,8.574,0,0,1-2.7.5C104.7,24.8,105.7,25,106.6,25Z"/>
    <path id="Tracé_2081" data-name="Tracé 2081" class="cls-80" d="M201.1,33.4a4.953,4.953,0,0,0-.2,1.7c-.8.2-1.5.3-2.3.5-.4.1-.3.4-.3.7-.4-.6-.8-1.1-1.2-1.7A16.918,16.918,0,0,1,201.1,33.4Z"/>
    <path id="Tracé_2082" data-name="Tracé 2082" class="cls-92" d="M126.5,70.1a2.108,2.108,0,0,1-2.4,0Z"/>
    <path id="Tracé_2083" data-name="Tracé 2083" class="cls-92" d="M123.8,70a4.358,4.358,0,0,1-1.4-1.3A2.024,2.024,0,0,1,123.8,70Z"/>
    <path id="Tracé_2084" data-name="Tracé 2084" class="cls-93" d="M111.5,89.8l.3-.3c1.3,1,2.5,1.9,3.8,2.9,0,.2,0,.3-.3.2A30.77,30.77,0,0,1,111.5,89.8Z"/>
    <path id="Tracé_2085" data-name="Tracé 2085" class="cls-94" d="M115.4,92.7c.1-.1.2-.2.3-.2.8.6,1.6,1.1,2.4,1.7.1.2,0,.3-.2.2A11.015,11.015,0,0,1,115.4,92.7Z"/>
    <path id="Tracé_2086" data-name="Tracé 2086" class="cls-95" d="M121.7,96.8a10.232,10.232,0,0,1-2.2-1.4.188.188,0,0,1,0-.3C120.2,95.7,121.2,95.9,121.7,96.8Z"/>
    <path id="Tracé_2087" data-name="Tracé 2087" class="cls-96" d="M119.5,95.1v.3a5.854,5.854,0,0,1-1.7-1l.2-.2C118.6,94.5,119,94.8,119.5,95.1Z"/>
    <path id="Tracé_2088" data-name="Tracé 2088" class="cls-97" d="M101.8,28.4H99.3c-.4,0-.8.1-.9-.4a4.1,4.1,0,0,0,1.1-.1,16.475,16.475,0,0,0,3.2-.4,1.952,1.952,0,0,0,.7-.1,3.261,3.261,0,0,1,1.7,0v.5h0a25.123,25.123,0,0,0-2.7.4C102.3,28.4,102,28.4,101.8,28.4Z"/>
    <path id="Tracé_2089" data-name="Tracé 2089" class="cls-98" d="M102.5,28.4a4.1,4.1,0,0,1,2.7-.4A12.588,12.588,0,0,1,102.5,28.4Z"/>
    <path id="Tracé_2090" data-name="Tracé 2090" class="cls-55" d="M88.8,41.8h.7c0,1.1.3,2.2.2,3.3A7.389,7.389,0,0,1,88.8,41.8Z"/>
    <path id="Tracé_2091" data-name="Tracé 2091" class="cls-99" d="M113.3,59.6a2.819,2.819,0,0,1-.5-3.1,2.483,2.483,0,0,1,2.7-1.2c.4,0,.7.1.8.5-.4.1-.8.2-1.1.3C113.7,56.6,113.2,57.5,113.3,59.6Z"/>
    <path id="Tracé_2092" data-name="Tracé 2092" class="cls-98" d="M102.7,27.4c-1,.8-2.1.3-3.2.4C100.6,27.6,101.6,27.5,102.7,27.4Z"/>
    <path id="Tracé_2093" data-name="Tracé 2093" class="cls-100" d="M105.1,27.4h-1.7a5.7,5.7,0,0,1,2.2-.4C105.4,27.1,105.3,27.3,105.1,27.4Z"/>
    <path id="Tracé_2094" data-name="Tracé 2094" class="cls-1" d="M96.9,68.2a1.391,1.391,0,0,1-.4-1.5A2.822,2.822,0,0,1,96.9,68.2Z"/>
    <path id="Tracé_2095" data-name="Tracé 2095" class="cls-101" d="M94,53.1a2.958,2.958,0,0,1-.9-2.8c.1-.4,0-.7.5-.8A14.723,14.723,0,0,1,94,53.1Z"/>
    <path id="Tracé_2096" data-name="Tracé 2096" class="cls-102" d="M92.2,52.4h.2a3.661,3.661,0,0,0,.4,1.8c.5.6.2,1-.2,1.4A8.808,8.808,0,0,1,92.2,52.4Z"/>
    <path id="Tracé_2097" data-name="Tracé 2097" class="cls-1" d="M91.2,41.8h.2a5.845,5.845,0,0,0,.2,1.9,5.633,5.633,0,0,1,0,3.4.367.367,0,0,1-.1.3A52.532,52.532,0,0,1,91.2,41.8Z"/>
    <path id="Tracé_2098" data-name="Tracé 2098" class="cls-103" d="M91.7,47.1V43.7A3.208,3.208,0,0,1,91.7,47.1Z"/>
    <path id="Tracé_2099" data-name="Tracé 2099" class="cls-104" d="M44.6,96.3c-.2.7-.8.7-1.2.8-.5.2-.9.2-1.1-.3-.3-.9-.6-1.7-.9-2.6-.1-.4.2-.7.6-.8.5-.1,1.1-.7,1.5-.1C43.9,94.2,44.2,95.3,44.6,96.3Z"/>
    <path id="Tracé_2100" data-name="Tracé 2100" class="cls-104" d="M38.4,78.8c.1,1.1-.6,1.1-1,1.3a.782.782,0,0,1-1.1-.5,22.5,22.5,0,0,1-.8-2.4c-.2-.6.2-.8.7-.9s1.1-.8,1.4,0C37.9,77.2,38.1,78.1,38.4,78.8Z"/>
    <path id="Tracé_2101" data-name="Tracé 2101" class="cls-70" d="M50.4,42.3c-.8-.8-1.2-.1-1.8.4a.692.692,0,0,1-1.1-.5c-.1-.6-.2-.8-.8-.9a.762.762,0,0,1-.4-1.4c.7-.4.7-.7.2-1.3-.2-.3,0-.6.2-.9.3-.3.6-.3.8-.1.6.5.9.3,1.2-.3.1-.4.5-.4.8-.3s.7.4.6.8c-.2.7-.1.9.7.7a.688.688,0,0,1,.8.5.593.593,0,0,1-.3.9c-.6.2-.7.5-.3,1.1C51.6,41.8,51.1,42.1,50.4,42.3Z"/>
    <path id="Tracé_2102" data-name="Tracé 2102" class="cls-105" d="M49.5,81.5c-.2.6.4,1.7-.7,1.6-1-.1-.4-1.1-.5-1.7,0-.5-.1-1.5.6-1.5C50,79.9,49.3,80.9,49.5,81.5Z"/>
    <path id="Tracé_2103" data-name="Tracé 2103" class="cls-106" d="M54.5,87.4c.6.2,1.8-.4,1.7.7-.1,1-1.2.4-1.9.5a1.854,1.854,0,0,1-.7-.2c-.3-.1-.8.2-.8-.4.1-.5.3-.8.9-.6A2.134,2.134,0,0,0,54.5,87.4Z"/>
    <path id="Tracé_2104" data-name="Tracé 2104" class="cls-107" d="M52.3,76.4a.908.908,0,0,1-.3.7c-.3.2-.5.5-.8.7-.4.3-.7,1.4-1.4.6-.7-.7.4-1,.7-1.4a2.012,2.012,0,0,1,1.1-.9C52,75.8,52.2,76,52.3,76.4Z"/>
    <path id="Tracé_2105" data-name="Tracé 2105" class="cls-106" d="M51.8,86.7c-.1.3-.3.7-.8.5-.9-.4-1.3-1.3-1.8-2.1-.3-.4.1-.5.5-.6A8.827,8.827,0,0,1,51.8,86.7Z"/>
  </g>
</svg>
