<svg xmlns="http://www.w3.org/2000/svg" viewBox="0 0 58.917 50.159">
  <defs>
    <style>
      .cls-1 {
        opacity: 0.46;
      }

      .cls-2 {
        fill: #495477;
      }
    </style>
  </defs>
  <g id="Group_931" data-name="Group 931" class="cls-1">
    <path id="Path_2200" data-name="Path 2200" class="cls-2" d="M28.019,13.7H26.294a1.194,1.194,0,0,0,0,2.389h1.725a1.189,1.189,0,0,0,1.194-1.194A1.114,1.114,0,0,0,28.019,13.7Zm0,0" transform="translate(8.207 4.479)"/>
    <path id="Path_2201" data-name="Path 2201" class="cls-2" d="M24.587,13.7H16.094a1.194,1.194,0,0,0,0,2.389h8.493a1.189,1.189,0,0,0,1.194-1.194q-.2-1.194-1.194-1.194Zm0,0" transform="translate(4.872 4.479)"/>
    <path id="Path_2202" data-name="Path 2202" class="cls-2" d="M42.634,8.5H16.094a1.194,1.194,0,0,0,0,2.389H42.766a1.189,1.189,0,0,0,1.194-1.194A1.411,1.411,0,0,0,42.634,8.5Zm0,0" transform="translate(4.872 2.779)"/>
    <path id="Path_2203" data-name="Path 2203" class="cls-2" d="M53.211,0H14.729A5.664,5.664,0,0,0,9.023,5.706V18.179H3.45A3.513,3.513,0,0,0,0,21.63V39.809a3.513,3.513,0,0,0,3.45,3.45H9.156v5.706a1.353,1.353,0,0,0,.663,1.062c.133,0,.265.133.4.133a1.886,1.886,0,0,0,.8-.265l7.033-6.237h0a1.122,1.122,0,0,1,.8-.265h7.3a3.513,3.513,0,0,0,3.45-3.45V31.98h.929a3.108,3.108,0,0,1,2.256.929l10.616,9.82a1.886,1.886,0,0,0,.8.265.487.487,0,0,0,.4-.133A1.051,1.051,0,0,0,45.25,41.8V31.98h7.962a5.748,5.748,0,0,0,5.706-5.706V5.706A5.664,5.664,0,0,0,53.211,0ZM27.2,39.676a1.189,1.189,0,0,1-1.194,1.194h-7.3a3.121,3.121,0,0,0-2.256.8l-5.042,4.512V41.932a1.189,1.189,0,0,0-1.194-1.194H3.45a1.189,1.189,0,0,1-1.194-1.194V21.5A1.189,1.189,0,0,1,3.45,20.3H9.156v5.706a5.748,5.748,0,0,0,5.706,5.706H27.336v7.962ZM56.662,26.009a3.513,3.513,0,0,1-3.45,3.45H45.25v-3.45a1.194,1.194,0,0,0-2.389,0V38.88l-8.625-8.095a5.781,5.781,0,0,0-3.848-1.46H14.729a3.513,3.513,0,0,1-3.45-3.45V5.706a3.513,3.513,0,0,1,3.45-3.45H53.211a3.513,3.513,0,0,1,3.45,3.45v20.3Zm0,0"/>
  </g>
</svg>
