<svg xmlns="http://www.w3.org/2000/svg" xmlns:xlink="http://www.w3.org/1999/xlink" width="16" height="14" viewBox="0 0 16 14"><defs><path id="ep81a" d="M312.12 268.25l5.93-4.87v2.52c0 .22.22.44.45.44 3.35.06 5.53 1.07 6.65 3.14.73 1.28.9 2.85.9 4.14a7.48 7.48 0 0 0-3.13-2.86c-1.35-.61-2.69-.67-4.48-.67a.8.8 0 0 0-.34.11c-.1.06-.1.17-.1.34v2.57zm-.95-.34c-.11.06-.17.17-.17.34 0 .1.06.28.17.33l7.05 5.82c.1.11.33.11.44.06a.42.42 0 0 0 .28-.4V271c2.86 0 4.82.22 7.22 4.42.06.16.22.22.4.22h.1c.23-.06.34-.22.34-.45v-.33c0-1.51 0-3.86-1-5.76-1.24-2.24-3.59-3.47-7-3.59v-3.07a.47.47 0 0 0-.22-.4c-.17-.05-.34-.05-.45.06l-7.16 5.82z"/></defs><g><g transform="translate(-311 -262)"><use fill="#1f9ed5" xlink:href="#ep81a"/></g></g></svg>