<svg xmlns="http://www.w3.org/2000/svg" viewBox="0 0 19.82 14">
  <defs>
    <style>
      .cls-1 {
        fill: #848485;
      }

      .cls-2 {
        fill: #8e8e93;
      }

      .cls-3 {
        fill: #fff;
      }
    </style>
  </defs>
  <g id="ticket" transform="translate(0 0.063)">
    <path id="Tracé_2112" data-name="Tracé 2112" class="cls-1" d="M21.657,6.743h0L20.6,4.49a.153.153,0,0,0-.2-.073.784.784,0,0,1-1.036-.363.776.776,0,0,1,.382-1.036.153.153,0,0,0,.073-.2L18.768.566h0A1.081,1.081,0,0,0,17.333.039L2.4,7.033a6.155,6.155,0,0,1,1,2.416,12.813,12.813,0,0,1,.2,1.871,2.37,2.37,0,0,0,.164,1.2h0c.908.036,1.835,0,2.743,0a25.759,25.759,0,0,1,5.159.091l9.447-4.433A1.068,1.068,0,0,0,21.657,6.743Z" transform="translate(-1.964)"/>
    <path id="Tracé_2113" data-name="Tracé 2113" class="cls-2" d="M19.657,31.224a.163.163,0,0,0,.163-.164V28.59h0a1.093,1.093,0,0,0-1.09-1.09H1.09A1.093,1.093,0,0,0,0,28.59v2.471a.163.163,0,0,0,.164.164.781.781,0,1,1,0,1.562A.163.163,0,0,0,0,32.95V35.4a1.093,1.093,0,0,0,1.09,1.09H18.73a1.093,1.093,0,0,0,1.09-1.09h0V32.932a.163.163,0,0,0-.163-.164.772.772,0,1,1,0-1.544Z" transform="translate(0 -22.556)"/>
    <path id="Tracé_2114" data-name="Tracé 2114" class="cls-3" d="M85.363,31a.163.163,0,0,0-.163.164v.472a.164.164,0,1,0,.327,0v-.472A.192.192,0,0,0,85.363,31Z" transform="translate(-69.722 -25.42)"/>
    <path id="Tracé_2115" data-name="Tracé 2115" class="cls-3" d="M85.363,48.9a.163.163,0,0,0-.163.164v.927a.164.164,0,1,0,.327,0v-.927A.192.192,0,0,0,85.363,48.9Z" transform="translate(-69.722 -40.068)"/>
    <path id="Tracé_2116" data-name="Tracé 2116" class="cls-3" d="M85.363,38.7a.163.163,0,0,0-.163.164v.927a.164.164,0,1,0,.327,0v-.927A.174.174,0,0,0,85.363,38.7Z" transform="translate(-69.722 -31.721)"/>
    <path id="Tracé_2117" data-name="Tracé 2117" class="cls-3" d="M85.363,59.1a.163.163,0,0,0-.163.163v.927a.164.164,0,1,0,.327,0v-.927A.192.192,0,0,0,85.363,59.1Z" transform="translate(-69.722 -48.415)"/>
    <path id="Tracé_2118" data-name="Tracé 2118" class="cls-3" d="M85.363,69.3a.163.163,0,0,0-.163.163v.472a.164.164,0,1,0,.327,0v-.472A.192.192,0,0,0,85.363,69.3Z" transform="translate(-69.722 -56.762)"/>
    <path id="Tracé_2119" data-name="Tracé 2119" class="cls-3" d="M92.164,32.7a.163.163,0,0,0-.164.164v6.794a.164.164,0,0,0,.327,0V32.845A.193.193,0,0,0,92.164,32.7Z" transform="translate(-75.286 -26.811)"/>
    <path id="Tracé_2120" data-name="Tracé 2120" class="cls-3" d="M21.2,40.735a.164.164,0,0,0,.327,0V39.027H22a.164.164,0,1,0,0-.327H20.764a.164.164,0,1,0,0,.327h.472v1.708Z" transform="translate(-16.858 -31.721)"/>
    <path id="Tracé_2121" data-name="Tracé 2121" class="cls-3" d="M63.6,38.8H62.364a.164.164,0,1,0,0,.327h.472v1.708a.164.164,0,1,0,.327,0V39.127h.472a.163.163,0,0,0,.164-.164C63.744,38.873,63.672,38.8,63.6,38.8Z" transform="translate(-50.9 -31.803)"/>
    <path id="Tracé_2122" data-name="Tracé 2122" class="cls-3" d="M30.764,40.962a.163.163,0,0,0,.164-.164V38.964a.164.164,0,0,0-.327,0v1.853A.193.193,0,0,0,30.764,40.962Z" transform="translate(-25.041 -31.803)"/>
    <path id="Tracé_2123" data-name="Tracé 2123" class="cls-3" d="M45.182,40.88a.163.163,0,0,0,.164-.164v-.563l.145-.182.509.836a.137.137,0,0,0,.127.073.109.109,0,0,0,.073-.018.168.168,0,0,0,.055-.218L45.69,39.7l.563-.745A.156.156,0,1,0,46,38.773l-.636.836h0l-.036.036v-.781a.164.164,0,1,0-.327,0v1.853C45.036,40.807,45.091,40.88,45.182,40.88Z" transform="translate(-36.825 -31.721)"/>
    <path id="Tracé_2124" data-name="Tracé 2124" class="cls-3" d="M36.418,40.962a.613.613,0,0,0,.618-.618.164.164,0,1,0-.327,0,.309.309,0,1,1-.618,0v-.927a.309.309,0,1,1,.618,0,.164.164,0,0,0,.327,0,.618.618,0,0,0-1.235,0v.927A.613.613,0,0,0,36.418,40.962Z" transform="translate(-29.296 -31.803)"/>
    <path id="Tracé_2125" data-name="Tracé 2125" class="cls-3" d="M54.664,40.716h.927a.164.164,0,0,0,0-.327h-.781v-.618h.472a.164.164,0,0,0,0-.327h-.472v-.618h.781a.164.164,0,1,0,0-.327h-.927a.163.163,0,0,0-.164.163v1.853C54.5,40.644,54.573,40.716,54.664,40.716Z" transform="translate(-44.599 -31.558)"/>
    <path id="Tracé_2126" data-name="Tracé 2126" class="cls-3" d="M31.7,58.2H23.964a.164.164,0,1,0,0,.327H31.7a.164.164,0,1,0,0-.327Z" transform="translate(-19.476 -47.679)"/>
    <path id="Tracé_2127" data-name="Tracé 2127" class="cls-3" d="M39.424,61.763a.163.163,0,0,0-.164-.163h-3.4a.164.164,0,1,0,0,.327h3.4A.152.152,0,0,0,39.424,61.763Z" transform="translate(-29.214 -50.461)"/>
    <path id="Tracé_2128" data-name="Tracé 2128" class="cls-3" d="M72.2,47.527h-.145v-.164a.164.164,0,1,0-.327,0v.164h-.164a.164.164,0,0,0,0,.327h.164v.164a.164.164,0,0,0,.327,0v-.164h.164a.163.163,0,0,0,.163-.164A.193.193,0,0,0,72.2,47.527Z" transform="translate(-58.429 -38.677)"/>
    <path id="Tracé_2129" data-name="Tracé 2129" class="cls-3" d="M12.518,39.027h-.164v-.164a.164.164,0,0,0-.327,0v.164h-.164a.164.164,0,1,0,0,.327h.164v.164a.164.164,0,1,0,.327,0v-.164h.164a.163.163,0,0,0,.164-.164C12.663,39.1,12.608,39.027,12.518,39.027Z" transform="translate(-9.574 -31.721)"/>
  </g>
</svg>
