<svg xmlns="http://www.w3.org/2000/svg" viewBox="0 0 30.55 18.5">
  <defs>
    <style>
      .cls-1 {
        fill: #d5d4d6;
      }

      .cls-2 {
        fill: #517684;
      }

      .cls-3 {
        fill: rgba(81,118,132,0.61);
      }

      .cls-4 {
        fill: #224252;
      }

      .cls-5 {
        fill: #0096c7;
      }

      .cls-6 {
        fill: #008bac;
      }

      .cls-7 {
        fill: #e84f4b;
      }

      .cls-8 {
        fill: #f9ba4a;
      }

      .cls-10, .cls-9 {
        stroke: none;
      }

      .cls-10 {
        fill: #393343;
      }
    </style>
  </defs>
  <g id="climatisation_icon" data-name="climatisation icon" transform="translate(0.5 0.5)">
    <g id="Tracé_2622" data-name="Tracé 2622" class="cls-1">
      <path class="cls-9" d="M 28.40111923217773 12.14690208435059 L 1.148669481277466 12.14690208435059 C 0.3774394690990448 12.14690208435059 -0.250000536441803 11.51946258544922 -0.250000536441803 10.74824237823486 L -0.250000536441803 1.148662447929382 C -0.250000536441803 0.377442479133606 0.3774394690990448 -0.2499975264072418 1.148669481277466 -0.2499975264072418 L 28.40744018554688 -0.2499975264072418 C 28.7815990447998 -0.2499975264072418 29.13332939147949 -0.1028575301170349 29.3978385925293 0.1643124669790268 C 29.66073989868164 0.4298524856567383 29.80348968505859 0.7803224921226501 29.79977989196777 1.151162505149841 L 29.79978942871094 10.74824237823486 C 29.79978942871094 11.51946258544922 29.17234992980957 12.14690208435059 28.40111923217773 12.14690208435059 Z"/>
      <path class="cls-10" d="M 28.40111923217773 11.89690208435059 C 29.03857040405273 11.89690208435059 29.54978942871094 11.37937259674072 29.54978942871094 10.74824237823486 L 29.54978942871094 1.148662447929382 C 29.55609893798828 0.5175324678421021 29.03857040405273 2.47268667408207e-06 28.40744018554688 2.47268667408207e-06 L 1.148669481277466 2.47268667408207e-06 C 0.5175294876098633 2.47268667408207e-06 -5.310058668328566e-07 0.5175324678421021 -5.310058668328566e-07 1.148662447929382 L -5.310058668328566e-07 10.74824237823486 C -5.310058668328566e-07 11.38568210601807 0.5175294876098633 11.89690208435059 1.148669481277466 11.89690208435059 L 28.40111923217773 11.89690208435059 M 28.40111923217773 12.39690208435059 L 1.148669481277466 12.39690208435059 C 0.2395894676446915 12.39690208435059 -0.500000536441803 11.65731239318848 -0.500000536441803 10.74824237823486 L -0.500000536441803 1.148662447929382 C -0.500000536441803 0.2395924776792526 0.2395894676446915 -0.4999975264072418 1.148669481277466 -0.4999975264072418 L 28.40744018554688 -0.4999975264072418 C 28.84885025024414 -0.4999975264072418 29.26366996765137 -0.3265375196933746 29.57549858093262 -0.01157752703875303 C 29.88570976257324 0.3017524778842926 30.05414009094238 0.7155824899673462 30.04977035522461 1.153662443161011 L 30.04978942871094 10.74824237823486 C 30.04978942871094 11.65731239318848 29.31019973754883 12.39690208435059 28.40111923217773 12.39690208435059 Z"/>
    </g>
    <path id="Tracé_2623" data-name="Tracé 2623" class="cls-2" d="M48.89,137.1H26.308a.225.225,0,0,0-.208.234v2.083a.225.225,0,0,0,.208.234H48.89a.225.225,0,0,0,.208-.234v-2.083a.22.22,0,0,0-.208-.234Z" transform="translate(-24.453 -128.447)"/>
    <path id="Tracé_2624" data-name="Tracé 2624" class="cls-3" d="M294.205,212.764c-1.218,0-2.247-1.616-2.247-3.534a.429.429,0,1,0-.858,0c0,2.461,1.363,4.393,3.105,4.393a.426.426,0,0,0,.429-.429.434.434,0,0,0-.429-.429Z" transform="translate(-272.728 -195.622)"/>
    <path id="Tracé_2625" data-name="Tracé 2625" class="cls-3" d="M362.405,212.764c-1.218,0-2.247-1.616-2.247-3.534a.429.429,0,1,0-.858,0c0,2.461,1.363,4.393,3.105,4.393a.426.426,0,0,0,.429-.429.434.434,0,0,0-.429-.429Z" transform="translate(-336.623 -195.622)"/>
    <path id="Tracé_2626" data-name="Tracé 2626" class="cls-3" d="M124.305,208.8a.426.426,0,0,0-.429.429c0,1.912-1.029,3.534-2.247,3.534a.429.429,0,0,0,0,.858c1.742,0,3.105-1.931,3.105-4.393a.43.43,0,0,0-.429-.429Z" transform="translate(-113.551 -195.622)"/>
    <path id="Tracé_2627" data-name="Tracé 2627" class="cls-3" d="M56.105,208.8a.426.426,0,0,0-.429.429c0,1.912-1.029,3.534-2.247,3.534a.429.429,0,0,0,0,.858c1.742,0,3.105-1.931,3.105-4.393a.43.43,0,0,0-.429-.429Z" transform="translate(-49.655 -195.622)"/>
    <path id="Tracé_2628" data-name="Tracé 2628" class="cls-4" d="M31.2,143.5H53.561v.7H31.2Z" transform="translate(-29.231 -134.443)"/>
    <path id="Tracé_2629" data-name="Tracé 2629" class="cls-4" d="M31.2,160.8H53.561v.707H31.2Z" transform="translate(-29.231 -150.651)"/>
    <path id="Tracé_2630" data-name="Tracé 2630" class="cls-5" d="M410.3,109.5h2.562V112H410.3Z" transform="translate(-384.404 -102.589)"/>
    <path id="Tracé_2631" data-name="Tracé 2631" class="cls-6" d="M410.3,143.8h2.562v.328H410.3Z" transform="translate(-384.404 -134.724)"/>
    <path id="Tracé_2632" data-name="Tracé 2632" class="cls-7" d="M410.3,157.3h1.086v.675H410.3Z" transform="translate(-384.404 -147.372)"/>
    <path id="Tracé_2633" data-name="Tracé 2633" class="cls-8" d="M433.7,157.3h1.086v.675H433.7Z" transform="translate(-406.328 -147.372)"/>
  </g>
</svg>
