<svg xmlns="http://www.w3.org/2000/svg" xmlns:xlink="http://www.w3.org/1999/xlink" viewBox="0 0 28.895 26.343">
  <defs>
    <style>
      .cls-1 {
        fill: #eeeff2;
      }

      .cls-2 {
        fill: #f1595a;
      }

      .cls-3 {
        fill: #e6415c;
      }

      .cls-4 {
        fill: #8e8e93;
      }

      .cls-5 {
        fill: #fed353;
      }

      .cls-6 {
        fill: #f8b134;
      }

      .cls-7 {
        fill: #fff;
      }

      .cls-8 {
        fill: #d9dee6;
      }

      .cls-9 {
        clip-path: url(#clip-path);
      }

      .cls-10 {
        fill: #67b56b;
      }

      .cls-11 {
        fill: #86c181;
      }

      .cls-12 {
        fill: #72b86e;
      }

      .cls-13 {
        fill: #b5cf6a;
      }

      .cls-14 {
        fill: #e7e6e6;
      }
    </style>
    <clipPath id="clip-path">
      <path id="Tracé_2482" data-name="Tracé 2482" d="M36.234,102.822a38.38,38.38,0,0,1-8.023-.859,1.865,1.865,0,0,1-1.32-1.352,20.656,20.656,0,0,1,0-12,1.865,1.865,0,0,1,1.32-1.352,37.885,37.885,0,0,1,16.047,0,1.865,1.865,0,0,1,1.32,1.352,20.656,20.656,0,0,1,0,12,1.865,1.865,0,0,1-1.32,1.352,38.325,38.325,0,0,1-8.023.859Z" transform="translate(-26 -86.4)"/>
    </clipPath>
  </defs>
  <g id="Diffuse_les_matchs_icon" data-name="Diffuse les matchs icon" transform="translate(-0.025)">
    <path id="Tracé_2452" data-name="Tracé 2452" class="cls-1" d="M151.294,14.2l.656.648-5.6,5.594-.648-.648Z" transform="translate(-134.294 -13.091)"/>
    <path id="Tracé_2453" data-name="Tracé 2453" class="cls-2" d="M204.63,0a1.43,1.43,0,1,1-1.43,1.43A1.43,1.43,0,0,1,204.63,0Z" transform="translate(-187.302)"/>
    <path id="Tracé_2454" data-name="Tracé 2454" class="cls-1" d="M74.748,14.1l5.594,5.594-.648.656L74.1,14.756Z" transform="translate(-67.288 -11.998)"/>
    <path id="Tracé_2455" data-name="Tracé 2455" class="cls-3" d="M61.33,0A1.43,1.43,0,1,1,59.9,1.43,1.43,1.43,0,0,1,61.33,0Z" transform="translate(-54.197 1)"/>
    <path id="Tracé_2456" data-name="Tracé 2456" class="cls-4" d="M271.714,304h-3.8a.116.116,0,0,0-.109.126v2.341a.116.116,0,0,0,.109.126h3.8a.116.116,0,0,0,.109-.126v-2.341a.121.121,0,0,0-.109-.126Z" transform="translate(-246.855 -280.25)"/>
    <path id="Tracé_2457" data-name="Tracé 2457" class="cls-4" d="M54.514,304h-3.8a.116.116,0,0,0-.109.126v2.341a.116.116,0,0,0,.109.126h3.8a.116.116,0,0,0,.109-.126v-2.341a.121.121,0,0,0-.109-.126Z" transform="translate(-46.624 -280.25)"/>
    <path id="Tracé_2458" data-name="Tracé 2458" class="cls-5" d="M25.437,80.82a60.152,60.152,0,0,1-21.93,0,2.962,2.962,0,0,1-2.234-1.961,21.365,21.365,0,0,1,0-14.391,2.95,2.95,0,0,1,2.234-1.961,60.152,60.152,0,0,1,21.93,0,2.962,2.962,0,0,1,2.234,1.961,21.365,21.365,0,0,1,0,14.391,2.962,2.962,0,0,1-2.234,1.961Z" transform="translate(0 -56.695)"/>
    <path id="Tracé_2459" data-name="Tracé 2459" class="cls-6" d="M28.757,92.889a57.471,57.471,0,0,1-10.375-.953,2.256,2.256,0,0,1-1.7-1.5,19.972,19.972,0,0,1,0-13.383,2.256,2.256,0,0,1,1.7-1.5,56.944,56.944,0,0,1,20.75,0,2.256,2.256,0,0,1,1.7,1.5,19.972,19.972,0,0,1,0,13.383,2.256,2.256,0,0,1-1.7,1.5,57.471,57.471,0,0,1-10.375.953Z" transform="translate(-14.289 -68.772)"/>
    <path id="Tracé_2460" data-name="Tracé 2460" class="cls-7" d="M36.234,102.822a38.38,38.38,0,0,1-8.023-.859,1.865,1.865,0,0,1-1.32-1.352,20.656,20.656,0,0,1,0-12,1.865,1.865,0,0,1,1.32-1.352,37.885,37.885,0,0,1,16.047,0,1.865,1.865,0,0,1,1.32,1.352,20.656,20.656,0,0,1,0,12,1.865,1.865,0,0,1-1.32,1.352,38.325,38.325,0,0,1-8.023.859Z" transform="translate(-23.946 -79.65)"/>
    <path id="Tracé_2461" data-name="Tracé 2461" class="cls-1" d="M298.8,108a1.4,1.4,0,1,1-1.4,1.4,1.4,1.4,0,0,1,1.4-1.4Z" transform="translate(-274.143 -99.563)"/>
    <path id="Tracé_2462" data-name="Tracé 2462" class="cls-8" d="M301.683,118.6l1.492,1.492a1.078,1.078,0,0,1-1.336-.148,1.093,1.093,0,0,1-.156-1.344Z" transform="translate(-277.941 -109.334)"/>
    <path id="Tracé_2463" data-name="Tracé 2463" class="cls-8" d="M309.244,112.425a1.078,1.078,0,0,1,.148,1.344l-1.492-1.492a1.1,1.1,0,0,1,1.344.148Z" transform="translate(-283.822 -103.354)"/>
    <path id="Tracé_2464" data-name="Tracé 2464" class="cls-1" d="M298.8,157a1.4,1.4,0,1,1-1.4,1.4,1.4,1.4,0,0,1,1.4-1.4Z" transform="translate(-274.143 -144.734)"/>
    <path id="Tracé_2465" data-name="Tracé 2465" class="cls-8" d="M301.683,167.6l1.492,1.492a1.078,1.078,0,0,1-1.336-.148,1.091,1.091,0,0,1-.156-1.344Z" transform="translate(-277.941 -154.506)"/>
    <path id="Tracé_2466" data-name="Tracé 2466" class="cls-8" d="M309.244,161.457a1.078,1.078,0,0,1,.148,1.344l-1.492-1.492a1.078,1.078,0,0,1,1.344.148Z" transform="translate(-283.822 -148.551)"/>
    <path id="Tracé_2467" data-name="Tracé 2467" class="cls-5" d="M308.6,226.586l2.2,2.2a1.617,1.617,0,0,0,.078-.516l-1.773-1.773a1.976,1.976,0,0,0-.508.086Z" transform="translate(-284.468 -208.805)"/>
    <path id="Tracé_2468" data-name="Tracé 2468" class="cls-5" d="M292.7,243.008l1.773,1.773a1.965,1.965,0,0,0,.516-.078l-2.2-2.2a1.611,1.611,0,0,0-.086.508Z" transform="translate(-269.81 -223.555)"/>
    <path id="Tracé_2469" data-name="Tracé 2469" class="cls-5" d="M321.52,227.761a1.731,1.731,0,0,0-.82-.461l1.281,1.281a1.668,1.668,0,0,0-.461-.82Z" transform="translate(-295.622 -209.542)"/>
    <path id="Tracé_2470" data-name="Tracé 2470" class="cls-5" d="M293.861,255.42a1.731,1.731,0,0,0,.82.461L293.4,254.6a1.761,1.761,0,0,0,.461.82Z" transform="translate(-270.455 -234.709)"/>
    <path id="Tracé_2471" data-name="Tracé 2471" class="cls-5" d="M295.1,234.852l2.367,2.367a1.723,1.723,0,0,0,.352-.234l-2.484-2.484a2.118,2.118,0,0,0-.234.352Z" transform="translate(-272.022 -216.18)"/>
    <path id="Tracé_2472" data-name="Tracé 2472" class="cls-5" d="M300.6,229.234l2.484,2.484a1.723,1.723,0,0,0,.234-.352L300.952,229a1.723,1.723,0,0,0-.352.234Z" transform="translate(-277.093 -211.109)"/>
    <g id="Groupe_950" data-name="Groupe 950" transform="translate(2.054 6.75)">
      <g id="Groupe_949" data-name="Groupe 949" class="cls-9">
        <path id="Tracé_2473" data-name="Tracé 2473" class="cls-10" d="M142.653,176.7a1.086,1.086,0,1,0,.953,1.078,1.024,1.024,0,0,0-.953-1.078Z" transform="translate(-132.661 -169.645)"/>
        <path id="Tracé_2474" data-name="Tracé 2474" class="cls-10" d="M29.323,98.906v-3.07a3.4,3.4,0,0,1,0-6.109V84.5h-8.57a1.024,1.024,0,0,0-.953,1.078V88.82h2.859a1.024,1.024,0,0,1,.953,1.078v5.766a1.024,1.024,0,0,1-.953,1.078H19.8v3.242a1.024,1.024,0,0,0,.953,1.078h8.57V98.906Z" transform="translate(-20.284 -84.648)"/>
        <path id="Tracé_2475" data-name="Tracé 2475" class="cls-11" d="M174.67,84.5H166.1v5.227a3.4,3.4,0,0,1,0,6.109v5.227h8.57a1.024,1.024,0,0,0,.953-1.078V96.742h-2.859a1.024,1.024,0,0,1-.953-1.078V89.9a1.024,1.024,0,0,1,.953-1.078h2.859V85.586a1.155,1.155,0,0,0-.281-.766.9.9,0,0,0-.672-.32Z" transform="translate(-155.155 -84.648)"/>
        <path id="Tracé_2476" data-name="Tracé 2476" class="cls-12" d="M21.706,171.1v-3.6H19.8v3.6h1.906Z" transform="translate(-20.284 -161.164)"/>
        <path id="Tracé_2477" data-name="Tracé 2477" class="cls-13" d="M263.6,167.5v3.6h1.906v-3.6H263.6Z" transform="translate(-245.038 -161.164)"/>
        <path id="Tracé_2478" data-name="Tracé 2478" class="cls-14" d="M21.706,147.822h.953a1.024,1.024,0,0,0,.953-1.078v-5.766a1.024,1.024,0,0,0-.953-1.078H19.8v2.164h1.906v3.6H19.8v2.164h1.906Z" transform="translate(-20.284 -135.72)"/>
        <path id="Tracé_2479" data-name="Tracé 2479" class="cls-7" d="M241.106,139.708h-.953a1.024,1.024,0,0,0-.953,1.078v5.766a1.024,1.024,0,0,0,.953,1.078h2.859v-2.164h-1.906v-3.6h1.906V139.7h-1.906Z" transform="translate(-222.544 -135.536)"/>
        <path id="Tracé_2480" data-name="Tracé 2480" class="cls-7" d="M143.606,89.727V84.5h-.953v7.2a1.086,1.086,0,0,1,0,2.156v7.2h.953V95.836a3.4,3.4,0,0,0,0-6.109Z" transform="translate(-132.661 -84.648)"/>
        <path id="Tracé_2481" data-name="Tracé 2481" class="cls-14" d="M119.206,92.789a1.024,1.024,0,0,1,.953-1.078V84.5h-.953v5.227a3.4,3.4,0,0,0,0,6.109v5.227h.953v-7.2a1.012,1.012,0,0,1-.953-1.07Z" transform="translate(-110.167 -84.648)"/>
      </g>
    </g>
  </g>
</svg>
