<svg xmlns="http://www.w3.org/2000/svg" viewBox="0 0 23 21">
  <defs>
    <style>
      .cls-1 {
        fill: #2f9486;
      }

      .cls-2 {
        fill: #40a295;
      }

      .cls-3 {
        fill: #5bb797;
      }

      .cls-4 {
        fill: #fff;
      }

      .cls-5 {
        fill: #fdd75a;
      }

      .cls-6 {
        fill: #f7c64e;
      }

      .cls-7 {
        fill: #dd8838;
      }
    </style>
  </defs>
  <g id="Groupe_627" data-name="Groupe 627" transform="translate(-0.002 0.283)">
    <path id="Tracé_1360" data-name="Tracé 1360" class="cls-1" d="M19,68.732l-4-1-8,3-7,1v1l8,3,15-5v-2Z" transform="translate(0 -58.016)"/>
    <path id="Tracé_1361" data-name="Tracé 1361" class="cls-2" d="M15,55.55l-15,6,8,2,15-5Z" transform="translate(0 -47.833)"/>
    <path id="Tracé_1362" data-name="Tracé 1362" class="cls-3" d="M19.666,68.085l-5-2c.563-.2.577-.812,0-1l12-4a3.5,3.5,0,0,0,2,0l5,2c-.563.2-.577-.188,0,0l-12,5a3.375,3.375,0,0,0-2,0Z" transform="translate(-12.664 -52.368)"/>
    <path id="Tracé_1363" data-name="Tracé 1363" class="cls-2" d="M62.383,76.495c1.472.505,1.154.6,0,1a9.315,9.315,0,0,1-5,0c-1.472-.505-1.154-1.6,0-2s3.514.48,5,1Z" transform="translate(-48.381 -64.778)"/>
    <path id="Tracé_1364" data-name="Tracé 1364" class="cls-2" d="M117.647,67.711c.26.087.26-.087,0,0a1.957,1.957,0,0,1-1,0c-.26-.087-.26.087,0,0a1.688,1.688,0,0,1,1,0Z" transform="translate(-99.645 -57.994)"/>
    <path id="Tracé_1365" data-name="Tracé 1365" class="cls-2" d="M35.395,96.5c.26.087.26.913,0,1a1.957,1.957,0,0,1-1,0c-.26-.087-.26-.913,0-1a1.957,1.957,0,0,1,1,0Z" transform="translate(-29.393 -82.788)"/>
    <path id="Tracé_1366" data-name="Tracé 1366" class="cls-3" d="M66.632,78.69c.014-.058.13-.957,0-1s.144,0,0,0a5.742,5.742,0,0,0-1,0l1,1c.144-.072-.029.058,0,0Zm-3-1c-.014.058-.115-.043,0,0s-.13,0,0,0a7.634,7.634,0,0,0,1,0h-1c-.144.058.014-.058,0,0Zm4,1h-1a10.239,10.239,0,0,1-2,0h0a18.383,18.383,0,0,0,2,0l-1-1c-.476.1-1.668.986-2,1a2.59,2.59,0,0,1-1,0c-.3-.1-.029-.87,0-1s.683.115,1,0h0c.4-.13.437-.957,1-1v1a5.76,5.76,0,0,0-1,0h1a15.372,15.372,0,0,1,2,0,2.906,2.906,0,0,1,1,0c.3.1.029.87,0,1s.332-.13,0,0Z" transform="translate(-53.63 -65.974)"/>
    <path id="Tracé_1367" data-name="Tracé 1367" class="cls-1" d="M19,54.753l-4-1-8,3-7,1v1l8,3,15-5v-2Z" transform="translate(0 -46.036)"/>
    <path id="Tracé_1368" data-name="Tracé 1368" class="cls-2" d="M15,41.57l-15,6,8,2,15-5Z" transform="translate(0 -35.853)"/>
    <path id="Tracé_1369" data-name="Tracé 1369" class="cls-3" d="M19.666,54.105l-5-2c.563-.2.577-.812,0-1l12-4a3.5,3.5,0,0,0,2,0l5,2c-.563.2-.577-.188,0,0l-12,5a3.624,3.624,0,0,0-2,0Z" transform="translate(-12.664 -40.389)"/>
    <path id="Tracé_1370" data-name="Tracé 1370" class="cls-2" d="M62.383,62.542c1.472.505,1.154.6,0,1a9.315,9.315,0,0,1-5,0c-1.472-.505-1.154-1.6,0-2s3.514.495,5,1Z" transform="translate(-48.381 -52.825)"/>
    <path id="Tracé_1371" data-name="Tracé 1371" class="cls-2" d="M117.647,53.8c.26.087.26-.087,0,0a1.957,1.957,0,0,1-1,0c-.26-.087-.26.087,0,0a1.958,1.958,0,0,1,1,0Z" transform="translate(-99.645 -46.079)"/>
    <path id="Tracé_1372" data-name="Tracé 1372" class="cls-2" d="M35.395,82.525c.26.087.26.913,0,1a1.957,1.957,0,0,1-1,0c-.26-.087-.26-.913,0-1a1.957,1.957,0,0,1,1,0Z" transform="translate(-29.393 -70.808)"/>
    <path id="Tracé_1373" data-name="Tracé 1373" class="cls-3" d="M66.632,64.711c.014-.058.13-.957,0-1s.144,0,0,0a5.742,5.742,0,0,0-1,0l1,1c.144-.058-.029.058,0,0Zm-3-1c-.014.058-.115-.043,0,0s-.13,0,0,0a7.634,7.634,0,0,0,1,0h-1c-.144.058.014-.058,0,0Zm4,1h-1a10.239,10.239,0,0,1-2,0h0a18.385,18.385,0,0,0,2,0l-1-1c-.476.1-1.668.986-2,1a2.59,2.59,0,0,1-1,0c-.3-.1-.029-.87,0-1s.683.115,1,0h0c.4-.13.437-.957,1-1v1a5.761,5.761,0,0,0-1,0h1a15.372,15.372,0,0,1,2,0,2.906,2.906,0,0,1,1,0c.3.1.029.87,0,1s.332-.13,0,0Z" transform="translate(-53.63 -53.994)"/>
    <path id="Tracé_1374" data-name="Tracé 1374" class="cls-1" d="M19,40.773l-4-1-8,3-7,1v1l8,3,15-5v-2Z" transform="translate(0 -34.056)"/>
    <path id="Tracé_1375" data-name="Tracé 1375" class="cls-2" d="M15,27.676l-15,6,8,2,15-5Z" transform="translate(0 -23.959)"/>
    <path id="Tracé_1376" data-name="Tracé 1376" class="cls-3" d="M19.666,40.126l-5-2c.563-.2.577-.812,0-1l12-4a3.5,3.5,0,0,0,2,0l5,2c-.563.2-.577-.188,0,0l-12,5a3.5,3.5,0,0,0-2,0Z" transform="translate(-12.664 -28.409)"/>
    <path id="Tracé_1377" data-name="Tracé 1377" class="cls-2" d="M62.383,48.562c1.472.505,1.154.6,0,1a9.315,9.315,0,0,1-5,0c-1.472-.505-1.154-1.6,0-2s3.514.495,5,1Z" transform="translate(-48.381 -40.845)"/>
    <path id="Tracé_1378" data-name="Tracé 1378" class="cls-2" d="M117.647,39.816c.26.087.26-.087,0,0a1.957,1.957,0,0,1-1,0c-.26-.087-.26.087,0,0a1.957,1.957,0,0,1,1,0Z" transform="translate(-99.645 -34.099)"/>
    <path id="Tracé_1379" data-name="Tracé 1379" class="cls-2" d="M35.395,68.545c.26.087.26.913,0,1a1.958,1.958,0,0,1-1,0c-.26-.087-.26-.913,0-1a1.957,1.957,0,0,1,1,0Z" transform="translate(-29.393 -58.829)"/>
    <path id="Tracé_1380" data-name="Tracé 1380" class="cls-3" d="M66.632,50.817c.014-.058.13-.957,0-1s.144,0,0,0a5.743,5.743,0,0,0-1,0l1,1c.144-.058-.029.072,0,0Zm-3-1c-.014.058-.115-.043,0,0s-.13,0,0,0a7.635,7.635,0,0,0,1,0h-1c-.144.058.014-.058,0,0Zm4,1h-1a10.24,10.24,0,0,1-2,0h0a18.385,18.385,0,0,0,2,0l-1-1c-.476.1-1.668.986-2,1s-.7-.885-1-1-.029.13,0,0,.683.115,1,0h0c.4-.13.437-.957,1-1v1a5.761,5.761,0,0,0-1,0h1a15.371,15.371,0,0,1,2,0,2.906,2.906,0,0,1,1,0c.3.1.029-.13,0,0s.332.87,0,1Z" transform="translate(-53.63 -42.1)"/>
    <path id="Tracé_1381" data-name="Tracé 1381" class="cls-1" d="M19,26.879l-4-1-8,3-7,1v1l8,3,15-5v-2Z" transform="translate(0 -22.162)"/>
    <path id="Tracé_1382" data-name="Tracé 1382" class="cls-2" d="M15,13.7l-15,6,8,2,15-5Z" transform="translate(0 -11.98)"/>
    <path id="Tracé_1383" data-name="Tracé 1383" class="cls-3" d="M19.666,26.146l-5-2c.563-.2.577-.812,0-1l12-4a3.5,3.5,0,0,0,2,0l5,2c-.563.2-.577-.188,0,0l-12,5a3.376,3.376,0,0,0-2,0Z" transform="translate(-12.664 -16.429)"/>
    <path id="Tracé_1384" data-name="Tracé 1384" class="cls-2" d="M62.383,34.605c1.472.505,1.154.6,0,1a9.315,9.315,0,0,1-5,0c-1.472-.505-1.154-1.6,0-2s3.514.48,5,1Z" transform="translate(-48.381 -28.889)"/>
    <path id="Tracé_1385" data-name="Tracé 1385" class="cls-2" d="M117.647,25.836c.26.087.26-.087,0,0a1.957,1.957,0,0,1-1,0c-.26-.087-.26.087,0,0a1.957,1.957,0,0,1,1,0Z" transform="translate(-99.645 -22.12)"/>
    <path id="Tracé_1386" data-name="Tracé 1386" class="cls-2" d="M35.395,54.587c.26.087.26.913,0,1a1.957,1.957,0,0,1-1,0c-.26-.087-.26-.913,0-1a1.688,1.688,0,0,1,1,0Z" transform="translate(-29.393 -46.87)"/>
    <path id="Tracé_1387" data-name="Tracé 1387" class="cls-3" d="M66.632,36.837c.014-.058.13-.957,0-1s.144,0,0,0a5.743,5.743,0,0,0-1,0l1,1c.144-.072-.029.058,0,0Zm-3-1c-.014.058-.115-.043,0,0s-.13,0,0,0a7.635,7.635,0,0,0,1,0h-1c-.144.058.014-.058,0,0Zm4,1h-1a10.239,10.239,0,0,1-2,0h0a18.387,18.387,0,0,0,2,0l-1-1c-.476.1-1.668.986-2,1s-.7-.885-1-1-.029.13,0,0,.683.115,1,0h0c.4-.13.437-.957,1-1v1a5.761,5.761,0,0,0-1,0h1a15.372,15.372,0,0,1,2,0,2.906,2.906,0,0,1,1,0c.3.1.029-.13,0,0s.332.87,0,1Z" transform="translate(-53.63 -30.12)"/>
    <path id="Tracé_1388" data-name="Tracé 1388" class="cls-1" d="M19,12.9l-4-1-8,3-7,1v1l8,3,15-5v-2Z" transform="translate(0 -10.183)"/>
    <path id="Tracé_1389" data-name="Tracé 1389" class="cls-2" d="M15-.283l-15,6,8,2,15-5Z"/>
    <path id="Tracé_1390" data-name="Tracé 1390" class="cls-3" d="M19.666,12.166l-5-2c.563-.2.577-.812,0-1l12-4a3.5,3.5,0,0,0,2,0l5,2c-.563.2-.577-.188,0,0l-12,5a3.376,3.376,0,0,0-2,0Z" transform="translate(-12.664 -4.45)"/>
    <path id="Tracé_1391" data-name="Tracé 1391" class="cls-2" d="M62.383,20.662c1.472.505,1.154.6,0,1a9.315,9.315,0,0,1-5,0c-1.472-.505-1.154-1.6,0-2s3.514.48,5,1Z" transform="translate(-48.381 -16.945)"/>
    <path id="Tracé_1392" data-name="Tracé 1392" class="cls-2" d="M117.647,11.878c.26.087.26-.087,0,0a1.957,1.957,0,0,1-1,0c-.26-.087-.26.087,0,0a1.688,1.688,0,0,1,1,0Z" transform="translate(-99.645 -10.161)"/>
    <path id="Tracé_1393" data-name="Tracé 1393" class="cls-2" d="M35.395,40.672c.26.087.26.913,0,1a1.957,1.957,0,0,1-1,0c-.26-.087-.26-.913,0-1a1.957,1.957,0,0,1,1,0Z" transform="translate(-29.393 -34.955)"/>
    <path id="Tracé_1394" data-name="Tracé 1394" class="cls-3" d="M66.632,21.857c.014-.058.13.043,0,0s.144,0,0,0a5.743,5.743,0,0,0-1,0l1,1c.144-.072-.029-.942,0-1Zm-3,0c-.014.058-.115-.043,0,0s-.13,0,0,0a7.635,7.635,0,0,0,1,0h-1c-.144.058.014-.058,0,0Zm4,1h-1a10.24,10.24,0,0,1-2,0h0a18.387,18.387,0,0,0,2,0l-1-1c-.476.1-1.668.986-2,1s-.7-.885-1-1-.029.13,0,0,.683.115,1,0h0c.4-.13.437-.957,1-1v1a5.761,5.761,0,0,0-1,0h1a15.37,15.37,0,0,1,2,0,2.906,2.906,0,0,1,1,0c.3.1.029-.13,0,0s.332.87,0,1Z" transform="translate(-53.63 -18.141)"/>
    <path id="Tracé_1395" data-name="Tracé 1395" class="cls-4" d="M95.207,34.126v10l3-1v-10Z" transform="translate(-81.205 -28.409)"/>
    <path id="Tracé_1396" data-name="Tracé 1396" class="cls-5" d="M97.688,39.773v10h0v-10Z" transform="translate(-83.686 -34.056)"/>
    <path id="Tracé_1397" data-name="Tracé 1397" class="cls-5" d="M113.38,33.981v10h1v-10Z" transform="translate(-97.377 -29.265)"/>
    <path id="Tracé_1398" data-name="Tracé 1398" class="cls-6" d="M81.264,125.763c0,.693-1.355,2-3,2s-3-1.307-3-2v-1h6v1Z" transform="translate(-64.262 -107.047)"/>
    <path id="Tracé_1399" data-name="Tracé 1399" class="cls-5" d="M78.264,116.319c1.645,0,3,.307,3,1s-1.355,2-3,2-3-1.307-3-2,1.355-1,3-1Z" transform="translate(-64.262 -99.602)"/>
    <path id="Tracé_1400" data-name="Tracé 1400" class="cls-7" d="M80.489,119.774c-1.284,0-2-.509-2-1s.73-1,2-1,2,.509,2,1-.716,1-2,1Zm0-2c-1.443,0-3,.437-3,1s1.557,1,3,1,2-.437,2-1-.557-1-2-1Z" transform="translate(-66.487 -101.057)"/>
    <path id="Tracé_1401" data-name="Tracé 1401" class="cls-7" d="M89.132,121.485c.087-.029,0,.043,0,0a4.631,4.631,0,0,0,0-1c-.058-.029.173.014,0,0v1c.144-.014-.087.029,0,0Zm-1-1c-.072.029,0-.043,0,0s-.058-.014,0,0,.841-.014,1,0h0c-.115,0-.928-.029-1,0Zm1,1h0c-.39-.014-.683.115-1,0h0a4.632,4.632,0,0,0,1,0v-1c-.332-.029-.841.043-1,0s0,.1,0,0-.173.072,0,0a5.752,5.752,0,0,1,1,0h0a5.784,5.784,0,0,1,1,0h0a7.7,7.7,0,0,0-1,0h0c.332.029.841-.058,1,0s0,.9,0,1,.188-.072,0,0a5.741,5.741,0,0,1-1,0Z" transform="translate(-75.13 -102.768)"/>
    <path id="Tracé_1402" data-name="Tracé 1402" class="cls-6" d="M81.264,117.319c0,.693-1.355,1-3,1s-3-.307-3-1v-1h6v1Z" transform="translate(-64.262 -99.602)"/>
    <path id="Tracé_1403" data-name="Tracé 1403" class="cls-5" d="M78.264,107.874c1.645,0,3,.307,3,1s-1.355,1-3,1-3-.307-3-1,1.355-1,3-1Z" transform="translate(-64.262 -92.158)"/>
    <path id="Tracé_1404" data-name="Tracé 1404" class="cls-7" d="M80.489,111.329c-1.284,0-2-.509-2-1s.73-1,2-1,2,.509,2,1-.716,1-2,1Zm0-2c-1.443,0-3,.437-3,1s1.557,1,3,1,2-.437,2-1-.557-1-2-1Z" transform="translate(-66.487 -93.612)"/>
    <path id="Tracé_1405" data-name="Tracé 1405" class="cls-7" d="M89.132,112.126c.087-.029,0,.043,0,0s.072.014,0,0,.173.014,0,0h0c.144-.014-.087.029,0,0Zm-1,0c-.072.029,0-.043,0,0s-.058-.014,0,0,.841-.014,1,0h0c-.115.014-.928-.014-1,0Zm1,1h0c-.39-.014-.683-.885-1-1h0a4.633,4.633,0,0,0,1,0h0c-.332-.029-.841.043-1,0s0,.1,0,0-.173.072,0,0,.726-1,1-1h0c.317.014.711.928,1,1h0a7.7,7.7,0,0,0-1,0h0c.332.029.841-.058,1,0s0-.1,0,0,.188.928,0,1a5.742,5.742,0,0,1-1,0Z" transform="translate(-75.13 -95.409)"/>
    <path id="Tracé_1406" data-name="Tracé 1406" class="cls-6" d="M81.264,108.96c0,.693-1.355,1-3,1s-3-.307-3-1v-1h6v1Z" transform="translate(-64.262 -92.243)"/>
    <path id="Tracé_1407" data-name="Tracé 1407" class="cls-5" d="M78.264,99.516c1.645,0,3,.307,3,1s-1.355,1-3,1-3-.307-3-1,1.355-1,3-1Z" transform="translate(-64.262 -84.799)"/>
    <path id="Tracé_1408" data-name="Tracé 1408" class="cls-7" d="M80.489,102.97c-1.284,0-2-.509-2-1s.73-1,2-1,2,.509,2,1-.716,1-2,1Zm0-2c-1.443,0-3,.437-3,1s1.557,1,3,1,2-.437,2-1-.557-1-2-1Z" transform="translate(-66.487 -86.254)"/>
    <path id="Tracé_1409" data-name="Tracé 1409" class="cls-7" d="M89.132,103.682c.087-.029,0,.043,0,0s.072.014,0,0,.173.014,0,0h0c.144-.014-.087.029,0,0Zm-1-1a4.633,4.633,0,0,0,0,1c0,.043-.058-.014,0,0s.841-.014,1,0v-1c-.115,0-.928-.029-1,0Zm1,2v-1c-.39-.014-.683.115-1,0h0a4.633,4.633,0,0,0,1,0h0c-.332-.029-.841.043-1,0s0,.1,0,0-.173-.928,0-1a5.752,5.752,0,0,1,1,0h0a5.783,5.783,0,0,1,1,0h0a7.7,7.7,0,0,0-1,0v1h0c.332.029.841-.058,1,0s0-.1,0,0,.188-.072,0,0a5.742,5.742,0,0,1-1,0v1Z" transform="translate(-75.13 -87.965)"/>
    <path id="Tracé_1410" data-name="Tracé 1410" class="cls-6" d="M81.264,100.6c0,.693-1.355,1-3,1s-3-.307-3-1v-1h6v1Z" transform="translate(-64.262 -84.884)"/>
    <path id="Tracé_1411" data-name="Tracé 1411" class="cls-5" d="M78.264,90.071c1.645,0,3,1.307,3,2s-1.355,1-3,1-3-.307-3-1,1.355-2,3-2Z" transform="translate(-64.262 -77.354)"/>
    <path id="Tracé_1412" data-name="Tracé 1412" class="cls-7" d="M80.489,93.526c-1.284,0-2,.491-2,0s.73-1,2-1,2,.509,2,1-.716,0-2,0Zm0-1c-1.443,0-3,.437-3,1s1.557,1,3,1,2-.437,2-1-.557-1-2-1Z" transform="translate(-66.487 -78.809)"/>
    <path id="Tracé_1413" data-name="Tracé 1413" class="cls-7" d="M89.132,95.323c.087-.029,0,.043,0,0s.072.014,0,0,.173.014,0,0h0c.144-.014-.087.014,0,0Zm-1-1c-.072.029,0-.043,0,0s-.058-.014,0,0,.841-.014,1,0h0c-.115.014-.928-.014-1,0Zm1,1h0c-.39-.014-.683.115-1,0h0a4.633,4.633,0,0,0,1,0h0c-.332-.029-.841.043-1,0s0-.9,0-1-.173.072,0,0a5.752,5.752,0,0,1,1,0h0a5.783,5.783,0,0,1,1,0h0a7.7,7.7,0,0,0-1,0h0c.332.029.841.942,1,1s0-.1,0,0,.188-.072,0,0a5.743,5.743,0,0,1-1,0Z" transform="translate(-75.13 -80.606)"/>
    <path id="Tracé_1414" data-name="Tracé 1414" class="cls-6" d="M81.264,91.157c0,.693-1.355,2-3,2s-3-1.307-3-2v-1h6v1Z" transform="translate(-64.262 -77.44)"/>
    <path id="Tracé_1415" data-name="Tracé 1415" class="cls-5" d="M78.264,81.712c1.645,0,3,.307,3,1s-1.355,2-3,2-3-1.307-3-2,1.355-1,3-1Z" transform="translate(-64.262 -69.995)"/>
    <path id="Tracé_1416" data-name="Tracé 1416" class="cls-7" d="M80.489,85.167c-1.284,0-2-.509-2-1s.73-1,2-1,2,.509,2,1-.716,1-2,1Zm0-2c-1.443,0-3,.437-3,1s1.557,1,3,1,2-.437,2-1-.557-1-2-1Z" transform="translate(-66.487 -71.45)"/>
    <path id="Tracé_1417" data-name="Tracé 1417" class="cls-7" d="M89.132,87.049c.087-.029,0,.043,0,0s.072.014,0,0,.173-.986,0-1v1c.144-.014-.087.029,0,0Zm-1-1c-.072.029,0-.043,0,0s-.058-.014,0,0,.841-.014,1,0h0c-.115,0-.928-.029-1,0Zm1,1h0c-.39-.014-.683.115-1,0h0a4.632,4.632,0,0,0,1,0v-1c-.332-.029-.841.043-1,0s0,.1,0,0-.173.072,0,0a5.752,5.752,0,0,1,1,0h0a5.783,5.783,0,0,1,1,0h0a7.7,7.7,0,0,0-1,0h0c.332.029.841-.058,1,0s0,.9,0,1,.188-.072,0,0a5.742,5.742,0,0,1-1,0Z" transform="translate(-75.13 -73.333)"/>
    <path id="Tracé_1418" data-name="Tracé 1418" class="cls-6" d="M81.264,82.8c0,.693-1.355,1-3,1s-3-.307-3-1v-1h6v1Z" transform="translate(-64.262 -70.081)"/>
    <path id="Tracé_1419" data-name="Tracé 1419" class="cls-5" d="M78.264,73.353c1.645,0,3,.307,3,1s-1.355,1-3,1-3-.307-3-1,1.355-1,3-1Z" transform="translate(-64.262 -62.636)"/>
    <path id="Tracé_1420" data-name="Tracé 1420" class="cls-7" d="M80.489,76.808c-1.284,0-2-.509-2-1s.73-1,2-1,2,.509,2,1-.716,1-2,1Zm0-2c-1.443,0-3,.437-3,1s1.557,1,3,1,2-.437,2-1-.557-1-2-1Z" transform="translate(-66.487 -64.091)"/>
    <path id="Tracé_1421" data-name="Tracé 1421" class="cls-7" d="M89.132,77.6c.087-.029,0,.043,0,0s.072.014,0,0,.173.014,0,0v1c.144-.014-.087-.971,0-1Zm-1,0c-.072.029,0-.043,0,0s-.058-.014,0,0,.841-.014,1,0h0c-.115,0-.928-.029-1,0Zm1,1h0c-.39-.014-.683-.885-1-1h0a4.633,4.633,0,0,0,1,0h0c-.332-.029-.841.043-1,0s0,.1,0,0-.173.072,0,0,.726-1,1-1h0c.317.014.711.928,1,1h0a7.7,7.7,0,0,0-1,0h0c.332.029.841-.058,1,0s0-.1,0,0,.188.928,0,1a5.742,5.742,0,0,1-1,0Z" transform="translate(-75.13 -65.888)"/>
    <path id="Tracé_1422" data-name="Tracé 1422" class="cls-6" d="M81.264,74.353c0,.693-1.355,1-3,1s-3-.307-3-1v-1h6v1Z" transform="translate(-64.262 -62.637)"/>
    <path id="Tracé_1423" data-name="Tracé 1423" class="cls-5" d="M78.264,64.909c1.645,0,3,.307,3,1s-1.355,1-3,1-3-.307-3-1,1.355-1,3-1Z" transform="translate(-64.262 -55.192)"/>
    <path id="Tracé_1424" data-name="Tracé 1424" class="cls-7" d="M80.489,68.363c-1.284,0-2-.509-2-1s.73-1,2-1,2,.509,2,1-.716,1-2,1Zm0-2c-1.443,0-3,.437-3,1s1.557,1,3,1,2-.437,2-1-.557-1-2-1Z" transform="translate(-66.487 -56.647)"/>
    <path id="Tracé_1425" data-name="Tracé 1425" class="cls-7" d="M89.132,69.16c.087-.029,0,.043,0,0s.072.014,0,0,.173.014,0,0h0c.144-.014-.087.029,0,0Zm-1-1a4.633,4.633,0,0,0,0,1c0,.043-.058-.014,0,0s.841-.014,1,0v-1c-.115.014-.928-.014-1,0Zm1,2v-1c-.39-.014-.683.115-1,0h0a4.633,4.633,0,0,0,1,0h0c-.332-.029-.841.043-1,0s0,.1,0,0-.173-.928,0-1a5.752,5.752,0,0,1,1,0h0a5.783,5.783,0,0,1,1,0v1c-.188-.058-.784-.986-1-1v1h0c.332.029.841-.058,1,0s0-.1,0,0,.188-.072,0,0a5.742,5.742,0,0,1-1,0v1Z" transform="translate(-75.13 -58.444)"/>
    <path id="Tracé_1426" data-name="Tracé 1426" class="cls-6" d="M81.264,65.994c0,.693-1.355,1-3,1s-3-.307-3-1v-1h6v1Z" transform="translate(-64.262 -55.278)"/>
    <path id="Tracé_1427" data-name="Tracé 1427" class="cls-5" d="M78.264,55.55c1.645,0,3,1.307,3,2s-1.355,1-3,1-3-.307-3-1,1.355-2,3-2Z" transform="translate(-64.262 -47.833)"/>
    <path id="Tracé_1428" data-name="Tracé 1428" class="cls-7" d="M80.489,60c-1.284,0-2-.509-2-1s.73-1,2-1,2,.509,2,1-.716,1-2,1Zm0-2c-1.443,0-3,.437-3,1s1.557,1,3,1,2-.437,2-1-.557-1-2-1Z" transform="translate(-66.487 -49.288)"/>
    <path id="Tracé_1429" data-name="Tracé 1429" class="cls-7" d="M89.132,60.8c.087-.029,0,.043,0,0s.072.014,0,0,.173.014,0,0h0c.144-.014-.087.029,0,0Zm-1-1c-.072.029,0-.043,0,0s-.058-.014,0,0,.841-.014,1,0h0c-.115,0-.928-.029-1,0Zm1,1h0c-.39-.014-.683.115-1,0h0a4.632,4.632,0,0,0,1,0h0c-.332-.029-.841.043-1,0s0-.9,0-1-.173.072,0,0a5.752,5.752,0,0,1,1,0h0a5.783,5.783,0,0,1,1,0h0a7.706,7.706,0,0,0-1,0h0c.332.029.841.942,1,1s0-.1,0,0,.188-.072,0,0a5.742,5.742,0,0,1-1,0Z" transform="translate(-75.13 -51.085)"/>
    <path id="Tracé_1430" data-name="Tracé 1430" class="cls-6" d="M124.572,125.763c0,.693-1.355,2-3,2s-3-1.307-3-2v-1h6v1Z" transform="translate(-101.57 -107.047)"/>
    <path id="Tracé_1431" data-name="Tracé 1431" class="cls-5" d="M121.572,116.319c1.645,0,3,.307,3,1s-1.355,2-3,2-3-1.307-3-2,1.355-1,3-1Z" transform="translate(-101.57 -99.602)"/>
    <path id="Tracé_1432" data-name="Tracé 1432" class="cls-7" d="M123.8,119.774c-1.284,0-2-.509-2-1s.73-1,2-1,2,.509,2,1-.716,1-2,1Zm0-2c-1.443,0-2,.437-2,1s.557,1,2,1,3-.437,3-1-1.557-1-3-1Z" transform="translate(-103.795 -101.057)"/>
    <path id="Tracé_1433" data-name="Tracé 1433" class="cls-7" d="M133.44,121.485c.087-.029,0,.043,0,0a4.631,4.631,0,0,0,0-1c-.058-.029-.827.014-1,0v1c.159-.014.913.029,1,0Zm-1-1c-.072.029,0-.043,0,0s-.058-.014,0,0-.159-.014,0,0h0c-.13,0,.072-.029,0,0Zm0,1h0c-.39-.014-.683.115-1,0h0a4.632,4.632,0,0,0,1,0v-1c-.332-.029-.841.043-1,0s0,.1,0,0-.173.072,0,0a5.752,5.752,0,0,1,1,0h0a5.784,5.784,0,0,1,1,0h0a7.7,7.7,0,0,0-1,0h0c.332.029.841-.058,1,0s0,.9,0,1,.188-.072,0,0a5.741,5.741,0,0,1-1,0Z" transform="translate(-112.438 -102.768)"/>
    <path id="Tracé_1434" data-name="Tracé 1434" class="cls-6" d="M124.572,117.319c0,.693-1.355,1-3,1s-3-.307-3-1v-1h6v1Z" transform="translate(-101.57 -99.602)"/>
    <path id="Tracé_1435" data-name="Tracé 1435" class="cls-5" d="M121.572,107.874c1.645,0,3,.307,3,1s-1.355,1-3,1-3-.307-3-1,1.355-1,3-1Z" transform="translate(-101.57 -92.158)"/>
    <path id="Tracé_1436" data-name="Tracé 1436" class="cls-7" d="M123.8,111.329c-1.284,0-2-.509-2-1s.73-1,2-1,2,.509,2,1-.716,1-2,1Zm0-2c-1.443,0-2,.437-2,1s.557,1,2,1,3-.437,3-1-1.557-1-3-1Z" transform="translate(-103.795 -93.612)"/>
    <path id="Tracé_1437" data-name="Tracé 1437" class="cls-7" d="M133.44,112.126c.087-.029,0,.043,0,0s.072.014,0,0-.827.014-1,0h0c.159-.014.913.029,1,0Zm-1,0c-.072.029,0-.043,0,0s-.058-.014,0,0-.159-.014,0,0h0c-.13.014.072-.014,0,0Zm0,1h0c-.39-.014-.683-.885-1-1h0a4.633,4.633,0,0,0,1,0h0c-.332-.029-.841.043-1,0s0,.1,0,0-.173.072,0,0,.726-1,1-1h0c.317.014.711.928,1,1h0a7.7,7.7,0,0,0-1,0h0c.332.029.841-.058,1,0s0-.1,0,0,.188.928,0,1a5.742,5.742,0,0,1-1,0Z" transform="translate(-112.438 -95.409)"/>
    <path id="Tracé_1438" data-name="Tracé 1438" class="cls-6" d="M124.572,108.96c0,.693-1.355,1-3,1s-3-.307-3-1v-1h6v1Z" transform="translate(-101.57 -92.243)"/>
    <path id="Tracé_1439" data-name="Tracé 1439" class="cls-5" d="M121.572,99.516c1.645,0,3,.307,3,1s-1.355,1-3,1-3-.307-3-1,1.355-1,3-1Z" transform="translate(-101.57 -84.799)"/>
    <path id="Tracé_1440" data-name="Tracé 1440" class="cls-7" d="M123.8,102.97c-1.284,0-2-.509-2-1s.73-1,2-1,2,.509,2,1-.716,1-2,1Zm0-2c-1.443,0-2,.437-2,1s.557,1,2,1,3-.437,3-1-1.557-1-3-1Z" transform="translate(-103.795 -86.254)"/>
    <path id="Tracé_1441" data-name="Tracé 1441" class="cls-7" d="M133.44,103.682c.087-.029,0,.043,0,0s.072.014,0,0-.827.014-1,0h0c.159-.014.913.029,1,0Zm-1-1a4.632,4.632,0,0,0,0,1c0,.043-.058-.014,0,0s-.159-.014,0,0v-1c-.13,0,.072-.029,0,0Zm0,2v-1c-.39-.014-.683.115-1,0h0a4.633,4.633,0,0,0,1,0h0c-.332-.029-.841.043-1,0s0,.1,0,0-.173-.928,0-1a5.752,5.752,0,0,1,1,0h0a5.783,5.783,0,0,1,1,0h0a7.7,7.7,0,0,0-1,0v1h0c.332.029.841-.058,1,0s0-.1,0,0,.188-.072,0,0a5.742,5.742,0,0,1-1,0v1Z" transform="translate(-112.438 -87.965)"/>
    <path id="Tracé_1442" data-name="Tracé 1442" class="cls-6" d="M124.572,100.6c0,.693-1.355,1-3,1s-3-.307-3-1v-1h6v1Z" transform="translate(-101.57 -84.884)"/>
    <path id="Tracé_1443" data-name="Tracé 1443" class="cls-5" d="M121.572,90.071c1.645,0,3,1.307,3,2s-1.355,1-3,1-3-.307-3-1,1.355-2,3-2Z" transform="translate(-101.57 -77.354)"/>
    <path id="Tracé_1444" data-name="Tracé 1444" class="cls-7" d="M123.8,93.526c-1.284,0-2,.491-2,0s.73-1,2-1,2,.509,2,1-.716,0-2,0Zm0-1c-1.443,0-2,.437-2,1s.557,1,2,1,3-.437,3-1-1.557-1-3-1Z" transform="translate(-103.795 -78.809)"/>
    <path id="Tracé_1445" data-name="Tracé 1445" class="cls-7" d="M133.44,95.323c.087-.029,0,.043,0,0s.072.014,0,0-.827.014-1,0h0c.159-.014.913.014,1,0Zm-1-1c-.072.029,0-.043,0,0s-.058-.014,0,0-.159-.014,0,0h0c-.13.014.072-.014,0,0Zm0,1h0c-.39-.014-.683.115-1,0h0a4.633,4.633,0,0,0,1,0h0c-.332-.029-.841.043-1,0s0-.9,0-1-.173.072,0,0a5.752,5.752,0,0,1,1,0h0a5.783,5.783,0,0,1,1,0h0a7.7,7.7,0,0,0-1,0h0c.332.029.841.942,1,1s0-.1,0,0,.188-.072,0,0a5.743,5.743,0,0,1-1,0Z" transform="translate(-112.438 -80.606)"/>
    <path id="Tracé_1446" data-name="Tracé 1446" class="cls-6" d="M124.572,91.157c0,.693-1.355,2-3,2s-3-1.307-3-2v-1h6v1Z" transform="translate(-101.57 -77.44)"/>
    <path id="Tracé_1447" data-name="Tracé 1447" class="cls-5" d="M121.572,81.712c1.645,0,3,.307,3,1s-1.355,2-3,2-3-1.307-3-2,1.355-1,3-1Z" transform="translate(-101.57 -69.995)"/>
    <path id="Tracé_1448" data-name="Tracé 1448" class="cls-7" d="M123.8,85.167c-1.284,0-2-.509-2-1s.73-1,2-1,2,.509,2,1-.716,1-2,1Zm0-2c-1.443,0-2,.437-2,1s.557,1,2,1,3-.437,3-1-1.557-1-3-1Z" transform="translate(-103.795 -71.45)"/>
    <path id="Tracé_1449" data-name="Tracé 1449" class="cls-7" d="M133.44,87.049c.087-.029,0,.043,0,0s.072.014,0,0-.827-.986-1-1v1c.159-.014.913.029,1,0Zm-1-1c-.072.029,0-.043,0,0s-.058-.014,0,0-.159-.014,0,0h0c-.13,0,.072-.029,0,0Zm0,1h0c-.39-.014-.683.115-1,0h0a4.632,4.632,0,0,0,1,0v-1c-.332-.029-.841.043-1,0s0,.1,0,0-.173.072,0,0a5.752,5.752,0,0,1,1,0h0a5.783,5.783,0,0,1,1,0h0a7.7,7.7,0,0,0-1,0h0c.332.029.841-.058,1,0s0,.9,0,1,.188-.072,0,0a5.742,5.742,0,0,1-1,0Z" transform="translate(-112.438 -73.333)"/>
    <path id="Tracé_1450" data-name="Tracé 1450" class="cls-5" d="M83.457,95.264a2.815,2.815,0,0,1,3,3c0,1.818-1.182,4-3,4s-3-2.182-3-4a2.815,2.815,0,0,1,3-3Z" transform="translate(-68.455 -81.547)"/>
    <path id="Tracé_1451" data-name="Tracé 1451" class="cls-7" d="M85.939,103.745a3.375,3.375,0,0,1-3-3c0-1.414,1.586-2,3-2s2,.586,2,2-.586,3-2,3Zm0-6a3,3,0,1,0,3,3,3.094,3.094,0,0,0-3-3Z" transform="translate(-70.937 -84.029)"/>
    <path id="Tracé_1452" data-name="Tracé 1452" class="cls-7" d="M95.437,106.965c.087-.072,1,.115,1,0s-.928.058-1,0,.188.058,0,0h0c.159-.029-.087.072,0,0Zm-1-2a3.862,3.862,0,0,0,0,1c0,.1-.072-.072,0,0s.827-.058,1,0v-1a4.624,4.624,0,0,0-1,0Zm1,3h0c-.433-.043-.654-.7-1-1h0c.274.231.726-.043,1,0h0c-.361-.087-.827-.856-1-1s0,.274,0,0-.188-.827,0-1,.7.014,1,0v-1h0v1c.346.029.683-.216,1,0h0c-.216-.144-.755.029-1,0v1h0c.361.087.827-.144,1,0s0,.726,0,1,.2.827,0,1-.683-.014-1,0Z" transform="translate(-80.435 -89.248)"/>
  </g>
</svg>
