<svg xmlns="http://www.w3.org/2000/svg" xmlns:xlink="http://www.w3.org/1999/xlink" viewBox="0 0 48 33.108">
  <defs>
    <style>
      .cls-1 {
        fill: #dd9bba;
      }

      .cls-2 {
        fill: #d892b3;
      }

      .cls-3 {
        fill: #444951;
      }

      .cls-4, .cls-6 {
        fill: #fff;
      }

      .cls-5 {
        fill: #475991;
      }

      .cls-6, .cls-7 {
        font-size: 1px;
        font-family: SegoeUI, Segoe UI;
      }

      .cls-7 {
        fill: #e64d5c;
      }

      .cls-8 {
        fill: #f8acdc;
      }

      .cls-9 {
        fill: #e5b1ca;
      }

      .cls-10 {
        fill: #5163a7;
      }

      .cls-11 {
        filter: url(#Tracé_1347);
      }
    </style>
    <filter id="Tracé_1347" x="0" y="13.108" width="48" height="20" filterUnits="userSpaceOnUse">
      <feOffset dy="3" input="SourceAlpha"/>
      <feGaussianBlur stdDeviation="3" result="blur"/>
      <feFlood flood-opacity="0.161"/>
      <feComposite operator="in" in2="blur"/>
      <feComposite in="SourceGraphic"/>
    </filter>
  </defs>
  <g id="Groupe_626" data-name="Groupe 626" transform="translate(9.192 0.197)">
    <g id="Groupe_610" data-name="Groupe 610" transform="translate(0.671 -0.01)">
      <g id="Groupe_596" data-name="Groupe 596" transform="translate(3.002)">
        <path id="Tracé_1316" data-name="Tracé 1316" class="cls-1" d="M53.568.911l3,9a8.9,8.9,0,0,1,0,1v-1l-21,7-4-10,20-7A1.47,1.47,0,0,1,53.568.911Z" transform="translate(-29.433 0.01)"/>
        <path id="Tracé_1317" data-name="Tracé 1317" class="cls-2" d="M119.646,18.88c-.15.3-.3.869,0,1,.3.15.85-.7,1-1s-.7.131-1,0c-.281-.131.15-.3,0,0Z" transform="translate(-100.511 -14.959)"/>
        <path id="Tracé_1318" data-name="Tracé 1318" class="cls-2" d="M122.978,30.563c-.15.3.7.869,1,1,.3.15-.15.3,0,0s.3-.869,0-1c-.281-.131-.85-.281-1,0Z" transform="translate(-103.842 -24.643)"/>
        <path id="Tracé_1319" data-name="Tracé 1319" class="cls-2" d="M127.31,42.233c-.15.3-.3.869,0,1,.3.15.85.3,1,0s.3-.85,0-1c-.281-.131-.85-.281-1,0Z" transform="translate(-107.174 -34.313)"/>
        <path id="Tracé_1320" data-name="Tracé 1320" class="cls-2" d="M131.641,54.972c-.15.3-.3-.131,0,0,.3.15.85.3,1,0s.3-.869,0-1c-.281-.131-.85.7-1,1Z" transform="translate(-110.506 -44.051)"/>
        <path id="Tracé_1321" data-name="Tracé 1321" class="cls-3" d="M135.166,23.988c-.3.112-.888.319-1,0l-2-6c-.112-.3-.3-.888,0-1,.319-.112.888.681,1,1l2,5c.112.3.3.888,0,1Z" transform="translate(-111.03 -14.068)"/>
        <path id="Tracé_1322" data-name="Tracé 1322" class="cls-3" d="M65.272,32.853l8-2c.319-.112.094-.7,0-1-.112-.319.3-.094,0,0l-8,2c-.3.112-1.094.7-1,1,.131.3.681.112,1,0Z" transform="translate(-56.137 -23.932)"/>
        <path id="Tracé_1323" data-name="Tracé 1323" class="cls-3" d="M76.685,41.6l-8,3c-.3.112-.094-.3,0,0,.112.319.7,1.094,1,1l8-3c.319-.112.094-.7,0-1-.112-.319-.7-.094-1,0Z" transform="translate(-59.55 -33.683)"/>
        <path id="Tracé_1324" data-name="Tracé 1324" class="cls-3" d="M78.017,59.281l-5,2c-.3.112-.094.7,0,1,.112.3.7.094,1,0l4-2c.319-.112.094.3,0,0-.112-.319.3-1.112,0-1Z" transform="translate(-62.882 -48.36)"/>
        <path id="Tracé_1325" data-name="Tracé 1325" class="cls-4" d="M46.736,51.769v1c.075.787-.232.738-1,1l-24,9c-.918.319-1.681-1.063-2-2h0Z" transform="translate(-19.6 -41.848)"/>
      </g>
      <path id="Tracé_1326" data-name="Tracé 1326" class="cls-5" d="M8.718,36.254l4,10-6,2-3-8c-.319-.918.063-2.681,1-3Z" transform="translate(-3.58 -29.334)"/>
      <path id="Tracé_1327" data-name="Tracé 1327" class="cls-5" d="M10.878,61.294l1,2h-2l-1-3h0l1-2,1,2h2Z" transform="translate(-7.741 -47.374)"/>
      <path id="Tracé_1328" data-name="Tracé 1328" class="cls-4" d="M10.309,61.051l1,2h-2l-1-3h0l1-2v2h2Z" transform="translate(-7.172 -47.13)"/>
      <text id="Premium" class="cls-6" transform="translate(0.137 9.921) rotate(-8.413)"><tspan x="0" y="0">Premium</tspan></text>
      <text id="Pass" class="cls-7" transform="translate(3.137 10.921) rotate(-5.728)"><tspan x="0" y="0">Pass</tspan></text>
      <g id="Groupe_609" data-name="Groupe 609" transform="translate(7.705 10.476)">
        <g id="Groupe_601" data-name="Groupe 601" transform="translate(0 5.359)">
          <g id="Groupe_597" data-name="Groupe 597" transform="translate(0 1.443)">
            <path id="Tracé_1329" data-name="Tracé 1329" class="cls-3" d="M45.132,92.842h0v1h0Zm0,0h0v1h0Zm0,0h0v1h0v-1Zm0,0h1v1Zm1-1h0v1h0Zm0,0h0v1h0Zm-1,1h0Zm0,0h0l1,1h0l-1-1Zm1-1h0v1h0Zm-1,2Zm0,0Zm0,0Zm1,0Zm0-1Zm0,0h0v1h0Zm0,1Z" transform="translate(-44.7 -92.2)"/>
          </g>
          <g id="Groupe_598" data-name="Groupe 598" transform="translate(1.405 0.974)">
            <path id="Tracé_1330" data-name="Tracé 1330" class="cls-3" d="M52.227,89.811h0v1h0Zm0,0h0l1,1h0Zm0,0h1v1h0l-1-1Zm1,0h0v1h0Zm0,0h0v1h0Zm0,0h0l1,1h0Zm0,0h0v1h0v-1Zm0,0h0v1h0v-1Zm0,0h0l1,1h0Zm-1,1Zm1,0Zm0,0Zm0,0Zm1,0Zm-1,0h0Zm0,0Z" transform="translate(-52.2 -89.7)"/>
          </g>
          <g id="Groupe_599" data-name="Groupe 599" transform="translate(2.792 0.487)">
            <path id="Tracé_1331" data-name="Tracé 1331" class="cls-3" d="M59.24,87.7h1v1h0Zm1,0h0v1h0Zm0,0h0v1h0v-1Zm0,0h0l1,1h-1Zm0,0,1-1v1h-1Zm1-1h0v1h0Zm-1,1h1v1l-1-1Zm0,0h0v1h0v-1Zm1-1h0v1h0Zm-1,2Zm0,0Zm0,0Zm1,0Zm0-1h0v0Zm0,1v0Zm-1,0h0Z" transform="translate(-59.6 -87.1)"/>
          </g>
          <g id="Groupe_600" data-name="Groupe 600" transform="translate(4.179)">
            <path id="Tracé_1332" data-name="Tracé 1332" class="cls-3" d="M67.254,84.585h0v1h0Zm0,0h0v1h0Zm0,0h0l1,1h0l-1-1Zm0,0h1v1h0Zm1,0h0v1h0Zm0,0h0l1,1h-1Zm0,0h0v1h0v-1Zm-1,0h0l1,1h0l-1-1Zm1,0h0v1h0Zm-1,1h0v0Zm0,0Zm1,0Zm0,0Zm0,0h0Zm0,0Zm0,0Z" transform="translate(-67 -84.5)"/>
          </g>
        </g>
        <g id="Groupe_605" data-name="Groupe 605" transform="translate(5.546 3.935)">
          <g id="Groupe_602" data-name="Groupe 602" transform="translate(0 0.956)">
            <path id="Tracé_1333" data-name="Tracé 1333" class="cls-3" d="M74.186,82.553h0l1,1h-1Zm0,0h0l1,1h0Zm1,0h0v1h0v-1Zm0,0h0v1h0Zm0,0Zm0-1h1v1h0Zm0,1h0v1h0v-1Zm0,0h0v1h0v-1Zm0,0Zm-1,1h0Zm1,0Zm0,0Zm0,0Zm1-1h0v1h0Zm0,1Zm-1,0Z" transform="translate(-74.3 -82)"/>
          </g>
          <g id="Groupe_603" data-name="Groupe 603" transform="translate(1.387 0.487)">
            <path id="Tracé_1334" data-name="Tracé 1334" class="cls-3" d="M82.2,79.522h0v1h0Zm0,0h0v1h0Zm0,0h0v1h0v-1Zm0,0h0l1,1h0Zm1,0h0v1h0Zm0,0h0v1h0Zm-1,0h0l1,1h0l-1-1Zm0,0h0v1h0v-1Zm1,0h0v1h0Zm-1,1h0v1h0Zm0,0Zm0,0Zm1,0Zm0,0Zm0,0Zm-1,0h0Z" transform="translate(-81.7 -79.5)"/>
          </g>
          <g id="Groupe_604" data-name="Groupe 604" transform="translate(2.773)">
            <path id="Tracé_1335" data-name="Tracé 1335" class="cls-3" d="M89.213,77.409h0v1h0Zm0,0h0l1,1h-1Zm0,0h0l1,1h0l-1-1Zm1,0h0v1h0Zm0,0h0v0Zm0,0v-1l1,1h-1Zm0,0h0v1h0v-1Zm0,0h0v1h0v-1Zm0,0Zm-1,1Zm1,0Zm0,0Zm0,0Zm1,0v0Zm-1,0h0Zm0,0Z" transform="translate(-89.1 -76.9)"/>
          </g>
        </g>
        <g id="Groupe_608" data-name="Groupe 608" transform="translate(18.251)">
          <g id="Groupe_606" data-name="Groupe 606" transform="translate(0 0.487)">
            <path id="Tracé_1336" data-name="Tracé 1336" class="cls-3" d="M142.281,59.457h0v0Zm0-1h0l1,1h-1Zm0,0h0l1,1h0l-1-1Zm1,0h0v1h0Zm0,0h0v1h0Zm0,0h0l1,1h0Zm0,0h0v1h0v-1Zm-1,0h1v1h0l-1-1Zm1,0h0v1h0Zm-1,2Zm0-1h1v1h-1Zm1,0h0v0Zm0,0Zm1,0Zm-1,0Zm0,0Z" transform="translate(-142.1 -58.5)"/>
          </g>
          <g id="Groupe_607" data-name="Groupe 607" transform="translate(1.424)">
            <path id="Tracé_1337" data-name="Tracé 1337" class="cls-3" d="M149.457,56.344h0l1,1h0Zm1,0h0v1h0Zm0,0h0v1h0v-1Zm0,0h0v1h0Zm0,0h0l1,1h0Zm1,0h0v0Zm-1,0h0l1,1h-1v-1Zm0,0h0v1h0v-1Zm0,0h1v1h0Zm0,1Zm0,0Zm0,0Zm1,0Zm0,0Zm0,0Zm-1,0Z" transform="translate(-149.7 -55.9)"/>
          </g>
        </g>
      </g>
    </g>
    <g id="Groupe_625" data-name="Groupe 625" transform="translate(0 7.675)">
      <g id="Groupe_611" data-name="Groupe 611" transform="translate(0 0.019)">
        <path id="Tracé_1338" data-name="Tracé 1338" class="cls-8" d="M57.518,43.317v9a8.9,8.9,0,0,1,0,1v-1h-23v-11h21A2.132,2.132,0,0,1,57.518,43.317Z" transform="translate(-27.71 -41.1)"/>
        <path id="Tracé_1339" data-name="Tracé 1339" class="cls-9" d="M125.406,52.094a.707.707,0,1,0,1,0,.825.825,0,0,0-1,0Z" transform="translate(-101.598 -49.876)"/>
        <path id="Tracé_1340" data-name="Tracé 1340" class="cls-9" d="M125.406,64.759a.707.707,0,1,0,1,0,.776.776,0,0,0-1,0Z" transform="translate(-101.598 -60.542)"/>
        <path id="Tracé_1341" data-name="Tracé 1341" class="cls-9" d="M125.406,78.465a.707.707,0,1,0,1,0,.825.825,0,0,0-1,0Z" transform="translate(-101.598 -71.248)"/>
        <path id="Tracé_1342" data-name="Tracé 1342" class="cls-9" d="M125.406,91.131a.707.707,0,1,0,1,0,.775.775,0,0,0-1,0Z" transform="translate(-101.598 -81.914)"/>
        <path id="Tracé_1343" data-name="Tracé 1343" class="cls-9" d="M139.031,64.644c-.337,0-1,.337-1,0v-7c0-.337.663,0,1,0s0-.337,0,0v7c0,.337.337,0,0,0Z" transform="translate(-112.223 -54.427)"/>
        <path id="Tracé_1344" data-name="Tracé 1344" class="cls-3" d="M63.6,62.326h8a1.487,1.487,0,0,0,1-1,1.487,1.487,0,0,0-1-1h-8a1.487,1.487,0,0,0-1,1,1.487,1.487,0,0,0,1,1Z" transform="translate(-50.789 -57.109)"/>
        <path id="Tracé_1345" data-name="Tracé 1345" class="cls-3" d="M71.6,73.971h-8a1.487,1.487,0,0,0-1,1c0,.337.663,0,1,0h8c.337,0,1,.337,1,0a1.452,1.452,0,0,0-1-1Z" transform="translate(-50.789 -67.754)"/>
        <path id="Tracé_1346" data-name="Tracé 1346" class="cls-3" d="M67.6,86.7h-4a1,1,0,0,0,0,2h4a1,1,0,0,0,0-2Z" transform="translate(-50.789 -78.48)"/>
        <g class="cls-11" transform="matrix(1, 0, 0, 1, -9.19, -7.89)">
          <path id="Tracé_1347-2" data-name="Tracé 1347" class="cls-4" d="M29.808,100.668v1c-.206.806-1.138,1-2,1h-26a2.117,2.117,0,0,1-2-2h30Z" transform="translate(9.19 -81.56)"/>
        </g>
      </g>
      <path id="Tracé_1348" data-name="Tracé 1348" class="cls-10" d="M8.889,41.236v11h-9v-9c0-1.012,1.579-2,3-2Z" transform="translate(-0.081 -41)"/>
      <path id="Tracé_1349" data-name="Tracé 1349" class="cls-5" d="M2.808,60.75v3l-2-2-1,1v-5h1l1-1,1,2,2,1Z" transform="translate(0 -53.514)"/>
      <path id="Tracé_1350" data-name="Tracé 1350" class="cls-4" d="M2.889,61.536l1,4-3-2-1,1v-7h0l3-2v4l4,1Z" transform="translate(-0.081 -54.3)"/>
      <text id="Premium-2" data-name="Premium" class="cls-6" transform="translate(3.808 2.236) rotate(5.257)"><tspan x="0" y="0">Premium</tspan></text>
      <text id="Pass-2" data-name="Pass" class="cls-7" transform="translate(5.808 3.236) rotate(7.537)"><tspan x="0" y="0">Pass</tspan></text>
      <g id="Groupe_624" data-name="Groupe 624" transform="translate(5.041 11.674)">
        <g id="Groupe_616" data-name="Groupe 616" transform="translate(0 0.019)">
          <g id="Groupe_612" data-name="Groupe 612">
            <path id="Tracé_1351" data-name="Tracé 1351" class="cls-3" d="M26.668,102.943h0v1h0Zm1,0h0v1h0Zm0,0h0v1h0v-1Zm0,0h0v1h0Zm0,0h1v1h-1Zm1,0h0v1h0Zm-1,0h0v1h0v-1Zm0,0h0v1h0v-1Zm1,0h0v1h0Zm-2,2Zm1,0Zm0,0Zm0,0Zm1,0Zm-1,0h0Zm0,0Z" transform="translate(-26.9 -103.4)"/>
          </g>
          <g id="Groupe_613" data-name="Groupe 613" transform="translate(1.518)">
            <path id="Tracé_1352" data-name="Tracé 1352" class="cls-3" d="M35.25,102.943h0v1h0Zm0,0h0v1h0Zm0,0h0v1h0v-1Zm1,0h0v1h0Zm0,0h0v1h0Zm0,0h0v1h0Zm0,0h0v1h0v-1Zm-1,0h0v1h0v-1Zm1,0h0v1h0Zm-1,2Zm0,0Zm0,0Zm1,0Zm0,0Zm0,0Zm-1,0h0Z" transform="translate(-35 -103.4)"/>
          </g>
          <g id="Groupe_614" data-name="Groupe 614" transform="translate(3.054)">
            <path id="Tracé_1353" data-name="Tracé 1353" class="cls-3" d="M42.913,102.943h0v1h0Zm1,0h0v1h0Zm0,0h0v1h0v-1Zm0,0h0v1h0Zm0,0h1v1h-1Zm1,0h0v1h0Zm-1,0h0v1h0v-1Zm0,0h0v1h0v-1Zm1,0h0v1h0Zm-2,2Zm1,0Zm0,0Zm0,0Zm1,0Zm-1,0h0Zm0,0Z" transform="translate(-43.2 -103.4)"/>
          </g>
          <g id="Groupe_615" data-name="Groupe 615" transform="translate(4.591)">
            <path id="Tracé_1354" data-name="Tracé 1354" class="cls-3" d="M51.577,102.943h0v1h0Zm0,0h0v1h0Zm0,0h0v1h0v-1Zm1,0h0v1h0Zm0,0h0v1h0Zm0,0h0v1h0Zm0,0h0v1h0v-1Zm0,0h0v1h0v-1Zm0,0h0v1h0Zm-1,2Zm0,0Zm0,0Zm1,0Zm0,0Zm0,0Zm0,0Z" transform="translate(-51.4 -103.4)"/>
          </g>
        </g>
        <g id="Groupe_620" data-name="Groupe 620" transform="translate(6.09 0.019)">
          <g id="Groupe_617" data-name="Groupe 617">
            <path id="Tracé_1355" data-name="Tracé 1355" class="cls-3" d="M59.078,102.943h1v1h-1Zm1,0h0v1h0Zm0,0h0v1h0v-1Zm0,0h0v1h0Zm1,0h0v1h0Zm0,0h0v1h0Zm-1,0h0v1h0v-1Zm0,0h0v1h0v-1Zm1,0h0v1h0Zm-2,2Zm1,0Zm0,0Zm0,0Zm1,0Zm0,0Zm-1,0Z" transform="translate(-59.4 -103.4)"/>
          </g>
          <g id="Groupe_618" data-name="Groupe 618" transform="translate(1.537)">
            <path id="Tracé_1356" data-name="Tracé 1356" class="cls-3" d="M67.741,102.943h0v1h0Zm0,0h0v1h0Zm0,0h0v1h0v-1Zm1,0h0v1h0Zm0,0h0v1h0Zm0,0h0v1h0Zm0,0h0v1h0v-1Zm0,0h0v1h0v-1Zm0,0h0v1h0Zm-1,2Zm0,0Zm0,0Zm1,0Zm0,0Zm0,0Zm0,0Z" transform="translate(-67.6 -103.4)"/>
          </g>
          <g id="Groupe_619" data-name="Groupe 619" transform="translate(3.073)">
            <path id="Tracé_1357" data-name="Tracé 1357" class="cls-3" d="M75.4,102.943h1v1h-1Zm1,0h0v1h0Zm0,0h0v1h0v-1Zm0,0h0v1h0Zm1,0h0v1h0Zm0,0h0v1h0Zm-1,0h0v1h0v-1Zm0,0h0v1h0v-1Zm1,0h0v1h0Zm-2,2Zm1,0Zm0,0Zm0,0Zm1,0Zm0,0Zm-1,0Z" transform="translate(-75.8 -103.4)"/>
          </g>
        </g>
        <g id="Groupe_623" data-name="Groupe 623" transform="translate(20.125)">
          <g id="Groupe_621" data-name="Groupe 621" transform="translate(0)">
            <path id="Tracé_1358" data-name="Tracé 1358" class="cls-3" d="M133.943,102.862h1v1h-1Zm1,0h0v1h0Zm0,0h0v1h0v-1Zm0,0h0v1h0Zm1,0h0v1h0Zm0,0h0v1h0Zm-1,0h0v1h0v-1Zm0,0h0v1h0v-1Zm1,0h0v1h0Zm-2,2Zm1,0Zm0,0Zm0,0Zm1,0Zm0,0Zm-1,0Z" transform="translate(-134.3 -103.3)"/>
          </g>
          <g id="Groupe_622" data-name="Groupe 622" transform="translate(1.574)">
            <path id="Tracé_1359" data-name="Tracé 1359" class="cls-3" d="M142.769,102.862h0v1h0Zm0,0h0v1h0Zm0,0h1v1h-1v-1Zm1,0h0v1h0Zm0,0h0v1h0Zm0,0h1v1h-1Zm0,0h0v1h0v-1Zm0,0h0v1h0v-1Zm0,0h0v1h0Zm-1,2Zm0,0Zm0,0h0Zm1,0Zm0,0h0Zm0,0Zm0,0Z" transform="translate(-142.7 -103.3)"/>
          </g>
        </g>
      </g>
    </g>
  </g>
</svg>
