<svg xmlns="http://www.w3.org/2000/svg" xmlns:xlink="http://www.w3.org/1999/xlink" viewBox="0 0 20.494 24">
  <defs>
    <style>
      .cls-1 {
        fill: #e6415c;
      }

      .cls-2 {
        fill: #ec788a;
      }

      .cls-3 {
        fill: #e4e6e8;
      }

      .cls-4 {
        fill: #a7b3b9;
      }

      .cls-5 {
        fill: #5c6971;
      }

      .cls-6 {
        fill: #fff;
      }

      .cls-7 {
        fill: #7f8b91;
      }

      .cls-8 {
        fill: #ceccc9;
      }

      .cls-9 {
        fill: #4a5158;
      }

      .cls-10 {
        fill: #cacfd4;
      }

      .cls-11 {
        fill: #eeeef1;
      }

      .cls-12 {
        clip-path: url(#clip-path);
      }

      .cls-13 {
        fill: #a2a9ac;
      }

      .cls-14 {
        fill: #c2c1c0;
      }

      .cls-15 {
        fill: #393343;
      }

      .cls-16 {
        clip-path: url(#clip-path-3);
      }

      .cls-17 {
        fill: #a5a6a3;
      }

      .cls-18 {
        fill: #656a6f;
      }

      .cls-19 {
        fill: #3c4048;
      }

      .cls-20 {
        fill: #7f8789;
      }

      .cls-21 {
        fill: #b9bbbb;
      }

      .cls-22 {
        fill: #e3e5e6;
      }

      .cls-23 {
        fill: #cfd1d1;
      }

      .cls-24 {
        fill: #919b9f;
      }

      .cls-25 {
        fill: #838b8e;
      }
    </style>
    <clipPath id="clip-path">
      <rect id="Rectangle_447" data-name="Rectangle 447" width="20.495" height="24"/>
    </clipPath>
    <clipPath id="clip-path-3">
      <path id="Tracé_2396" data-name="Tracé 2396" d="M35.369,218.091h0l.261-.261h0l-.261.261m.071-.451-.34-.34h0l.34.34" transform="translate(-35.1 -217.3)"/>
    </clipPath>
  </defs>
  <g id="Karaoké_icon" data-name="Karaoké icon" transform="translate(0)">
    <path id="Tracé_2333" data-name="Tracé 2333" class="cls-1" d="M51.087,199.257a.375.375,0,1,1-.53,0,.382.382,0,0,1,.53,0" transform="translate(-46.458 -183.391)"/>
    <path id="Tracé_2334" data-name="Tracé 2334" class="cls-2" d="M50.685,199.836a.338.338,0,0,1-.166-.087l-.008-.008h0a.377.377,0,0,1-.111-.269.372.372,0,0,1,.111-.261.377.377,0,0,1,.269-.111.406.406,0,0,1,.269.111.377.377,0,0,1,.095.174.4.4,0,0,0-.1-.016.346.346,0,0,0-.253.1.376.376,0,0,0-.1.364" transform="translate(-46.412 -183.345)"/>
    <path id="Tracé_2335" data-name="Tracé 2335" class="cls-3" d="M118.821,125.33l-.791.8-.53-.53.791-.8.53.53" transform="translate(-108.202 -114.925)"/>
    <path id="Tracé_2336" data-name="Tracé 2336" class="cls-4" d="M107.4,135.691l.8-.791.53.53-.8.791-.53-.53" transform="translate(-98.901 -124.225)"/>
    <path id="Tracé_2337" data-name="Tracé 2337" class="cls-5" d="M28.134,72.753a.375.375,0,1,0-.53,0,.382.382,0,0,0,.53,0m4.4-4.4.8-.8.8-.8-.53-.53-.8.8-.8.8.53.53m6.631-2.382L35.715,67.3,28.4,74.62a.75.75,0,0,1-1.06,0l-1.591-1.59a.75.75,0,0,1,0-1.06l7.319-7.319,1.329-3.45,4.772,4.772" transform="translate(-23.505 -56.357)"/>
    <path id="Tracé_2338" data-name="Tracé 2338" class="cls-6" d="M26.352,204.96l-.53-.53a.743.743,0,0,1-.222-.53.743.743,0,0,0,.222.53l.522.522.008.008h0" transform="translate(-23.574 -187.765)"/>
    <path id="Tracé_2339" data-name="Tracé 2339" class="cls-7" d="M26.244,73.352l-.522-.522a.743.743,0,0,1-.222-.53.73.73,0,0,1,.222-.53l7.319-7.319L34.37,61l.53.53-1.329,3.45L26.252,72.3a.763.763,0,0,0-.008,1.052" transform="translate(-23.482 -56.173)"/>
    <path id="Tracé_2340" data-name="Tracé 2340" class="cls-8" d="M42.86,145.641a.736.736,0,0,1-.522-.214.745.745,0,0,0,1.052-.008L50.71,138.1l-7.319,7.319a.743.743,0,0,1-.53.222m-.53-.214h0l-.53-.53h0l.008.008.522.522h0" transform="translate(-38.492 -127.172)"/>
    <path id="Tracé_2341" data-name="Tracé 2341" class="cls-9" d="M42.952,124a.736.736,0,0,1-.522-.214l-.008-.008h0l-.522-.522a.745.745,0,0,0,1.052-.008l7.319-7.319,3.45-1.329.53.53L50.8,116.46h0l-7.319,7.319a.743.743,0,0,1-.53.222" transform="translate(-38.584 -105.532)"/>
    <path id="Tracé_2342" data-name="Tracé 2342" class="cls-3" d="M162.631,25.393l-.53.53-.135-.135-5.832-5.832L156,19.83l.53-.53.135.127,5.832,5.832.135.135" transform="translate(-143.656 -17.773)"/>
    <path id="Tracé_2343" data-name="Tracé 2343" class="cls-10" d="M145.114,33.432l-.261.269a4.089,4.089,0,0,1-2.065,1.116l-.317.214L137.7,30.259l.214-.324a4.089,4.089,0,0,1,1.116-2.065l.269-.269,5.816,5.832" transform="translate(-126.804 -25.416)"/>
    <path id="Tracé_2344" data-name="Tracé 2344" class="cls-6" d="M140.2,33.065h0A4.089,4.089,0,0,1,141.316,31h0a4.089,4.089,0,0,0-1.116,2.065" transform="translate(-129.106 -28.547)"/>
    <path id="Tracé_2345" data-name="Tracé 2345" class="cls-11" d="M140.73,33.6l-.53-.53A4.089,4.089,0,0,1,141.316,31l.53.53A4.089,4.089,0,0,0,140.73,33.6" transform="translate(-129.106 -28.547)"/>
    <path id="Tracé_2346" data-name="Tracé 2346" class="cls-8" d="M201.9,105.816h0a4.089,4.089,0,0,0,2.065-1.116h0a4.089,4.089,0,0,1-2.065,1.116" transform="translate(-185.924 -96.415)"/>
    <g id="Groupe_942" data-name="Groupe 942">
      <g id="Groupe_940" data-name="Groupe 940" class="cls-12">
        <path id="Tracé_2347" data-name="Tracé 2347" class="cls-13" d="M195.73,99.646l-.53-.53A4.089,4.089,0,0,0,197.265,98l.53.53a4.089,4.089,0,0,1-2.065,1.116h0" transform="translate(-179.754 -90.245)"/>
      </g>
      <g id="Groupe_941" data-name="Groupe 941" class="cls-12">
        <path id="Tracé_2348" data-name="Tracé 2348" class="cls-10" d="M170.5,9.412l-.269.269L164.4,3.849l.269-.269A4.124,4.124,0,0,1,170.5,9.412" transform="translate(-151.391 -2.187)"/>
      </g>
    </g>
    <path id="Tracé_2349" data-name="Tracé 2349" class="cls-6" d="M207.536,3.627l-.024-.024h0l-.008-.008A4.077,4.077,0,0,0,204.6,2.4h0a4.135,4.135,0,0,1,2.92,1.2c.008.008.008.016.016.024" transform="translate(-188.41 -2.21)"/>
    <path id="Tracé_2350" data-name="Tracé 2350" class="cls-11" d="M168.23,4.133l-.53-.53a4.146,4.146,0,0,1,5.832-.008c-.087-.087-.182-.166-.277-.245.079.095.158.2.229.3a4.145,4.145,0,0,0-5.254.483m5.325-.506-.024-.024h0c.016.008.016.016.024.024h0" transform="translate(-154.43 -2.21)"/>
    <path id="Tracé_2351" data-name="Tracé 2351" class="cls-8" d="M242.5,23.069c.079-.135.142-.269.206-.4a3.237,3.237,0,0,1-.206.4m.309-3.537a4.119,4.119,0,0,0-.91-1.432,4.119,4.119,0,0,1,.91,1.432" transform="translate(-222.759 -16.668)"/>
    <path id="Tracé_2352" data-name="Tracé 2352" class="cls-13" d="M235.33,23.708l-.53-.53a4.142,4.142,0,0,0,.483-5.254c.1.071.206.15.3.229h0c-.071-.087-.15-.174-.229-.253l.016.016a4.119,4.119,0,0,1,.91,1.432,4.208,4.208,0,0,1-.095,3.134c-.063.135-.127.269-.206.4a5.4,5.4,0,0,1-.649.823" transform="translate(-216.22 -16.484)"/>
    <path id="Tracé_2353" data-name="Tracé 2353" class="cls-8" d="M241.431,17.559c-.008,0-.008-.008,0,0-.008-.008-.008,0,0,0" transform="translate(-222.321 -16.166)"/>
    <path id="Tracé_2354" data-name="Tracé 2354" class="cls-14" d="M238.43,14.93c-.095-.079-.2-.158-.3-.229-.071-.1-.15-.206-.229-.3.095.079.19.158.277.245l.008.008h0l.024.024c.079.079.15.166.222.253" transform="translate(-219.075 -13.261)"/>
    <path id="Tracé_2355" data-name="Tracé 2355" class="cls-15" d="M145.59,42.38a.193.193,0,0,1-.19-.19.186.186,0,0,1,.182-.19h0a.193.193,0,0,1,.19.19.186.186,0,0,1-.182.19Z" transform="translate(-133.895 -38.677)"/>
    <path id="Tracé_2356" data-name="Tracé 2356" class="cls-15" d="M145.59,55.78a.193.193,0,0,1-.19-.19.186.186,0,0,1,.182-.19h0a.193.193,0,0,1,.19.19.186.186,0,0,1-.182.19Z" transform="translate(-133.895 -51.016)"/>
    <path id="Tracé_2357" data-name="Tracé 2357" class="cls-15" d="M158.99,42.38a.193.193,0,0,1-.19-.19.186.186,0,0,1,.182-.19h0a.193.193,0,0,1,.19.19.186.186,0,0,1-.182.19Z" transform="translate(-146.234 -38.677)"/>
    <path id="Tracé_2358" data-name="Tracé 2358" class="cls-15" d="M158.99,55.78a.193.193,0,0,1-.19-.19.186.186,0,0,1,.182-.19h0a.193.193,0,0,1,.19.19.186.186,0,0,1-.182.19Z" transform="translate(-146.234 -51.016)"/>
    <path id="Tracé_2359" data-name="Tracé 2359" class="cls-15" d="M158.99,69.18a.193.193,0,0,1-.19-.19.186.186,0,0,1,.182-.19h0a.193.193,0,0,1,.19.19.186.186,0,0,1-.182.19Z" transform="translate(-146.234 -63.356)"/>
    <path id="Tracé_2360" data-name="Tracé 2360" class="cls-15" d="M172.39,15.48a.193.193,0,0,1-.19-.19.186.186,0,0,1,.182-.19h0a.193.193,0,0,1,.19.19.181.181,0,0,1-.182.19Z" transform="translate(-158.574 -13.905)"/>
    <path id="Tracé_2361" data-name="Tracé 2361" class="cls-15" d="M172.39,55.78a.193.193,0,0,1-.19-.19.186.186,0,0,1,.182-.19h0a.193.193,0,0,1,.19.19.186.186,0,0,1-.182.19Z" transform="translate(-158.574 -51.016)"/>
    <path id="Tracé_2362" data-name="Tracé 2362" class="cls-15" d="M172.39,69.18a.193.193,0,0,1-.19-.19.186.186,0,0,1,.182-.19h0a.193.193,0,0,1,.19.19.186.186,0,0,1-.182.19Z" transform="translate(-158.574 -63.356)"/>
    <path id="Tracé_2363" data-name="Tracé 2363" class="cls-15" d="M172.39,82.58a.193.193,0,0,1-.19-.19.186.186,0,0,1,.182-.19h0a.193.193,0,0,1,.19.19.186.186,0,0,1-.182.19Z" transform="translate(-158.574 -75.696)"/>
    <path id="Tracé_2364" data-name="Tracé 2364" class="cls-15" d="M185.79,15.48a.193.193,0,0,1-.19-.19.186.186,0,0,1,.182-.19h0a.193.193,0,0,1,.19.19.181.181,0,0,1-.182.19Z" transform="translate(-170.914 -13.905)"/>
    <path id="Tracé_2365" data-name="Tracé 2365" class="cls-15" d="M185.79,28.88a.193.193,0,0,1-.19-.19.186.186,0,0,1,.182-.19h0a.193.193,0,0,1,.19.19.181.181,0,0,1-.182.19Z" transform="translate(-170.914 -26.245)"/>
    <path id="Tracé_2366" data-name="Tracé 2366" class="cls-15" d="M185.79,69.18a.193.193,0,0,1-.19-.19.186.186,0,0,1,.182-.19h0a.193.193,0,0,1,.19.19.186.186,0,0,1-.182.19Z" transform="translate(-170.914 -63.356)"/>
    <path id="Tracé_2367" data-name="Tracé 2367" class="cls-15" d="M185.79,82.58a.193.193,0,0,1-.19-.19.186.186,0,0,1,.182-.19h0a.193.193,0,0,1,.19.19.186.186,0,0,1-.182.19Z" transform="translate(-170.914 -75.696)"/>
    <path id="Tracé_2368" data-name="Tracé 2368" class="cls-15" d="M185.79,95.98a.193.193,0,0,1-.19-.19.186.186,0,0,1,.182-.19h0a.193.193,0,0,1,.19.19.186.186,0,0,1-.182.19Z" transform="translate(-170.914 -88.035)"/>
    <path id="Tracé_2369" data-name="Tracé 2369" class="cls-15" d="M199.19,2.08a.193.193,0,0,1-.19-.19.186.186,0,0,1,.182-.19h0a.193.193,0,0,1,.19.19.181.181,0,0,1-.182.19Z" transform="translate(-183.253 -1.565)"/>
    <path id="Tracé_2370" data-name="Tracé 2370" class="cls-15" d="M199.19,15.58a.193.193,0,0,1-.19-.19.186.186,0,0,1,.182-.19h0a.193.193,0,0,1,.19.19.186.186,0,0,1-.182.19Z" transform="translate(-183.253 -13.997)"/>
    <path id="Tracé_2371" data-name="Tracé 2371" class="cls-15" d="M199.19,28.88a.193.193,0,0,1-.19-.19.186.186,0,0,1,.182-.19h0a.193.193,0,0,1,.19.19.181.181,0,0,1-.182.19Z" transform="translate(-183.253 -26.245)"/>
    <path id="Tracé_2372" data-name="Tracé 2372" class="cls-15" d="M199.19,42.38a.193.193,0,0,1-.19-.19.186.186,0,0,1,.182-.19h0a.193.193,0,0,1,.19.19.186.186,0,0,1-.182.19Z" transform="translate(-183.253 -38.677)"/>
    <path id="Tracé_2373" data-name="Tracé 2373" class="cls-15" d="M199.19,82.58a.193.193,0,0,1-.19-.19.186.186,0,0,1,.182-.19h0a.193.193,0,0,1,.19.19.186.186,0,0,1-.182.19Z" transform="translate(-183.253 -75.696)"/>
    <path id="Tracé_2374" data-name="Tracé 2374" class="cls-15" d="M199.19,95.98a.193.193,0,0,1-.19-.19.186.186,0,0,1,.182-.19h0a.193.193,0,0,1,.19.19.186.186,0,0,1-.182.19Z" transform="translate(-183.253 -88.035)"/>
    <path id="Tracé_2375" data-name="Tracé 2375" class="cls-15" d="M199.19,109.38a.193.193,0,0,1-.19-.19.186.186,0,0,1,.182-.19h0a.193.193,0,0,1,.19.19.186.186,0,0,1-.182.19Z" transform="translate(-183.253 -100.375)"/>
    <path id="Tracé_2376" data-name="Tracé 2376" class="cls-15" d="M212.59,2.08a.193.193,0,0,1-.19-.19.186.186,0,0,1,.182-.19h0a.193.193,0,0,1,.19.19.181.181,0,0,1-.182.19Z" transform="translate(-195.593 -1.565)"/>
    <path id="Tracé_2377" data-name="Tracé 2377" class="cls-15" d="M212.59,15.48a.193.193,0,0,1-.19-.19.186.186,0,0,1,.182-.19h0a.193.193,0,0,1,.19.19.181.181,0,0,1-.182.19Z" transform="translate(-195.593 -13.905)"/>
    <path id="Tracé_2378" data-name="Tracé 2378" class="cls-15" d="M212.59,28.88a.193.193,0,0,1-.19-.19.186.186,0,0,1,.182-.19h0a.193.193,0,0,1,.19.19.181.181,0,0,1-.182.19Z" transform="translate(-195.593 -26.245)"/>
    <path id="Tracé_2379" data-name="Tracé 2379" class="cls-15" d="M212.59,42.38a.193.193,0,0,1-.19-.19.186.186,0,0,1,.182-.19h0a.193.193,0,0,1,.19.19.186.186,0,0,1-.182.19Z" transform="translate(-195.593 -38.677)"/>
    <path id="Tracé_2380" data-name="Tracé 2380" class="cls-15" d="M212.59,55.78a.193.193,0,0,1-.19-.19.186.186,0,0,1,.182-.19h0a.193.193,0,0,1,.19.19.186.186,0,0,1-.182.19Z" transform="translate(-195.593 -51.016)"/>
    <path id="Tracé_2381" data-name="Tracé 2381" class="cls-15" d="M212.59,95.98a.193.193,0,0,1-.19-.19.186.186,0,0,1,.182-.19h0a.193.193,0,0,1,.19.19.186.186,0,0,1-.182.19Z" transform="translate(-195.593 -88.035)"/>
    <path id="Tracé_2382" data-name="Tracé 2382" class="cls-15" d="M212.59,109.38a.193.193,0,0,1-.19-.19.186.186,0,0,1,.182-.19h0a.193.193,0,0,1,.19.19.186.186,0,0,1-.182.19Z" transform="translate(-195.593 -100.375)"/>
    <path id="Tracé_2383" data-name="Tracé 2383" class="cls-15" d="M225.99,15.48a.193.193,0,0,1-.19-.19.186.186,0,0,1,.182-.19h0a.193.193,0,0,1,.19.19.181.181,0,0,1-.182.19Z" transform="translate(-207.933 -13.905)"/>
    <path id="Tracé_2384" data-name="Tracé 2384" class="cls-15" d="M225.99,28.88a.193.193,0,0,1-.19-.19.186.186,0,0,1,.182-.19h0a.193.193,0,0,1,.19.19.181.181,0,0,1-.182.19Z" transform="translate(-207.933 -26.245)"/>
    <path id="Tracé_2385" data-name="Tracé 2385" class="cls-15" d="M225.99,42.38a.193.193,0,0,1-.19-.19.186.186,0,0,1,.182-.19h0a.193.193,0,0,1,.19.19.186.186,0,0,1-.182.19Z" transform="translate(-207.933 -38.677)"/>
    <path id="Tracé_2386" data-name="Tracé 2386" class="cls-15" d="M225.99,55.78a.193.193,0,0,1-.19-.19.186.186,0,0,1,.182-.19h0a.193.193,0,0,1,.19.19.186.186,0,0,1-.182.19Z" transform="translate(-207.933 -51.016)"/>
    <path id="Tracé_2387" data-name="Tracé 2387" class="cls-15" d="M225.99,69.18a.193.193,0,0,1-.19-.19.186.186,0,0,1,.182-.19h0a.193.193,0,0,1,.19.19.186.186,0,0,1-.182.19Z" transform="translate(-207.933 -63.356)"/>
    <path id="Tracé_2388" data-name="Tracé 2388" class="cls-15" d="M239.39,28.88a.193.193,0,0,1-.19-.19.186.186,0,0,1,.182-.19h0a.193.193,0,0,1,.19.19.181.181,0,0,1-.182.19Z" transform="translate(-220.272 -26.245)"/>
    <path id="Tracé_2389" data-name="Tracé 2389" class="cls-15" d="M239.39,42.38a.193.193,0,0,1-.19-.19.186.186,0,0,1,.182-.19h0a.193.193,0,0,1,.19.19.181.181,0,0,1-.182.19Z" transform="translate(-220.272 -38.677)"/>
    <path id="Tracé_2390" data-name="Tracé 2390" class="cls-15" d="M239.39,55.78a.193.193,0,0,1-.19-.19.186.186,0,0,1,.182-.19h0a.193.193,0,0,1,.19.19.186.186,0,0,1-.182.19Z" transform="translate(-220.272 -51.016)"/>
    <path id="Tracé_2391" data-name="Tracé 2391" class="cls-15" d="M239.39,69.18a.193.193,0,0,1-.19-.19.186.186,0,0,1,.182-.19h0a.193.193,0,0,1,.19.19.186.186,0,0,1-.182.19Z" transform="translate(-220.272 -63.356)"/>
    <path id="Tracé_2392" data-name="Tracé 2392" class="cls-15" d="M239.39,82.58a.193.193,0,0,1-.19-.19.186.186,0,0,1,.182-.19h0a.193.193,0,0,1,.19.19.186.186,0,0,1-.182.19Z" transform="translate(-220.272 -75.696)"/>
    <path id="Tracé_2393" data-name="Tracé 2393" class="cls-15" d="M252.79,42.38a.193.193,0,0,1-.19-.19.186.186,0,0,1,.182-.19h0a.193.193,0,0,1,.19.19.181.181,0,0,1-.182.19Z" transform="translate(-232.612 -38.677)"/>
    <path id="Tracé_2394" data-name="Tracé 2394" class="cls-15" d="M252.79,55.78a.193.193,0,0,1-.19-.19.186.186,0,0,1,.182-.19h0a.193.193,0,0,1,.19.19.181.181,0,0,1-.182.19Z" transform="translate(-232.612 -51.016)"/>
    <path id="Tracé_2395" data-name="Tracé 2395" class="cls-5" d="M21.471,217.3l.53.53-1.171,1.163-.53-.53,1.171-1.163" transform="translate(-18.694 -200.105)"/>
    <g id="Groupe_944" data-name="Groupe 944" transform="translate(2.777 17.195)">
      <g id="Groupe_943" data-name="Groupe 943" class="cls-16">
        <rect id="Rectangle_449" data-name="Rectangle 449" class="cls-8" width="0.53" height="0.791" transform="translate(0)"/>
      </g>
    </g>
    <path id="Tracé_2397" data-name="Tracé 2397" class="cls-9" d="M35.63,217.83h0l-.19-.19-.34-.34h0l.53.53h0" transform="translate(-32.323 -200.105)"/>
    <path id="Tracé_2398" data-name="Tracé 2398" class="cls-17" d="M41.8,224h0" transform="translate(-38.492 -206.275)"/>
    <path id="Tracé_2399" data-name="Tracé 2399" class="cls-9" d="M32.33,218.091l-.269-.269h0l-.261-.261h0l.261-.261.34.34.19.19-.261.261" transform="translate(-29.284 -200.105)"/>
    <path id="Tracé_2400" data-name="Tracé 2400" class="cls-8" d="M142.372,62.1h0l.317-.214h0l-.317.214m-.53-.53-2.651-2.651,2.651,2.651h0M137.6,57.324h0l.214-.324-.214.324" transform="translate(-126.712 -52.49)"/>
    <path id="Tracé_2401" data-name="Tracé 2401" class="cls-9" d="M142.372,65.879h0m-.53-.53-3.711-3.711h0l1.06,1.06,2.651,2.651h0M137.6,61.1h0" transform="translate(-126.712 -56.265)"/>
    <path id="Tracé_2402" data-name="Tracé 2402" class="cls-18" d="M138.13,61.63l-.53-.53.53.53h0" transform="translate(-126.712 -56.265)"/>
    <path id="Tracé_2403" data-name="Tracé 2403" class="cls-17" d="M191.73,115.33l-.53-.53h0l.53.53" transform="translate(-176.07 -105.716)"/>
    <path id="Tracé_2404" data-name="Tracé 2404" class="cls-19" d="M191.73,115.33l-.53-.53h0l.53.53h0" transform="translate(-176.07 -105.716)"/>
    <path id="Tracé_2405" data-name="Tracé 2405" class="cls-13" d="M142.372,62.2h0l-.53-.53-2.651-2.659-1.06-1.06-.53-.53h0l.206-.317,4.352,4.352h0l.53.53-.317.214" transform="translate(-126.712 -52.582)"/>
    <path id="Tracé_2406" data-name="Tracé 2406" class="cls-17" d="M201.9,118.8h0" transform="translate(-185.924 -109.399)"/>
    <path id="Tracé_2407" data-name="Tracé 2407" class="cls-20" d="M195.73,112.63l-.53-.53h0l.53.53h0" transform="translate(-179.754 -103.23)"/>
    <path id="Tracé_2408" data-name="Tracé 2408" class="cls-8" d="M160.4,33.432,154.569,27.6l-.269.269h0l.269-.269h0l5.832,5.832" transform="translate(-142.09 -25.416)"/>
    <path id="Tracé_2409" data-name="Tracé 2409" class="cls-21" d="M163.532,33.432,157.7,27.6h0l5.832,5.832h0" transform="translate(-145.221 -25.416)"/>
    <path id="Tracé_2410" data-name="Tracé 2410" class="cls-13" d="M160.132,33.7,154.3,27.869l.269-.269,5.832,5.832-.269.269" transform="translate(-142.09 -25.416)"/>
    <path id="Tracé_2411" data-name="Tracé 2411" class="cls-8" d="M170.232,23.693h0L164.4,17.861l5.832,5.832h0M164.4,17.861h0l.261-.261-.261.261" transform="translate(-151.391 -16.207)"/>
    <path id="Tracé_2412" data-name="Tracé 2412" class="cls-21" d="M170.232,26.74,164.4,20.9h0l5.832,5.832v.008" transform="translate(-151.391 -19.246)"/>
    <path id="Tracé_2413" data-name="Tracé 2413" class="cls-13" d="M170.232,23.693,164.4,17.861l.261-.261,5.84,5.832-.269.261" transform="translate(-151.391 -16.207)"/>
    <path id="Tracé_2414" data-name="Tracé 2414" class="cls-6" d="M159.661,19.3l6.1,6.093-.269.269-6.093-6.1Z" transform="translate(-146.787 -17.773)"/>
    <path id="Tracé_2415" data-name="Tracé 2415" class="cls-6" d="M117.761,125.86l-.261-.261.791-.8.269.269-.8.791" transform="translate(-108.202 -114.925)"/>
    <path id="Tracé_2416" data-name="Tracé 2416" class="cls-6" d="M107.4,135.691h0l.8-.791h0l.261.261h0l-.261-.261-.8.791" transform="translate(-98.901 -124.225)"/>
    <path id="Tracé_2417" data-name="Tracé 2417" class="cls-22" d="M107.669,135.96l-.269-.269.8-.791.261.261-.791.8" transform="translate(-98.901 -124.225)"/>
    <path id="Tracé_2418" data-name="Tracé 2418" class="cls-23" d="M107.4,135.691h0l.8-.791h0l-.8.791" transform="translate(-98.901 -124.225)"/>
    <path id="Tracé_2419" data-name="Tracé 2419" class="cls-6" d="M117.761,135.161l-.261-.261h0l.261.261h0" transform="translate(-108.202 -124.225)"/>
    <path id="Tracé_2420" data-name="Tracé 2420" class="cls-24" d="M20.569,221.771,20.3,221.5l.91-.9.261.261-.9.91" transform="translate(-18.694 -203.144)"/>
    <path id="Tracé_2421" data-name="Tracé 2421" class="cls-25" d="M32.061,220.861,31.8,220.6h0l.261.261h0" transform="translate(-29.284 -203.144)"/>
    <path id="Tracé_2422" data-name="Tracé 2422" class="cls-15" d="M199.728,103.811a.186.186,0,0,1-.182-.15.189.189,0,0,1,.142-.222,3.912,3.912,0,0,0,1.97-1.06.19.19,0,0,1,.269.269,4.228,4.228,0,0,1-2.16,1.163Z" transform="translate(-183.752 -94.228)"/>
    <path id="Tracé_2423" data-name="Tracé 2423" class="cls-15" d="M171.353,7.414a.185.185,0,0,1-.135-.055.2.2,0,0,1,0-.269,3.955,3.955,0,0,0,0-5.571,3.955,3.955,0,0,0-5.571,0,.19.19,0,0,1-.269-.269A4.31,4.31,0,0,1,168.433,0a4.3,4.3,0,0,1,4.3,4.3,4.285,4.285,0,0,1-1.258,3.046.165.165,0,0,1-.127.063Z" transform="translate(-152.243)"/>
    <path id="Tracé_2424" data-name="Tracé 2424" class="cls-15" d="M138.024,31.068a.071.071,0,0,1-.04-.008.183.183,0,0,1-.142-.222,4.348,4.348,0,0,1,1.163-2.16.19.19,0,0,1,.269.269,3.925,3.925,0,0,0-1.068,1.97.186.186,0,0,1-.182.15Z" transform="translate(-126.93 -26.36)"/>
    <path id="Tracé_2425" data-name="Tracé 2425" class="cls-15" d="M140.184,63.874a.185.185,0,0,1-.135-.055l-4.772-4.772a.19.19,0,0,1,.269-.269l4.772,4.772a.2.2,0,0,1,0,.269.185.185,0,0,1-.135.055Z" transform="translate(-124.525 -54.078)"/>
    <path id="Tracé_2426" data-name="Tracé 2426" class="cls-15" d="M141.894,79.084a.185.185,0,0,1-.135-.055l-3.181-3.181a.19.19,0,0,1,.269-.269l3.181,3.181a.2.2,0,0,1,0,.269.224.224,0,0,1-.135.055Z" transform="translate(-127.564 -69.549)"/>
    <path id="Tracé_2427" data-name="Tracé 2427" class="cls-15" d="M118.568,62.508a.231.231,0,0,1-.071-.016.2.2,0,0,1-.111-.245l1.329-3.45a.19.19,0,1,1,.356.135l-1.329,3.458a.181.181,0,0,1-.174.119Z" transform="translate(-109.01 -54.034)"/>
    <path id="Tracé_2428" data-name="Tracé 2428" class="cls-15" d="M152.113,120.732a.181.181,0,0,1-.174-.119.187.187,0,0,1,.111-.245l3.45-1.329a.19.19,0,0,1,.135.356l-3.45,1.329c-.024,0-.047.008-.071.008Z" transform="translate(-139.903 -109.606)"/>
    <path id="Tracé_2429" data-name="Tracé 2429" class="cls-15" d="M26.213,109.922a.185.185,0,0,1-.135-.055.2.2,0,0,1,0-.269l7.319-7.319a.19.19,0,0,1,.269.269l-7.327,7.319a.157.157,0,0,1-.127.055Z" transform="translate(-23.966 -94.136)"/>
    <path id="Tracé_2430" data-name="Tracé 2430" class="cls-15" d="M59.713,143.422a.185.185,0,0,1-.135-.055.2.2,0,0,1,0-.269l7.319-7.319a.19.19,0,0,1,.269.269l-7.319,7.319a.185.185,0,0,1-.135.055Z" transform="translate(-54.815 -124.985)"/>
    <path id="Tracé_2431" data-name="Tracé 2431" class="cls-15" d="M166.614,23.3a.185.185,0,0,1-.135-.055l-6.1-6.1a.19.19,0,0,1,.269-.269l6.1,6.1a.2.2,0,0,1,0,.269.185.185,0,0,1-.135.055Z" transform="translate(-147.639 -15.494)"/>
    <path id="Tracé_2432" data-name="Tracé 2432" class="cls-15" d="M159.914,30a.185.185,0,0,1-.135-.055l-6.1-6.1a.19.19,0,1,1,.269-.269l6.1,6.1a.2.2,0,0,1,0,.269.185.185,0,0,1-.135.055Z" transform="translate(-141.469 -21.663)"/>
    <path id="Tracé_2433" data-name="Tracé 2433" class="cls-15" d="M153.813,17.733a.185.185,0,0,1-.135-.055.2.2,0,0,1,0-.269l.53-.53a.19.19,0,0,1,.269.269l-.53.53a.185.185,0,0,1-.135.055Z" transform="translate(-141.469 -15.494)"/>
    <path id="Tracé_2434" data-name="Tracé 2434" class="cls-15" d="M230.913,94.833a.185.185,0,0,1-.135-.055.2.2,0,0,1,0-.269l.53-.53a.19.19,0,0,1,.269.269l-.53.53a.185.185,0,0,1-.135.055Z" transform="translate(-212.468 -86.493)"/>
    <path id="Tracé_2435" data-name="Tracé 2435" class="cls-15" d="M23.611,196.163a.185.185,0,0,1-.135-.055.94.94,0,0,1-.277-.665.921.921,0,0,1,.277-.665.19.19,0,0,1,.269.269.563.563,0,0,0-.166.4.532.532,0,0,0,.166.4.2.2,0,0,1,0,.269.185.185,0,0,1-.135.055Z" transform="translate(-21.364 -179.317)"/>
    <path id="Tracé_2436" data-name="Tracé 2436" class="cls-15" d="M46.843,228.824a.948.948,0,0,1-.665-.277.19.19,0,1,1,.269-.269.564.564,0,0,0,.8,0,.19.19,0,0,1,.269.269,1,1,0,0,1-.673.277Z" transform="translate(-42.475 -210.166)"/>
    <path id="Tracé_2437" data-name="Tracé 2437" class="cls-15" d="M27.8,210.093a.185.185,0,0,1-.135-.055l-1.591-1.591a.19.19,0,0,1,.269-.269l1.583,1.6a.2.2,0,0,1,0,.269.18.18,0,0,1-.127.047Z" transform="translate(-23.966 -191.656)"/>
    <path id="Tracé_2438" data-name="Tracé 2438" class="cls-15" d="M48.662,197.149a.185.185,0,0,0-.135.055.19.19,0,1,0,.269,0,.185.185,0,0,0-.135-.055Zm0,.752a.532.532,0,0,1-.4-.166.564.564,0,0,1,0-.8.578.578,0,0,1,.8,0,.564.564,0,0,1,0,.8.6.6,0,0,1-.4.166Z" transform="translate(-44.294 -181.204)"/>
    <path id="Tracé_2439" data-name="Tracé 2439" class="cls-15" d="M125.843,123.333a.185.185,0,0,1-.135-.055l-.53-.53a.19.19,0,1,1,.269-.269l.53.53a.2.2,0,0,1,0,.269.224.224,0,0,1-.135.055Z" transform="translate(-115.224 -112.738)"/>
    <path id="Tracé_2440" data-name="Tracé 2440" class="cls-15" d="M111.913,131.093a.185.185,0,0,1-.135-.055.2.2,0,0,1,0-.269l1.59-1.591a.19.19,0,0,1,.269.269l-1.591,1.591a.185.185,0,0,1-.135.055Z" transform="translate(-102.884 -118.907)"/>
    <path id="Tracé_2441" data-name="Tracé 2441" class="cls-15" d="M105.743,143.433a.185.185,0,0,1-.135-.055l-.53-.53a.19.19,0,0,1,.269-.269l.53.53a.2.2,0,0,1,0,.269.185.185,0,0,1-.135.055Z" transform="translate(-96.714 -131.247)"/>
    <path id="Tracé_2442" data-name="Tracé 2442" class="cls-15" d="M105.213,124.393a.185.185,0,0,1-.135-.055.2.2,0,0,1,0-.269l1.591-1.59a.19.19,0,1,1,.269.269l-1.59,1.59a.225.225,0,0,1-.135.055Z" transform="translate(-96.714 -112.738)"/>
    <g id="Groupe_947" data-name="Groupe 947">
      <g id="Groupe_945" data-name="Groupe 945" class="cls-12">
        <path id="Tracé_2443" data-name="Tracé 2443" class="cls-15" d="M115.843,133.333a.185.185,0,0,1-.135-.055l-.53-.53a.19.19,0,0,1,.269-.269l.53.53a.2.2,0,0,1,0,.269.185.185,0,0,1-.135.055Z" transform="translate(-106.015 -121.946)"/>
      </g>
      <g id="Groupe_946" data-name="Groupe 946" class="cls-12">
        <path id="Tracé_2444" data-name="Tracé 2444" class="cls-15" d="M2.636,249.72a2.659,2.659,0,0,1-1.883-4.542.19.19,0,0,1,.269.269,2.286,2.286,0,0,0,3.228,3.236.19.19,0,1,1,.269.269,2.706,2.706,0,0,1-1.883.768Z" transform="translate(0.023 -225.728)"/>
      </g>
    </g>
    <path id="Tracé_2445" data-name="Tracé 2445" class="cls-15" d="M137.634,204.615a.185.185,0,0,1-.135-.055.2.2,0,0,1,0-.269,1.519,1.519,0,0,0-2.152-2.144.19.19,0,0,1-.269-.269,1.894,1.894,0,0,1,2.682,2.675.165.165,0,0,1-.127.063Z" transform="translate(-124.341 -185.394)"/>
    <path id="Tracé_2446" data-name="Tracé 2446" class="cls-15" d="M18.113,219.413a.185.185,0,0,1-.135-.055.2.2,0,0,1,0-.269l.91-.91a.19.19,0,0,1,.269.269l-.91.91a.185.185,0,0,1-.135.055Z" transform="translate(-16.507 -200.865)"/>
    <path id="Tracé_2447" data-name="Tracé 2447" class="cls-15" d="M24.813,226.113a.185.185,0,0,1-.135-.055.2.2,0,0,1,0-.269l.91-.91a.2.2,0,0,1,.269,0,.186.186,0,0,1,0,.261l-.91.91a.167.167,0,0,1-.135.063Z" transform="translate(-22.676 -207.035)"/>
    <path id="Tracé_2448" data-name="Tracé 2448" class="cls-15" d="M18.643,230.533a.185.185,0,0,1-.135-.055l-.53-.53a.19.19,0,1,1,.269-.269l.53.53a.2.2,0,0,1,0,.269.185.185,0,0,1-.135.055Z" transform="translate(-16.507 -211.455)"/>
    <path id="Tracé_2449" data-name="Tracé 2449" class="cls-15" d="M9.313,234.36a.185.185,0,0,1-.135-.055.2.2,0,0,1,0-.269l.965-.957a.19.19,0,0,1,.269.269l-.957.957a.217.217,0,0,1-.142.055Z" transform="translate(-8.403 -214.586)"/>
    <path id="Tracé_2450" data-name="Tracé 2450" class="cls-15" d="M53.513,214.56a.185.185,0,0,1-.135-.055.2.2,0,0,1,0-.269l6.457-6.457a.19.19,0,0,1,.269.269L53.647,214.5a.185.185,0,0,1-.135.055Z" transform="translate(-49.105 -191.288)"/>
    <path id="Tracé_2451" data-name="Tracé 2451" class="cls-15" d="M105.413,243.282a.185.185,0,0,1-.135-.055.2.2,0,0,1,0-.269l4.779-4.779a.19.19,0,1,1,.269.269l-4.779,4.779a.185.185,0,0,1-.135.055Z" transform="translate(-96.899 -219.282)"/>
  </g>
</svg>
