<svg xmlns="http://www.w3.org/2000/svg" xmlns:xlink="http://www.w3.org/1999/xlink" width="7" height="7" viewBox="0 0 7 7"><defs><path id="rla7a" d="M110.01 410.37l.46 1.44c.07.22.26.38.49.38h1.51c.53 0 .72.64.3.94l-1.25.9c-.18.16-.26.39-.18.61l.45 1.44c.15.5-.42.91-.83.6l-1.25-.9c-.2-.15-.46-.15-.6 0l-1.26.9c-.41.31-.98-.1-.83-.6l.46-1.44a.54.54 0 0 0-.2-.6l-1.05-.9a.52.52 0 0 1 .3-.95h1.51c.23 0 .42-.16.5-.38l.49-1.44c.15-.5.83-.5.98 0z"/></defs><g><g transform="translate(-106 -410)"><use fill="#c9c9c9" xlink:href="#rla7a"/></g></g></svg>