<svg xmlns="http://www.w3.org/2000/svg" xmlns:xlink="http://www.w3.org/1999/xlink" viewBox="0 0 26.858 26">
  <defs>
    <style>
      .cls-1 {
        fill: rgba(92,105,113,0.36);
      }

      .cls-2 {
        fill: #393343;
      }

      .cls-3 {
        fill: #cacfd4;
      }

      .cls-4 {
        fill: #a7b3b9;
      }

      .cls-5 {
        fill: #f2f4f8;
      }

      .cls-6 {
        fill: #e4e6e8;
      }

      .cls-7 {
        fill: #fff;
      }

      .cls-8 {
        fill: #83bb56;
      }

      .cls-9 {
        fill: #e8584d;
      }

      .cls-10 {
        fill: #a084b7;
      }

      .cls-11 {
        fill: #fbc249;
      }

      .cls-12 {
        fill: #e4e5e7;
      }

      .cls-13 {
        fill: #b2b7b9;
      }

      .cls-14 {
        fill: #f1f1f3;
      }

      .cls-15 {
        fill: #f9fafc;
      }

      .cls-16 {
        fill: #bebdc1;
      }

      .cls-17 {
        fill: #9fa5ab;
      }

      .cls-18 {
        fill: #c5c3c4;
      }

      .cls-19 {
        fill: #525761;
      }

      .cls-20 {
        fill: #838d97;
      }

      .cls-21 {
        fill: #b3b5b9;
      }

      .cls-22 {
        fill: #8c9198;
      }

      .cls-23 {
        fill: #a6aaae;
      }

      .cls-24 {
        fill: #c2c0c2;
      }

      .cls-25 {
        fill: #b3b4b8;
      }

      .cls-26 {
        fill: #bdbcbe;
      }

      .cls-27 {
        fill: #008dc9;
      }

      .cls-28 {
        clip-path: url(#clip-path);
      }
    </style>
    <clipPath id="clip-path">
      <rect id="Rectangle_445" data-name="Rectangle 445" width="26.859" height="26"/>
    </clipPath>
  </defs>
  <g id="Live_music_icon" data-name="Live music icon" transform="translate(0)">
    <path id="Tracé_2508" data-name="Tracé 2508" class="cls-1" d="M26.2,72.72H24.527a.841.841,0,0,0,0-1.682H22.845a.841.841,0,1,0,0-1.682H20.331a.841.841,0,0,0,0-1.682h4.612a.841.841,0,1,0,0-1.682h-2.1a.841.841,0,0,0,0-1.682H22a.841.841,0,1,0,0-1.682h4.2a.841.841,0,1,0,0-1.682H24.527a.841.841,0,0,0,0-1.682H22.845a.841.841,0,1,0,0-1.682H21.588a.841.841,0,1,0,0-1.682H7.751a.841.841,0,1,0,0,1.682H4.812a.841.841,0,1,0,0,1.682H3.971a.841.841,0,0,0,0,1.682H6.485a.841.841,0,1,0,0,1.682h-4.6a.841.841,0,1,0,0,1.682h2.1a.841.841,0,0,0,0,1.682h-2.1a.841.841,0,1,0,0,1.682H1.041a.841.841,0,0,0,0,1.682h2.1a.841.841,0,1,0,0,1.682H2.3a.841.841,0,0,0,0,1.682h4.2a.841.841,0,0,0,0,1.682H4.812a.841.841,0,1,0,0,1.682H20.331a.841.841,0,1,0,0-1.682H26.2a.841.841,0,0,0,0-1.682" transform="translate(-0.182 -50.951)"/>
    <path id="Tracé_2509" data-name="Tracé 2509" class="cls-2" d="M28.712,33.525a.215.215,0,0,1-.212-.212.208.208,0,0,1,.2-.212h.009a.212.212,0,1,1,0,.425Z" transform="translate(-25.977 -30.17)"/>
    <path id="Tracé_2510" data-name="Tracé 2510" class="cls-2" d="M251.412,237.225a.215.215,0,0,1-.212-.212.208.208,0,0,1,.2-.212h.009a.215.215,0,0,1,.212.212.222.222,0,0,1-.212.212Z" transform="translate(-228.962 -215.837)"/>
    <path id="Tracé_2511" data-name="Tracé 2511" class="cls-2" d="M80.812,289.325a.215.215,0,0,1-.212-.212.208.208,0,0,1,.2-.212h.009a.212.212,0,1,1,0,.425Z" transform="translate(-73.465 -263.325)"/>
    <path id="Tracé_2512" data-name="Tracé 2512" class="cls-2" d="M28.712,218.225a.215.215,0,0,1-.212-.212.208.208,0,0,1,.2-.212h.009a.215.215,0,0,1,.212.212.21.21,0,0,1-.212.212Z" transform="translate(-25.977 -198.519)"/>
    <path id="Tracé_2513" data-name="Tracé 2513" class="cls-2" d="M289.312,66.925a.215.215,0,0,1-.212-.212.208.208,0,0,1,.2-.212h.009a.212.212,0,0,1,0,.425Z" transform="translate(-263.507 -60.613)"/>
    <path id="Tracé_2514" data-name="Tracé 2514" class="cls-3" d="M252.2,181.451c.027-.15.044-.3.062-.451a3.951,3.951,0,0,1-.062.451" transform="translate(-229.874 -164.977)"/>
    <path id="Tracé_2515" data-name="Tracé 2515" class="cls-3" d="M225.573,109a7.8,7.8,0,0,1,.611.912,1.312,1.312,0,0,0-.443.965,1.51,1.51,0,0,0-.841-1.257,1.678,1.678,0,0,0,.673-.62" transform="translate(-204.991 -99.351)"/>
    <path id="Tracé_2516" data-name="Tracé 2516" class="cls-4" d="M213.784,144.067h-2.1a20.014,20.014,0,0,0-.186-2.567c.85.115,1.567.23,2.045.319a11.587,11.587,0,0,1,.239,2.249Z" transform="translate(-192.777 -128.974)"/>
    <path id="Tracé_2517" data-name="Tracé 2517" class="cls-4" d="M211.777,170.5h2.1a10.96,10.96,0,0,1-.23,2.187c-.478.08-1.2.2-2.045.319a19.182,19.182,0,0,0,.177-2.505Z" transform="translate(-192.868 -155.406)"/>
    <path id="Tracé_2518" data-name="Tracé 2518" class="cls-4" d="M209.361,195.2a15.01,15.01,0,0,1-.558,2.1c-.39.124-1.062.328-1.9.522a22.148,22.148,0,0,0,.416-2.3c.85-.115,1.567-.23,2.045-.319Z" transform="translate(-188.584 -177.92)"/>
    <path id="Tracé_2519" data-name="Tracé 2519" class="cls-3" d="M186.347,141.242h-2.514c0-.947-.053-1.912-.133-2.842.876.071,1.726.168,2.461.274a20.132,20.132,0,0,1,.186,2.567Z" transform="translate(-167.438 -126.148)"/>
    <path id="Tracé_2520" data-name="Tracé 2520" class="cls-3" d="M183.924,170.5h2.514a19.045,19.045,0,0,1-.177,2.5c-.735.1-1.576.195-2.461.274.071-.894.124-1.841.124-2.771Z" transform="translate(-167.529 -155.406)"/>
    <path id="Tracé_2521" data-name="Tracé 2521" class="cls-4" d="M182.811,111.125a21.788,21.788,0,0,1,.425,2.311c-.735-.1-1.576-.2-2.461-.274-.08-.885-.168-1.726-.274-2.461.85.115,1.638.266,2.311.425Z" transform="translate(-164.521 -100.9)"/>
    <path id="Tracé_2522" data-name="Tracé 2522" class="cls-4" d="M183.527,198.8c-.106.841-.266,1.629-.416,2.3a22.216,22.216,0,0,1-2.311.425c.1-.735.195-1.576.266-2.461.876-.071,1.717-.168,2.461-.266Z" transform="translate(-164.795 -181.201)"/>
    <path id="Tracé_2523" data-name="Tracé 2523" class="cls-4" d="M179.82,224.8c-.186.814-.381,1.478-.5,1.886a15.338,15.338,0,0,1-2.116.575c.08-.487.2-1.2.31-2.036.841-.115,1.638-.274,2.311-.425Z" transform="translate(-161.513 -204.899)"/>
    <path id="Tracé_2524" data-name="Tracé 2524" class="cls-4" d="M179.107,88.267c.124.39.319,1.053.513,1.894-.673-.159-1.461-.31-2.3-.425-.115-.85-.23-1.558-.319-2.036a14.125,14.125,0,0,1,2.107.567Z" transform="translate(-161.331 -79.936)"/>
    <path id="Tracé_2525" data-name="Tracé 2525" class="cls-3" d="M154.666,139.966H151.7V137c.947,0,1.921.053,2.842.133.071.921.124,1.886.124,2.833Z" transform="translate(-138.271 -124.872)"/>
    <path id="Tracé_2526" data-name="Tracé 2526" class="cls-3" d="M151.6,170.5h2.966c0,.921-.053,1.868-.124,2.771-.93.08-1.894.133-2.842.133v-2.9Z" transform="translate(-138.18 -155.406)"/>
    <path id="Tracé_2527" data-name="Tracé 2527" class="cls-3" d="M154.167,108.786c.1.735.195,1.576.274,2.461-.921-.08-1.894-.133-2.842-.133V108.6a18.536,18.536,0,0,1,2.567.186Z" transform="translate(-138.18 -98.986)"/>
    <path id="Tracé_2528" data-name="Tracé 2528" class="cls-3" d="M154.442,201.8c-.071.876-.168,1.717-.266,2.461a18.767,18.767,0,0,1-2.576.186v-2.514c.947,0,1.921-.053,2.842-.133Z" transform="translate(-138.179 -183.936)"/>
    <path id="Tracé_2529" data-name="Tracé 2529" class="cls-3" d="M154.176,229.6c-.106.841-.23,1.549-.31,2.036a11.108,11.108,0,0,1-2.266.248v-2.1a18.767,18.767,0,0,0,2.576-.186Z" transform="translate(-138.179 -209.275)"/>
    <path id="Tracé_2530" data-name="Tracé 2530" class="cls-4" d="M153.949,85.139c.08.478.2,1.186.319,2.036a20.016,20.016,0,0,0-2.567-.186V84.9a11.663,11.663,0,0,1,2.249.239Z" transform="translate(-138.271 -77.384)"/>
    <path id="Tracé_2531" data-name="Tracé 2531" class="cls-4" d="M156.469,73.025c-.195-.832-.39-1.5-.513-1.894a15.906,15.906,0,0,0-2.107-.575,10.938,10.938,0,0,0-2.249-.239V69.44l.009-.54a9,9,0,0,1,7.153,3.55,1.749,1.749,0,0,1-.664.629,1.51,1.51,0,0,1,.841,1.257,1.3,1.3,0,0,1,.443-.965,8.919,8.919,0,0,1,1.133,3.178,7.314,7.314,0,0,1,.089.885c.009.159.009.319.009.478h-1.434a11.588,11.588,0,0,0-.239-2.249c-.478-.08-1.2-.2-2.045-.319a21.564,21.564,0,0,0-.425-2.319" transform="translate(-138.18 -62.801)"/>
    <path id="Tracé_2532" data-name="Tracé 2532" class="cls-4" d="M155.982,177.193c.124-.407.319-1.071.5-1.886.841-.195,1.514-.4,1.9-.522a15.014,15.014,0,0,0,.558-2.1,10.96,10.96,0,0,0,.23-2.187h1.434c0,.31-.018.62-.044.921-.018.15-.035.3-.062.451a9.02,9.02,0,0,1-8.888,7.64l-.018-.629v-.876a11.108,11.108,0,0,0,2.266-.248,14.268,14.268,0,0,0,2.116-.567" transform="translate(-138.18 -155.406)"/>
    <path id="Tracé_2533" data-name="Tracé 2533" class="cls-3" d="M125.805,229.877v2.1a11.05,11.05,0,0,1-2.2-.23c-.08-.487-.195-1.2-.31-2.045a19.292,19.292,0,0,0,2.505.177Z" transform="translate(-112.385 -209.366)"/>
    <path id="Tracé_2534" data-name="Tracé 2534" class="cls-5" d="M123.071,202.024v2.514a19.072,19.072,0,0,1-2.505-.177c-.1-.744-.195-1.585-.266-2.461.9.071,1.85.124,2.771.124Z" transform="translate(-109.65 -184.027)"/>
    <path id="Tracé_2535" data-name="Tracé 2535" class="cls-6" d="M123.071,108.6v2.514c-.921,0-1.868.053-2.771.124.08-.885.177-1.726.274-2.461a19.046,19.046,0,0,1,2.5-.177Z" transform="translate(-109.65 -98.986)"/>
    <path id="Tracé_2536" data-name="Tracé 2536" class="cls-6" d="M125.9,84.9V87a19.046,19.046,0,0,0-2.5.177c.115-.85.23-1.567.31-2.045a11.03,11.03,0,0,1,2.187-.23Z" transform="translate(-112.476 -77.384)"/>
    <path id="Tracé_2537" data-name="Tracé 2537" class="cls-3" d="M109.741,158.514a1.51,1.51,0,0,0-.841-1.257,1.527,1.527,0,0,0,.841-1.257,1.527,1.527,0,0,0,.841,1.257,1.51,1.51,0,0,0-.841,1.257Z" transform="translate(-99.26 -142.19)"/>
    <path id="Tracé_2538" data-name="Tracé 2538" class="cls-5" d="M100.012,87.5c-.08.478-.195,1.2-.31,2.045-.841.115-1.62.266-2.3.425.195-.85.4-1.514.513-1.9a14.4,14.4,0,0,1,2.1-.567Z" transform="translate(-88.778 -79.754)"/>
    <path id="Tracé_2539" data-name="Tracé 2539" class="cls-5" d="M99.6,225.416c.115.841.23,1.558.31,2.045a16.4,16.4,0,0,1-2.107-.567c-.124-.407-.319-1.071-.5-1.894.673.15,1.461.31,2.3.416Z" transform="translate(-88.686 -205.082)"/>
    <path id="Tracé_2540" data-name="Tracé 2540" class="cls-6" d="M95.235,110.6c-.1.735-.2,1.576-.274,2.461-.885.08-1.717.168-2.461.274.115-.85.274-1.638.434-2.311a20.666,20.666,0,0,1,2.3-.425Z" transform="translate(-84.311 -100.809)"/>
    <path id="Tracé_2541" data-name="Tracé 2541" class="cls-5" d="M94.87,199.166c.08.876.168,1.717.266,2.461-.841-.106-1.629-.266-2.311-.416-.159-.682-.31-1.47-.425-2.311.744.1,1.585.195,2.47.266Z" transform="translate(-84.22 -181.292)"/>
    <path id="Tracé_2542" data-name="Tracé 2542" class="cls-7" d="M92.879,138.673a1.527,1.527,0,0,1-.841,1.257,1.51,1.51,0,0,1,.841,1.257,1.51,1.51,0,0,1,.841-1.257,1.51,1.51,0,0,1-.841-1.257Zm.168-1.549c.9-.071,1.85-.124,2.771-.124v5.869c-.93,0-1.877-.053-2.78-.124-.876-.071-1.726-.168-2.461-.266a19.182,19.182,0,0,1-.177-2.505,20.272,20.272,0,0,1,.186-2.576c.744-.106,1.585-.2,2.461-.274Z" transform="translate(-82.397 -124.872)"/>
    <path id="Tracé_2543" data-name="Tracé 2543" class="cls-5" d="M70.175,115.8c.416-.124,1.071-.319,1.894-.5-.159.673-.319,1.461-.434,2.311-.841.106-1.549.23-2.036.31a13.72,13.72,0,0,1,.575-2.116Z" transform="translate(-63.439 -105.093)"/>
    <path id="Tracé_2544" data-name="Tracé 2544" class="cls-5" d="M71.77,197.929c-.823-.195-1.5-.39-1.9-.513A14.893,14.893,0,0,1,69.3,195.3c.487.089,1.2.2,2.045.319.115.841.274,1.629.425,2.311Z" transform="translate(-63.165 -178.011)"/>
    <path id="Tracé_2545" data-name="Tracé 2545" class="cls-7" d="M66.948,141.81c.487-.08,1.2-.2,2.036-.31a18.767,18.767,0,0,0-.186,2.576H66.7a11.69,11.69,0,0,1,.248-2.266Z" transform="translate(-60.795 -128.974)"/>
    <path id="Tracé_2546" data-name="Tracé 2546" class="cls-5" d="M69.075,173.014c-.841-.115-1.558-.23-2.045-.319a11.05,11.05,0,0,1-.23-2.2h2.1a16.646,16.646,0,0,0,.177,2.514Z" transform="translate(-60.886 -155.406)"/>
    <path id="Tracé_2547" data-name="Tracé 2547" class="cls-6" d="M52.037,73.512a15.7,15.7,0,0,0-.575,2.116,11.108,11.108,0,0,0-.248,2.266H49.7c0-.3.018-.6.044-.9A9.018,9.018,0,0,1,58.712,68.9h.018l-.009.54v.876a10.961,10.961,0,0,0-2.187.23,15.011,15.011,0,0,0-2.1.558c-.124.39-.319,1.053-.513,1.9-.814.186-1.47.381-1.886.5" transform="translate(-45.3 -62.801)"/>
    <path id="Tracé_2548" data-name="Tracé 2548" class="cls-5" d="M51.344,172.787a16.182,16.182,0,0,0,.567,2.116c.407.124,1.071.319,1.9.513.186.823.381,1.487.5,1.894a15.072,15.072,0,0,0,2.107.567,11.05,11.05,0,0,0,2.2.23v.876l.018.629h-.018a9.025,9.025,0,0,1-8.915-7.64c-.027-.15-.044-.3-.062-.451-.027-.3-.044-.611-.044-.921h1.514a11.733,11.733,0,0,0,.23,2.187" transform="translate(-45.209 -155.498)"/>
    <path id="Tracé_2549" data-name="Tracé 2549" class="cls-3" d="M50.9,186.1a9.025,9.025,0,0,0,8.915,7.64h.018a9.02,9.02,0,0,0,8.888-7.64,9.013,9.013,0,0,1-17.82,0" transform="translate(-46.394 -169.625)"/>
    <path id="Tracé_2550" data-name="Tracé 2550" class="cls-3" d="M50.3,181c.018.15.035.3.062.451A2.636,2.636,0,0,1,50.3,181" transform="translate(-45.847 -164.977)"/>
    <path id="Tracé_2551" data-name="Tracé 2551" class="cls-8" d="M230.966,273.918l.1.575-.522-.274-.522.274.106-.575-.425-.416.584-.08.257-.522.266.522.575.08Z" transform="translate(-209.366 -248.741)"/>
    <path id="Tracé_2552" data-name="Tracé 2552" class="cls-9" d="M97.516,27.518l-.416-.407.575-.089.266-.522.257.522.584.089-.425.407.106.575-.522-.274-.522.274Z" transform="translate(-88.504 -24.154)"/>
    <path id="Tracé_2553" data-name="Tracé 2553" class="cls-10" d="M109.741,155.9a1.527,1.527,0,0,0,.841,1.257,1.51,1.51,0,0,0-.841,1.257,1.51,1.51,0,0,0-.841-1.257,1.51,1.51,0,0,0,.841-1.257Z" transform="translate(-99.26 -142.099)"/>
    <path id="Tracé_2554" data-name="Tracé 2554" class="cls-11" d="M3.141,101.8a1.51,1.51,0,0,0,.841,1.257,1.51,1.51,0,0,0-.841,1.257,1.51,1.51,0,0,0-.841-1.257,1.51,1.51,0,0,0,.841-1.257Z" transform="translate(-2.096 -92.788)"/>
    <path id="Tracé_2555" data-name="Tracé 2555" class="cls-12" d="M151.709,272.4h0" transform="translate(-138.271 -248.286)"/>
    <path id="Tracé_2556" data-name="Tracé 2556" class="cls-13" d="M80.1,71.312A9,9,0,0,1,86.4,68.7c-.133,0-.266.018-.4.018a.332.332,0,0,1,.1.009,9,9,0,0,0-6,2.585" transform="translate(-73.009 -62.618)"/>
    <path id="Tracé_2557" data-name="Tracé 2557" class="cls-14" d="M50.832,77.985H50A8.969,8.969,0,0,1,58.676,69l.328.027a9.006,9.006,0,0,0-8.171,8.959" transform="translate(-45.574 -62.892)"/>
    <path id="Tracé_2558" data-name="Tracé 2558" class="cls-15" d="M58.977,179.521A9.02,9.02,0,0,1,50,170.5h.841a9.014,9.014,0,0,0,8.171,8.968,3.457,3.457,0,0,1-.434.027c.133.009.257.027.4.027" transform="translate(-45.574 -155.406)"/>
    <path id="Tracé_2559" data-name="Tracé 2559" class="cls-13" d="M151.727,68.7h0" transform="translate(-138.271 -62.618)"/>
    <path id="Tracé_2560" data-name="Tracé 2560" class="cls-16" d="M151.4,272.4h0" transform="translate(-137.997 -248.286)"/>
    <path id="Tracé_2561" data-name="Tracé 2561" class="cls-17" d="M151.418,272.4h0" transform="translate(-137.997 -248.286)"/>
    <path id="Tracé_2562" data-name="Tracé 2562" class="cls-18" d="M251.327,150.015h0c-.009-.035-.018-.071-.027-.115h.009a.517.517,0,0,0,.018.115" transform="translate(-229.053 -136.63)"/>
    <path id="Tracé_2563" data-name="Tracé 2563" class="cls-19" d="M151.8,86.68h0m8.861-7.418c.009-.053.018-.115.027-.168h0v-.044a.873.873,0,0,1-.027.212m.1-.735c.027-.266.035-.54.035-.814h.009c-.009.274-.018.549-.044.814m.035-.814h0m0-.062h0m0-.009h0m0,0c0-.133-.009-.266-.009-.4-.018-.3-.044-.593-.089-.885-.018-.124-.035-.239-.062-.354h.009a9.97,9.97,0,0,1,.15,1.638m-.186-1.753a9.061,9.061,0,0,0-1.045-2.709c-.009.009-.018.009-.018.018.009-.009.018-.009.018-.018a8.18,8.18,0,0,0-.611-.912h0a8.977,8.977,0,0,0-6.834-3.541.431.431,0,0,0,.106-.009c-.133-.009-.266-.018-.4-.018a9.013,9.013,0,0,1,8.782,7.188h0m-1.47-1.939h0a1.061,1.061,0,0,1,.1-.31.849.849,0,0,0-.1.31m.4-.744h0m-1.062-.434h0a2.077,2.077,0,0,0,.23-.195,2.077,2.077,0,0,1-.23.195M151.8,68.753h0" transform="translate(-138.362 -62.618)"/>
    <path id="Tracé_2564" data-name="Tracé 2564" class="cls-17" d="M252.3,181.881a.053.053,0,0,1,.009-.035v.018c-.009,0-.009.009-.009.018m.027-.221c.009-.053.009-.106.018-.159a.974.974,0,0,1-.018.159" transform="translate(-229.965 -165.433)"/>
    <path id="Tracé_2565" data-name="Tracé 2565" class="cls-17" d="M227.864,110.682a.808.808,0,0,0-.062-.124,1.343,1.343,0,0,0-.257-.487c-.106-.195-.221-.381-.345-.567a2.076,2.076,0,0,0,.23-.195,1.437,1.437,0,0,0,.239-.31,7.8,7.8,0,0,1,.611.912c-.009.009-.018.009-.018.018h0a1.471,1.471,0,0,0-.31.434,1.208,1.208,0,0,0-.089.319" transform="translate(-207.087 -99.351)"/>
    <path id="Tracé_2566" data-name="Tracé 2566" class="cls-20" d="M160.7,77.985h-.832a8.9,8.9,0,0,0-.823-3.762,1.061,1.061,0,0,1,.1-.31,1.471,1.471,0,0,1,.31-.434h0c.009-.009.018-.009.018-.018a8.971,8.971,0,0,1,1.045,2.709c.009.035.018.071.027.115.027.115.044.239.062.354a7.314,7.314,0,0,1,.089.885c.009.133.009.266.009.4h0v.009h0v.053h0M158.986,74.1c-.08-.168-.168-.328-.257-.487a1.343,1.343,0,0,1,.257.487m-.6-1.053a9.013,9.013,0,0,0-6.684-4.019h0l.319-.027a8.992,8.992,0,0,1,6.834,3.541h0a1.785,1.785,0,0,1-.239.31,2.077,2.077,0,0,1-.23.195" transform="translate(-138.271 -62.892)"/>
    <path id="Tracé_2567" data-name="Tracé 2567" class="cls-20" d="M151.827,179.612c.133,0,.266-.018.4-.018l-.425-.027h0a9.013,9.013,0,0,0,8.162-8.968h.841c0,.274-.009.549-.035.814-.009.053-.009.106-.018.159s-.009.106-.018.159l-.027.186a.053.053,0,0,1-.009.035v.027h0a9.014,9.014,0,0,1-8.826,7.64.1.1,0,0,0-.044-.009" transform="translate(-138.362 -155.498)"/>
    <path id="Tracé_2568" data-name="Tracé 2568" class="cls-21" d="M151.732,69.3h0" transform="translate(-138.293 -63.165)"/>
    <path id="Tracé_2569" data-name="Tracé 2569" class="cls-16" d="M151.709,271.8h0" transform="translate(-138.271 -247.739)"/>
    <path id="Tracé_2570" data-name="Tracé 2570" class="cls-17" d="M152,193.74h0m2.789-.451a9.026,9.026,0,0,0,6.091-7.188h0c-.009.053-.018.115-.027.168a9.051,9.051,0,0,1-6.064,7.02" transform="translate(-138.544 -169.625)"/>
    <path id="Tracé_2571" data-name="Tracé 2571" class="cls-19" d="M151.4,68.7h0" transform="translate(-137.997 -62.618)"/>
    <path id="Tracé_2572" data-name="Tracé 2572" class="cls-22" d="M151.8,271.853h0V271.8h0v.053" transform="translate(-138.362 -247.739)"/>
    <path id="Tracé_2573" data-name="Tracé 2573" class="cls-23" d="M151.8,271.853h0V271.8c.142.009.283.027.425.027-.133.009-.266.018-.4.018a.033.033,0,0,1-.027.009" transform="translate(-138.362 -247.739)"/>
    <path id="Tracé_2574" data-name="Tracé 2574" class="cls-24" d="M147.334,271.944H147.3c-.133,0-.266-.018-.4-.018l.434-.027h.009l-.009.044" transform="translate(-133.896 -247.83)"/>
    <path id="Tracé_2575" data-name="Tracé 2575" class="cls-25" d="M151.427,272.4h0" transform="translate(-137.997 -248.286)"/>
    <path id="Tracé_2576" data-name="Tracé 2576" class="cls-22" d="M147.334,68.844v-.027h-.018c-.106,0-.212,0-.319.009a.332.332,0,0,1-.1-.009c.133-.009.266-.018.4-.018h.053c.133,0,.266.018.4.018a.431.431,0,0,0-.106.009c-.106,0-.212-.009-.319-.009l.009.027h0" transform="translate(-133.896 -62.709)"/>
    <path id="Tracé_2577" data-name="Tracé 2577" class="cls-23" d="M151.8,69.027V69c.106,0,.212,0,.319.009a1.924,1.924,0,0,0-.319.018" transform="translate(-138.362 -62.892)"/>
    <path id="Tracé_2578" data-name="Tracé 2578" class="cls-26" d="M148.328,68.935,148,68.909c.106,0,.212-.009.319-.009h.018l-.009.035h0" transform="translate(-134.898 -62.801)"/>
    <path id="Tracé_2579" data-name="Tracé 2579" class="cls-27" d="M225.841,101.8a1.51,1.51,0,0,0,.841,1.257,1.523,1.523,0,0,0-.4.292,1.312,1.312,0,0,0-.443.965,1.51,1.51,0,0,0-.841-1.257,1.749,1.749,0,0,0,.664-.629,1.123,1.123,0,0,0,.177-.629Z" transform="translate(-205.082 -92.788)"/>
    <path id="Tracé_2580" data-name="Tracé 2580" class="cls-2" d="M56.642,84.749a9.29,9.29,0,0,1-9.136-7.817c-.027-.15-.044-.31-.062-.46a8.783,8.783,0,0,1-.044-.947c0-.292.018-.6.044-.921a9.23,9.23,0,0,1,15.828-5.48.207.207,0,0,1-.3.283,8.8,8.8,0,0,0-15.1,5.223c-.027.3-.044.6-.044.885s.018.593.044.9c.018.142.035.292.053.443a8.8,8.8,0,0,0,17.4,0,3.771,3.771,0,0,0,.053-.443c.027-.31.044-.611.044-.9,0-.159,0-.31-.009-.46a8.018,8.018,0,0,0-.089-.859,8.513,8.513,0,0,0-.611-2.16.208.208,0,1,1,.381-.168,8.994,8.994,0,0,1,.646,2.266,8.824,8.824,0,0,1,.1.9c.009.168.009.319.009.487,0,.3-.018.62-.044.947-.018.159-.035.31-.062.469a9.274,9.274,0,0,1-9.1,7.808Z" transform="translate(-43.204 -60.431)"/>
    <path id="Tracé_2581" data-name="Tracé 2581" class="cls-2" d="M173.368,94.351h-.044a.217.217,0,0,1-.168-.248s.053-.266.133-.726.2-1.186.31-2.027.2-1.655.266-2.443c.08-.991.124-1.921.124-2.753,0-.876-.044-1.824-.133-2.824-.071-.823-.168-1.673-.274-2.452-.089-.673-.195-1.354-.31-2.027-.071-.416-.124-.655-.124-.655a.208.208,0,1,1,.407-.089s.053.248.124.673c.124.682.221,1.372.319,2.045.106.788.2,1.647.274,2.47.089,1.009.133,1.965.133,2.859,0,.85-.044,1.788-.124,2.789-.062.8-.159,1.629-.266,2.47s-.23,1.576-.31,2.045-.133.744-.133.744a.212.212,0,0,1-.2.15Z" transform="translate(-157.814 -71.042)"/>
    <path id="Tracé_2582" data-name="Tracé 2582" class="cls-2" d="M197.191,102.109a.2.2,0,0,1-.071-.009.215.215,0,0,1-.133-.266s.062-.168.15-.469c.195-.637.363-1.257.5-1.868.186-.8.319-1.558.416-2.284a18.956,18.956,0,0,0,.177-2.47,18.673,18.673,0,0,0-.186-2.541c-.1-.752-.248-1.523-.425-2.284-.15-.637-.319-1.275-.5-1.877-.08-.248-.124-.39-.124-.39a.207.207,0,0,1,.39-.142s.053.142.133.407c.195.62.363,1.257.513,1.9.186.779.328,1.558.434,2.328a19.5,19.5,0,0,1,.195,2.594,18.546,18.546,0,0,1-.186,2.532c-.1.735-.239,1.514-.425,2.319-.142.629-.31,1.248-.5,1.9-.1.31-.159.478-.159.478a.184.184,0,0,1-.186.133Z" transform="translate(-179.539 -79.641)"/>
    <path id="Tracé_2583" data-name="Tracé 2583" class="cls-2" d="M220.919,145.982a.315.315,0,0,1-.089-.018.211.211,0,0,1-.106-.274c0-.009.212-.469.46-1.2a14.973,14.973,0,0,0,.558-2.072,10.981,10.981,0,0,0,.23-2.142,11.105,11.105,0,0,0-.239-2.213c-.027-.168-.062-.319-.1-.469a.21.21,0,1,1,.407-.106c.035.159.071.319.106.487a11.739,11.739,0,0,1,.239,2.293,11.054,11.054,0,0,1-.239,2.222,16.075,16.075,0,0,1-.567,2.125c-.248.744-.46,1.213-.469,1.231a.232.232,0,0,1-.195.133Z" transform="translate(-201.169 -125.179)"/>
    <path id="Tracé_2584" data-name="Tracé 2584" class="cls-2" d="M117.616,84.193l-.416-.027c.018-.319.044-.646.071-.956.062-.779.159-1.585.274-2.47s.239-1.611.31-2.045c.08-.416.124-.655.124-.655a.212.212,0,1,1,.416.08s-.044.239-.124.646c-.071.434-.195,1.16-.31,2.036s-.212,1.682-.274,2.452c-.027.3-.044.62-.071.938Z" transform="translate(-106.825 -70.976)"/>
    <path id="Tracé_2585" data-name="Tracé 2585" class="cls-2" d="M118.268,196.027a.208.208,0,0,1-.2-.168s-.053-.266-.133-.726l-.018-.115c-.08-.487-.186-1.16-.292-1.939-.115-.859-.2-1.691-.266-2.47-.027-.292-.044-.593-.062-.894a.208.208,0,0,1,.195-.221.2.2,0,0,1,.221.195c.018.292.035.593.062.885.071.779.159,1.6.266,2.452.106.779.212,1.443.292,1.93l.018.106c.08.451.133.708.133.708a.211.211,0,0,1-.159.248.131.131,0,0,1-.053.009Z" transform="translate(-106.91 -172.718)"/>
    <path id="Tracé_2586" data-name="Tracé 2586" class="cls-2" d="M89.47,102.028a.2.2,0,0,1-.195-.133s-.062-.159-.15-.46c-.186-.611-.363-1.257-.513-1.912-.177-.744-.319-1.549-.425-2.328A18.447,18.447,0,0,1,88,94.662a18.242,18.242,0,0,1,.195-2.6c.1-.735.248-1.523.434-2.328.15-.646.319-1.292.522-1.921.08-.239.124-.381.124-.381a.21.21,0,0,1,.4.133l-.124.372c-.195.62-.363,1.257-.513,1.886-.186.8-.328,1.567-.425,2.293a17.509,17.509,0,0,0-.009,5.028c.106.77.248,1.558.416,2.293q.226.969.5,1.886c.089.283.142.434.142.434a.211.211,0,0,1-.124.266.172.172,0,0,1-.071.009Z" transform="translate(-80.21 -79.56)"/>
    <path id="Tracé_2587" data-name="Tracé 2587" class="cls-2" d="M65.87,117.553a.212.212,0,0,1-.195-.124c-.009-.018-.221-.478-.469-1.2a15.086,15.086,0,0,1-.575-2.142,11.169,11.169,0,0,1-.23-2.231,12.169,12.169,0,0,1,.248-2.311,15.8,15.8,0,0,1,.584-2.142c.239-.69.434-1.115.443-1.133a.206.206,0,0,1,.372.177s-.195.425-.425,1.089a14.229,14.229,0,0,0-.567,2.089,11.3,11.3,0,0,0-.248,2.222,11.067,11.067,0,0,0,.23,2.151,14.38,14.38,0,0,0,.567,2.089c.239.708.451,1.16.451,1.169a.208.208,0,0,1-.106.274.143.143,0,0,1-.08.027Z" transform="translate(-58.699 -96.749)"/>
    <path id="Tracé_2588" data-name="Tracé 2588" class="cls-2" d="M58.6,168.525H54.612a.212.212,0,0,1,0-.425H58.6a.215.215,0,0,1,.212.212.21.21,0,0,1-.212.212Z" transform="translate(-49.584 -153.219)"/>
    <path id="Tracé_2589" data-name="Tracé 2589" class="cls-2" d="M142.745,168.525h-9.933a.212.212,0,0,1,0-.425h9.933a.215.215,0,0,1,.212.212.222.222,0,0,1-.212.212Z" transform="translate(-120.861 -153.219)"/>
    <path id="Tracé_2590" data-name="Tracé 2590" class="cls-2" d="M67.049,192.729c-.85,0-1.788-.044-2.8-.124-.806-.062-1.638-.159-2.47-.266-1.027-.142-1.726-.257-2.054-.319-.451-.08-.726-.133-.726-.133a.208.208,0,0,1,.089-.407s.266.053.708.133c.328.062,1.018.177,2.036.31.832.115,1.655.2,2.452.266.991.08,1.921.124,2.762.124.876,0,1.824-.044,2.824-.133.823-.071,1.647-.159,2.452-.274.682-.089,1.372-.195,2.036-.31.407-.071.646-.124.646-.124a.212.212,0,0,1,.08.416l-.655.124c-.673.115-1.372.221-2.054.319-.814.106-1.647.2-2.47.274-1.009.08-1.965.124-2.859.124Z" transform="translate(-53.628 -174.52)"/>
    <path id="Tracé_2591" data-name="Tracé 2591" class="cls-2" d="M75.708,216.761a18.35,18.35,0,0,1-2.532-.186c-.735-.1-1.5-.23-2.328-.425s-1.5-.39-1.912-.513c-.292-.089-.46-.15-.46-.15a.207.207,0,0,1-.124-.266.214.214,0,0,1,.266-.124s.159.062.434.142c.407.124,1.062.319,1.886.5s1.567.319,2.284.416a17.507,17.507,0,0,0,5.028-.009c.726-.1,1.47-.239,2.293-.425.806-.186,1.47-.381,1.886-.513.23-.071.363-.124.372-.124a.21.21,0,1,1,.133.4s-.133.044-.381.124c-.425.133-1.1.336-1.921.522s-1.593.336-2.328.434a17.939,17.939,0,0,1-2.594.195Z" transform="translate(-62.287 -196.038)"/>
    <path id="Tracé_2592" data-name="Tracé 2592" class="cls-2" d="M92.908,240.58a11.224,11.224,0,0,1-2.24-.239,15.8,15.8,0,0,1-2.133-.575c-.726-.248-1.186-.451-1.2-.46a.208.208,0,0,1-.106-.274.211.211,0,0,1,.274-.106c.009,0,.46.212,1.169.451a15.259,15.259,0,0,0,2.08.567,11.082,11.082,0,0,0,2.16.23,11.259,11.259,0,0,0,2.222-.239,15.97,15.97,0,0,0,2.089-.567c.673-.23,1.089-.425,1.089-.425a.206.206,0,1,1,.177.372c-.018.009-.443.2-1.133.443a14.321,14.321,0,0,1-2.142.584,12.713,12.713,0,0,1-2.3.239Z" transform="translate(-79.487 -217.758)"/>
    <path id="Tracé_2593" data-name="Tracé 2593" class="cls-2" d="M59.051,135.857a.21.21,0,0,1-.035-.416s.274-.053.744-.133c.522-.089,1.231-.2,2.045-.31s1.647-.2,2.47-.274c1.045-.08,1.956-.124,2.789-.124.894,0,1.85.044,2.859.133.77.062,1.6.15,2.47.274.682.089,1.372.195,2.054.319.425.071.664.124.664.124a.208.208,0,1,1-.089.407s-.239-.053-.655-.124c-.673-.115-1.363-.221-2.036-.31-.859-.115-1.682-.212-2.443-.274-.991-.089-1.939-.133-2.824-.133-.823,0-1.726.035-2.753.124-.814.071-1.638.159-2.443.274s-1.514.221-2.027.31c-.46.08-.726.133-.726.133Z" transform="translate(-53.633 -122.684)"/>
    <path id="Tracé_2594" data-name="Tracé 2594" class="cls-2" d="M68.583,107.973a.2.2,0,0,1-.195-.142.208.208,0,0,1,.133-.266s.177-.062.478-.159c.434-.133,1.1-.328,1.912-.5.752-.177,1.531-.319,2.319-.425a19.969,19.969,0,0,1,2.523-.177,19.741,19.741,0,0,1,2.594.186c.752.106,1.531.248,2.319.434.3.071.584.142.841.2a.21.21,0,0,1-.106.407c-.248-.071-.522-.133-.823-.2-.779-.177-1.549-.319-2.284-.425a18.875,18.875,0,0,0-2.541-.186,19.284,19.284,0,0,0-2.47.177c-.77.106-1.54.248-2.284.416-.806.186-1.461.372-1.877.5-.292.1-.469.15-.469.15a.208.208,0,0,1-.071.018Z" transform="translate(-62.324 -96.89)"/>
    <path id="Tracé_2595" data-name="Tracé 2595" class="cls-2" d="M87.419,84.273a.212.212,0,0,1-.195-.124.208.208,0,0,1,.106-.274c.018-.009.487-.221,1.231-.478a14.815,14.815,0,0,1,2.125-.567,10.783,10.783,0,0,1,4.515.018,14.714,14.714,0,0,1,2.133.584,11.907,11.907,0,0,1,1.151.451.208.208,0,0,1-.168.381c-.009,0-.434-.2-1.115-.434a15.137,15.137,0,0,0-2.08-.567,10.226,10.226,0,0,0-4.355-.009,15.314,15.314,0,0,0-2.072.558,12.687,12.687,0,0,0-1.2.46.241.241,0,0,0-.08,0Z" transform="translate(-79.487 -75.288)"/>
    <path id="Tracé_2596" data-name="Tracé 2596" class="cls-2" d="M149.412,89.863a.215.215,0,0,1-.212-.212V72.812a.212.212,0,0,1,.425,0V89.659a.208.208,0,0,1-.212.2Z" transform="translate(-135.992 -66.173)"/>
    <path id="Tracé_2597" data-name="Tracé 2597" class="cls-2" d="M149.412,5.453a.215.215,0,0,1-.212-.212V.212a.212.212,0,0,1,.425,0V5.241a.215.215,0,0,1-.212.212Z" transform="translate(-135.992 0)"/>
    <path id="Tracé_2598" data-name="Tracé 2598" class="cls-2" d="M9.612,115.324a.215.215,0,0,1-.212-.212,1.717,1.717,0,0,1,.956-1.443.212.212,0,0,1,.186.381,1.312,1.312,0,0,0-.717,1.071.208.208,0,0,1-.212.2Z" transform="translate(-8.568 -103.585)"/>
    <g id="Groupe_958" data-name="Groupe 958">
      <g id="Groupe_955" data-name="Groupe 955" class="cls-28">
        <path id="Tracé_2599" data-name="Tracé 2599" class="cls-2" d="M10.545,101.173a.314.314,0,0,1-.089-.018A1.717,1.717,0,0,1,9.5,99.712a.212.212,0,0,1,.425,0,1.312,1.312,0,0,0,.717,1.071.21.21,0,0,1,.1.283.243.243,0,0,1-.195.106Z" transform="translate(-8.659 -90.692)"/>
      </g>
      <g id="Groupe_956" data-name="Groupe 956" class="cls-28">
        <path id="Tracé_2600" data-name="Tracé 2600" class="cls-2" d="M.254,101.082a.206.206,0,0,1-.186-.115.21.21,0,0,1,.1-.283,1.312,1.312,0,0,0,.717-1.071.212.212,0,1,1,.425,0,1.717,1.717,0,0,1-.956,1.443.148.148,0,0,1-.1.027Z" transform="translate(-0.042 -90.601)"/>
      </g>
      <g id="Groupe_957" data-name="Groupe 957" class="cls-28">
        <path id="Tracé_2601" data-name="Tracé 2601" class="cls-2" d="M1,115.233a.215.215,0,0,1-.212-.212,1.312,1.312,0,0,0-.717-1.071.21.21,0,0,1-.1-.283.21.21,0,0,1,.283-.1,1.717,1.717,0,0,1,.956,1.443.212.212,0,0,1-.212.221Z" transform="translate(0.049 -103.494)"/>
      </g>
    </g>
    <path id="Tracé_2602" data-name="Tracé 2602" class="cls-2" d="M232.312,115.248a.215.215,0,0,1-.212-.212,1.548,1.548,0,0,1,.5-1.124,1.86,1.86,0,0,1,.451-.328.2.2,0,0,1,.274.1.21.21,0,0,1-.1.283,1.484,1.484,0,0,0-.345.248,1.1,1.1,0,0,0-.381.814.194.194,0,0,1-.195.221Z" transform="translate(-211.553 -103.509)"/>
    <path id="Tracé_2603" data-name="Tracé 2603" class="cls-2" d="M233.245,101.173a.314.314,0,0,1-.089-.018,1.717,1.717,0,0,1-.956-1.443.212.212,0,0,1,.425,0,1.312,1.312,0,0,0,.717,1.071.21.21,0,0,1,.1.283.257.257,0,0,1-.195.106Z" transform="translate(-211.644 -90.692)"/>
    <path id="Tracé_2604" data-name="Tracé 2604" class="cls-2" d="M222.854,101.082a.206.206,0,0,1-.186-.115.21.21,0,0,1,.1-.283,1.606,1.606,0,0,0,.575-.54,1,1,0,0,0,.142-.531.212.212,0,0,1,.425,0,1.467,1.467,0,0,1-.2.744,1.976,1.976,0,0,1-.752.708.191.191,0,0,1-.1.018Z" transform="translate(-202.936 -90.601)"/>
    <path id="Tracé_2605" data-name="Tracé 2605" class="cls-2" d="M223.7,115.233a.215.215,0,0,1-.212-.212,1.312,1.312,0,0,0-.717-1.071.212.212,0,1,1,.186-.381,1.717,1.717,0,0,1,.956,1.443.217.217,0,0,1-.212.221Z" transform="translate(-202.936 -103.494)"/>
    <path id="Tracé_2606" data-name="Tracé 2606" class="cls-2" d="M116.212,169.424a.215.215,0,0,1-.212-.212,1.717,1.717,0,0,1,.956-1.443.212.212,0,0,1,.186.381,1.312,1.312,0,0,0-.717,1.071.208.208,0,0,1-.212.2Z" transform="translate(-105.731 -152.896)"/>
    <path id="Tracé_2607" data-name="Tracé 2607" class="cls-2" d="M117.145,155.273a.315.315,0,0,1-.089-.018,1.734,1.734,0,0,1-.956-1.443.212.212,0,1,1,.425,0,1.312,1.312,0,0,0,.717,1.071.21.21,0,0,1,.1.283.243.243,0,0,1-.195.106Z" transform="translate(-105.822 -140.002)"/>
    <path id="Tracé_2608" data-name="Tracé 2608" class="cls-2" d="M106.854,155.182a.206.206,0,0,1-.186-.115.21.21,0,0,1,.1-.283,1.312,1.312,0,0,0,.717-1.071.212.212,0,1,1,.425,0,1.717,1.717,0,0,1-.956,1.443.231.231,0,0,1-.1.027Z" transform="translate(-97.205 -139.911)"/>
    <path id="Tracé_2609" data-name="Tracé 2609" class="cls-2" d="M107.6,169.333a.215.215,0,0,1-.212-.212,1.312,1.312,0,0,0-.717-1.071.212.212,0,0,1,.186-.381,1.717,1.717,0,0,1,.956,1.443.212.212,0,0,1-.212.221Z" transform="translate(-97.114 -152.805)"/>
    <path id="Tracé_2610" data-name="Tracé 2610" class="cls-2" d="M95.828,25.519a.178.178,0,0,1,.1.027l.142.071-.027-.15a.2.2,0,0,1,.062-.186l.115-.115-.159-.027a.214.214,0,0,1-.159-.115l-.071-.142-.071.142a.2.2,0,0,1-.159.115l-.159.027.115.115a.2.2,0,0,1,.062.186l-.027.15.142-.071a.178.178,0,0,1,.1-.027Zm.522.691a.178.178,0,0,1-.1-.027l-.425-.221-.425.221a.22.22,0,0,1-.221-.018.2.2,0,0,1-.08-.2l.08-.469-.336-.336a.211.211,0,0,1-.053-.212.2.2,0,0,1,.168-.142l.469-.071.212-.425a.216.216,0,0,1,.372,0l.212.425.469.071a.213.213,0,0,1,.168.142.207.207,0,0,1-.053.212l-.336.336.08.469a.2.2,0,0,1-.08.2.235.235,0,0,1-.124.044Z" transform="translate(-86.392 -22.058)"/>
    <path id="Tracé_2611" data-name="Tracé 2611" class="cls-2" d="M228.428,271.819a.179.179,0,0,1,.1.027l.142.071-.027-.151a.2.2,0,0,1,.062-.186l.115-.115-.159-.027a.214.214,0,0,1-.159-.115l-.071-.142-.071.142a.2.2,0,0,1-.159.115l-.159.027.115.115a.2.2,0,0,1,.062.186l-.027.151.142-.071a.2.2,0,0,1,.1-.027Zm.522.69a.179.179,0,0,1-.1-.027l-.425-.221-.425.221a.22.22,0,0,1-.221-.018.2.2,0,0,1-.08-.2l.08-.469-.336-.336a.211.211,0,0,1-.053-.212.2.2,0,0,1,.168-.142l.469-.071.212-.425a.216.216,0,0,1,.372,0l.212.425.469.071a.213.213,0,0,1,.168.142.207.207,0,0,1-.053.212l-.336.336.08.469a.2.2,0,0,1-.08.2.166.166,0,0,1-.124.044Z" transform="translate(-207.253 -246.554)"/>
    <path id="Tracé_2612" data-name="Tracé 2612" class="cls-2" d="M293.912,205.8a.215.215,0,0,1-.212-.212v-1.673a.212.212,0,0,1,.425,0v1.673a.222.222,0,0,1-.212.212Z" transform="translate(-267.7 -185.667)"/>
    <path id="Tracé_2613" data-name="Tracé 2613" class="cls-2" d="M289.953,213.525h-.841a.212.212,0,1,1,0-.425h.841a.212.212,0,1,1,0,.425Z" transform="translate(-263.325 -194.235)"/>
    <path id="Tracé_2614" data-name="Tracé 2614" class="cls-2" d="M19.112,262.6a.215.215,0,0,1-.212-.212v-1.673a.212.212,0,1,1,.425,0v1.673a.21.21,0,0,1-.212.212Z" transform="translate(-17.227 -237.439)"/>
    <path id="Tracé_2615" data-name="Tracé 2615" class="cls-2" d="M15.253,270.325h-.841a.212.212,0,0,1,0-.425h.841a.212.212,0,0,1,0,.425Z" transform="translate(-12.943 -246.007)"/>
    <path id="Tracé_2616" data-name="Tracé 2616" class="cls-2" d="M227.512,44.7a.215.215,0,0,1-.212-.212V42.812a.212.212,0,1,1,.425,0v1.673a.2.2,0,0,1-.212.212Z" transform="translate(-207.178 -38.829)"/>
    <path id="Tracé_2617" data-name="Tracé 2617" class="cls-2" d="M223.653,52.425h-.841a.212.212,0,1,1,0-.425h.841a.212.212,0,1,1,0,.425Z" transform="translate(-202.894 -47.397)"/>
  </g>
</svg>
