<svg id="reservation_icon" data-name="reservation icon" xmlns="http://www.w3.org/2000/svg" viewBox="0 0 26 26.041">
  <defs>
    <style>
      .cls-1 {
        fill: #e6415c;
      }

      .cls-2 {
        fill: #e4e6e8;
      }

      .cls-3 {
        fill: #cf3348;
      }

      .cls-4 {
        fill: #b9bbbb;
      }

      .cls-5 {
        fill: #f8b134;
      }

      .cls-6 {
        fill: #e5a12d;
      }

      .cls-7 {
        fill: #fbc249;
      }

      .cls-8 {
        fill: #ecedee;
      }

      .cls-9 {
        fill: #cdcece;
      }

      .cls-10 {
        fill: #fbc774;
      }

      .cls-11 {
        fill: #ec788a;
      }

      .cls-12 {
        fill: #b4b4b1;
      }

      .cls-13 {
        fill: #a2a6a4;
      }

      .cls-14 {
        fill: #ba8d30;
      }

      .cls-15 {
        fill: #b67f28;
      }

      .cls-16 {
        fill: #b72e40;
      }

      .cls-17 {
        fill: #b8515d;
      }

      .cls-18 {
        fill: #e5324b;
      }

      .cls-19 {
        fill: #ab2634;
      }

      .cls-20 {
        fill: #eb6b7c;
      }

      .cls-21 {
        fill: #c5616b;
      }

      .cls-22 {
        fill: #fcd69e;
      }

      .cls-23 {
        fill: #fff;
      }

      .cls-24 {
        fill: #f2ce98;
      }

      .cls-25 {
        fill: #fedea7;
      }

      .cls-26 {
        fill: #ceccc9;
      }

      .cls-27 {
        fill: #bb8228;
      }

      .cls-28 {
        fill: #d3a034;
      }

      .cls-29 {
        fill: #ce912a;
      }

      .cls-30 {
        fill: #f1f1f3;
      }

      .cls-31 {
        fill: #393343;
      }
    </style>
  </defs>
  <path id="Tracé_2539" data-name="Tracé 2539" class="cls-1" d="M30.8,2.4H51.024V23.865H30.8V2.4" transform="translate(-27.668 -2.156)"/>
  <path id="Tracé_2540" data-name="Tracé 2540" class="cls-2" d="M56.9,27.183l.224.386-7.484,4.362-.01.01a2.4,2.4,0,0,0-4.23,0L45.3,31.88l-6.9-4.027.2-.356V13.344A1.436,1.436,0,0,0,40.047,11.9H55.462a1.436,1.436,0,0,0,1.444,1.444L56.9,27.183h0" transform="translate(-34.495 -10.69)"/>
  <path id="Tracé_2541" data-name="Tracé 2541" class="cls-3" d="M31.552,113.625l-.752-.447V112.7l.966.569h0l-.214.356" transform="translate(-27.668 -101.24)"/>
  <path id="Tracé_2542" data-name="Tracé 2542" class="cls-4" d="M45.3,122.643l-7-4.088.2-.356h0l7.016,4.1a2.506,2.506,0,0,0-.224.346" transform="translate(-34.406 -106.181)"/>
  <path id="Tracé_2543" data-name="Tracé 2543" class="cls-5" d="M229.7,85.774l2.186-1.271a2.791,2.791,0,0,0-1-1.241l-1.18-.763v3.274" transform="translate(-206.344 -74.111)"/>
  <path id="Tracé_2544" data-name="Tracé 2544" class="cls-5" d="M7.174,79.5,5.507,80.568A2.8,2.8,0,0,0,4.5,81.808l2.664,1.556V79.5" transform="translate(-4.042 -71.416)"/>
  <path id="Tracé_2545" data-name="Tracé 2545" class="cls-6" d="M229.7,85.684V82.4l1.18.763a2.713,2.713,0,0,1,1,1.241l-.031.02-.773.447h0l-1.373.813" transform="translate(-206.344 -74.021)"/>
  <path id="Tracé_2546" data-name="Tracé 2546" class="cls-6" d="M7.264,83.264,5.4,82.176h0l-.8-.468h0a2.743,2.743,0,0,1,1.007-1.241L7.264,79.4v3.864h0" transform="translate(-4.132 -71.326)"/>
  <path id="Tracé_2547" data-name="Tracé 2547" class="cls-7" d="M159.077,103.066v13.005a1.476,1.476,0,0,1-.366.966l-10.26-6.467-.051-.031a2.436,2.436,0,0,0,.041-2.359l.01-.01,7.484-4.362,2.918-1.708a2.506,2.506,0,0,1,.224.966" transform="translate(-133.31 -91.718)"/>
  <path id="Tracé_2548" data-name="Tracé 2548" class="cls-5" d="M30.79,191.6a1.444,1.444,0,0,1-1.078.478H7.078A1.444,1.444,0,0,1,6,191.6l10.311-6.5h0a2.411,2.411,0,0,0,4.169,0l.051.031L30.79,191.6" transform="translate(-5.39 -166.279)"/>
  <path id="Tracé_2549" data-name="Tracé 2549" class="cls-1" d="M108.635,150.86a2.436,2.436,0,0,1-.041,2.359,2.411,2.411,0,0,1-4.169,0,2.4,2.4,0,0,1,2.074-3.62,2.387,2.387,0,0,1,2.135,1.261M107.486,152a.966.966,0,1,0-.966.966.928.928,0,0,0,.681-.285.969.969,0,0,0,.285-.681" transform="translate(-93.515 -134.387)"/>
  <path id="Tracé_2550" data-name="Tracé 2550" class="cls-8" d="M107.1,155.8h0m.224-.346h0a2.282,2.282,0,0,1,.346-.356,2.282,2.282,0,0,0-.346.356" transform="translate(-96.21 -139.329)"/>
  <path id="Tracé_2551" data-name="Tracé 2551" class="cls-9" d="M107.1,158.936h0a1.927,1.927,0,0,1,.224-.336h0a1.927,1.927,0,0,0-.224.336" transform="translate(-96.21 -142.473)"/>
  <path id="Tracé_2552" data-name="Tracé 2552" class="cls-10" d="M109.484,186.3a2.4,2.4,0,0,1-2.084-1.2h0a2.4,2.4,0,0,0,2.084,1.2h0" transform="translate(-96.479 -166.279)"/>
  <path id="Tracé_2553" data-name="Tracé 2553" class="cls-8" d="M116.9,149.868h0m0,0h0m0,0a2.426,2.426,0,0,1,1.118-.275h0a2.2,2.2,0,0,0-1.118.275" transform="translate(-105.013 -134.382)"/>
  <path id="Tracé_2554" data-name="Tracé 2554" class="cls-11" d="M106.61,154.41a2.4,2.4,0,0,1-2.084-1.2h0a2.436,2.436,0,0,1-.041-2.359h0a1.928,1.928,0,0,1,.224-.336,2.282,2.282,0,0,1,.346-.356,2.4,2.4,0,0,1,.427-.285h0a2.426,2.426,0,0,1,1.118-.275h0a1.976,1.976,0,0,0-.244.02,2.037,2.037,0,0,1,.244.041,2.386,2.386,0,0,0-1.637,1.21,2.415,2.415,0,0,0,1.637,3.508,2.037,2.037,0,0,1-.244.041,1.086,1.086,0,0,1,.254-.01h0" transform="translate(-93.605 -134.388)"/>
  <path id="Tracé_2555" data-name="Tracé 2555" class="cls-12" d="M127.9,172.286h0m0,0a2.376,2.376,0,0,0,2.074-1.2h0a2.364,2.364,0,0,1-2.074,1.2h0m2.41-2.491a1.381,1.381,0,0,0-.031-.295v.02a2.315,2.315,0,0,1,.02.264l.01.01" transform="translate(-114.895 -152.265)"/>
  <path id="Tracé_2556" data-name="Tracé 2556" class="cls-13" d="M127.9,149.5h0" transform="translate(-114.895 -134.299)"/>
  <path id="Tracé_2557" data-name="Tracé 2557" class="cls-14" d="M148.4,171.266h0a2.433,2.433,0,0,0,.295-.813,2.438,2.438,0,0,1-.254.752.213.213,0,0,0-.041.061m.325-1.3a2.315,2.315,0,0,0-.02-.264c.01.092.01.173.02.264" transform="translate(-133.31 -152.445)"/>
  <path id="Tracé_2558" data-name="Tracé 2558" class="cls-15" d="M127.9,186.3h0m0,0h0m.01,0h0m0,0h0m0,0a2.41,2.41,0,0,0,2.074-1.2h0a2.389,2.389,0,0,1-2.074,1.2" transform="translate(-114.895 -166.279)"/>
  <path id="Tracé_2559" data-name="Tracé 2559" class="cls-16" d="M127.9,154.14h0a1.976,1.976,0,0,0,.244-.02,2.037,2.037,0,0,1-.244-.041,2.386,2.386,0,0,0,1.637-1.21,2.415,2.415,0,0,0-1.637-3.508,2.038,2.038,0,0,1,.244-.041,1.976,1.976,0,0,0-.244-.02h0a2.4,2.4,0,0,1,2.084,1.2,2.332,2.332,0,0,1,.295.834,2.9,2.9,0,0,1,.031.295v.081a2.606,2.606,0,0,1-.031.4,2.433,2.433,0,0,1-.295.813h0a2.382,2.382,0,0,1-2.084,1.22h0" transform="translate(-114.895 -134.119)"/>
  <path id="Tracé_2560" data-name="Tracé 2560" class="cls-17" d="M125.744,154.32a1.976,1.976,0,0,1-.244-.02.753.753,0,0,1,.488,0,1.976,1.976,0,0,1-.244.02m0-4.759a2.037,2.037,0,0,0-.244-.041,1.474,1.474,0,0,1,.488,0,2.037,2.037,0,0,0-.244.041" transform="translate(-112.739 -134.299)"/>
  <path id="Tracé_2561" data-name="Tracé 2561" class="cls-18" d="M119.366,163.8a.972.972,0,0,1,.966.966.972.972,0,0,1-.966.966.966.966,0,0,1,0-1.932" transform="translate(-106.361 -147.145)"/>
  <path id="Tracé_2562" data-name="Tracé 2562" class="cls-12" d="M119.366,168.147a.963.963,0,0,1-.681-1.647h0a.963.963,0,0,0,.681,1.647h0" transform="translate(-106.361 -149.57)"/>
  <path id="Tracé_2563" data-name="Tracé 2563" class="cls-16" d="M121.2,164.075h0a.961.961,0,0,1,.681-.275h0a.979.979,0,0,0-.681.275" transform="translate(-108.876 -147.145)"/>
  <path id="Tracé_2564" data-name="Tracé 2564" class="cls-19" d="M119.366,165.722a.963.963,0,0,1-.681-1.647.961.961,0,0,1,.681-.275h0a1,1,0,0,0-.244.031.832.832,0,0,1,.244.1.961.961,0,0,0-.478.834.974.974,0,0,0,.478.834.88.88,0,0,1-.244.1,1.976,1.976,0,0,0,.244.02h0" transform="translate(-106.361 -147.145)"/>
  <path id="Tracé_2565" data-name="Tracé 2565" class="cls-11" d="M127.9,165.632h0m.071,0h0m.437-.142a.758.758,0,0,0,.173-.142.963.963,0,0,0-.681-1.647h0a.967.967,0,0,1,.508,1.79" transform="translate(-114.895 -147.055)"/>
  <path id="Tracé_2566" data-name="Tracé 2566" class="cls-20" d="M127.9,165.632h0a1,1,0,0,0,.244-.031.832.832,0,0,1-.244-.1.961.961,0,0,0,.478-.834.974.974,0,0,0-.478-.834.88.88,0,0,1,.244-.1.944.944,0,0,0-.244-.031h0a.972.972,0,0,1,.966.966.928.928,0,0,1-.285.681,1.17,1.17,0,0,1-.173.142.928.928,0,0,1-.437.142H127.9" transform="translate(-114.895 -147.055)"/>
  <path id="Tracé_2567" data-name="Tracé 2567" class="cls-21" d="M125.744,165.722a1,1,0,0,1-.244-.031.832.832,0,0,0,.244-.1.881.881,0,0,0,.244.1,1,1,0,0,1-.244.031m0-1.79a.88.88,0,0,0-.244-.1.944.944,0,0,1,.244-.031,1,1,0,0,1,.244.031.654.654,0,0,0-.244.1" transform="translate(-112.739 -147.145)"/>
  <path id="Tracé_2568" data-name="Tracé 2568" class="cls-7" d="M13.077,110.54h0l-10.311,6.5a1.425,1.425,0,0,1-.366-.966V103.066a2.465,2.465,0,0,1,.224-.966l3.417,1.993,6.9,4.027.092.061a2.436,2.436,0,0,0,.041,2.359" transform="translate(-2.156 -91.718)"/>
  <path id="Tracé_2569" data-name="Tracé 2569" class="cls-22" d="M8.044,245.715H7.078A1.444,1.444,0,0,1,6,245.237l.691-.437a1.321,1.321,0,0,0,.275.437,1.481,1.481,0,0,0,1.078.478" transform="translate(-5.39 -219.908)"/>
  <path id="Tracé_2570" data-name="Tracé 2570" class="cls-23" d="M2.4,103.156h0a1.105,1.105,0,0,1,.01-.183,1.105,1.105,0,0,0-.01.183m.01-.183h0m.142-.61a1.13,1.13,0,0,1,.071-.163h0c-.02.051-.051.1-.071.163" transform="translate(-2.156 -91.808)"/>
  <path id="Tracé_2571" data-name="Tracé 2571" class="cls-24" d="M5.4,102.668l-.8-.468h0l.8.468h0" transform="translate(-4.132 -91.808)"/>
  <path id="Tracé_2572" data-name="Tracé 2572" class="cls-25" d="M2.766,117.127h0a1.425,1.425,0,0,1-.366-.966V103.156a1.105,1.105,0,0,1,.01-.183h0a2.238,2.238,0,0,1,.153-.61,1.13,1.13,0,0,1,.071-.163h0l.8.468a2.152,2.152,0,0,0-.061.5v13.005a1.324,1.324,0,0,0,.1.529l-.712.427" transform="translate(-2.156 -91.808)"/>
  <path id="Tracé_2573" data-name="Tracé 2573" class="cls-26" d="M243.691,117.037,243,116.6h0l.691.437a1.425,1.425,0,0,0,.366-.966V103.066a2.465,2.465,0,0,0-.224-.966h0a2.465,2.465,0,0,1,.224.966v13.005a1.425,1.425,0,0,1-.366.966h0" transform="translate(-218.291 -91.718)"/>
  <path id="Tracé_2574" data-name="Tracé 2574" class="cls-27" d="M243.3,102.847h0l.773-.447-.773.447" transform="translate(-218.561 -91.988)"/>
  <path id="Tracé_2575" data-name="Tracé 2575" class="cls-28" d="M243.691,117.037,243,116.6a1.528,1.528,0,0,0,.1-.529V103.066a2.153,2.153,0,0,0-.061-.5l.773-.447.031-.02a2.465,2.465,0,0,1,.224.966v13.005a1.485,1.485,0,0,1-.376.966" transform="translate(-218.291 -91.718)"/>
  <path id="Tracé_2576" data-name="Tracé 2576" class="cls-29" d="M230.666,245.715H229.7a1.444,1.444,0,0,0,1.078-.478,1.594,1.594,0,0,0,.275-.437l.691.437a1.481,1.481,0,0,1-1.078.478" transform="translate(-206.344 -219.908)"/>
  <path id="Tracé_2577" data-name="Tracé 2577" class="cls-30" d="M97.639,26.583,97.1,26.4l.539.183" transform="translate(-87.227 -23.716)"/>
  <path id="Tracé_2578" data-name="Tracé 2578" class="cls-4" d="M158.1,26.583h0l.539-.183-.539.183" transform="translate(-142.024 -23.716)"/>
  <path id="Tracé_2579" data-name="Tracé 2579" class="cls-26" d="M229.7,110.478V110h0v.478h0" transform="translate(-206.344 -98.815)"/>
  <path id="Tracé_2580" data-name="Tracé 2580" class="cls-3" d="M148.7,115.287h0m7.5-4.382-.2-.356.447-.264h.01l.488-.285v.478h-.01l-.732.427" transform="translate(-133.58 -98.815)"/>
  <path id="Tracé_2581" data-name="Tracé 2581" class="cls-4" d="M146.724,120.228h0a1.632,1.632,0,0,0-.214-.325l-.01-.01,7.514-4.393.2.356-2.268,1.322-5.216,3.04-.01.01h0" transform="translate(-131.604 -103.756)"/>
  <path id="Tracé_2582" data-name="Tracé 2582" class="cls-28" d="M148.7,119.51h0l.01-.01,5.216-3.04-5.226,3.05m8.236-4.81h0" transform="translate(-133.58 -103.037)"/>
  <path id="Tracé_2583" data-name="Tracé 2583" class="cls-3" d="M146.724,158.946h0m-.214-.336-.01-.01h0l.01.01" transform="translate(-131.604 -142.473)"/>
  <path id="Tracé_2584" data-name="Tracé 2584" class="cls-11" d="M31.278,13.9l-.478-.285V2.4h.478V14.093" transform="translate(-27.668 -2.156)"/>
  <path id="Tracé_2585" data-name="Tracé 2585" class="cls-3" d="M224.9,13.819V2.4h.478V13.534l-.468.285h-.01" transform="translate(-202.032 -2.156)"/>
  <path id="Tracé_2586" data-name="Tracé 2586" class="cls-31" d="M24.322,95.322H1.688a1.672,1.672,0,0,1-1.251-.559A1.7,1.7,0,0,1,0,93.634V80.629a2.575,2.575,0,0,1,.244-1.057,3.013,3.013,0,0,1,1.1-1.352L3,77.162a.243.243,0,1,1,.264.407L1.6,78.626a2.546,2.546,0,0,0-.915,1.139,2.217,2.217,0,0,0-.2.864V93.634a1.21,1.21,0,0,0,1.2,1.21H24.312a1.21,1.21,0,0,0,1.2-1.21V80.629a2.177,2.177,0,0,0-.2-.864,2.6,2.6,0,0,0-.9-1.139l-1.18-.773a.243.243,0,1,1,.264-.407l1.18.763a2.942,2.942,0,0,1,1.088,1.352A2.575,2.575,0,0,1,26,80.619V93.624a1.673,1.673,0,0,1-.437,1.129,1.61,1.61,0,0,1-1.241.569Z" transform="translate(0 -69.281)"/>
  <path id="Tracé_2587" data-name="Tracé 2587" class="cls-31" d="M3.865,189.707a.234.234,0,0,1-.2-.112.244.244,0,0,1,.071-.336l10.311-6.5a.243.243,0,0,1,.264.407L4,189.666a.224.224,0,0,1-.132.041Z" transform="translate(-3.255 -164.144)"/>
  <path id="Tracé_2588" data-name="Tracé 2588" class="cls-31" d="M157.025,189.976a.224.224,0,0,1-.132-.041l-10.26-6.467a.243.243,0,0,1,.264-.407l10.25,6.467a.244.244,0,0,1,.071.336.218.218,0,0,1-.193.112Z" transform="translate(-131.625 -164.413)"/>
  <path id="Tracé_2589" data-name="Tracé 2589" class="cls-31" d="M12.765,106.308a.271.271,0,0,1-.122-.031l-10.311-6.02a.242.242,0,0,1,.1-.458h0a.271.271,0,0,1,.122.031l10.321,6.02a.248.248,0,0,1,.092.325.234.234,0,0,1-.2.132Z" transform="translate(-1.976 -89.652)"/>
  <path id="Tracé_2590" data-name="Tracé 2590" class="cls-31" d="M146.794,106.342a.224.224,0,0,1-.2-.122.228.228,0,0,1,.092-.325l10.392-6.07a.249.249,0,0,1,.366.2.243.243,0,0,1-.153.224l-10.382,6.05a.153.153,0,0,1-.112.041Z" transform="translate(-131.654 -89.646)"/>
  <path id="Tracé_2591" data-name="Tracé 2591" class="cls-31" d="M28.644,12.059a.247.247,0,0,1-.244-.244V.244a.244.244,0,0,1,.488,0V11.826a.239.239,0,0,1-.244.234Z" transform="translate(-25.512)"/>
  <path id="Tracé_2592" data-name="Tracé 2592" class="cls-31" d="M227.544,11.815a.247.247,0,0,1-.244-.244V.244a.244.244,0,1,1,.488,0V11.582a.239.239,0,0,1-.244.234Z" transform="translate(-204.188)"/>
  <path id="Tracé_2593" data-name="Tracé 2593" class="cls-31" d="M48.779.478H28.544A.247.247,0,0,1,28.3.234.248.248,0,0,1,28.554,0H48.789a.247.247,0,0,1,.244.244.242.242,0,0,1-.254.234Z" transform="translate(-25.422)"/>
  <path id="Tracé_2594" data-name="Tracé 2594" class="cls-31" d="M93.64,223.388h-8.2a.244.244,0,1,1,0-.488h8.185a.247.247,0,0,1,.244.244.239.239,0,0,1-.234.244Z" transform="translate(-76.537 -200.235)"/>
  <path id="Tracé_2595" data-name="Tracé 2595" class="cls-31" d="M110.688,232.888h-3.844a.244.244,0,0,1,0-.488H110.7a.247.247,0,0,1,.244.244.256.256,0,0,1-.254.244Z" transform="translate(-95.761 -208.769)"/>
  <path id="Tracé_2596" data-name="Tracé 2596" class="cls-31" d="M104.544,147.588a2.187,2.187,0,0,0-1.912,1.139,2.163,2.163,0,0,0,1.9,3.193,2.17,2.17,0,0,0,2.166-2.166,2.214,2.214,0,0,0-.264-1.037,2.142,2.142,0,0,0-1.891-1.129Zm0,4.82a2.648,2.648,0,0,1-2.644-2.654,2.725,2.725,0,0,1,.315-1.261,2.647,2.647,0,0,1,4.657-.01,2.725,2.725,0,0,1,.315,1.261,2.7,2.7,0,0,1-.356,1.332,2.632,2.632,0,0,1-2.288,1.332Z" transform="translate(-91.539 -132.143)"/>
  <path id="Tracé_2597" data-name="Tracé 2597" class="cls-31" d="M117.3,161.968a.722.722,0,0,0,0,1.444.683.683,0,0,0,.508-.214.7.7,0,0,0,.214-.508.725.725,0,0,0-.722-.722Zm0,1.932a1.2,1.2,0,1,1,1.2-1.2,1.167,1.167,0,0,1-.356.854,1.2,1.2,0,0,1-.844.346Z" transform="translate(-104.295 -145.078)"/>
  <path id="Tracé_2598" data-name="Tracé 2598" class="cls-31" d="M125.744,157.566a.247.247,0,0,1-.244-.244v-.478a.244.244,0,1,1,.488,0v.478a.241.241,0,0,1-.244.244Z" transform="translate(-112.739 -140.677)"/>
  <path id="Tracé_2599" data-name="Tracé 2599" class="cls-31" d="M125.744,181.266a.247.247,0,0,1-.244-.244v-.478a.244.244,0,1,1,.488,0v.478a.241.241,0,0,1-.244.244Z" transform="translate(-112.739 -161.967)"/>
  <path id="Tracé_2600" data-name="Tracé 2600" class="cls-31" d="M116.1,161.736a.238.238,0,0,1-.173-.071l-.336-.336a.237.237,0,1,1,.336-.336l.336.336a.239.239,0,0,1-.163.407Z" transform="translate(-103.778 -144.562)"/>
  <path id="Tracé_2601" data-name="Tracé 2601" class="cls-31" d="M132.712,178.346a.238.238,0,0,1-.173-.071l-.346-.346a.237.237,0,0,1,.336-.336l.346.346a.239.239,0,0,1,0,.336.19.19,0,0,1-.163.071Z" transform="translate(-118.69 -159.474)"/>
  <path id="Tracé_2602" data-name="Tracé 2602" class="cls-31" d="M112.022,171.288h-.478a.244.244,0,0,1,0-.488h.478a.244.244,0,0,1,0,.488Z" transform="translate(-99.983 -153.433)"/>
  <path id="Tracé_2603" data-name="Tracé 2603" class="cls-31" d="M135.722,171.288h-.478a.244.244,0,1,1,0-.488h.478a.244.244,0,1,1,0,.488Z" transform="translate(-121.273 -153.433)"/>
  <path id="Tracé_2604" data-name="Tracé 2604" class="cls-31" d="M115.766,178.256a.238.238,0,0,1-.173-.071.252.252,0,0,1,0-.346l.336-.346a.239.239,0,0,1,.336,0,.252.252,0,0,1,0,.346l-.336.346a.2.2,0,0,1-.163.071Z" transform="translate(-103.778 -159.384)"/>
  <path id="Tracé_2605" data-name="Tracé 2605" class="cls-31" d="M132.467,161.646a.238.238,0,0,1-.173-.071.252.252,0,0,1,0-.346l.346-.336a.239.239,0,0,1,.336,0,.252.252,0,0,1,0,.346l-.346.336a.24.24,0,0,1-.163.071Z" transform="translate(-118.78 -144.472)"/>
  <path id="Tracé_2606" data-name="Tracé 2606" class="cls-31" d="M56.447,10.944h0a1.2,1.2,0,0,1-1.2-1.2A.247.247,0,0,0,55,9.5H39.588a.247.247,0,0,0-.244.244,1.2,1.2,0,0,1-1.2,1.2.247.247,0,0,0-.244.244V20.96a.244.244,0,1,0,.488,0V11.4a1.682,1.682,0,0,0,1.424-1.424H54.779A1.682,1.682,0,0,0,56.2,11.4v9.223a.244.244,0,1,0,.488,0V11.188A.247.247,0,0,0,56.447,10.944Z" transform="translate(-34.046 -8.534)"/>
  <g id="Groupe_951" data-name="Groupe 951" transform="translate(9.638 3.366)">
    <path id="Tracé_2607" data-name="Tracé 2607" class="cls-7" d="M102.886,68.81h-4.82L97.1,65.922l1.444.478,1.932-2.4,1.922,2.4,1.444-.478-.956,2.888" transform="translate(-96.865 -60.858)"/>
    <path id="Tracé_2608" data-name="Tracé 2608" class="cls-25" d="M98.544,85.788h-.478L97.1,82.9l.539.183.9,2.7" transform="translate(-96.865 -77.836)"/>
    <path id="Tracé_2609" data-name="Tracé 2609" class="cls-28" d="M149.688,85.788H149.2l.9-2.7.539-.183-.956,2.888" transform="translate(-143.667 -77.836)"/>
    <path id="Tracé_2610" data-name="Tracé 2610" class="cls-31" d="M95.988,83.954a.229.229,0,0,1-.224-.163L94.8,80.9a.247.247,0,0,1,.153-.305.243.243,0,0,1,.305.153l.966,2.888a.247.247,0,0,1-.153.305.253.253,0,0,1-.081.01Z" transform="translate(-94.787 -75.758)"/>
    <path id="Tracé_2611" data-name="Tracé 2611" class="cls-31" d="M106.854,109.388h-2.41a.244.244,0,0,1,0-.488h2.41a.247.247,0,0,1,.244.244.255.255,0,0,1-.244.244Z" transform="translate(-103.243 -101.193)"/>
    <path id="Tracé_2612" data-name="Tracé 2612" class="cls-31" d="M109.15,64.493a.3.3,0,0,1-.153-.051.241.241,0,0,1-.041-.336l1.922-2.41a.239.239,0,0,1,.376.295l-1.922,2.41a.217.217,0,0,1-.183.092Z" transform="translate(-107.471 -58.708)"/>
    <path id="Tracé_2613" data-name="Tracé 2613" class="cls-31" d="M96.466,81.544a.173.173,0,0,1-.071-.01l-1.444-.478a.247.247,0,0,1-.153-.305A.243.243,0,0,1,95.1,80.6l1.444.478a.247.247,0,0,1,.153.305.251.251,0,0,1-.234.163Z" transform="translate(-94.787 -75.758)"/>
    <path id="Tracé_2614" data-name="Tracé 2614" class="cls-31" d="M151.832,83.954a.224.224,0,0,1-.081-.01.247.247,0,0,1-.153-.305l.966-2.888a.243.243,0,0,1,.305-.153.247.247,0,0,1,.153.305l-.966,2.888a.238.238,0,0,1-.224.163Z" transform="translate(-145.811 -75.758)"/>
    <path id="Tracé_2615" data-name="Tracé 2615" class="cls-31" d="M130.554,109.388h-2.41a.244.244,0,1,1,0-.488h2.41a.247.247,0,0,1,.244.244.255.255,0,0,1-.244.244Z" transform="translate(-124.533 -101.193)"/>
    <path id="Tracé_2616" data-name="Tracé 2616" class="cls-31" d="M130.043,64.493a.25.25,0,0,1-.193-.092l-1.922-2.41a.232.232,0,0,1,.041-.336.241.241,0,0,1,.336.041l1.922,2.41a.241.241,0,0,1-.041.336.22.22,0,0,1-.142.051Z" transform="translate(-124.511 -58.708)"/>
    <path id="Tracé_2617" data-name="Tracé 2617" class="cls-31" d="M147.122,81.544a.229.229,0,0,1-.224-.163.247.247,0,0,1,.153-.305l1.444-.478a.243.243,0,0,1,.305.153.247.247,0,0,1-.153.305l-1.444.478a.224.224,0,0,1-.081.01Z" transform="translate(-141.589 -75.758)"/>
    <path id="Tracé_2618" data-name="Tracé 2618" class="cls-31" d="M113,99.888h-3.854a.244.244,0,1,1,0-.488H113a.244.244,0,0,1,0,.488Z" transform="translate(-107.465 -92.659)"/>
    <path id="Tracé_2619" data-name="Tracé 2619" class="cls-31" d="M128.144,35.032a.247.247,0,0,1-.244-.244V33.344a.244.244,0,1,1,.488,0v1.444a.255.255,0,0,1-.244.244Z" transform="translate(-124.533 -33.1)"/>
    <path id="Tracé_2620" data-name="Tracé 2620" class="cls-31" d="M151.866,53.926a.239.239,0,0,1-.173-.407l.925-.925a.237.237,0,0,1,.336.336l-.925.925a.2.2,0,0,1-.163.071Z" transform="translate(-145.846 -50.55)"/>
    <path id="Tracé_2621" data-name="Tracé 2621" class="cls-31" d="M96.092,53.926a.238.238,0,0,1-.173-.071l-.925-.925a.237.237,0,0,1,.336-.336l.925.925a.239.239,0,0,1,0,.336.2.2,0,0,1-.163.071Z" transform="translate(-94.911 -50.55)"/>
  </g>
</svg>
