<svg xmlns="http://www.w3.org/2000/svg" xmlns:xlink="http://www.w3.org/1999/xlink" width="7" height="8" viewBox="0 0 7 8"><defs><path id="ux3ka" d="M26.53 2030.48a2.12 2.12 0 0 1-2.12-2.1c0-1.16.95-2.09 2.12-2.09 1.17 0 2.12.96 2.12 2.1 0 1.13-.95 2.09-2.12 2.09zm3.2-2.12a3.18 3.18 0 0 0-3.2-3.14 3.18 3.18 0 0 0-3.2 3.14c0 .8.34 1.53.83 2.09.5.61 1.94 2.43 1.94 2.43.1.12.25.21.43.21.19 0 .3-.1.43-.21 0 0 1.45-1.85 1.97-2.43.46-.56.8-1.26.8-2.1z"/></defs><g><g transform="translate(-23 -2025)"><use fill="#8e8e93" xlink:href="#ux3ka"/></g></g></svg>