<svg xmlns="http://www.w3.org/2000/svg" viewBox="0 0 18.073 18"><defs><style>.a{fill:#fff;}</style></defs><path class="a" d="M17.126,7.142l-1.239-.219a8.89,8.89,0,0,0-.51-1.239l.729-1.02a1.121,1.121,0,0,0-.146-1.457L14.866,2.113a1.1,1.1,0,0,0-.8-.291,1.175,1.175,0,0,0-.656.219l-1.02.729a8.89,8.89,0,0,0-1.239-.51L10.931,1.02A1.168,1.168,0,0,0,9.765,0h-1.6A1.1,1.1,0,0,0,7.069.947L6.85,2.186c-.437.146-.8.364-1.239.51l-1.02-.729a.891.891,0,0,0-.656-.219.9.9,0,0,0-.729.364L2.04,3.206a1.208,1.208,0,0,0-.146,1.457l.729,1.093c-.146.364-.291.729-.437,1.166L.947,7.142A1.1,1.1,0,0,0,0,8.235v1.6a1.1,1.1,0,0,0,.947,1.093l1.239.219a8.89,8.89,0,0,0,.51,1.239l-.729,1.02a1.121,1.121,0,0,0,.146,1.457L3.206,15.96a1.1,1.1,0,0,0,.8.291,1.175,1.175,0,0,0,.656-.219L5.757,15.3a8.1,8.1,0,0,0,1.166.51l.219,1.239A1.164,1.164,0,0,0,8.235,18h1.6a1.1,1.1,0,0,0,1.093-.947l.219-1.239a8.89,8.89,0,0,0,1.239-.51l1.02.729a1.175,1.175,0,0,0,.656.219,1.528,1.528,0,0,0,.8-.291l1.093-1.093a1.208,1.208,0,0,0,.146-1.457l-.729-1.02a6.3,6.3,0,0,0,.51-1.239l1.239-.219a1.164,1.164,0,0,0,.947-1.093v-1.6a1.172,1.172,0,0,0-.947-1.093Zm-.146,2.7c0,.073,0,.073-.073.073l-1.53.291a.462.462,0,0,0-.437.364,6.186,6.186,0,0,1-.656,1.6.8.8,0,0,0,0,.583l.947,1.312v.146L14.138,15.3h-.146l-1.312-.947a.441.441,0,0,0-.583,0,6.186,6.186,0,0,1-1.6.656.462.462,0,0,0-.364.437l-.291,1.6a.071.071,0,0,1-.073.073h-1.6c-.073,0-.073,0-.073-.073l-.291-1.6a.462.462,0,0,0-.364-.437,5.711,5.711,0,0,1-1.53-.656c-.073-.073-.146-.073-.291-.073a.438.438,0,0,0-.291.073L4.081,15.3H3.935L2.842,14.211a.1.1,0,0,1,0-.146l.947-1.312a.441.441,0,0,0,0-.583,6.186,6.186,0,0,1-.656-1.6A.746.746,0,0,0,2.7,10.2l-1.6-.291a.071.071,0,0,1-.073-.073v-1.6c0-.073,0-.073.073-.073L2.7,7.87a.462.462,0,0,0,.437-.364,6.186,6.186,0,0,1,.656-1.6.8.8,0,0,0,0-.583L2.769,4.081V3.935L3.862,2.842h.146l1.312.947a.441.441,0,0,0,.583,0,6.186,6.186,0,0,1,1.6-.656A.462.462,0,0,0,7.87,2.7l.291-1.6a.071.071,0,0,1,.073-.073h1.6c.073,0,.073,0,.073.073L10.2,2.7a.462.462,0,0,0,.364.437,6.186,6.186,0,0,1,1.6.656.8.8,0,0,0,.583,0l1.312-.947h.146L15.3,3.935a.1.1,0,0,1,0,.146l-.947,1.312a.441.441,0,0,0,0,.583,6.186,6.186,0,0,1,.656,1.6.462.462,0,0,0,.437.364l1.6.291a.071.071,0,0,1,.073.073l-.146,1.53Zm0,0"/><path class="a" d="M10.935,7a3.9,3.9,0,1,0,3.789,3.935A3.8,3.8,0,0,0,10.935,7Zm0,6.777a2.842,2.842,0,1,1,2.842-2.842,2.894,2.894,0,0,1-2.842,2.842Zm0,0" transform="translate(-1.899 -1.899)"/></svg>