<svg xmlns="http://www.w3.org/2000/svg" xmlns:xlink="http://www.w3.org/1999/xlink" viewBox="0 0 27.164 26">
  <defs>
    <style>
      .cls-1 {
        fill: #86c181;
      }

      .cls-2 {
        clip-path: url(#clip-path);
      }

      .cls-3 {
        fill: #67b56b;
      }

      .cls-4 {
        fill: #d3ac73;
      }

      .cls-5 {
        fill: #b7905e;
      }

      .cls-6 {
        fill: #ecc58a;
      }

      .cls-7 {
        fill: #3bb6e3;
      }

      .cls-8 {
        fill: #fed360;
      }

      .cls-9 {
        fill: #fac133;
      }

      .cls-10 {
        fill: #ebb945;
      }

      .cls-11 {
        fill: #f49e45;
      }
    </style>
    <clipPath id="clip-path">
      <rect id="Rectangle_448" data-name="Rectangle 448" width="27.164" height="26"/>
    </clipPath>
  </defs>
  <g id="Vue_sur_mer_icon" data-name="Vue sur mer icon" transform="translate(-3.3)">
    <path id="Tracé_2618" data-name="Tracé 2618" class="cls-1" d="M15.357,48.445c-.627-.609-3.626-3.205-9.275-2.793a.2.2,0,0,0-.188.224c.036.3.233.824,1.128.877h0a.45.45,0,0,0-.224.68,1.364,1.364,0,0,0,1.343.51,3.081,3.081,0,0,0,.43-.09s-.3,1.155,1.665.77a.491.491,0,0,0,.457.707c.7.063,1.3-1.289,3.1-.555,0,0,.922.743,1.585-.063a.206.206,0,0,0-.018-.269Z" transform="translate(-2.36 -41.525)"/>
    <path id="Tracé_2619" data-name="Tracé 2619" class="cls-1" d="M15.358,48.819c-.663.8-1.585.063-1.585.063-1.809-.734-2.4.609-3.107.555a.491.491,0,0,1-.457-.707h0c-1.952.376-1.656-.77-1.656-.77a2.978,2.978,0,0,1-.421.09,1.364,1.364,0,0,1-1.343-.51.412.412,0,0,1-.081-.242.469.469,0,0,1,.3-.43c-.913-.072-1.1-.591-1.137-.886a.2.2,0,0,1,.188-.224,13.078,13.078,0,0,1,7.628,1.576,8.684,8.684,0,0,1,1.656,1.227.2.2,0,0,1,.009.26Z" transform="translate(-2.344 -41.621)"/>
    <path id="Tracé_2620" data-name="Tracé 2620" class="cls-1" d="M21.44,84.269c-1.746,1.146-.851,2.373-1.325,2.946a.531.531,0,0,1-.8.134.88.88,0,0,1-.125-.116c-.806,1.871-1.692,1-1.692,1a2.191,2.191,0,0,1-.17.412,1.532,1.532,0,0,1-1.262.868.459.459,0,0,1-.5-.457.367.367,0,0,1,.009-.1,1.192,1.192,0,0,1-1.477.492.2.2,0,0,1-.09-.286,13.936,13.936,0,0,1,5.846-5.6,9.852,9.852,0,0,1,2.22-.806.211.211,0,0,1,.233.125c.358.985-.868,1.379-.868,1.379Z" transform="translate(-9.724 -75.352)"/>
    <g id="Groupe_962" data-name="Groupe 962" transform="translate(3.3)">
      <g id="Groupe_960" data-name="Groupe 960" class="cls-2" transform="translate(0)">
        <path id="Tracé_2621" data-name="Tracé 2621" class="cls-3" d="M104.05,83.142a12.979,12.979,0,0,1,3.966,9.49.207.207,0,0,1-.224.206c-.322-.027-.9-.215-1.056-1.146h0a.463.463,0,0,1-.7.251,1.5,1.5,0,0,1-.68-1.37,1.955,1.955,0,0,1,.054-.439s-1.191.34-.994-1.692a.559.559,0,0,1-.8-.457c-.143-.725,1.236-1.379.26-3.214,0,0-.886-.94-.1-1.638a.2.2,0,0,1,.269.009Z" transform="translate(-94.488 -75.648)"/>
      </g>
      <g id="Groupe_961" data-name="Groupe 961" class="cls-2" transform="translate(0)">
        <path id="Tracé_2622" data-name="Tracé 2622" class="cls-1" d="M94.249,7.5A9.137,9.137,0,0,0,94.222.193a.229.229,0,0,0-.331-.116.807.807,0,0,0-.3.976h0a.34.34,0,0,0-.546-.009,1.043,1.043,0,0,0-.072,1.1q.067.134.161.3s-.913.045-.188,1.388a.374.374,0,0,0-.412.492c.116.528,1.236.663,1.1,2.149,0,0-.322.806.349,1.119a.2.2,0,0,0,.269-.09Z" transform="translate(-84.526 -0.041)"/>
      </g>
    </g>
    <path id="Tracé_2623" data-name="Tracé 2623" class="cls-3" d="M107.186,67.873a12.078,12.078,0,0,1,9.481.815.2.2,0,0,1,.081.3,1.1,1.1,0,0,1-1.379.358h0a.428.428,0,0,1-.09.68A1.408,1.408,0,0,1,113.856,70a2.311,2.311,0,0,1-.34-.233s-.233,1.128-1.817.09a.518.518,0,0,1-.716.457c-.654-.2-.6-1.6-2.534-1.594,0,0-1.137.322-1.388-.6a.217.217,0,0,1,.125-.242Z" transform="translate(-94.467 -61.248)"/>
    <path id="Tracé_2624" data-name="Tracé 2624" class="cls-4" d="M75.7,80.512c-1.28,5.39-1.236,17.262-1.236,17.262H72.3a76,76,0,0,1,2.767-17.441.325.325,0,0,1,.313-.233.3.3,0,0,1,.09.009h.009a.34.34,0,0,1,.224.4Z" transform="translate(-62.822 -72.929)"/>
    <path id="Tracé_2625" data-name="Tracé 2625" class="cls-4" d="M23.664,264.528a1.411,1.411,0,0,0,.546-.107c-.627-.286-.806-1.021-1.719-1.021a2.252,2.252,0,0,0-.591.09c.671.269.833,1.039,1.764,1.039Z" transform="translate(-16.935 -239.817)"/>
    <g id="Groupe_965" data-name="Groupe 965" transform="translate(3.3)">
      <g id="Groupe_963" data-name="Groupe 963" class="cls-2" transform="translate(0)">
        <path id="Tracé_2626" data-name="Tracé 2626" class="cls-4" d="M74.719,264.528a1.411,1.411,0,0,0,.546-.107c-.627-.286-.806-1.021-1.719-1.021a1.411,1.411,0,0,0-.546.107c.636.286.806,1.021,1.719,1.021Z" transform="translate(-66.76 -239.817)"/>
      </g>
      <g id="Groupe_964" data-name="Groupe 964" class="cls-2" transform="translate(0)">
        <path id="Tracé_2627" data-name="Tracé 2627" class="cls-4" d="M276.765,264.457a3.772,3.772,0,0,0-2.185-1.056,1.394,1.394,0,0,0-.5.09,4.554,4.554,0,0,1,1.594.958.211.211,0,0,1,.072.188c-.081.654-.877,1.173-1.844,1.173h1.092c.967,0,1.764-.51,1.844-1.173a.2.2,0,0,0-.072-.179Z" transform="translate(-249.673 -239.817)"/>
      </g>
    </g>
    <g id="Groupe_969" data-name="Groupe 969" transform="translate(3.3)">
      <g id="Groupe_966" data-name="Groupe 966" class="cls-2" transform="translate(0)">
        <path id="Tracé_2628" data-name="Tracé 2628" class="cls-5" d="M87.143,80.694c-1.28,5.39-1.236,17.262-1.236,17.262H84.869A70.676,70.676,0,0,1,86.919,80.3h.009a.328.328,0,0,1,.215.394Z" transform="translate(-77.563 -73.111)"/>
      </g>
      <g id="Groupe_967" data-name="Groupe 967" class="cls-2" transform="translate(0)">
        <path id="Tracé_2629" data-name="Tracé 2629" class="cls-6" d="M28.19,263.4c-1.128,0-1.128,1.128-2.265,1.128S24.8,263.4,23.66,263.4s-1.128,1.128-2.265,1.128S20.267,263.4,19.13,263.4s-1.128,1.128-2.265,1.128S15.737,263.4,14.6,263.4s-1.128,1.128-2.265,1.128-1.128-1.128-2.265-1.128-1.128,1.128-2.265,1.128S6.676,263.4,5.539,263.4a3.748,3.748,0,0,0-2.185,1.056.211.211,0,0,0-.072.188c.081.654.877,1.173,1.844,1.173H28.593c.967,0,1.764-.51,1.844-1.173a.211.211,0,0,0-.072-.188A3.742,3.742,0,0,0,28.19,263.4Z" transform="translate(-3.283 -239.817)"/>
      </g>
      <g id="Groupe_968" data-name="Groupe 968" class="cls-2" transform="translate(0)">
        <path id="Tracé_2630" data-name="Tracé 2630" class="cls-7" d="M24.9,272.1c-1.128,0-1.128,1.128-2.265,1.128s-1.128-1.128-2.265-1.128-1.128,1.128-2.265,1.128-1.128-1.128-2.265-1.128-1.128,1.128-2.265,1.128-1.128-1.128-2.265-1.128-1.128,1.128-2.265,1.128S7.92,272.1,6.783,272.1s-1.128,1.128-2.265,1.128S3.39,272.1,2.253,272.1a3.593,3.593,0,0,0-2.023.439,3.478,3.478,0,0,0-.233.806c.081.654.877,1.173,1.844,1.173H25.307c.967,0,2.131-.394,2.211-1.048a4.681,4.681,0,0,0,.206-.851,6.967,6.967,0,0,0-2.82-.519Z" transform="translate(-0.292 -247.738)"/>
      </g>
    </g>
    <path id="Tracé_2631" data-name="Tracé 2631" class="cls-4" d="M175.919,264.528a1.411,1.411,0,0,0,.546-.107c-.627-.286-.806-1.021-1.719-1.021a1.411,1.411,0,0,0-.546.107c.627.286.806,1.021,1.719,1.021Z" transform="translate(-155.599 -239.817)"/>
    <path id="Tracé_2632" data-name="Tracé 2632" class="cls-4" d="M226.519,264.528a1.411,1.411,0,0,0,.546-.107c-.627-.286-.806-1.021-1.719-1.021a1.411,1.411,0,0,0-.546.107c.627.286.806,1.021,1.719,1.021Z" transform="translate(-201.669 -239.817)"/>
    <path id="Tracé_2633" data-name="Tracé 2633" class="cls-4" d="M125.319,264.528a1.411,1.411,0,0,0,.546-.107c-.627-.286-.806-1.021-1.719-1.021a1.411,1.411,0,0,0-.546.107c.627.286.806,1.021,1.719,1.021Z" transform="translate(-109.529 -239.817)"/>
    <path id="Tracé_2634" data-name="Tracé 2634" class="cls-8" d="M205.256,134.7a2.856,2.856,0,1,1-2.856,2.856,2.858,2.858,0,0,1,2.856-2.856Z" transform="translate(-181.274 -122.64)"/>
    <path id="Tracé_2635" data-name="Tracé 2635" class="cls-9" d="M228.928,134.7a2.579,2.579,0,0,0-.528.054,2.851,2.851,0,0,1,0,5.6,2.579,2.579,0,0,0,.528.054,2.856,2.856,0,0,0,0-5.712Z" transform="translate(-204.946 -122.64)"/>
    <path id="Tracé_2636" data-name="Tracé 2636" class="cls-5" d="M99.186,67.634a.949.949,0,1,1-.743-1.11.952.952,0,0,1,.743,1.11Z" transform="translate(-85.59 -60.552)"/>
    <path id="Tracé_2637" data-name="Tracé 2637" class="cls-10" d="M106.286,81.134a.949.949,0,1,1-.743-1.11.952.952,0,0,1,.743,1.11Z" transform="translate(-92.054 -72.843)"/>
    <path id="Tracé_2638" data-name="Tracé 2638" class="cls-8" d="M85.686,76.234a.949.949,0,1,1-.743-1.11.952.952,0,0,1,.743,1.11Z" transform="translate(-73.299 -68.382)"/>
    <path id="Tracé_2639" data-name="Tracé 2639" class="cls-11" d="M230.294,109.9a.392.392,0,0,1-.394-.394v-.609a.394.394,0,0,1,.788,0v.609a.4.4,0,0,1-.394.394Z" transform="translate(-206.312 -98.786)"/>
    <path id="Tracé_2640" data-name="Tracé 2640" class="cls-11" d="M230.294,210.6a.392.392,0,0,1-.394-.394v-.609a.394.394,0,0,1,.788,0v.609a.4.4,0,0,1-.394.394Z" transform="translate(-206.312 -190.47)"/>
    <path id="Tracé_2641" data-name="Tracé 2641" class="cls-11" d="M263.517,125.349a.372.372,0,0,1-.278-.116.405.405,0,0,1,0-.564l.43-.43a.4.4,0,0,1,.564.564l-.43.43a.422.422,0,0,1-.286.116Z" transform="translate(-236.562 -113.012)"/>
    <path id="Tracé_2642" data-name="Tracé 2642" class="cls-11" d="M192.217,196.649a.372.372,0,0,1-.278-.116.405.405,0,0,1,0-.564l.43-.43a.4.4,0,1,1,.564.564l-.43.43a.431.431,0,0,1-.286.116Z" transform="translate(-171.646 -177.928)"/>
    <path id="Tracé_2643" data-name="Tracé 2643" class="cls-11" d="M277.8,162.988h-.609a.394.394,0,1,1,0-.788h.609a.392.392,0,0,1,.394.394.386.386,0,0,1-.394.394Z" transform="translate(-249.013 -147.678)"/>
    <path id="Tracé_2644" data-name="Tracé 2644" class="cls-11" d="M177.1,162.988h-.609a.394.394,0,1,1,0-.788h.609a.392.392,0,0,1,.394.394.4.4,0,0,1-.394.394Z" transform="translate(-157.329 -147.678)"/>
    <path id="Tracé_2645" data-name="Tracé 2645" class="cls-11" d="M263.946,196.649a.372.372,0,0,1-.278-.116l-.43-.43a.4.4,0,1,1,.564-.564l.43.43a.405.405,0,0,1,0,.564.449.449,0,0,1-.286.116Z" transform="translate(-236.562 -177.928)"/>
    <path id="Tracé_2646" data-name="Tracé 2646" class="cls-11" d="M192.646,125.349a.372.372,0,0,1-.278-.116l-.43-.43a.4.4,0,1,1,.564-.564l.43.43a.405.405,0,0,1,0,.564.392.392,0,0,1-.286.116Z" transform="translate(-171.646 -113.012)"/>
  </g>
</svg>
