<svg xmlns="http://www.w3.org/2000/svg" xmlns:xlink="http://www.w3.org/1999/xlink" viewBox="0 0 27.326 26">
  <defs>
    <style>
      .cls-1 {
        fill: #5c6971;
      }

      .cls-2 {
        fill: #7f8b91;
      }

      .cls-3 {
        fill: #ceccc9;
      }

      .cls-4 {
        fill: #4a5158;
      }

      .cls-5 {
        fill: #83bb56;
      }

      .cls-6 {
        fill: #a7b3b9;
      }

      .cls-7 {
        fill: #b2b7b9;
      }

      .cls-8 {
        fill: #d4d7d9;
      }

      .cls-9 {
        fill: #c2dcab;
      }

      .cls-10 {
        fill: #008dc9;
      }

      .cls-11 {
        fill: #fff;
      }

      .cls-12 {
        fill: #6cafdc;
      }

      .cls-13 {
        fill: #0076b1;
      }

      .cls-14 {
        fill: #4f8eb7;
      }

      .cls-15 {
        fill: #919b9f;
      }

      .cls-16 {
        fill: #838f95;
      }

      .cls-17 {
        fill: #a9b0b0;
      }

      .cls-18 {
        fill: #3f7294;
      }

      .cls-19 {
        fill: #6f787b;
      }

      .cls-20 {
        fill: #3c4048;
      }

      .cls-21 {
        clip-path: url(#clip-path);
      }

      .cls-22 {
        fill: #393343;
      }
    </style>
    <clipPath id="clip-path">
      <rect id="Rectangle_445" data-name="Rectangle 445" width="27.326" height="25.993"/>
    </clipPath>
  </defs>
  <g id="Acces_wifi_icon" data-name="Acces wifi icon" transform="translate(0 0.075)">
    <path id="Tracé_2243" data-name="Tracé 2243" class="cls-1" d="M29.294,230.156v3.414a.861.861,0,0,1-.856.856H3.256a.861.861,0,0,1-.856-.856v-3.414a.862.862,0,0,1,.6-.82.777.777,0,0,1,.252-.036H28.438a.861.861,0,0,1,.856.856" transform="translate(-2.184 -208.716)"/>
    <path id="Tracé_2244" data-name="Tracé 2244" class="cls-2" d="M4.011,234.516H3.156a.861.861,0,0,1-.856-.856v-3.414a.814.814,0,0,1,.2-.54v.009h0a6.276,6.276,0,0,1,.657-.315H4a.777.777,0,0,0-.252.036.854.854,0,0,0-.6.82v3.414a.879.879,0,0,0,.865.847" transform="translate(-2.093 -208.807)"/>
    <path id="Tracé_2245" data-name="Tracé 2245" class="cls-3" d="M291.5,277.647h0m0,0a.759.759,0,0,0,.243-.036.691.691,0,0,1-.243.036m.3-.054a.848.848,0,0,0,.558-.748.866.866,0,0,1-.558.748m.558-.748h0m0,0h0m0,0h0m0-.009h0m0,0h0m0,0h0m0-.009h0m0,0h0m0,0h0m0,0h0m0-.009h0m0,0h0m0,0h0m0,0h0m0,0h0m0-.009h0m0,0h0m0,0h0m0,0h0m0-.009h0m0,0h0m0,0h0m0,0h0" transform="translate(-265.246 -251.938)"/>
    <path id="Tracé_2246" data-name="Tracé 2246" class="cls-4" d="M282.856,234.425H282a.777.777,0,0,0,.252-.036.854.854,0,0,0,.6-.82v-3.414A.861.861,0,0,0,282,229.3h.847l.387.171c.126.063.234.126.27.135h0a.814.814,0,0,1,.2.54v3.414h0a.852.852,0,0,1-.558.748.054.054,0,0,1-.036.009H283.1a.259.259,0,0,1-.243.108h0" transform="translate(-256.601 -208.716)"/>
    <path id="Tracé_2247" data-name="Tracé 2247" class="cls-5" d="M201.923,253a.423.423,0,1,1-.423.423.429.429,0,0,1,.423-.423" transform="translate(-183.352 -230.281)"/>
    <path id="Tracé_2248" data-name="Tracé 2248" class="cls-5" d="M173.52,253a.423.423,0,1,1-.423.423.417.417,0,0,1,.423-.423" transform="translate(-157.506 -230.281)"/>
    <path id="Tracé_2249" data-name="Tracé 2249" class="cls-6" d="M145.023,253a.423.423,0,1,1-.423.423.429.429,0,0,1,.423-.423" transform="translate(-131.576 -230.281)"/>
    <path id="Tracé_2250" data-name="Tracé 2250" class="cls-6" d="M116.62,253a.423.423,0,1,1-.423.423.423.423,0,0,1,.423-.423" transform="translate(-105.731 -230.281)"/>
    <path id="Tracé_2251" data-name="Tracé 2251" class="cls-6" d="M88.123,253a.423.423,0,1,1-.423.423.429.429,0,0,1,.423-.423" transform="translate(-79.801 -230.281)"/>
    <path id="Tracé_2252" data-name="Tracé 2252" class="cls-7" d="M88.123,253.856a.423.423,0,0,1-.423-.423h0a.423.423,0,0,0,.423.423h0m0-.856h0" transform="translate(-79.801 -230.281)"/>
    <path id="Tracé_2253" data-name="Tracé 2253" class="cls-8" d="M88.123,253.947a.423.423,0,1,1,0-.847h0a.434.434,0,0,1,.216.063.408.408,0,0,0,0,.721.434.434,0,0,1-.216.063h0" transform="translate(-79.801 -230.372)"/>
    <path id="Tracé_2254" data-name="Tracé 2254" class="cls-7" d="M116.62,253.856a.423.423,0,0,1-.423-.423h0a.417.417,0,0,0,.423.423h0m0-.856h0" transform="translate(-105.731 -230.281)"/>
    <path id="Tracé_2255" data-name="Tracé 2255" class="cls-8" d="M116.623,253.947a.423.423,0,1,1,0-.847h0a.434.434,0,0,1,.216.063.408.408,0,0,0,0,.721.462.462,0,0,1-.216.063h0" transform="translate(-105.734 -230.372)"/>
    <path id="Tracé_2256" data-name="Tracé 2256" class="cls-7" d="M145.023,253.856a.423.423,0,0,1-.423-.423h0a.423.423,0,0,0,.423.423h0m-.423-.432a.427.427,0,0,1,.423-.414.41.41,0,0,0-.423.414m.423-.423h0" transform="translate(-131.576 -230.281)"/>
    <path id="Tracé_2257" data-name="Tracé 2257" class="cls-8" d="M145.023,253.947a.423.423,0,0,1-.423-.423v-.009a.427.427,0,0,1,.423-.414h0a.434.434,0,0,1,.216.063.408.408,0,0,0,0,.721.434.434,0,0,1-.216.063h0" transform="translate(-131.576 -230.372)"/>
    <path id="Tracé_2258" data-name="Tracé 2258" class="cls-7" d="M173.52,253.856a.423.423,0,0,1-.423-.423h0a.412.412,0,0,0,.423.423h0m0-.856h0" transform="translate(-157.506 -230.281)"/>
    <path id="Tracé_2259" data-name="Tracé 2259" class="cls-9" d="M173.523,253.947a.423.423,0,0,1,0-.847h0a.434.434,0,0,1,.216.063.408.408,0,0,0,0,.721.494.494,0,0,1-.216.063h0" transform="translate(-157.509 -230.372)"/>
    <path id="Tracé_2260" data-name="Tracé 2260" class="cls-7" d="M201.923,253.856a.423.423,0,0,1-.423-.423h0a.423.423,0,0,0,.423.423h0m0-.856h0" transform="translate(-183.352 -230.281)"/>
    <path id="Tracé_2261" data-name="Tracé 2261" class="cls-9" d="M201.923,253.947a.423.423,0,0,1,0-.847h0a.434.434,0,0,1,.216.063.408.408,0,0,0,0,.721.434.434,0,0,1-.216.063h0" transform="translate(-183.352 -230.372)"/>
    <path id="Tracé_2262" data-name="Tracé 2262" class="cls-10" d="M116.038,196.136c1.513.1,2.621.432,2.621.82,0,.468-1.621.856-3.63.856s-3.63-.387-3.63-.856,1.63-.856,3.63-.856c.351,0,.694.018,1.009.036" transform="translate(-101.367 -178.506)"/>
    <path id="Tracé_2263" data-name="Tracé 2263" class="cls-11" d="M116.122,208.548h0m0,0a6.768,6.768,0,0,1-3.522-.648,6.612,6.612,0,0,0,3.477.648h.045" transform="translate(-102.458 -189.243)"/>
    <path id="Tracé_2264" data-name="Tracé 2264" class="cls-12" d="M114.985,197.811a6.706,6.706,0,0,1-3.477-.648.279.279,0,0,1-.108-.207c0-.468,1.63-.856,3.63-.856-.144,0-.288,0-.423.009.144,0,.288.009.423.018-1.594.09-2.774.432-2.774.829s1.18.739,2.774.829c-.135.009-.27.009-.405.018.117.009.234.009.36.009m.045-1.711h0" transform="translate(-101.367 -178.506)"/>
    <path id="Tracé_2265" data-name="Tracé 2265" class="cls-3" d="M151.7,214.918h0m0,0h.09c.207,0,.405-.009.6-.018-.225.009-.459.018-.693.018" transform="translate(-138.037 -195.613)"/>
    <path id="Tracé_2266" data-name="Tracé 2266" class="cls-13" d="M151.79,197.811c.117,0,.225,0,.342-.009-.144,0-.288-.009-.432-.018,1.594-.09,2.774-.432,2.774-.829s-1.189-.739-2.774-.829c.135-.009.27-.009.405-.018-.135,0-.27-.009-.405-.009h0c.351,0,.685.009,1.009.036.18.009.36.027.531.045,1.234.135,2.081.432,2.081.775,0,.414-1.261.766-2.936.838-.189.009-.387.018-.594.018m-.09-1.711h0" transform="translate(-138.037 -178.506)"/>
    <path id="Tracé_2267" data-name="Tracé 2267" class="cls-3" d="M151.245,215.1h0" transform="translate(-137.582 -195.795)"/>
    <path id="Tracé_2268" data-name="Tracé 2268" class="cls-14" d="M147.423,197.811h-.045c-.126,0-.243,0-.36-.009.135,0,.27-.009.405-.018.144.009.288.018.432.018-.108,0-.225.009-.342.009h-.09m0-1.684c-.135-.009-.279-.018-.423-.018.144,0,.279-.009.423-.009h0c.135,0,.27,0,.405.009-.135.009-.27.009-.405.018" transform="translate(-133.76 -178.506)"/>
    <path id="Tracé_2269" data-name="Tracé 2269" class="cls-10" d="M22.156,248.3a.856.856,0,1,1-.856.856.861.861,0,0,1,.856-.856" transform="translate(-19.382 -226.005)"/>
    <path id="Tracé_2270" data-name="Tracé 2270" class="cls-15" d="M21.3,249.138a.858.858,0,0,1,.856-.838.858.858,0,0,0-.856.838" transform="translate(-19.382 -226.005)"/>
    <path id="Tracé_2271" data-name="Tracé 2271" class="cls-12" d="M22.138,249.911a.852.852,0,0,1-.838-.856v-.018a.858.858,0,0,1,.856-.838h0a.889.889,0,0,0-.216.027.737.737,0,0,1,.216.09.852.852,0,0,0-.423.739.863.863,0,0,0,.423.739,1.2,1.2,0,0,1-.216.09.8.8,0,0,0,.2.027" transform="translate(-19.382 -225.914)"/>
    <path id="Tracé_2272" data-name="Tracé 2272" class="cls-4" d="M30.618,250.093h0a.861.861,0,0,0,.856-.856h0a.85.85,0,0,1-.856.856m.856-.856h0m0,0a.858.858,0,0,0-.784-.838.845.845,0,0,1,.784.838" transform="translate(-27.844 -226.096)"/>
    <path id="Tracé_2273" data-name="Tracé 2273" class="cls-13" d="M30.8,249.911a.888.888,0,0,0,.216-.027.737.737,0,0,1-.216-.09.852.852,0,0,0,.423-.739.863.863,0,0,0-.423-.739,1.2,1.2,0,0,1,.216-.09.7.7,0,0,0-.2-.027h.054a.858.858,0,0,1,.784.838h0v.009a.857.857,0,0,1-.856.865" transform="translate(-28.026 -225.914)"/>
    <path id="Tracé_2274" data-name="Tracé 2274" class="cls-14" d="M28.616,250H28.6a1.316,1.316,0,0,1-.2-.027.737.737,0,0,0,.216-.09,1.2,1.2,0,0,0,.216.09.889.889,0,0,1-.216.027h0m0-1.585a1.2,1.2,0,0,0-.216-.09.836.836,0,0,1,.216-.027h.018a1.316,1.316,0,0,1,.2.027.779.779,0,0,0-.216.09" transform="translate(-25.842 -226.005)"/>
    <path id="Tracé_2275" data-name="Tracé 2275" class="cls-4" d="M255.735,250h-1.711v-1.7H253.6v0h2.135V250" transform="translate(-230.759 -226.005)"/>
    <path id="Tracé_2276" data-name="Tracé 2276" class="cls-6" d="M145.879,62.163V71.98H144.6V62.163l.639-1.063.639,1.063" transform="translate(-131.576 -55.665)"/>
    <path id="Tracé_2277" data-name="Tracé 2277" class="cls-8" d="M145.023,71.98H144.6V62.163l.639-1.063.216.351-.162.27-.27.441V71.98" transform="translate(-131.576 -55.665)"/>
    <path id="Tracé_2278" data-name="Tracé 2278" class="cls-3" d="M154.523,65.712,154.1,65h0l.423.712" transform="translate(-140.221 -59.214)"/>
    <path id="Tracé_2279" data-name="Tracé 2279" class="cls-16" d="M152.339,75.529h-.423V65.712l-.216-.351.054-.09.162-.27h0l.423.712v9.817" transform="translate(-138.037 -59.214)"/>
    <path id="Tracé_2280" data-name="Tracé 2280" class="cls-17" d="M152.3,65.27l.162-.27h0l-.162.27" transform="translate(-138.583 -59.214)"/>
    <path id="Tracé_2281" data-name="Tracé 2281" class="cls-1" d="M17.758,184.981c-2,0-3.63-.387-3.63-.856s1.63-.856,3.63-.856c.351,0,.694.009,1.009.036,1.513.1,2.621.432,2.621.82,0,.468-1.621.856-3.63.856m10.3-2.558c-.27-.423-.676-.423-1.126-.423H8.571c-.45,0-.856,0-1.126.423l-2.711,3.414-.234.739a6.279,6.279,0,0,1,.657-.315H30.34l.639.288-.207-.712-2.711-3.414" transform="translate(-4.095 -165.676)"/>
    <path id="Tracé_2282" data-name="Tracé 2282" class="cls-13" d="M111.4,196.956h0c0-.468,1.63-.856,3.63-.856h0c-2,0-3.63.387-3.63.856" transform="translate(-101.367 -178.506)"/>
    <path id="Tracé_2283" data-name="Tracé 2283" class="cls-18" d="M151.7,196.1h0" transform="translate(-138.037 -178.506)"/>
    <path id="Tracé_2284" data-name="Tracé 2284" class="cls-4" d="M4.5,186.575l.234-.739,2.711-3.414c.27-.423.675-.423,1.126-.423h17.5c.45,0,.856,0,1.126.423l3.053,3.846H5.257l3.053-3.846C8.58,182,8.985,182,9.436,182H8.58c-.45,0-.856,0-1.126.423l-2.72,3.414-.234.739h0m9.628-2.45h0c0,.468,1.63.856,3.63.856s3.63-.387,3.63-.856h0c0-.342-.856-.639-2.081-.775-.171-.018-.351-.036-.531-.045-.315-.018-.657-.036-1.009-.036h0c-2.008,0-3.639.387-3.639.856h0m16.608,2.315-.387-.171a1.129,1.129,0,0,1,.387.171" transform="translate(-4.095 -165.676)"/>
    <path id="Tracé_2285" data-name="Tracé 2285" class="cls-19" d="M4.5,186.575l.234-.739,2.711-3.414c.27-.423.675-.423,1.126-.423h.856c-.45,0-.856,0-1.126.423l-3.053,3.846h-.09a5.372,5.372,0,0,0-.657.306" transform="translate(-4.095 -165.676)"/>
    <path id="Tracé_2286" data-name="Tracé 2286" class="cls-3" d="M296.525,225.339c-.009-.009-.018-.018-.018-.027l-.207-.712.225.739" transform="translate(-269.613 -204.439)"/>
    <path id="Tracé_2287" data-name="Tracé 2287" class="cls-4" d="M298.618,232.527c-.009-.009-.018-.018-.018-.027h0c.009.009.009.018.018.027h0" transform="translate(-271.706 -211.628)"/>
    <path id="Tracé_2288" data-name="Tracé 2288" class="cls-20" d="M296.07,231.435c-.036-.009-.144-.072-.27-.135l.252.117h0c.009,0,.009.009.018.018h0" transform="translate(-269.158 -210.536)"/>
    <path id="Tracé_2289" data-name="Tracé 2289" class="cls-20" d="M290.59,229.3h0" transform="translate(-264.336 -208.716)"/>
    <path id="Tracé_2290" data-name="Tracé 2290" class="cls-3" d="M254.717,182.314c-.27-.414-.666-.414-1.117-.414.45,0,.847,0,1.117.414" transform="translate(-230.759 -165.585)"/>
    <path id="Tracé_2291" data-name="Tracé 2291" class="cls-20" d="M249.009,186.457l-.252-.117a1.862,1.862,0,0,0-.387-.171h-.09l-3.053-3.846c-.27-.423-.675-.423-1.126-.423h.856c.45,0,.847,0,1.117.414a.031.031,0,0,1,.009.018l2.711,3.414.216.712" transform="translate(-222.115 -165.585)"/>
    <path id="Tracé_2292" data-name="Tracé 2292" class="cls-4" d="M254.023,267.2h0" transform="translate(-230.759 -243.202)"/>
    <path id="Tracé_2293" data-name="Tracé 2293" class="cls-20" d="M254.023,250H253.6v-1.7h.423V250" transform="translate(-230.759 -226.005)"/>
    <path id="Tracé_2294" data-name="Tracé 2294" class="cls-2" d="M277.723,250h0v-1.7h0V250" transform="translate(-252.324 -226.005)"/>
    <g id="Groupe_937" data-name="Groupe 937" transform="translate(0 -0.068)">
      <g id="Groupe_935" data-name="Groupe 935" class="cls-21">
        <path id="Tracé_2295" data-name="Tracé 2295" class="cls-19" d="M277.723,250H277.3v-1.7h.423V250" transform="translate(-252.324 -225.936)"/>
      </g>
      <g id="Groupe_936" data-name="Groupe 936" class="cls-21">
        <path id="Tracé_2296" data-name="Tracé 2296" class="cls-22" d="M1.072,227.423a.542.542,0,0,0-.18.027.646.646,0,0,0-.459.612v3.414a.642.642,0,0,0,.639.639H26.263a.642.642,0,0,0,.639-.639v-3.414a.642.642,0,0,0-.639-.639H1.072Zm25.183,5.125H1.072A1.074,1.074,0,0,1,0,231.476v-3.414a1.062,1.062,0,0,1,.757-1.018A1.109,1.109,0,0,1,1.072,227H26.263a1.074,1.074,0,0,1,1.072,1.072v3.414a1.08,1.08,0,0,1-1.081,1.063Z" transform="translate(0 -206.555)"/>
      </g>
    </g>
    <path id="Tracé_2297" data-name="Tracé 2297" class="cls-22" d="M4.922,188.243a.268.268,0,0,1-.135-.045.214.214,0,0,1-.036-.3l2.711-3.414a.212.212,0,1,1,.333.261l-2.7,3.414a.256.256,0,0,1-.171.081Z" transform="translate(-4.282 -167.866)"/>
    <path id="Tracé_2298" data-name="Tracé 2298" class="cls-22" d="M266.733,188.243a.222.222,0,0,1-.171-.081l-2.711-3.414a.212.212,0,1,1,.333-.261L266.9,187.9a.212.212,0,0,1-.162.342Z" transform="translate(-240.046 -167.866)"/>
    <path id="Tracé_2299" data-name="Tracé 2299" class="cls-22" d="M65.972,179.932H47.616a.216.216,0,0,1,0-.432H65.972a.216.216,0,0,1,0,.432Z" transform="translate(-43.131 -163.401)"/>
    <path id="Tracé_2300" data-name="Tracé 2300" class="cls-22" d="M35.137,180.356a.2.2,0,0,1-.117-.036.216.216,0,0,1-.063-.3,1.324,1.324,0,0,1,1.306-.522.216.216,0,1,1,0,.432c-.468,0-.748.018-.946.324a.209.209,0,0,1-.18.1Z" transform="translate(-31.778 -163.401)"/>
    <path id="Tracé_2301" data-name="Tracé 2301" class="cls-22" d="M252.542,180.356a.219.219,0,0,1-.18-.1c-.2-.315-.477-.324-.946-.324a.216.216,0,1,1,0-.432,1.324,1.324,0,0,1,1.306.522.216.216,0,0,1-.063.3.2.2,0,0,1-.117.036Z" transform="translate(-228.575 -163.401)"/>
    <path id="Tracé_2302" data-name="Tracé 2302" class="cls-22" d="M112.846,194.132c-2.126,0-3.368.423-3.414.639.045.216,1.288.639,3.414.639s3.368-.423,3.414-.639c-.018-.117-.657-.486-2.414-.6-.333-.027-.675-.036-1-.036Zm0,1.711c-1.333,0-3.846-.225-3.846-1.072s2.513-1.072,3.846-1.072c.333,0,.685.009,1.027.036.847.054,2.819.27,2.819,1.036-.009.847-2.522,1.072-3.846,1.072Z" transform="translate(-99.183 -176.322)"/>
    <path id="Tracé_2303" data-name="Tracé 2303" class="cls-22" d="M139.751,203.632h-2.135a.216.216,0,1,1,0-.432h2.135a.216.216,0,1,1,0,.432Z" transform="translate(-125.025 -184.967)"/>
    <path id="Tracé_2304" data-name="Tracé 2304" class="cls-22" d="M66.516,180.356a.219.219,0,0,1-.216-.216v-.423a.216.216,0,1,1,.432,0v.423a.213.213,0,0,1-.216.216Z" transform="translate(-60.329 -163.401)"/>
    <path id="Tracé_2305" data-name="Tracé 2305" class="cls-22" d="M90.216,180.356a.219.219,0,0,1-.216-.216v-.423a.216.216,0,1,1,.432,0v.423a.213.213,0,0,1-.216.216Z" transform="translate(-81.894 -163.401)"/>
    <path id="Tracé_2306" data-name="Tracé 2306" class="cls-22" d="M113.916,180.356a.219.219,0,0,1-.216-.216v-.423a.216.216,0,1,1,.432,0v.423a.213.213,0,0,1-.216.216Z" transform="translate(-103.459 -163.401)"/>
    <path id="Tracé_2307" data-name="Tracé 2307" class="cls-22" d="M137.616,180.356a.219.219,0,0,1-.216-.216v-.423a.216.216,0,1,1,.432,0v.423a.213.213,0,0,1-.216.216Z" transform="translate(-125.025 -163.401)"/>
    <path id="Tracé_2308" data-name="Tracé 2308" class="cls-22" d="M161.316,180.356a.219.219,0,0,1-.216-.216v-.423a.216.216,0,1,1,.432,0v.423a.213.213,0,0,1-.216.216Z" transform="translate(-146.59 -163.401)"/>
    <path id="Tracé_2309" data-name="Tracé 2309" class="cls-22" d="M185.016,180.356a.219.219,0,0,1-.216-.216v-.423a.216.216,0,1,1,.432,0v.423a.213.213,0,0,1-.216.216Z" transform="translate(-168.156 -163.401)"/>
    <path id="Tracé_2310" data-name="Tracé 2310" class="cls-22" d="M208.716,180.356a.219.219,0,0,1-.216-.216v-.423a.216.216,0,1,1,.432,0v.423a.213.213,0,0,1-.216.216Z" transform="translate(-189.721 -163.401)"/>
    <path id="Tracé_2311" data-name="Tracé 2311" class="cls-22" d="M232.416,180.356a.219.219,0,0,1-.216-.216v-.423a.216.216,0,1,1,.432,0v.423a.213.213,0,0,1-.216.216Z" transform="translate(-211.287 -163.401)"/>
    <path id="Tracé_2312" data-name="Tracé 2312" class="cls-22" d="M19.972,246.241a.639.639,0,1,0,.639.639.642.642,0,0,0-.639-.639Zm0,1.7a1.072,1.072,0,1,1,1.072-1.072,1.074,1.074,0,0,1-1.072,1.072Z" transform="translate(-17.198 -223.73)"/>
    <path id="Tracé_2313" data-name="Tracé 2313" class="cls-22" d="M251.632,247.52h2.135v-1.279h-2.135v1.279Zm2.342.423h-2.558a.219.219,0,0,1-.216-.216v-1.711a.219.219,0,0,1,.216-.216h2.558a.219.219,0,0,1,.216.216v1.711a.213.213,0,0,1-.216.216Z" transform="translate(-228.575 -223.73)"/>
    <path id="Tracé_2314" data-name="Tracé 2314" class="cls-22" d="M260.916,263.049a.219.219,0,0,1-.216-.216v-.216a.216.216,0,1,1,.432,0v.216a.219.219,0,0,1-.216.216Z" transform="translate(-237.22 -238.835)"/>
    <path id="Tracé_2315" data-name="Tracé 2315" class="cls-22" d="M270.416,263.049a.219.219,0,0,1-.216-.216v-.216a.216.216,0,1,1,.432,0v.216a.219.219,0,0,1-.216.216Z" transform="translate(-245.864 -238.835)"/>
    <path id="Tracé_2316" data-name="Tracé 2316" class="cls-22" d="M85.939,251.123a.216.216,0,1,0,.216.216.219.219,0,0,0-.216-.216Zm0,.856a.639.639,0,1,1,.639-.639.642.642,0,0,1-.639.639Z" transform="translate(-77.617 -228.189)"/>
    <path id="Tracé_2317" data-name="Tracé 2317" class="cls-22" d="M114.439,251.123a.216.216,0,1,0,.216.216.225.225,0,0,0-.216-.216Zm0,.856a.639.639,0,1,1,.639-.639.642.642,0,0,1-.639.639Z" transform="translate(-103.55 -228.189)"/>
    <path id="Tracé_2318" data-name="Tracé 2318" class="cls-22" d="M142.839,251.123a.216.216,0,1,0,.216.216.219.219,0,0,0-.216-.216Zm0,.856a.639.639,0,1,1,.639-.639.642.642,0,0,1-.639.639Z" transform="translate(-129.393 -228.189)"/>
    <path id="Tracé_2319" data-name="Tracé 2319" class="cls-22" d="M171.339,251.123a.216.216,0,1,0,.216.216.225.225,0,0,0-.216-.216Zm0,.856a.639.639,0,1,1,.639-.639.642.642,0,0,1-.639.639Z" transform="translate(-155.326 -228.189)"/>
    <path id="Tracé_2320" data-name="Tracé 2320" class="cls-22" d="M199.739,251.123a.216.216,0,1,0,.216.216.219.219,0,0,0-.216-.216Zm0,.856a.639.639,0,1,1,.639-.639.642.642,0,0,1-.639.639Z" transform="translate(-181.168 -228.189)"/>
    <path id="Tracé_2321" data-name="Tracé 2321" class="cls-22" d="M142.416,80.326a.219.219,0,0,1-.216-.216V70.716a.216.216,0,1,1,.432,0V80.11a.225.225,0,0,1-.216.216Z" transform="translate(-129.393 -64.219)"/>
    <path id="Tracé_2322" data-name="Tracé 2322" class="cls-22" d="M156.616,80.326a.219.219,0,0,1-.216-.216V70.716a.216.216,0,0,1,.432,0V80.11a.219.219,0,0,1-.216.216Z" transform="translate(-142.314 -64.219)"/>
    <path id="Tracé_2323" data-name="Tracé 2323" class="cls-22" d="M142.463,60.151a.24.24,0,0,1-.108-.027.217.217,0,0,1-.072-.3l.639-1.072a.208.208,0,0,1,.288-.072.217.217,0,0,1,.072.3l-.639,1.072a.208.208,0,0,1-.18.1Z" transform="translate(-129.44 -53.437)"/>
    <path id="Tracé_2324" data-name="Tracé 2324" class="cls-22" d="M150.2,60.06a.2.2,0,0,1-.18-.108l-.639-1.072a.219.219,0,0,1,.072-.3.206.206,0,0,1,.288.072l.639,1.072a.219.219,0,0,1-.072.3.173.173,0,0,1-.108.036Z" transform="translate(-135.9 -53.346)"/>
    <path id="Tracé_2325" data-name="Tracé 2325" class="cls-22" d="M177.439,43.888a.211.211,0,0,1-.153-.063.223.223,0,0,1,0-.306,2.131,2.131,0,0,0,0-3.026.217.217,0,0,1,.306-.306A2.533,2.533,0,0,1,178.34,42a2.571,2.571,0,0,1-.748,1.81.2.2,0,0,1-.153.081Z" transform="translate(-161.263 -36.579)"/>
    <path id="Tracé_2326" data-name="Tracé 2326" class="cls-22" d="M114.7,44.07a.211.211,0,0,1-.153-.063,2.533,2.533,0,0,1-.748-1.81,2.571,2.571,0,0,1,.748-1.81.217.217,0,1,1,.306.306,2.131,2.131,0,0,0,0,3.026.223.223,0,0,1,0,.306.432.432,0,0,1-.153.045Z" transform="translate(-103.55 -36.761)"/>
    <path id="Tracé_2327" data-name="Tracé 2327" class="cls-22" d="M200.339,32.9a.211.211,0,0,1-.153-.063.223.223,0,0,1,0-.306,3.86,3.86,0,0,0,0-5.44.217.217,0,1,1,.306-.306,4.278,4.278,0,0,1,0,6.043.222.222,0,0,1-.153.072Z" transform="translate(-182.1 -24.386)"/>
    <path id="Tracé_2328" data-name="Tracé 2328" class="cls-22" d="M86.728,32.992a.211.211,0,0,1-.153-.063,4.278,4.278,0,0,1,0-6.043.217.217,0,0,1,.306.306,3.86,3.86,0,0,0,0,5.44.223.223,0,0,1,0,.306.314.314,0,0,1-.153.054Z" transform="translate(-77.64 -24.477)"/>
    <path id="Tracé_2329" data-name="Tracé 2329" class="cls-22" d="M223.139,21.915a.211.211,0,0,1-.153-.063.223.223,0,0,1,0-.306,5.545,5.545,0,0,0,0-7.854.217.217,0,1,1,.306-.306,5.958,5.958,0,0,1,0,8.448.159.159,0,0,1-.153.081Z" transform="translate(-202.847 -12.193)"/>
    <g id="Groupe_938" data-name="Groupe 938" transform="translate(2.567 -0.075)">
      <path id="Tracé_2330" data-name="Tracé 2330" class="cls-22" d="M58.846,22.006a.211.211,0,0,1-.153-.063,6,6,0,0,1,0-8.457.217.217,0,0,1,.306.306,5.567,5.567,0,0,0,0,7.854.223.223,0,0,1,0,.306.245.245,0,0,1-.153.054Z" transform="translate(-54.388 -12.209)"/>
      <path id="Tracé_2331" data-name="Tracé 2331" class="cls-22" d="M30.9,11.02a.211.211,0,0,1-.153-.063,7.708,7.708,0,0,1,0-10.871.223.223,0,0,1,.306,0,.223.223,0,0,1,0,.306,7.273,7.273,0,0,0,0,10.268.223.223,0,0,1,0,.306.245.245,0,0,1-.153.054Z" transform="translate(-28.5 -0.016)"/>
      <path id="Tracé_2332" data-name="Tracé 2332" class="cls-22" d="M246.039,10.929a.211.211,0,0,1-.153-.063.223.223,0,0,1,0-.306,7.262,7.262,0,0,0,0-10.268.223.223,0,0,1,0-.306.223.223,0,0,1,.306,0,7.692,7.692,0,0,1,0,10.871.179.179,0,0,1-.153.072Z" transform="translate(-226.251 0.075)"/>
    </g>
  </g>
</svg>
