<svg xmlns="http://www.w3.org/2000/svg" viewBox="0 0 16 11.465">
  <defs>
    <style>
      .cls-1 {
        fill: #535353;
      }
    </style>
  </defs>
  <path id="Tracé_1005" data-name="Tracé 1005" class="cls-1" d="M14.551,0H1.449A1.425,1.425,0,0,0,0,1.449v8.567a1.465,1.465,0,0,0,1.449,1.449h13.1A1.465,1.465,0,0,0,16,10.016V1.449A1.508,1.508,0,0,0,14.551,0ZM1.449.819H14.614L8.5,6.173a.765.765,0,0,1-1.008,0L1.449.819Zm13.669,9.2a.582.582,0,0,1-.63.567H1.449a.565.565,0,0,1-.567-.567V1.449L5.669,5.606,2.835,8.189a.481.481,0,0,0-.126.315c0,.126.063.189.126.315a.481.481,0,0,0,.315.126A.327.327,0,0,0,3.4,8.819L6.236,6.173l.693.63a1.533,1.533,0,0,0,2.016,0l.693-.63,2.835,2.646a.379.379,0,0,0,.567,0,.4.4,0,0,0,0-.567L10.268,5.669l4.85-4.22Z" transform="translate(0 0)"/>
</svg>
