<svg id="Localisation" xmlns="http://www.w3.org/2000/svg" viewBox="0 0 11.291 14">
  <defs>
    <style>
      .cls-1 {
        fill: #535353;
      }
    </style>
  </defs>
  <path id="Tracé_1008" data-name="Tracé 1008" class="cls-1" d="M5.589,0A5.638,5.638,0,0,0,0,5.589,6.917,6.917,0,0,0,.113,6.661a.437.437,0,0,0,.056.169,8.96,8.96,0,0,0,.4,1.129,15.59,15.59,0,0,0,4.855,5.927A.428.428,0,0,0,5.645,14a.293.293,0,0,0,.226-.113A15.59,15.59,0,0,0,10.726,7.96a6.641,6.641,0,0,0,.4-1.129.247.247,0,0,1,.056-.169,6.253,6.253,0,0,0,.113-1.073A5.737,5.737,0,0,0,5.589,0Zm4.742,6.548h0c0,.056,0,.056-.056.169h0a3.26,3.26,0,0,1-.339.96h0A14.8,14.8,0,0,1,5.589,13.1,14.2,14.2,0,0,1,1.242,7.677h0C1.129,7.4,1.016,7.056.9,6.718h0V6.6h0A6.981,6.981,0,0,1,.79,5.589a4.8,4.8,0,1,1,9.6,0,2.754,2.754,0,0,1-.056.96Zm0,0"/>
  <path id="Tracé_1009" data-name="Tracé 1009" class="cls-1" d="M7.81,5.2a2.71,2.71,0,1,0,2.71,2.71A2.71,2.71,0,0,0,7.81,5.2Zm0,4.855A2.089,2.089,0,1,1,9.9,7.966,2.049,2.049,0,0,1,7.81,10.055Zm0,0" transform="translate(-2.221 -2.265)"/>
</svg>
