<svg xmlns="http://www.w3.org/2000/svg" viewBox="0 0 14 13.979">
  <defs>
    <style>
      .cls-1 {
        fill: #535353;
      }
    </style>
  </defs>
  <g id="Phone" transform="translate(-0.05 0.006)">
    <path id="Tracé_898" data-name="Tracé 898" class="cls-1" d="M11.229,13.979a7.461,7.461,0,0,1-2.054-.411,15.293,15.293,0,0,1-5.164-3.524A14.5,14.5,0,0,1,.49,4.875C-.1,3.348-.1,2.056.49,1.468a.586.586,0,0,1,.235-.294A2.944,2.944,0,0,1,2.661,0,2.317,2.317,0,0,1,4.3,1.057c1.584,2,.88,2.7.059,3.524L4.129,4.7c-.117.117-.411.764,2,3.172a14.111,14.111,0,0,0,2,1.7c.352.235.939.529,1.174.294l.176-.176c.822-.822,1.526-1.527,3.521.059a2.532,2.532,0,0,1,1.056,1.586c.059.764-.587,1.41-1.174,1.938-.117.059-.176.176-.235.235a2.14,2.14,0,0,1-1.408.47ZM2.544.47c-.587,0-1.056.529-1.526,1-.059.117-.176.176-.235.294C.373,2.173.373,3.289.9,4.64A13.755,13.755,0,0,0,4.363,9.632,16.009,16.009,0,0,0,9.352,13.1c1.35.47,2.465.529,2.876.117a1.28,1.28,0,0,1,.293-.235c.469-.47,1.056-1,1-1.527,0-.411-.293-.822-.88-1.292C10.995,8.81,10.525,9.28,9.762,10.1l-.176.176c-.352.352-.939.294-1.761-.235A11.8,11.8,0,0,1,5.772,8.281c-2-2-2.641-3.23-2-3.818l.176-.176C4.715,3.465,5.185,3,3.894,1.351,3.424.764,3.014.47,2.544.47Zm0,0" transform="translate(0 -0.006)"/>
  </g>
</svg>
