<svg xmlns="http://www.w3.org/2000/svg" xmlns:xlink="http://www.w3.org/1999/xlink" width="38" height="39" viewBox="0 0 38 39"><defs><path id="l9uqa" d="M347.14 50.72c.29.28.29.71 0 1-.14.14-.28.14-.57.14-.28 0-.43 0-.57-.14l-5-5.14-5.14 5.14c-.15.14-.29.14-.57.14-.29 0-.43 0-.58-.14a.69.69 0 0 1 0-1l5.15-5.14-5-5.15a.69.69 0 0 1 0-1 .69.69 0 0 1 1 0l5.14 5.15 5.14-5.15a.69.69 0 0 1 1 0c.29.29.29.72 0 1L342 45.58zM341 32.58c-7.14 0-13 5.85-13 13 0 7.14 5.86 13 13 13s13-5.86 13-13c0-7.15-5.86-13-13-13z"/><mask id="l9uqc" width="2" height="2" x="-1" y="-1"><path fill="#fff" d="M328 32h26v27h-26z"/><use xlink:href="#l9uqa"/></mask><filter id="l9uqb" width="65" height="66" x="310" y="14" filterUnits="userSpaceOnUse"><feOffset dx="3" dy="3" in="SourceGraphic" result="FeOffset1023Out"/><feGaussianBlur in="FeOffset1023Out" result="FeGaussianBlur1024Out" stdDeviation="3.2 3.2"/></filter></defs><g><g transform="translate(-325 -29)"><g filter="url(#l9uqb)"><use fill="none" stroke-opacity=".16" stroke-width="0" mask="url(&quot;#l9uqc&quot;)" xlink:href="#l9uqa"/><use fill-opacity=".16" xlink:href="#l9uqa"/></g><use fill="#fff" xlink:href="#l9uqa"/></g></g></svg>