<svg xmlns="http://www.w3.org/2000/svg" xmlns:xlink="http://www.w3.org/1999/xlink" viewBox="0 0 75.534 75.534">
  <defs>
    <style>
      .cls-1 {
        fill: url(#linear-gradient);
      }

      .cls-2 {
        fill: #eac365;
      }

      .cls-3 {
        fill: #504e4b;
      }

      .cls-4 {
        fill: #ededec;
      }

      .cls-5 {
        filter: url(#Tracé_1714);
      }
    </style>
    <linearGradient id="linear-gradient" x1="0.5" y1="0.021" x2="0.5" y2="0.663" gradientUnits="objectBoundingBox">
      <stop offset="0" stop-color="#f77669"/>
      <stop offset="1" stop-color="#ffd86a"/>
    </linearGradient>
    <filter id="Tracé_1714" x="0" y="0" width="75.534" height="75.534" filterUnits="userSpaceOnUse">
      <feOffset dy="3" input="SourceAlpha"/>
      <feGaussianBlur stdDeviation="5" result="blur"/>
      <feFlood flood-opacity="0.161"/>
      <feComposite operator="in" in2="blur"/>
      <feComposite in="SourceGraphic"/>
    </filter>
  </defs>
  <g id="emoji_angry" data-name="emoji angry" transform="translate(12.378 12)">
    <g id="Groupe_772" data-name="Groupe 772" transform="translate(2.622)">
      <g class="cls-5" transform="matrix(1, 0, 0, 1, -15, -12)">
        <path id="Tracé_1714-2" data-name="Tracé 1714" class="cls-1" d="M32.867,0A22.767,22.767,0,1,1,10.1,22.767,22.779,22.779,0,0,1,32.867,0Z" transform="translate(4.9 12)"/>
      </g>
    </g>
    <path id="Tracé_1733" data-name="Tracé 1733" class="cls-2" d="M80.71,120.551a.827.827,0,0,1-.8-.623.837.837,0,0,1,.6-1.038,14.805,14.805,0,0,1,8.1,0,.847.847,0,0,1-.441,1.635,13.427,13.427,0,0,0-7.165,0c-.13,0-.208.026-.286.026Z" transform="translate(-59.137 -87.608)"/>
    <path id="Tracé_1734" data-name="Tracé 1734" class="cls-3" d="M62.821,103.4a17.773,17.773,0,0,0-12.642,5.244.844.844,0,0,0,1.194,1.194,16.17,16.17,0,0,1,22.9,0,.894.894,0,0,0,.6.26.789.789,0,0,0,.6-.26.831.831,0,0,0,0-1.194A17.754,17.754,0,0,0,62.821,103.4Z" transform="translate(-36.965 -76.558)"/>
    <path id="Tracé_1735" data-name="Tracé 1735" class="cls-3" d="M46.029,69.233a3.115,3.115,0,1,0,6.23,0,2.824,2.824,0,0,0-.182-1.038c.337.026.7.052,1.064.052a11.961,11.961,0,0,0,3.271-.467.847.847,0,1,0-.441-1.635c-5.971,1.635-8.567-2.181-8.7-2.336a.846.846,0,1,0-1.428.909,7.28,7.28,0,0,0,1.765,1.765,3.207,3.207,0,0,0-1.584,2.752Z" transform="translate(-33.854 -46.959)"/>
    <path id="Tracé_1736" data-name="Tracé 1736" class="cls-3" d="M117.013,63.615a.845.845,0,0,0-1.168.26c-.026.052-2.648,4-8.7,2.336a.847.847,0,0,0-.441,1.635,11.961,11.961,0,0,0,3.271.467c.363,0,.727-.026,1.064-.052a3.349,3.349,0,0,0-.182,1.038,3.115,3.115,0,1,0,4.621-2.726,7.28,7.28,0,0,0,1.765-1.765.833.833,0,0,0-.234-1.194Z" transform="translate(-78.541 -47)"/>
    <g id="Groupe_773" data-name="Groupe 773" transform="translate(0 27.024)">
      <path id="Tracé_1737" data-name="Tracé 1737" class="cls-4" d="M11.578,114.043l5.763-9.943L6.178,109.032A3.371,3.371,0,0,0,0,110.9a3.32,3.32,0,0,0,1.4,2.726,4.6,4.6,0,0,0-1.116,3.037,4.7,4.7,0,0,0,8.074,3.271,3.416,3.416,0,0,0,1.454.337,3.368,3.368,0,0,0,3.375-3.375,3.57,3.57,0,0,0-1.61-2.856Z" transform="translate(0 -104.1)"/>
      <path id="Tracé_1738" data-name="Tracé 1738" class="cls-4" d="M144.591,113.627a4.7,4.7,0,0,1-6.957,6.308,3.417,3.417,0,0,1-1.454.337,3.382,3.382,0,0,1-1.817-6.23L128.6,104.1l11.163,4.932a3.353,3.353,0,0,1,2.8-1.506,3.4,3.4,0,0,1,3.271,2.518,2.916,2.916,0,0,1,.1.831,3.225,3.225,0,0,1-1.35,2.752Z" transform="translate(-95.216 -104.1)"/>
    </g>
  </g>
</svg>
