<svg xmlns="http://www.w3.org/2000/svg" xmlns:xlink="http://www.w3.org/1999/xlink" viewBox="0 0 75.534 75.534">
  <defs>
    <style>
      .cls-1 {
        fill: #ffd86a;
      }

      .cls-2 {
        fill: #ef544d;
      }

      .cls-3 {
        fill: #fff;
      }

      .cls-4 {
        fill: #f77669;
      }

      .cls-5 {
        filter: url(#Tracé_1716);
      }
    </style>
    <filter id="Tracé_1716" x="0" y="0" width="75.534" height="75.534" filterUnits="userSpaceOnUse">
      <feOffset dy="3" input="SourceAlpha"/>
      <feGaussianBlur stdDeviation="5" result="blur"/>
      <feFlood flood-opacity="0.161"/>
      <feComposite operator="in" in2="blur"/>
      <feComposite in="SourceGraphic"/>
    </filter>
  </defs>
  <g id="emoji_yay" data-name="emoji yay" transform="translate(15 12)">
    <g id="Groupe_766" data-name="Groupe 766" transform="translate(0)">
      <g class="cls-5" transform="matrix(1, 0, 0, 1, -15, -12)">
        <path id="Tracé_1716-2" data-name="Tracé 1716" class="cls-1" d="M954.067,0A22.767,22.767,0,1,1,931.3,22.767,22.778,22.778,0,0,1,954.067,0Z" transform="translate(-916.3 12)"/>
      </g>
    </g>
    <path id="Tracé_1722" data-name="Tracé 1722" class="cls-2" d="M1036.541,42.757h0a3.525,3.525,0,0,0-4.984,0h0a3.525,3.525,0,0,0,0,4.984h0l4.984,4.984,4.984-4.984h0a3.525,3.525,0,0,0,0-4.984h0a3.525,3.525,0,0,0-4.984,0Z" transform="translate(-1004.767 -30.893)"/>
    <path id="Tracé_1723" data-name="Tracé 1723" class="cls-2" d="M967.141,42.748h0a3.525,3.525,0,0,0-4.984,0h0a3.525,3.525,0,0,0,0,4.984h0l4.984,4.958,4.984-4.984h0a3.525,3.525,0,0,0,0-4.984h0a3.549,3.549,0,0,0-4.984.026Z" transform="translate(-953.383 -30.884)"/>
    <path id="Tracé_1724" data-name="Tracé 1724" class="cls-3" d="M974.8,96.8h22.949a11.547,11.547,0,0,1-.6,3.686H975.423A10.886,10.886,0,0,1,974.8,96.8Z" transform="translate(-963.507 -71.671)"/>
    <path id="Tracé_1725" data-name="Tracé 1725" class="cls-2" d="M977.1,111h21.728a11.4,11.4,0,0,1-4.154,5.607,40.427,40.427,0,0,1-9.475-2.258,4.624,4.624,0,0,0-3.972,2.258A11.671,11.671,0,0,1,977.1,111Z" transform="translate(-965.21 -82.185)"/>
    <path id="Tracé_1726" data-name="Tracé 1726" class="cls-4" d="M1002.575,123.9a4.624,4.624,0,0,1,3.972,2.259,11.456,11.456,0,0,1-13.447,0,40.421,40.421,0,0,0,9.475-2.259Z" transform="translate(-977.057 -91.736)"/>
  </g>
</svg>
