<svg xmlns="http://www.w3.org/2000/svg" xmlns:xlink="http://www.w3.org/1999/xlink" width="404" height="115.741" style=""><rect id="backgroundrect" width="100%" height="100%" x="0" y="0" fill="none" stroke="none"/>
  <defs>
    <style>
      .cls-1 {
        opacity: 0.59;
        fill: url(#linear-gradient);
      }

      .cls-2 {
        filter: url(#Intersection_2);
      }
    </style>
    <linearGradient id="linear-gradient" x2="0" y2="1" gradientUnits="objectBoundingBox">
      <stop offset="0" stop-color="#fb6b94"/>
      <stop offset="1" stop-color="#fd8493"/>
    </linearGradient>
    <filter id="Intersection_2" x="0" y="0" width="404" height="115.74099731445312" filterUnits="userSpaceOnUse">
      <feOffset dx="-3" dy="-3" input="SourceAlpha"/>
      <feGaussianBlur stdDeviation="5" result="blur"/>
      <feFlood flood-opacity="0.161"/>
      <feComposite operator="in" in2="blur"/>
      <feComposite in="SourceGraphic"/>
    </filter>
  </defs>
  
<g class="currentLayer" style=""><title>Layer 1</title><g class="cls-2" id="svg_1" opacity="1" fill-opacity="1" fill="#fb4b7d">
    <path id="Intersection_2-2" data-name="Intersection 2" class="cls-1" d="M318.71234473657387,116.43624877929688 c-101.59330918439991,-0.6874400973320007 -174.01524915216578,-9.818588256835938 -261.1805541552894,-11.193469047546387 c-29.29299018431402,-0.4610708951950073 -46.17730974135338,1.748458743095398 -56.99506712383936,6.754966735839844 V-2.6339263916015625 h402.57138133477565 v92.47526550292969 a179.20776534254765,231.2145538330078 0 0 1 -83.43346596013544,26.599069595336914 z" opacity="1" fill="#fb4b7d"/>
  </g><path fill="#fb4b7d" fill-opacity="1" stroke="none" stroke-opacity="1" stroke-width="1" stroke-dasharray="none" stroke-linejoin="miter" stroke-linecap="butt" stroke-dashoffset="" fill-rule="nonzero" opacity="1" marker-start="" marker-mid="" marker-end="" d="M-44.730159759521484,32.61905164507607 C-44.730159759521484,-2.3805124165123743 63.568180084228516,-30.730159783355703 197.2698516845703,-30.730159783355703 C330.97149658203125,-30.730159783355703 439.26983642578125,-2.3805124165123743 439.26983642578125,32.61905164507607 C439.26983642578125,67.61861888637577 330.97149658203125,95.96826307350784 197.2698516845703,95.96826307350784 C63.568180084228516,95.96826307350784 -44.730159759521484,67.61861888637577 -44.730159759521484,32.61905164507607 z" id="svg_4" class=""/><path fill="#fb4b7d" fill-opacity="1" stroke="none" stroke-opacity="1" stroke-width="1" stroke-dasharray="none" stroke-linejoin="miter" stroke-linecap="butt" stroke-dashoffset="" fill-rule="nonzero" opacity="1" marker-start="" marker-mid="" marker-end="" d="M96,20 C96,17.790055248618785 99.35635359116021,16 103.5,16 C107.64364640883979,16 111,17.790055248618785 111,20 C111,22.209944751381215 107.64364640883979,24 103.5,24 C99.35635359116021,24 96,22.209944751381215 96,20 Z" id="svg_6"/></g></svg>