<?xml version="1.0" standalone="no"?><!-- Generator: Gravit.io --><svg xmlns="http://www.w3.org/2000/svg" xmlns:xlink="http://www.w3.org/1999/xlink" style="isolation:isolate" viewBox="321.541 313.519 25.241 25.893" width="25.241" height="25.893"><g id="Group"><g id="Group_880"><path d=" M 337.973 333.975 L 339.388 333.975 L 339.388 336.356 L 337.98 336.356 L 337.98 338.579 L 335.327 338.579 L 335.327 336.362 L 330.818 336.362 C 330.818 335.781 330.85 335.225 330.812 334.676 C 330.782 334.234 330.933 333.799 331.229 333.47 C 332.852 331.43 334.45 329.365 336.048 327.306 C 336.13 327.19 336.266 327.126 336.408 327.135 C 336.844 327.141 337.286 327.148 337.722 327.129 C 337.943 327.123 337.987 327.205 337.987 327.407 Q 337.978 330.514 337.981 333.622 C 337.973 333.723 337.973 333.834 337.973 333.975 Z  M 333.451 333.962 L 335.617 333.962 L 335.617 331.139 C 334.879 332.106 334.178 333.022 333.452 333.963 L 333.451 333.962 Z " fill="rgb(122,130,165)"/><path d=" M 342.338 335.75 C 342.666 335.794 342.951 335.826 343.26 335.864 C 343.228 336.123 343.203 336.364 343.172 336.641 C 342.408 336.559 341.663 336.477 340.892 336.395 C 340.974 335.637 341.056 334.895 341.145 334.115 C 341.404 334.14 341.657 334.166 341.928 334.197 C 341.896 334.497 341.865 334.778 341.833 335.113 C 342.724 334.354 343.497 333.466 344.126 332.479 C 343.671 332.214 343.235 331.948 342.768 331.679 C 342.907 331.445 343.033 331.224 343.168 330.997 L 344.532 331.797 C 345.416 330.179 345.912 328.378 345.98 326.535 L 344.397 326.535 L 344.397 325.758 L 345.97 325.758 C 345.913 323.916 345.422 322.113 344.536 320.497 C 344.081 320.762 343.636 321.021 343.172 321.286 C 343.039 321.059 342.913 320.85 342.772 320.61 C 343.227 320.345 343.672 320.079 344.111 319.821 C 343.201 318.347 341.962 317.104 340.492 316.189 C 340.227 316.631 339.961 317.073 339.692 317.528 C 339.465 317.395 339.256 317.275 339.01 317.128 C 339.282 316.673 339.541 316.228 339.818 315.764 C 338.204 314.884 336.407 314.392 334.57 314.329 L 334.57 315.889 L 333.762 315.889 L 333.762 314.329 C 331.928 314.388 330.134 314.878 328.525 315.761 C 328.79 316.222 329.049 316.661 329.325 317.125 C 329.104 317.258 328.896 317.384 328.649 317.525 C 328.377 317.07 328.118 316.625 327.841 316.167 C 326.371 317.086 325.124 318.322 324.193 319.784 C 324.641 320.049 325.084 320.315 325.551 320.592 C 325.418 320.826 325.292 321.034 325.151 321.274 L 323.787 320.474 C 322.901 322.092 322.408 323.895 322.348 325.739 L 323.927 325.739 L 323.927 326.503 L 321.546 326.503 C 321.494 324.696 321.832 322.9 322.538 321.236 C 323.711 318.389 325.905 316.083 328.69 314.769 C 334.408 312.016 341.28 313.938 344.74 319.258 C 348.201 324.577 347.172 331.639 342.338 335.75 Z " fill="rgb(122,130,165)"/><path d=" M 325.456 334.14 L 329.833 334.14 L 329.833 336.502 L 321.679 336.502 C 321.512 335.171 322.036 333.847 323.068 332.99 C 323.712 332.51 324.426 332.131 325.114 331.708 C 325.514 331.462 325.922 331.234 326.32 330.975 C 326.684 330.799 326.866 330.383 326.749 329.996 C 326.606 329.58 326.222 329.294 325.783 329.276 C 325.026 329.205 324.279 329.495 323.768 330.059 C 323.635 330.185 323.509 330.318 323.357 330.47 C 322.801 329.826 322.252 329.194 321.69 328.55 C 321.975 328.218 322.329 327.951 322.726 327.767 C 324.206 326.967 325.934 326.755 327.564 327.173 C 328.599 327.366 329.408 328.178 329.598 329.213 C 329.871 330.386 329.352 331.6 328.316 332.213 C 327.545 332.737 326.731 333.198 325.941 333.697 C 325.764 333.811 325.6 333.956 325.429 334.082 C 325.44 334.101 325.449 334.12 325.456 334.14 L 325.456 334.14 Z " fill="rgb(122,130,165)"/><path d=" M 340.317 325.743 L 340.317 326.526 L 340.017 326.526 C 338.659 326.526 337.308 326.526 335.95 326.52 C 335.8 326.497 335.657 326.593 335.622 326.741 C 335.353 327.414 334.659 327.816 333.942 327.714 C 333.258 327.607 332.717 327.08 332.59 326.4 C 332.459 325.668 332.86 324.945 333.55 324.669 C 333.697 324.634 333.792 324.49 333.765 324.341 Q 333.756 321.148 333.759 317.956 L 333.759 317.643 L 334.559 317.643 L 334.559 324.343 C 334.532 324.49 334.623 324.633 334.767 324.671 C 335.178 324.82 335.499 325.148 335.639 325.562 C 335.696 325.733 335.784 325.751 335.939 325.751 C 337.31 325.745 338.68 325.751 340.057 325.751 C 340.134 325.743 340.216 325.743 340.317 325.743 Z  M 334.147 326.924 C 334.359 326.931 334.566 326.853 334.72 326.707 C 334.874 326.561 334.964 326.359 334.968 326.147 C 334.964 325.711 334.614 325.357 334.178 325.349 C 333.742 325.34 333.378 325.68 333.357 326.115 C 333.351 326.328 333.432 326.535 333.58 326.688 C 333.729 326.841 333.934 326.927 334.147 326.927 L 334.147 326.924 Z " fill="rgb(122,130,165)"/><path d=" M 330.382 337.101 C 330.755 337.101 331.082 337.095 331.411 337.101 C 331.733 337.098 332.02 337.306 332.118 337.613 C 332.239 337.912 332.146 338.256 331.891 338.453 C 331.866 338.472 331.834 338.485 331.791 338.51 C 331.962 338.81 332.113 339.072 332.271 339.344 C 331.791 339.458 331.722 339.426 331.488 339.044 C 331.456 338.987 331.412 338.93 331.388 338.873 C 331.363 338.778 331.296 338.701 331.206 338.662 C 331.116 338.623 331.013 338.627 330.927 338.673 L 330.927 339.342 C 330.889 339.367 330.877 339.386 330.864 339.386 C 330.378 339.43 330.378 339.43 330.378 338.95 C 330.382 338.343 330.382 337.733 330.382 337.101 Z  M 330.938 338.244 C 331.152 338.197 331.361 338.13 331.563 338.044 C 331.612 337.931 331.609 337.802 331.557 337.69 C 331.359 337.614 331.154 337.561 330.944 337.532 C 330.938 337.79 330.938 337.967 330.938 338.243 L 330.938 338.244 Z " fill="rgb(122,130,165)"/><path d=" M 323.201 338.46 L 322.301 338.46 L 322.301 339.369 L 321.793 339.369 L 321.793 337.119 L 322.298 337.119 L 322.298 337.965 L 323.193 337.965 L 323.193 337.093 C 323.351 337.093 323.493 337.087 323.629 337.099 C 323.673 337.105 323.743 337.162 323.743 337.199 C 323.749 337.919 323.749 338.639 323.749 339.372 L 323.208 339.372 C 323.201 339.072 323.201 338.769 323.201 338.46 Z " fill="rgb(122,130,165)"/><path d=" M 324.502 338.22 C 324.508 337.595 325.014 337.089 325.639 337.083 C 326.263 337.114 326.756 337.626 326.763 338.251 C 326.75 338.877 326.246 339.381 325.62 339.394 C 325.315 339.389 325.025 339.262 324.815 339.041 C 324.605 338.821 324.492 338.525 324.502 338.22 Z  M 325.051 338.239 C 325.029 338.403 325.076 338.569 325.182 338.696 C 325.288 338.823 325.442 338.9 325.607 338.908 C 325.777 338.906 325.939 338.834 326.054 338.708 C 326.169 338.583 326.227 338.415 326.213 338.245 C 326.233 338.075 326.179 337.905 326.066 337.778 C 325.952 337.65 325.79 337.577 325.619 337.576 C 325.279 337.576 325.058 337.841 325.051 338.239 Z " fill="rgb(122,130,165)"/><path d=" M 327.471 337.114 L 328.039 337.114 C 328.039 337.461 328.033 337.802 328.039 338.143 C 328.04 338.294 328.057 338.444 328.09 338.591 C 328.132 338.811 328.344 338.955 328.564 338.913 C 328.777 338.9 328.944 338.726 328.949 338.513 C 328.981 338.248 328.981 337.976 328.987 337.713 C 328.993 337.524 328.987 337.328 328.987 337.126 L 329.536 337.126 C 329.538 337.647 329.51 338.168 329.454 338.686 C 329.338 339.124 328.935 339.425 328.481 339.411 C 328.028 339.398 327.644 339.074 327.554 338.629 C 327.49 338.125 327.496 337.626 327.471 337.114 Z " fill="rgb(122,130,165)"/><path d=" M 332.852 339.116 C 332.934 338.958 332.997 338.825 333.06 338.716 C 333.325 338.785 333.565 338.861 333.818 338.905 C 333.9 338.918 334.001 338.836 334.096 338.798 C 334.02 338.716 333.963 338.609 333.875 338.564 C 333.717 338.488 333.54 338.45 333.375 338.387 C 333.102 338.313 332.922 338.055 332.946 337.774 C 332.961 337.479 333.157 337.224 333.439 337.136 C 333.837 337.027 334.263 337.1 334.601 337.336 Q 334.487 337.544 334.393 337.736 C 334.202 337.668 334.006 337.618 333.806 337.584 C 333.706 337.571 333.598 337.666 333.497 337.717 C 333.562 337.803 333.641 337.878 333.731 337.938 C 333.883 338.007 334.053 338.038 334.205 338.096 C 334.516 338.171 334.713 338.477 334.653 338.791 C 334.64 339.09 334.413 339.336 334.116 339.372 C 333.677 339.454 333.224 339.362 332.852 339.116 Z " fill="rgb(122,130,165)"/></g></g></svg>