<?xml version="1.0" standalone="no"?><!-- Generator: Gravit.io --><svg xmlns="http://www.w3.org/2000/svg" xmlns:xlink="http://www.w3.org/1999/xlink" style="isolation:isolate" viewBox="-186.771 250.606 374.265 264.876" width="374.265" height="264.876"><g opacity="0.03"><path d=" M 172.168 354.575 C 152.368 334.775 31.068 272.885 11.268 260.508 L 13.74 250.606 L 1.363 258.032 L -13.49 250.606 L -8.539 260.506 C -18.439 267.932 -50.621 282.785 -85.278 302.588 C -122.41 322.388 -159.541 344.67 -169.443 354.572 C -181.82 366.952 -186.771 381.806 -186.771 399.132 C -186.771 416.458 -179.345 431.313 -166.971 441.215 C -154.597 451.117 -139.741 458.543 -124.889 458.543 L -122.414 458.543 C -105.086 458.543 -90.233 451.117 -80.332 438.743 L -75.381 433.792 C -70.43 461.022 -48.151 480.825 -18.446 488.252 L -15.971 488.252 L -1.118 515.482 L 13.735 488.252 L 16.21 488.252 C 28.587 485.777 40.964 480.826 50.866 473.399 C 65.719 463.499 73.145 448.645 75.62 431.316 C 78.095 433.791 80.571 436.267 80.571 438.742 C 92.948 451.119 107.801 458.542 125.129 458.542 C 140.932 458.743 156.132 452.484 167.211 441.214 C 179.588 428.837 187.011 413.984 187.011 396.656 C 189.496 381.806 182.07 366.952 172.168 354.575 Z  M 1.363 280.311 C 8.789 297.639 23.642 329.82 38.495 359.525 L -38.245 359.525 C -33.294 349.625 -28.345 339.725 -23.392 327.344 C -11.015 310.017 -3.588 292.689 1.363 280.311 Z  M -58.048 406.559 C -55.573 399.133 -53.097 394.182 -50.622 386.759 L -50.622 386.759 C -50.622 384.284 -48.147 381.808 -45.671 376.859 L 45.92 376.859 L 60.773 406.564 L -58.048 406.559 Z  M -92.704 428.838 C -110.032 446.166 -137.262 446.166 -157.065 428.838 C -164.491 421.412 -169.442 409.038 -169.442 396.657 L -169.442 396.657 C -169.442 384.28 -164.491 374.378 -157.065 364.476 C -144.688 349.624 -65.471 310.017 -18.441 285.262 C -23.392 297.639 -30.818 307.541 -35.771 319.918 L -35.771 319.918 C -45.671 342.197 -55.571 362.001 -63.001 379.329 L -63.001 379.329 C -75.376 404.083 -87.753 421.411 -92.704 428.838 Z  M 40.97 461.019 C 31.07 470.919 13.74 475.872 -1.113 473.396 C -33.294 473.396 -60.524 448.642 -60.524 421.412 L 60.776 421.412 L 60.776 426.363 C 60.773 438.739 53.347 451.117 40.97 461.018 L 40.97 461.019 Z  M 157.316 428.838 C 148.624 437.391 136.786 441.976 124.601 441.507 C 112.415 441.039 100.964 435.559 92.955 426.363 C 80.578 411.51 40.971 332.296 21.167 285.263 C 68.199 310.017 144.938 349.624 159.791 364.476 C 177.119 384.28 174.643 411.506 157.315 428.838 L 157.316 428.838 Z " fill="rgb(255,255,255)"/></g></svg>