<?xml version="1.0" standalone="no"?><!-- Generator: Gravit.io --><svg xmlns="http://www.w3.org/2000/svg" xmlns:xlink="http://www.w3.org/1999/xlink" style="isolation:isolate" viewBox="169 284.914 37.639 31.365" width="37.639" height="31.365"><g id="espace"><path d=" M 206.638 298.479 L 206.638 296.679 C 206.64 296.651 206.64 296.624 206.638 296.596 C 206.638 296.596 206.638 296.586 206.638 296.581 C 206.638 296.558 206.632 296.536 206.627 296.514 L 206.627 296.497 C 206.622 296.476 206.616 296.455 206.61 296.435 L 206.603 296.415 C 206.596 296.396 206.589 296.378 206.581 296.36 L 206.581 296.352 L 203.046 288.667 L 203.046 285.698 C 203.046 285.265 202.695 284.914 202.262 284.914 L 173.391 284.914 C 172.958 284.914 172.607 285.265 172.607 285.698 L 172.607 288.663 L 169.072 296.35 L 169.072 296.358 C 169.064 296.376 169.057 296.395 169.05 296.413 L 169.043 296.433 C 169.036 296.453 169.031 296.474 169.026 296.495 C 169.026 296.501 169.026 296.506 169.026 296.512 C 169.026 296.534 169.018 296.556 169.015 296.579 C 169.015 296.579 169.015 296.589 169.015 296.594 C 169.014 296.622 169.014 296.649 169.015 296.677 L 169.015 298.477 C 169.019 300.598 170.536 302.415 172.622 302.797 L 172.622 314.711 L 169.784 314.711 C 169.504 314.711 169.245 314.86 169.105 315.103 C 168.965 315.346 168.965 315.644 169.105 315.887 C 169.245 316.13 169.504 316.279 169.784 316.279 L 205.854 316.279 C 206.134 316.279 206.393 316.13 206.533 315.887 C 206.673 315.644 206.673 315.346 206.533 315.103 C 206.393 314.86 206.134 314.711 205.854 314.711 L 203.031 314.711 L 203.031 302.799 C 205.117 302.417 206.634 300.6 206.638 298.479 Z  M 204.63 295.892 L 199.237 295.892 L 197.506 289.619 L 201.745 289.619 L 204.63 295.892 Z  M 192.207 296.604 L 191.564 289.619 L 195.878 289.619 L 197.609 295.892 L 194.672 295.892 C 194.239 295.892 193.888 296.243 193.888 296.676 C 193.888 297.109 194.239 297.46 194.672 297.46 L 197.856 297.46 L 197.856 298.479 C 197.856 300.038 196.592 301.302 195.033 301.302 C 193.474 301.302 192.21 300.038 192.21 298.479 L 192.21 296.679 C 192.21 296.65 192.209 296.628 192.207 296.604 Z  M 174.175 286.482 L 201.462 286.482 L 201.462 288.05 L 174.175 288.05 L 174.175 286.482 Z  M 187.924 295.892 L 185.071 295.892 L 185.648 289.619 L 189.989 289.619 L 190.642 296.712 L 190.642 298.48 C 190.642 300.039 189.378 301.303 187.819 301.303 C 186.26 301.303 184.996 300.039 184.996 298.48 L 184.996 297.46 L 187.924 297.46 C 188.204 297.46 188.463 297.311 188.603 297.068 C 188.743 296.825 188.743 296.527 188.603 296.284 C 188.463 296.041 188.204 295.892 187.924 295.892 L 187.924 295.892 Z  M 182.934 297.46 L 183.427 297.46 L 183.427 298.479 C 183.427 300.038 182.163 301.302 180.604 301.302 C 179.045 301.302 177.781 300.038 177.781 298.479 L 177.781 296.779 L 179.758 289.616 L 184.072 289.616 L 183.5 295.892 L 182.938 295.892 C 182.658 295.892 182.399 296.041 182.259 296.284 C 182.119 296.527 182.119 296.825 182.259 297.068 C 182.399 297.311 182.658 297.46 182.938 297.46 L 182.934 297.46 Z  M 170.568 298.479 L 170.568 297.46 L 172.691 297.46 C 172.971 297.46 173.23 297.311 173.37 297.068 C 173.51 296.825 173.51 296.527 173.37 296.284 C 173.23 296.041 172.971 295.892 172.691 295.892 L 171.008 295.892 L 173.894 289.619 L 178.132 289.619 L 176.242 296.467 C 176.223 296.535 176.214 296.605 176.214 296.676 L 176.214 298.476 C 176.214 300.035 174.95 301.299 173.391 301.299 C 171.832 301.299 170.568 300.035 170.568 298.476 L 170.568 298.479 Z  M 182.016 309.614 L 181.232 309.614 C 180.799 309.614 180.448 309.965 180.448 310.398 C 180.448 310.831 180.799 311.182 181.232 311.182 L 182.016 311.182 L 182.016 314.711 L 177.316 314.711 L 177.316 306.085 L 182.016 306.085 L 182.016 309.614 Z  M 201.462 314.714 L 183.585 314.714 L 183.585 305.304 C 183.585 304.871 183.234 304.52 182.801 304.52 L 176.527 304.52 C 176.094 304.52 175.743 304.871 175.743 305.304 L 175.743 314.714 L 174.175 314.714 L 174.175 302.799 C 175.32 302.59 176.336 301.936 177 300.98 C 177.819 302.164 179.167 302.871 180.607 302.871 C 182.047 302.871 183.395 302.164 184.214 300.98 C 185.033 302.164 186.381 302.871 187.821 302.871 C 189.261 302.871 190.609 302.164 191.428 300.98 C 192.247 302.164 193.595 302.871 195.035 302.871 C 196.475 302.871 197.823 302.164 198.642 300.98 C 199.305 301.936 200.32 302.59 201.465 302.8 L 201.462 314.714 Z  M 202.246 301.305 C 200.688 301.303 199.425 300.04 199.423 298.482 L 199.423 297.46 L 205.069 297.46 L 205.069 298.479 C 205.067 300.037 203.805 301.3 202.247 301.302 L 202.246 301.305 Z " fill="rgb(158,170,204)"/><path d=" M 199.11 304.517 L 185.937 304.517 C 185.504 304.517 185.153 304.868 185.153 305.301 L 185.153 312.358 C 185.153 312.791 185.504 313.142 185.937 313.142 L 199.11 313.142 C 199.543 313.142 199.894 312.791 199.894 312.358 L 199.894 305.301 C 199.894 305.275 199.894 305.249 199.894 305.223 C 199.894 305.212 199.894 305.202 199.894 305.191 C 199.894 305.18 199.894 305.161 199.887 305.147 C 199.88 305.133 199.881 305.122 199.878 305.11 C 199.875 305.098 199.872 305.085 199.868 305.072 C 199.864 305.059 199.86 305.048 199.856 305.037 C 199.852 305.026 199.848 305.012 199.842 305 C 199.836 304.988 199.832 304.979 199.827 304.968 C 199.822 304.957 199.816 304.943 199.809 304.93 C 199.802 304.917 199.798 304.91 199.792 304.901 C 199.786 304.892 199.778 304.876 199.77 304.864 L 199.748 304.834 C 199.74 304.824 199.733 304.813 199.725 304.803 C 199.717 304.793 199.696 304.77 199.681 304.754 L 199.673 304.746 L 199.665 304.739 C 199.649 304.724 199.633 304.708 199.616 304.694 L 199.586 304.672 L 199.554 304.649 L 199.519 304.628 L 199.488 304.61 L 199.451 304.592 L 199.418 304.577 L 199.382 304.564 L 199.346 304.551 L 199.31 304.542 L 199.272 304.533 L 199.23 304.527 L 199.196 304.527 C 199.168 304.522 199.139 304.519 199.11 304.517 L 199.11 304.517 Z  M 186.717 311.574 L 186.717 306.084 L 192.777 306.084 L 192.44 306.421 C 192.134 306.727 192.134 307.224 192.44 307.53 C 192.746 307.836 193.243 307.836 193.549 307.53 L 194.995 306.084 L 197.217 306.084 L 191.728 311.573 L 186.717 311.574 Z  M 198.317 311.574 L 193.937 311.574 L 198.317 307.194 L 198.317 311.574 Z " fill="rgb(158,170,204)"/><path d=" M 190.624 308.242 L 190.283 308.583 C 189.977 308.889 189.977 309.386 190.283 309.692 C 190.589 309.998 191.086 309.998 191.392 309.692 L 191.733 309.351 C 192.039 309.045 192.039 308.548 191.733 308.242 C 191.427 307.936 190.93 307.936 190.624 308.242 Z " fill="rgb(158,170,204)"/></g></svg>