<?xml version="1.0" standalone="no"?><!-- Generator: Gravit.io --><svg xmlns="http://www.w3.org/2000/svg" xmlns:xlink="http://www.w3.org/1999/xlink" style="isolation:isolate" viewBox="25.632 559 13.368 15.233" width="13.368" height="15.233"><g id="icon_user"><path d=" M 39 574.233 L 39 572.733 C 39.002 571.839 38.648 570.981 38.016 570.348 C 37.384 569.716 36.526 569.361 35.632 569.363 L 29 569.363 C 28.106 569.361 27.248 569.715 26.616 570.347 C 25.984 570.979 25.63 571.837 25.632 572.731 L 25.632 574.231" fill="rgb(255,255,255)"/><path d=" M 28.275 563.041 C 28.275 560.811 30.086 559 32.316 559 C 34.546 559 36.357 560.811 36.357 563.041 C 36.357 565.271 34.546 567.082 32.316 567.082 C 30.086 567.082 28.275 565.271 28.275 563.041 Z " fill="rgb(255,255,255)"/></g></svg>