<?xml version="1.0" standalone="no"?><!-- Generator: Gravit.io --><svg xmlns="http://www.w3.org/2000/svg" xmlns:xlink="http://www.w3.org/1999/xlink" style="isolation:isolate" viewBox="196.996 555 24.204 26.3" width="24.204" height="26.3"><g id="Icon_beego"><path d=" M 221.2 564.35 L 221.2 571.95 C 221.185 573.934 220.119 575.76 218.4 576.75 L 211.8 580.55 C 210.103 581.55 207.997 581.55 206.3 580.55 L 203.3 578.75 L 199.8 576.75 L 199.7 576.75 C 198.006 575.748 196.976 573.918 197 571.95 L 197 564.35 C 196.984 563.947 197.017 563.544 197.1 563.15 C 197.268 562.383 197.61 561.664 198.1 561.05 C 198.544 560.426 199.126 559.913 199.8 559.55 L 206.4 555.75 C 208.097 554.75 210.203 554.75 211.9 555.75 L 218.5 559.55 C 220.176 560.569 221.2 562.388 221.2 564.35 Z " fill="rgb(232,181,53)"/><path d=" M 218.3 565.25 L 218.3 571.05 C 218.312 572.544 217.506 573.925 216.2 574.65 L 211.2 577.55 C 209.914 578.35 208.286 578.35 207 577.55 L 204.7 576.25 L 202 574.75 L 201.9 574.75 C 200.612 574.006 199.813 572.637 199.8 571.15 L 199.8 565.35 C 199.784 565.047 199.818 564.742 199.9 564.45 C 200.029 563.877 200.267 563.334 200.6 562.85 C 201.015 562.394 201.486 561.991 202 561.65 L 207 558.75 C 208.286 557.95 209.914 557.95 211.2 558.75 L 216.2 561.65 C 217.506 562.375 218.312 563.756 218.3 565.25 Z " fill="rgb(255,255,255)"/><g id="Group_523"><path d=" M 215.4 567.15 C 214.7 566.35 210.2 564.15 209.4 563.75 L 209.6 563.35 L 209.1 563.65 L 208.6 563.35 L 208.8 563.75 C 208.4 563.95 207.2 564.55 205.9 565.25 C 204.797 565.762 203.757 566.4 202.8 567.15 C 202.399 567.585 202.184 568.159 202.2 568.75 C 202.22 569.353 202.471 569.926 202.9 570.35 C 203.335 570.751 203.909 570.966 204.5 570.95 L 204.5 570.95 C 205.103 570.93 205.676 570.679 206.1 570.25 L 206.3 570.05 C 206.518 571.087 207.353 571.882 208.4 572.05 L 208.5 572.05 L 209.1 573.05 L 209.7 572.05 L 209.8 572.05 C 210.251 571.975 210.669 571.766 211 571.45 C 211.48 571.083 211.802 570.546 211.9 569.95 C 212 570.05 212.1 570.15 212.1 570.25 C 212.525 570.737 213.155 570.996 213.8 570.95 C 214.388 570.948 214.956 570.735 215.4 570.35 C 215.887 569.925 216.146 569.295 216.1 568.65 C 216.058 568.081 215.809 567.547 215.4 567.15 Z  M 209.1 564.45 C 209.4 565.05 209.9 566.25 210.5 567.45 L 207.7 567.45 L 208.3 566.25 C 208.533 565.636 208.8 565.035 209.1 564.45 L 209.1 564.45 Z  M 206.9 569.05 C 207.017 568.808 207.15 568.574 207.3 568.35 L 207.3 568.35 C 207.3 568.25 207.4 568.15 207.4 568.05 L 210.8 568.05 C 210.987 568.373 211.154 568.707 211.3 569.05 L 206.9 569.05 Z  M 205.7 569.85 C 205.032 570.5 203.968 570.5 203.3 569.85 C 202.977 569.535 202.796 569.101 202.8 568.65 L 202.8 568.65 C 202.834 568.207 203.009 567.786 203.3 567.45 C 204.913 566.337 206.619 565.367 208.4 564.55 C 208.2 564.95 208 565.35 207.8 565.85 L 207.8 565.85 C 207.5 566.55 207.1 567.35 206.8 567.95 L 206.8 567.95 C 206.501 568.62 206.132 569.257 205.7 569.85 L 205.7 569.85 Z  M 210.6 571.05 C 210.131 571.378 209.572 571.553 209 571.55 C 207.878 571.603 206.911 570.768 206.8 569.65 L 211.3 569.65 L 211.3 569.85 C 211.293 570.345 211.027 570.8 210.6 571.05 Z  M 214.9 569.95 C 214.205 570.571 213.141 570.527 212.5 569.85 C 211.454 568.162 210.551 566.389 209.8 564.55 C 211.5 565.45 214.4 566.95 214.9 567.55 C 215.235 567.859 215.425 568.294 215.425 568.75 C 215.425 569.206 215.235 569.641 214.9 569.95 Z " fill="rgb(232,181,53)"/></g></g></svg>