<svg xmlns="http://www.w3.org/2000/svg" xmlns:xlink="http://www.w3.org/1999/xlink" width="11" height="15" viewBox="0 0 11 15"><defs><path id="i3a3a" d="M346.5 163.97v-9.21h-.58v9.2h.58zm-1.73-.01l-.28-9.21-.58.02.29 9.2zm3.46.02l.28-9.21-.57-.02-.29 9.2.58.03zm-.87-12.1c.32 0 .58.26.58.58v.57h-3.45v-.57c0-.32.25-.58.57-.58zm2.86 1.73l-.77 10.7a.87.87 0 0 1-.86.8h-4.76a.87.87 0 0 1-.86-.8l-.77-10.7zm-1.63 12.08c.75 0 1.38-.58 1.44-1.33l.77-10.75h.6v-.58h-2.89v-.57c0-.64-.51-1.15-1.15-1.15h-2.3c-.63 0-1.15.51-1.15 1.15v.57h-2.88v.58h.6l.77 10.75c.05.75.68 1.33 1.43 1.33z"/></defs><g><g transform="translate(-341 -151)"><use fill="#e63f40" xlink:href="#i3a3a"/></g></g></svg>