<svg xmlns="http://www.w3.org/2000/svg" xmlns:xlink="http://www.w3.org/1999/xlink" width="13" height="14" viewBox="0 0 13 14"><defs><path id="8daoa" d="M33.9 103.58a3.97 3.97 0 0 1-2.81-6.73 3.9 3.9 0 0 1 2.77-1.14 3.97 3.97 0 0 1 2.8 6.73 3.9 3.9 0 0 1-2.77 1.14zm7.39 2.42l-3.44-3.44a4.96 4.96 0 0 0-3.99-7.83 4.87 4.87 0 0 0-4.9 4.9 4.96 4.96 0 0 0 4.94 4.93c1.04 0 2.06-.32 2.9-.95l3.44 3.44a.74.74 0 1 0 1.05-1.05z"/></defs><g><g transform="translate(-29 -94)"><use fill="#8e8e93" xlink:href="#8daoa"/><use fill="#fff" fill-opacity="0" stroke="#000" stroke-miterlimit="50" xlink:href="#8daoa"/></g></g></svg>