<svg xmlns="http://www.w3.org/2000/svg" viewBox="0 0 21.971 18"><defs><style>.a{fill:#fff;}</style></defs><g transform="translate(0 -5.35)"><path class="a" d="M18.951,11.47a11.364,11.364,0,0,0-2.594-1.943L19.9,5.983a.371.371,0,0,0-.525-.525L15.657,9.177A11.331,11.331,0,0,0,2.947,11.47L0,14.417l3.02,3.02a11.364,11.364,0,0,0,2.492,1.885L2.118,22.716a.371.371,0,1,0,.525.525l3.56-3.56a11.337,11.337,0,0,0,12.821-2.244l2.947-2.947ZM6.057,18.777a10.611,10.611,0,0,1-2.512-1.865l-2.5-2.5,2.422-2.422A10.589,10.589,0,0,1,15.094,9.74ZM18.5,16.913A10.585,10.585,0,0,1,6.766,19.118l9.041-9.041A10.6,10.6,0,0,1,18.426,12l2.5,2.5Z"/><path class="a" d="M21.4,16.85a4.816,4.816,0,0,0-4.078,7.392L23.964,17.6A4.79,4.79,0,0,0,21.4,16.85Z" transform="translate(-10.421 -7.232)"/><path class="a" d="M22.459,29.41a4.819,4.819,0,0,0,6.674-6.674Z" transform="translate(-14.124 -10.934)"/></g></svg>