<svg xmlns="http://www.w3.org/2000/svg" viewBox="0 0 19 21.375">
  <defs>
    <style>
      .cls-1 {
        fill: #c1c1c1;
      }

      .cls-2 {
        fill: #d1d1d1;
      }

      .cls-3, .cls-5 {
        fill: #fff;
      }

      .cls-4, .cls-5 {
        stroke: none;
      }
    </style>
  </defs>
  <g id="Acceuil_icon" data-name="Acceuil icon" transform="translate(-50.567 -633.684)">
    <rect id="Rectangle_292" data-name="Rectangle 292" class="cls-1" width="13.303" height="17.777" rx="2" transform="translate(56.264 637.282)"/>
    <g id="Groupe_554" data-name="Groupe 554" transform="translate(50.567 636.344) rotate(-11)">
      <g id="Tracé_1196" data-name="Tracé 1196" class="cls-2" transform="translate(0 0)">
        <path class="cls-4" d="M 2.072799921035767 16.99864387512207 C 1.63431990146637 16.99864387512207 1.220629811286926 16.82535552978516 0.9079298377037048 16.51068496704102 C 0.5773898363113403 16.17806434631348 0.3970198631286621 15.72952461242676 0.4000398516654968 15.24768447875977 L 0.4815298616886139 2.245624542236328 C 0.4876598715782166 1.268494606018066 1.257429838180542 0.4685946106910706 2.197489976882935 0.4625146090984344 L 11.85645008087158 0.4000346064567566 L 11.86730003356934 0.4000045955181122 C 12.30577945709229 0.4000045955181122 12.71947002410889 0.5732945799827576 13.03217029571533 0.8879646062850952 C 13.36270999908447 1.220584630966187 13.54308986663818 1.669124603271484 13.54006958007813 2.150964498519897 L 13.45856952667236 15.15302467346191 C 13.45244026184082 16.13015365600586 12.6826696395874 16.9300537109375 11.74260997772217 16.93613433837891 L 2.083649873733521 16.99861526489258 L 2.072799921035767 16.99864387512207 Z"/>
        <path class="cls-5" d="M 2.072799921035767 16.5986442565918 L 2.081069946289063 16.59862518310547 L 11.74003028869629 16.5361442565918 C 12.46232032775879 16.53147506713867 13.05381965637207 15.90988445281982 13.05857944488525 15.1505241394043 L 13.14007949829102 2.148464679718018 C 13.14241981506348 1.773934602737427 13.00333976745605 1.426414608955383 12.74843978881836 1.169914603233337 C 12.51138973236084 0.9313746094703674 12.19845962524414 0.8000046014785767 11.86730003356934 0.8000046014785767 L 11.85902976989746 0.8000246286392212 L 2.200069904327393 0.8625046014785767 C 1.477779865264893 0.8671746253967285 0.8862798810005188 1.488764643669128 0.8815198540687561 2.248124599456787 L 0.8000298738479614 15.25019454956055 C 0.7976798415184021 15.62471485137939 0.9367698431015015 15.97223472595215 1.191659808158875 16.22873497009277 C 1.428709864616394 16.4672737121582 1.741639852523804 16.5986442565918 2.072799921035767 16.5986442565918 M 2.072802782058716 17.39864730834961 C 0.9193212985992432 17.39864730834961 -0.007431264501065016 16.43738174438477 4.985809209756553e-05 15.24517440795898 L 0.08153985440731049 2.243114709854126 C 0.08903985470533371 1.0463045835495 1.03521990776062 0.07002460956573486 2.194899797439575 0.06252460926771164 L 11.85385990142822 4.460784839466214e-05 C 11.85831928253174 1.576873728481587e-05 11.86284446716309 1.170349150925176e-06 11.86729717254639 1.170349150925176e-06 C 13.02077865600586 1.170349150925176e-06 13.94753074645996 0.9612665772438049 13.94005966186523 2.153474569320679 L 13.85855960845947 15.1555347442627 C 13.85105991363525 16.35234451293945 12.90487957000732 17.3286247253418 11.74520015716553 17.33612442016602 L 2.086239814758301 17.39860534667969 C 2.081780672073364 17.39863395690918 2.077255249023438 17.39864730834961 2.072802782058716 17.39864730834961 Z"/>
      </g>
      <path id="Tracé_1197" data-name="Tracé 1197" class="cls-3" d="M.634.049,8.193,0a.631.631,0,0,1,.626.646.65.65,0,0,1-.634.654L.626,1.349A.631.631,0,0,1,0,.7.65.65,0,0,1,.634.049Z" transform="translate(2.586 3.908)"/>
      <path id="Tracé_1198" data-name="Tracé 1198" class="cls-3" d="M.634.033,5.673,0A.631.631,0,0,1,6.3.646a.65.65,0,0,1-.634.654L.626,1.333A.631.631,0,0,1,0,.687.65.65,0,0,1,.634.033Z" transform="translate(2.57 6.524)"/>
    </g>
  </g>
</svg>
