<svg xmlns="http://www.w3.org/2000/svg" viewBox="0 0 31.112 18"><defs><style>.a{fill:#d1d1d1;}</style></defs><g transform="translate(0 -102.75)"><path class="a" d="M335.654,229.65A2.956,2.956,0,0,0,332.7,232.6a.708.708,0,0,0,1.417,0,1.55,1.55,0,0,1,1.544-1.544.705.705,0,1,0-.006-1.41Z" transform="translate(-311.471 -118.803)"/><path class="a" d="M29,108.812c-.172-.166-.357-.325-.549-.479h0l-2.616-2.221a6.864,6.864,0,0,0-3.509-1.257l.14.14-1.589-1.6h-.013a2.488,2.488,0,0,0-4.045,1.072,2.276,2.276,0,0,0-1.091-.351c-.064-.006-.134-.006-.2-.006a2.317,2.317,0,0,0-1.231.357,2.49,2.49,0,0,0-4.045-1.066h-.013L8.652,105l.14-.14a6.9,6.9,0,0,0-3.509,1.257l-2.616,2.22h0a5.561,5.561,0,0,0-.549.479,6.94,6.94,0,1,0,11.709,5.845,3.484,3.484,0,0,0,3.458,0,6.94,6.94,0,0,0,13.827-.861A6.881,6.881,0,0,0,29,108.812ZM6.942,118.542a4.734,4.734,0,1,1,4.734-4.734A4.733,4.733,0,0,1,6.942,118.542Zm8.62-5.385a1.538,1.538,0,1,1,1.538-1.538A1.539,1.539,0,0,1,15.563,113.157Zm8.62,5.385a4.734,4.734,0,1,1,4.734-4.734A4.733,4.733,0,0,1,24.183,118.542Z" transform="translate(0 0)"/><path class="a" d="M65.454,229.65A2.956,2.956,0,0,0,62.5,232.6a.708.708,0,1,0,1.417,0,1.55,1.55,0,0,1,1.544-1.544.705.705,0,1,0-.006-1.41Z" transform="translate(-58.512 -118.803)"/></g></svg>