<svg xmlns="http://www.w3.org/2000/svg" xmlns:xlink="http://www.w3.org/1999/xlink" viewBox="0 0 68 72.339">
  <defs>
    <style>
      .cls-1 {
        fill: #f22876;
      }

      .cls-2 {
        fill: #fff;
      }

      .cls-3 {
        filter: url(#sug1);
      }
    </style>
    <filter id="sug1" x="0" y="0" width="68" height="72.339" filterUnits="userSpaceOnUse">
      <feOffset dy="3" input="SourceAlpha"/>
      <feGaussianBlur stdDeviation="3" result="blur"/>
      <feFlood flood-color="#f22876" flood-opacity="0.388"/>
      <feComposite operator="in" in2="blur"/>
      <feComposite in="SourceGraphic"/>
    </filter>
  </defs>
  <g id="Icon_camera" data-name="Icon camera" transform="translate(-154 15)">
    <g class="cls-3" transform="matrix(1, 0, 0, 1, 154, -15)">
      <path id="sug1-2" data-name="sug1" class="cls-1" d="M50,19.268v15.7a11.547,11.547,0,0,1-5.785,9.917L30.579,52.739a11.191,11.191,0,0,1-11.364,0l-6.2-3.719L5.785,44.888H5.579A11.356,11.356,0,0,1,0,34.971v-15.7a10.059,10.059,0,0,1,.207-2.479A10.577,10.577,0,0,1,2.273,12.45a10.285,10.285,0,0,1,3.512-3.1L19.421,1.5a11.191,11.191,0,0,1,11.364,0L44.421,9.351A11.607,11.607,0,0,1,50,19.268Z" transform="translate(9 6.05)"/>
    </g>
    <g id="Groupe_756" data-name="Groupe 756" transform="translate(174.198 4.128)">
      <g id="Groupe_755" data-name="Groupe 755" transform="translate(2.091 2.191)">
        <path id="Tracé_1704" data-name="Tracé 1704" class="cls-2" d="M10.625,12,8.4,16.1l4.1-2.225A2.012,2.012,0,0,1,10.625,12Z" transform="translate(-0.671 -0.172)"/>
        <path id="Tracé_1705" data-name="Tracé 1705" class="cls-2" d="M12,11.4a.888.888,0,0,0-.468.234.608.608,0,0,0-.234.468.756.756,0,0,0,.7.7.888.888,0,0,0,.468-.234h0a.608.608,0,0,0,.234-.468Q12.53,11.4,12,11.4Z" transform="translate(-0.174 -0.274)"/>
        <path id="Tracé_1706" data-name="Tracé 1706" class="cls-2" d="M13.674,12.5,15.9,8.4l-4.1,2.225A2.012,2.012,0,0,1,13.674,12.5Z" transform="translate(-0.089 -0.788)"/>
        <path id="Tracé_1707" data-name="Tracé 1707" class="cls-2" d="M23.817,13.143H25.34A11.474,11.474,0,0,0,22.412,6h0a11.042,11.042,0,0,0-1.171-1.171h0a12.509,12.509,0,0,0-4.216-2.342A11.774,11.774,0,0,0,14.1,2.017V3.54a.586.586,0,0,1-1.171,0V1.9A11.71,11.71,0,0,0,1.8,13.143H3.322a.586.586,0,1,1,0,1.171H1.8A11.729,11.729,0,0,0,13.043,25.557V24.034a.586.586,0,1,1,1.171,0V25.44A11.729,11.729,0,0,0,25.457,14.2H23.934a.553.553,0,0,1-.586-.586C23.232,13.377,23.466,13.143,23.817,13.143ZM12.223,5.179c0-.234.117-.468.351-.468a.515.515,0,0,1,.586.117l.7.7V5.179a.586.586,0,1,1,1.171,0v1.64c0,.234-.117.468-.351.468A.515.515,0,0,1,14.1,7.17l-.7-.7v.351a.586.586,0,1,1-1.171,0ZM18.9,9.629,15.619,15.6a.252.252,0,0,1-.234.234L9.412,19.116a.7.7,0,0,1-.468.117,1.665,1.665,0,0,1-.7-.234.888.888,0,0,1-.117-1.171L11.4,11.855a.252.252,0,0,1,.234-.234h0L17.61,8.341a1.077,1.077,0,0,1,1.171.117A.888.888,0,0,1,18.9,9.629Z" transform="translate(-1.8 -1.9)"/>
      </g>
      <path id="Tracé_1708" data-name="Tracé 1708" class="cls-2" d="M13.8,27.722a13.761,13.761,0,1,1,13.7-13.7A13.72,13.72,0,0,1,13.8,27.722Zm0-26.585A12.882,12.882,0,1,0,26.685,14.019,12.845,12.845,0,0,0,13.8,1.137Z" transform="translate(0 0)"/>
    </g>
  </g>
</svg>
