<svg xmlns="http://www.w3.org/2000/svg" xmlns:xlink="http://www.w3.org/1999/xlink" viewBox="0 0 20 23.204">
  <defs>
    <style>
      .cls-1 {
        fill: url(#linear-gradient);
      }

      .cls-2 {
        fill: #fd8493;
      }
    </style>
    <linearGradient id="linear-gradient" x2="0" y2="1" gradientUnits="objectBoundingBox">
      <stop offset="0" stop-color="#fb4b7d"/>
      <stop offset="1" stop-color="#fe757b"/>
    </linearGradient>
  </defs>
  <g id="Notif_" data-name="Notif " transform="translate(-0.129 0)">
    <path id="Tracé_1704" data-name="Tracé 1704" class="cls-1" d="M19.633,14.811c-.094-.118-.165-.213-.26-.331a6.179,6.179,0,0,1-.567-.8,10.986,10.986,0,0,1-2.031-5.646,6.442,6.442,0,0,0-4.11-5.858c-.024,0-.024-.024-.047-.024a.1.1,0,0,1-.024-.071A2.511,2.511,0,0,0,10.114,0h0a2.555,2.555,0,0,0-2.5,2.079V2.15a.082.082,0,0,1-.047.024A6.549,6.549,0,0,0,3.429,8.15a9.126,9.126,0,0,1-1.181,4.134c-.5.85-1.063,1.7-1.654,2.528a2.293,2.293,0,0,0-.331,2.15,2.253,2.253,0,0,0,1.583,1.394H1.87a5.81,5.81,0,0,0,.685.165,29.64,29.64,0,0,0,4.394.567c0-.024,2.339.047,3.543.047.591,0,1.181.024,1.8,0,.283,0,.567-.024.827-.047h0a26.228,26.228,0,0,0,5.268-.756,2.25,2.25,0,0,0,1.63-1.441A2.206,2.206,0,0,0,19.633,14.811Z" transform="translate(0)"/>
    <path id="Tracé_1705" data-name="Tracé 1705" class="cls-2" d="M34.239,82.194c-.591.024-1.181,0-1.8,0-1.181,0-2.362-.024-3.543-.094,0,.024,0,.024.024.047a3.519,3.519,0,0,0,1.748,2.433,3.457,3.457,0,0,0,1.559.331h0a3.251,3.251,0,0,0,1.228-.236A3.442,3.442,0,0,0,35.3,82.147h-.236C34.805,82.171,34.522,82.171,34.239,82.194Z" transform="translate(-21.975 -61.707)"/>
  </g>
</svg>
