<svg xmlns="http://www.w3.org/2000/svg" xmlns:xlink="http://www.w3.org/1999/xlink" width="15" height="15" viewBox="0 0 15 15"><defs><path id="p5ena" d="M53.3 353.32H42.9c-1.03 0-1.9.87-1.9 1.89v10.33c0 1.09.87 1.89 1.9 1.89h5.08v-5.1h-1.23a.31.31 0 0 1-.3-.28v-1.6c0-.15.15-.3.3-.3h1.3v-1.52c0-1.82 1.1-2.84 2.77-2.84h1.3c.15 0 .3.15.3.3v1.37c0 .15-.15.3-.3.3h-.8c-.87 0-1.08.43-1.08 1.01v1.38h1.96c.22 0 .36.15.3.37l-.23 1.6c0 .14-.14.29-.29.29h-1.74v5.09h3.05c1.1 0 1.9-.87 1.9-1.9v-10.4c0-1-.88-1.88-1.9-1.88z"/></defs><g><g transform="translate(-41 -353)"><use fill="#43538b" xlink:href="#p5ena"/></g></g></svg>