<svg xmlns="http://www.w3.org/2000/svg" viewBox="0 0 19.135 19.058">
  <defs>
    <style>
      .cls-1 {
        fill: #fff;
      }

      .cls-2 {
        fill: rgba(255,255,255,0.86);
      }
    </style>
  </defs>
  <g id="Parametre" transform="translate(-328.833 -37.821)">
    <g id="Groupe_314" data-name="Groupe 314" transform="translate(328.832 37.821)">
      <path id="Tracé_779" data-name="Tracé 779" class="cls-1" d="M18.132,7.562,16.821,7.33a9.412,9.412,0,0,0-.54-1.312l.772-1.08A1.187,1.187,0,0,0,16.9,3.395L15.74,2.238a1.16,1.16,0,0,0-.849-.309,1.245,1.245,0,0,0-.694.231l-1.08.772a9.413,9.413,0,0,0-1.312-.54L11.574,1.08A1.237,1.237,0,0,0,10.339,0h-1.7A1.16,1.16,0,0,0,7.484,1L7.253,2.315c-.463.154-.849.386-1.312.54l-1.08-.772a.943.943,0,0,0-.694-.231.95.95,0,0,0-.772.386L2.16,3.395a1.279,1.279,0,0,0-.154,1.543L2.778,6.1c-.154.386-.309.772-.463,1.235L1,7.562A1.16,1.16,0,0,0,0,8.719v1.7a1.16,1.16,0,0,0,1,1.157l1.312.231a9.412,9.412,0,0,0,.54,1.312L2.083,14.2a1.187,1.187,0,0,0,.154,1.543L3.395,16.9a1.16,1.16,0,0,0,.849.309,1.245,1.245,0,0,0,.694-.231L6.1,16.2a8.573,8.573,0,0,0,1.235.54l.231,1.312a1.233,1.233,0,0,0,1.157,1h1.7a1.16,1.16,0,0,0,1.157-1l.231-1.312a9.412,9.412,0,0,0,1.312-.54l1.08.772a1.245,1.245,0,0,0,.694.231,1.618,1.618,0,0,0,.849-.309L16.9,15.74a1.279,1.279,0,0,0,.154-1.543l-.772-1.08a6.675,6.675,0,0,0,.54-1.312l1.312-.231a1.233,1.233,0,0,0,1-1.157v-1.7a1.241,1.241,0,0,0-1-1.157Zm-.154,2.855c0,.077,0,.077-.077.077l-1.62.309a.489.489,0,0,0-.463.386,6.549,6.549,0,0,1-.694,1.7.845.845,0,0,0,0,.617l1,1.389v.154L14.969,16.2h-.154l-1.389-1a.467.467,0,0,0-.617,0,6.549,6.549,0,0,1-1.7.694.489.489,0,0,0-.386.463l-.309,1.7a.076.076,0,0,1-.077.077h-1.7c-.077,0-.077,0-.077-.077l-.309-1.7a.489.489,0,0,0-.386-.463A6.047,6.047,0,0,1,6.25,15.2c-.077-.077-.154-.077-.309-.077a.464.464,0,0,0-.309.077l-1.312,1H4.167L3.009,15.046a.107.107,0,0,1,0-.154l1-1.389a.467.467,0,0,0,0-.617,6.549,6.549,0,0,1-.694-1.7.79.79,0,0,0-.463-.386l-1.7-.309a.076.076,0,0,1-.077-.077v-1.7c0-.077,0-.077.077-.077l1.7-.309a.489.489,0,0,0,.463-.386,6.549,6.549,0,0,1,.694-1.7.845.845,0,0,0,0-.617L2.932,4.321V4.167L4.089,3.009h.154l1.389,1a.467.467,0,0,0,.617,0,6.549,6.549,0,0,1,1.7-.694.489.489,0,0,0,.386-.463l.309-1.7a.076.076,0,0,1,.077-.077h1.7c.077,0,.077,0,.077.077l.309,1.7a.489.489,0,0,0,.386.463,6.549,6.549,0,0,1,1.7.694.845.845,0,0,0,.617,0l1.389-1h.154L16.2,4.167a.107.107,0,0,1,0,.154l-1,1.389a.467.467,0,0,0,0,.617,6.549,6.549,0,0,1,.694,1.7.489.489,0,0,0,.463.386l1.7.309a.076.076,0,0,1,.077.077l-.154,1.62Zm0,0"/>
    </g>
    <path id="Tracé_780" data-name="Tracé 780" class="cls-2" d="M11.167,7a4.129,4.129,0,1,0,4.012,4.167A4.021,4.021,0,0,0,11.167,7Zm0,7.176a3.009,3.009,0,1,1,3.009-3.009,3.064,3.064,0,0,1-3.009,3.009Zm0,0" transform="translate(327.233 36.222)"/>
  </g>
</svg>
