<svg xmlns="http://www.w3.org/2000/svg" xmlns:xlink="http://www.w3.org/1999/xlink" width="16" height="16" viewBox="0 0 16 16"><defs><path id="x6toa" d="M261.58 362.62c-.04.07-.12.15-.27.22-.2.1-.52.18-.93.24a.2.2 0 0 0-.1.07l-.06.24-.01.06-.04.16c-.03.07-.06.1-.14.1l-.2-.02c-.14-.03-.31-.06-.54-.06-.13 0-.26.01-.38.03-.27.05-.5.2-.75.38-.34.23-.71.5-1.29.5h-.09-.02c-.58 0-.95-.27-1.3-.5-.24-.16-.46-.33-.74-.38a2.04 2.04 0 0 0-.39-.03c-.22 0-.4.03-.52.06h-.01a1.1 1.1 0 0 1-.2.02c-.08 0-.13-.02-.15-.1a.7.7 0 0 1-.09-.2l-.01-.04c-.03-.1-.04-.2-.08-.24a.1.1 0 0 0-.08-.06 4.18 4.18 0 0 1-.94-.24c-.14-.06-.24-.14-.28-.21v-.06-.03c.04-.05.07-.07.1-.09a2.57 2.57 0 0 0 1.51-.9c.33-.37.5-.73.52-.79v-.01c.08-.16.1-.31.05-.43-.1-.22-.4-.32-.61-.38l-.04-.01-.1-.04a1.06 1.06 0 0 1-.33-.19c-.1-.09-.1-.17-.1-.22a.3.3 0 0 1 .15-.19c.12-.06.27-.09.35-.04.29.14.53.18.7.09a.14.14 0 0 0 .08-.12l-.02-.23v-.01c-.03-.65-.08-1.46.12-1.92a2.34 2.34 0 0 1 1.26-1.27c.45-.2.86-.22 1.07-.22h.2a2.67 2.67 0 0 1 1.75.67c.24.22.44.5.58.82.21.46.15 1.27.11 1.9v.04l-.01.14v.06c0 .05.02.1.07.13a.4.4 0 0 0 .18.03h.02c.14 0 .29-.05.45-.12.06-.02.13-.02.15-.02.06 0 .11 0 .18.03.13.05.23.15.23.25 0 .04 0 .1-.08.18a1.22 1.22 0 0 1-.44.23l-.04.02c-.2.06-.51.16-.61.38-.05.11-.04.26.05.44l.01.02c.11.25.74 1.47 2.03 1.68a.1.1 0 0 1 .08.12v.06zm-.79-10.43h-7.85a3.95 3.95 0 0 0-3.94 3.94v7.83a3.95 3.95 0 0 0 3.94 3.93h7.85a3.95 3.95 0 0 0 3.95-3.94v-7.82a3.95 3.95 0 0 0-3.95-3.94z"/></defs><g><g transform="translate(-249 -352)"><use fill="#fffb01" xlink:href="#x6toa"/></g></g></svg>