<svg xmlns="http://www.w3.org/2000/svg" viewBox="0 0 27.603 27.603">
  <defs>
    <style>
      .cls-1 {
        fill: rgba(0,0,0,0.6);
      }

      .cls-2 {
        fill: #fff;
      }
    </style>
  </defs>
  <g id="Changer_du_photo" data-name="Changer du photo" transform="translate(-204 -166)">
    <circle id="Ellipse_2546" data-name="Ellipse 2546" class="cls-1" cx="13.802" cy="13.802" r="13.802" transform="translate(204 166)"/>
    <g id="Groupe_530" data-name="Groupe 530" transform="translate(211.729 174.833)">
      <path id="Tracé_1133" data-name="Tracé 1133" class="cls-2" d="M6.136,3.689A1.844,1.844,0,1,0,7.981,5.533,1.846,1.846,0,0,0,6.136,3.689Zm4.912-1.844H9.584A.544.544,0,0,1,9.1,1.5L8.7.345A.544.544,0,0,0,8.222,0H4.051a.544.544,0,0,0-.483.345L3.189,1.482a.544.544,0,0,1-.483.345H1.224A1.229,1.229,0,0,0,0,3.051V8.567A1.236,1.236,0,0,0,1.224,9.825h9.825A1.229,1.229,0,0,0,12.273,8.6V3.085a1.232,1.232,0,0,0-1.224-1.241ZM6.136,8.584A3.068,3.068,0,1,1,9.2,5.516,3.075,3.075,0,0,1,6.136,8.584ZM10.618,3.93a.431.431,0,1,1,.431-.431.427.427,0,0,1-.431.431Zm0,0" transform="translate(0)"/>
    </g>
  </g>
</svg>
