<svg xmlns="http://www.w3.org/2000/svg" viewBox="0 0 9.593 11.608">
  <defs>
    <style>
      .cls-1 {
        fill: none;
        stroke: #8e8e93;
        stroke-miterlimit: 10;
        stroke-width: 0.8px;
        fill-rule: evenodd;
      }
    </style>
  </defs>
  <path id="Tracé_760" data-name="Tracé 760" class="cls-1" d="M9.993,5.539a4.4,4.4,0,0,0-8.793,0,4.328,4.328,0,0,0,1.133,2.88C3.024,9.205,5,11.7,5,11.7a.711.711,0,0,0,.6.307.782.782,0,0,0,.576-.269s2-2.515,2.688-3.321a4.465,4.465,0,0,0,1.133-2.88ZM5.6,7.919A2.381,2.381,0,1,1,8.015,5.539,2.4,2.4,0,0,1,5.6,7.919Zm0,.5" transform="translate(-0.8 -0.8)"/>
</svg>
