<?xml version="1.0" standalone="no"?><!-- Generator: Gravit.io --><svg xmlns="http://www.w3.org/2000/svg" xmlns:xlink="http://www.w3.org/1999/xlink" style="isolation:isolate" viewBox="246.543 324.473 18.136 18.127" width="18.136" height="18.127"><g id="clock_1_"><path d=" M 263.864 330.045 C 262.967 327.888 261.249 326.177 259.088 325.289 C 257.985 324.815 256.797 324.572 255.597 324.573 C 254.399 324.57 253.214 324.814 252.115 325.289 C 249.96 326.181 248.246 327.891 247.349 330.045 C 246.407 332.274 246.407 334.789 247.349 337.018 C 248.245 339.174 249.959 340.888 252.115 341.784 C 253.214 342.259 254.399 342.503 255.596 342.5 C 256.796 342.501 257.984 342.258 259.087 341.784 C 261.249 340.892 262.967 339.178 263.863 337.018 C 264.818 334.792 264.818 332.271 263.863 330.045 L 263.864 330.045 Z  M 262.432 337.489 C 261.74 338.683 260.745 339.674 259.549 340.362 C 258.351 341.064 256.986 341.43 255.597 341.421 C 254.545 341.426 253.502 341.212 252.537 340.793 C 251.601 340.398 250.749 339.829 250.026 339.116 C 249.311 338.391 248.742 337.535 248.349 336.596 C 247.935 335.626 247.725 334.581 247.731 333.526 C 247.721 332.142 248.083 330.78 248.781 329.584 C 249.471 328.391 250.462 327.401 251.655 326.711 C 252.849 326.008 254.211 325.642 255.597 325.652 C 256.986 325.643 258.351 326.009 259.549 326.711 C 260.745 327.4 261.739 328.391 262.432 329.584 C 263.135 330.778 263.501 332.14 263.491 333.526 C 263.501 334.918 263.135 336.287 262.432 337.489 L 262.432 337.489 Z " fill="rgb(158,170,204)" vector-effect="non-scaling-stroke" stroke-width="0.2" stroke="rgb(50,59,88)" stroke-linejoin="miter" stroke-linecap="butt" stroke-miterlimit="4"/><path d=" M 256.164 333.448 L 256.164 328.368 C 256.155 328.061 255.902 327.817 255.595 327.819 C 255.297 327.827 255.058 328.07 255.056 328.368 L 255.056 333.526 C 255.065 333.551 255.072 333.577 255.076 333.604 C 255.052 333.766 255.106 333.93 255.223 334.045 L 258.155 336.977 C 258.368 337.173 258.697 337.173 258.91 336.977 C 259.014 336.877 259.074 336.739 259.074 336.595 C 259.074 336.45 259.014 336.312 258.91 336.212 L 256.164 333.448 Z " fill="rgb(158,170,204)"/></g></svg>