<?xml version="1.0" standalone="no"?><!-- Generator: Gravit.io --><svg xmlns="http://www.w3.org/2000/svg" xmlns:xlink="http://www.w3.org/1999/xlink" style="isolation:isolate" viewBox="151.685 325.03 16 16.466" width="16" height="16.466"><g id="Date_icon"><path d=" M 166.185 326.218 L 165.927 326.218 L 165.927 325.805 C 165.94 325.596 165.862 325.392 165.715 325.244 C 165.567 325.096 165.363 325.019 165.154 325.031 C 164.953 325.03 164.76 325.112 164.623 325.26 C 164.486 325.407 164.417 325.604 164.432 325.805 L 164.432 326.218 L 162.264 326.218 L 162.264 325.805 C 162.277 325.392 161.954 325.046 161.541 325.031 C 161.335 325.027 161.135 325.107 160.989 325.253 C 160.843 325.399 160.763 325.599 160.767 325.805 L 160.767 326.218 L 158.6 326.218 L 158.6 325.805 C 158.617 325.536 158.484 325.279 158.253 325.139 C 158.022 324.999 157.733 324.999 157.502 325.139 C 157.271 325.279 157.138 325.536 157.155 325.805 L 157.155 326.218 L 154.985 326.218 L 154.985 325.805 C 154.989 325.599 154.909 325.4 154.764 325.255 C 154.618 325.109 154.42 325.028 154.214 325.031 C 154.008 325.027 153.808 325.107 153.662 325.253 C 153.516 325.399 153.436 325.599 153.44 325.805 L 153.44 326.218 L 153.185 326.218 C 152.358 326.218 151.687 326.887 151.685 327.714 L 151.685 339.996 C 151.685 340.824 152.357 341.496 153.185 341.496 L 166.185 341.496 C 167.013 341.496 167.685 340.824 167.685 339.996 L 167.685 327.714 C 167.693 327.314 167.538 326.928 167.255 326.646 C 166.971 326.363 166.585 326.209 166.185 326.218 L 166.185 326.218 Z  M 164.947 325.805 C 164.934 325.677 165.026 325.563 165.153 325.547 C 165.223 325.543 165.291 325.569 165.34 325.618 C 165.389 325.667 165.415 325.735 165.411 325.805 L 165.411 327.456 C 165.403 327.566 165.315 327.654 165.205 327.662 C 165.077 327.675 164.963 327.583 164.947 327.456 L 164.947 325.805 Z  M 161.285 325.805 C 161.294 325.667 161.403 325.557 161.541 325.547 C 161.696 325.547 161.747 325.647 161.747 325.805 L 161.747 327.456 C 161.739 327.566 161.651 327.654 161.541 327.662 C 161.441 327.662 161.283 327.562 161.283 327.456 L 161.285 325.805 Z  M 157.621 325.805 C 157.621 325.663 157.737 325.547 157.879 325.547 C 158.021 325.547 158.137 325.663 158.137 325.805 L 158.137 327.456 C 158.129 327.566 158.041 327.654 157.931 327.662 C 157.831 327.662 157.673 327.562 157.673 327.456 L 157.673 325.805 L 157.621 325.805 Z  M 153.957 325.805 C 153.953 325.736 153.979 325.668 154.028 325.618 C 154.077 325.569 154.145 325.543 154.214 325.547 C 154.284 325.543 154.352 325.569 154.401 325.618 C 154.45 325.667 154.476 325.735 154.472 325.805 L 154.472 327.456 C 154.456 327.583 154.342 327.675 154.214 327.662 C 154.086 327.675 153.972 327.583 153.956 327.456 L 153.957 325.805 Z  M 166.957 339.945 C 166.946 340.368 166.606 340.708 166.183 340.719 L 153.185 340.719 C 152.762 340.708 152.422 340.368 152.411 339.945 L 152.411 329.675 L 166.96 329.675 L 166.957 339.945 Z  M 166.957 328.902 L 152.407 328.902 L 152.407 327.714 C 152.418 327.289 152.76 326.948 153.185 326.94 L 153.443 326.94 L 153.443 327.456 C 153.454 327.879 153.794 328.219 154.217 328.23 C 154.638 328.216 154.975 327.877 154.985 327.456 L 154.985 326.94 L 157.155 326.94 L 157.155 327.456 C 157.16 327.862 157.473 328.197 157.877 328.23 C 158.3 328.219 158.64 327.879 158.651 327.456 L 158.651 326.94 L 160.819 326.94 L 160.819 327.456 C 160.83 327.879 161.17 328.219 161.593 328.23 C 162.006 328.215 162.328 327.869 162.315 327.456 L 162.315 326.94 L 164.485 326.94 L 164.485 327.456 C 164.485 327.87 164.821 328.206 165.235 328.206 C 165.649 328.206 165.985 327.87 165.985 327.456 L 165.985 326.94 L 166.243 326.94 C 166.666 326.951 167.006 327.291 167.017 327.714 L 167.017 328.901 L 166.957 328.902 Z " fill="rgb(158,170,204)"/><path d=" M 153.749 338.345 C 153.749 337.775 154.211 337.313 154.781 337.313 C 155.351 337.313 155.813 337.775 155.813 338.345 C 155.813 338.915 155.351 339.377 154.781 339.377 C 154.211 339.377 153.749 338.915 153.749 338.345 Z " fill="rgb(158,170,204)"/><line x1="154.185" y1="332.851" x2="164.185" y2="332.851" vector-effect="non-scaling-stroke" stroke-width="0.5" stroke="rgb(158,170,204)" stroke-linejoin="miter" stroke-linecap="butt" stroke-miterlimit="4"/><line x1="154.185" y1="334.851" x2="161.185" y2="334.851" vector-effect="non-scaling-stroke" stroke-width="0.5" stroke="rgb(158,170,204)" stroke-linejoin="miter" stroke-linecap="butt" stroke-miterlimit="4"/></g></svg>