<?xml version="1.0" standalone="no"?><!-- Generator: Gravit.io --><svg xmlns="http://www.w3.org/2000/svg" xmlns:xlink="http://www.w3.org/1999/xlink" style="isolation:isolate" viewBox="167.831 690.334 39.681 28.984" width="39.681" height="28.984"><g id="Icon_images-2"><g id="Group_526-2"><g id="Group_525-2"><path d=" M 200.85 690.334 L 177.313 690.334 C 176.435 690.326 175.592 690.672 174.971 691.292 C 174.351 691.913 174.005 692.756 174.013 693.634 L 174.013 694.784 L 170.256 695.784 C 169.419 696.013 168.704 696.562 168.266 697.311 C 167.824 698.049 167.713 698.94 167.96 699.764 L 172.56 716.864 C 172.792 717.704 173.344 718.419 174.098 718.855 C 174.581 719.157 175.139 719.317 175.708 719.315 C 175.991 719.327 176.275 719.302 176.551 719.238 L 191.498 715.251 L 200.852 715.251 C 202.67 715.24 204.141 713.769 204.152 711.951 L 204.152 693.634 C 204.16 692.756 203.814 691.913 203.194 691.292 C 202.573 690.672 201.73 690.326 200.852 690.334 L 200.85 690.334 Z  M 176.163 717.934 C 175.643 718.092 175.08 718.007 174.63 717.704 C 174.165 717.442 173.831 716.997 173.71 716.477 L 169.11 699.377 C 168.952 698.857 169.037 698.294 169.34 697.844 C 169.602 697.379 170.047 697.045 170.567 696.924 L 174.017 696.004 L 174.017 711.874 C 174.028 713.692 175.499 715.163 177.317 715.174 L 186.441 715.174 L 176.163 717.934 Z  M 202.844 711.954 C 202.824 713.046 201.943 713.927 200.851 713.947 L 177.313 713.947 C 176.221 713.927 175.34 713.046 175.32 711.954 L 175.32 693.634 C 175.336 692.539 176.218 691.654 177.313 691.634 L 200.85 691.634 C 201.945 691.653 202.828 692.538 202.844 693.634 L 202.844 702.911 L 199.698 699.764 C 199.461 699.507 199.127 699.362 198.778 699.362 C 198.429 699.362 198.095 699.507 197.858 699.764 L 190.345 707.201 L 190.345 707.201 L 186.59 703.444 C 186.063 702.984 185.277 702.984 184.75 703.444 L 181.53 706.664 C 181.355 706.826 181.283 707.071 181.342 707.302 C 181.401 707.533 181.581 707.713 181.812 707.772 C 182.043 707.831 182.288 707.759 182.45 707.584 L 185.67 704.364 L 189.427 708.121 L 189.427 708.121 L 186.743 710.804 C 186.513 711.068 186.513 711.46 186.743 711.724 C 186.852 711.869 187.022 711.954 187.203 711.954 C 187.384 711.954 187.554 711.869 187.663 711.724 L 198.703 700.684 L 202.613 704.594 C 202.654 704.636 202.708 704.663 202.766 704.671 L 202.766 711.954 L 202.844 711.954 Z " fill="rgb(230,231,232)"/></g><path d=" M 179.92 708.198 L 179.307 708.811 C 179.077 709.075 179.077 709.467 179.307 709.731 C 179.416 709.876 179.586 709.961 179.767 709.961 C 179.948 709.961 180.118 709.876 180.227 709.731 L 180.917 709.041 C 181.147 708.777 181.147 708.385 180.917 708.121 C 180.597 707.953 180.208 707.983 179.917 708.198 L 179.92 708.198 Z " fill="rgb(230,231,232)"/><path d=" M 184.519 697.544 C 184.519 695.721 183.042 694.244 181.219 694.244 C 179.396 694.244 177.919 695.721 177.919 697.544 C 177.919 699.367 179.396 700.844 181.219 700.844 C 183.037 700.833 184.508 699.362 184.519 697.544 Z  M 181.219 699.461 C 180.119 699.459 179.229 698.566 179.23 697.467 C 179.231 696.367 180.122 695.476 181.222 695.475 C 182.321 695.474 183.214 696.364 183.216 697.464 C 183.22 697.993 183.011 698.502 182.637 698.876 C 182.264 699.251 181.755 699.46 181.226 699.457 L 181.219 699.461 Z " fill="rgb(230,231,232)"/></g><path d=" M 195.818 712.415 C 195.818 709.326 198.326 706.818 201.415 706.818 C 204.504 706.818 207.012 709.326 207.012 712.415 C 207.012 715.504 204.504 718.012 201.415 718.012 C 198.326 718.012 195.818 715.504 195.818 712.415 Z " fill="rgb(242,40,118)" vector-effect="non-scaling-stroke" stroke-width="1" stroke="rgb(230,231,232)" stroke-linejoin="round" stroke-linecap="round" stroke-miterlimit="10"/><g id="Group_527-2"><line x1="199.268" y1="712.721" x2="204.175" y2="712.721" vector-effect="non-scaling-stroke" stroke-width="1" stroke="rgb(255,255,255)" stroke-linejoin="round" stroke-linecap="round" stroke-miterlimit="10"/><line x1="201.721" y1="710.268" x2="201.721" y2="715.175" vector-effect="non-scaling-stroke" stroke-width="1" stroke="rgb(255,255,255)" stroke-linejoin="round" stroke-linecap="round" stroke-miterlimit="10"/></g></g></svg>