<?xml version="1.0" standalone="no"?><!-- Generator: Gravit.io --><svg xmlns="http://www.w3.org/2000/svg" xmlns:xlink="http://www.w3.org/1999/xlink" style="isolation:isolate" viewBox="290 472.002 19.82 13.995" width="19.82" height="13.995"><g id="Group_889"><path d=" M 309.693 478.806 L 309.693 478.806 L 308.636 476.553 C 308.6 476.479 308.511 476.446 308.436 476.48 C 308.049 476.661 307.589 476.5 307.4 476.117 C 307.312 475.929 307.303 475.714 307.375 475.519 C 307.446 475.325 307.593 475.167 307.782 475.081 C 307.856 475.045 307.889 474.956 307.855 474.881 L 306.804 472.629 L 306.804 472.629 C 306.553 472.087 305.911 471.851 305.369 472.102 L 290.436 479.096 C 290.939 479.82 291.28 480.644 291.436 481.512 C 291.548 482.13 291.615 482.755 291.636 483.383 C 291.586 483.79 291.642 484.204 291.8 484.583 L 291.8 484.583 C 292.708 484.619 293.635 484.583 294.543 484.583 C 296.261 484.441 297.99 484.471 299.702 484.674 L 309.149 480.241 C 309.415 480.127 309.622 479.909 309.725 479.639 C 309.828 479.368 309.816 479.068 309.693 478.806 Z " fill="rgb(63,74,110)"/><path d=" M 309.657 480.731 C 309.7 480.731 309.742 480.714 309.773 480.683 C 309.803 480.652 309.82 480.61 309.82 480.567 L 309.82 478.097 L 309.82 478.097 C 309.818 477.496 309.331 477.009 308.73 477.007 L 291.09 477.007 C 290.489 477.009 290.002 477.496 290 478.097 L 290 480.568 C 290 480.612 290.017 480.653 290.048 480.684 C 290.079 480.715 290.12 480.732 290.164 480.732 C 290.443 480.732 290.701 480.881 290.84 481.122 C 290.98 481.364 290.98 481.662 290.84 481.904 C 290.701 482.145 290.443 482.294 290.164 482.294 C 290.121 482.294 290.079 482.311 290.048 482.341 C 290.017 482.372 290 482.414 290 482.457 L 290 484.907 C 290.002 485.508 290.489 485.995 291.09 485.997 L 308.73 485.997 C 309.331 485.995 309.818 485.508 309.82 484.907 L 309.82 484.907 L 309.82 482.439 C 309.82 482.396 309.803 482.354 309.773 482.323 C 309.742 482.292 309.7 482.275 309.657 482.275 C 309.231 482.275 308.885 481.929 308.885 481.503 C 308.885 481.077 309.231 480.731 309.657 480.731 Z " fill="rgb(122,130,165)"/><path d=" M 305.641 477.643 C 305.598 477.643 305.556 477.66 305.525 477.691 C 305.495 477.722 305.478 477.764 305.478 477.807 L 305.478 478.279 C 305.473 478.34 305.503 478.399 305.556 478.432 C 305.608 478.464 305.675 478.464 305.727 478.432 C 305.78 478.399 305.81 478.34 305.805 478.279 L 305.805 477.807 C 305.793 477.722 305.726 477.655 305.641 477.643 L 305.641 477.643 Z " fill="rgb(255,255,255)"/><path d=" M 305.641 480.895 C 305.598 480.895 305.556 480.912 305.525 480.943 C 305.495 480.974 305.478 481.016 305.478 481.059 L 305.478 481.986 C 305.473 482.047 305.503 482.106 305.556 482.139 C 305.608 482.171 305.675 482.171 305.727 482.139 C 305.78 482.106 305.81 482.047 305.805 481.986 L 305.805 481.059 C 305.793 480.974 305.726 480.907 305.641 480.895 L 305.641 480.895 Z " fill="rgb(255,255,255)"/><path d=" M 305.641 479.042 C 305.598 479.042 305.556 479.059 305.525 479.09 C 305.495 479.121 305.478 479.163 305.478 479.206 L 305.478 480.133 C 305.473 480.194 305.503 480.253 305.556 480.286 C 305.608 480.318 305.675 480.318 305.727 480.286 C 305.78 480.253 305.81 480.194 305.805 480.133 L 305.805 479.206 C 305.8 479.118 305.729 479.047 305.641 479.042 L 305.641 479.042 Z " fill="rgb(255,255,255)"/><path d=" M 305.641 482.748 C 305.551 482.748 305.478 482.821 305.478 482.911 L 305.478 483.838 C 305.473 483.899 305.503 483.958 305.556 483.991 C 305.608 484.023 305.675 484.023 305.727 483.991 C 305.78 483.958 305.81 483.899 305.805 483.838 L 305.805 482.911 C 305.793 482.826 305.726 482.76 305.641 482.748 Z " fill="rgb(255,255,255)"/><path d=" M 305.641 484.601 C 305.551 484.601 305.478 484.674 305.478 484.764 L 305.478 485.236 C 305.473 485.297 305.503 485.356 305.556 485.389 C 305.608 485.421 305.675 485.421 305.727 485.389 C 305.78 485.356 305.81 485.297 305.805 485.236 L 305.805 484.764 C 305.793 484.679 305.726 484.613 305.641 484.601 Z " fill="rgb(255,255,255)"/><path d=" M 306.878 477.952 C 306.834 477.952 306.793 477.969 306.762 478 C 306.731 478.031 306.714 478.072 306.714 478.116 L 306.714 484.91 C 306.721 484.995 306.792 485.061 306.878 485.061 C 306.963 485.061 307.034 484.995 307.041 484.91 L 307.041 478.097 C 307.022 478.02 306.957 477.962 306.878 477.952 L 306.878 477.952 Z " fill="rgb(255,255,255)"/><path d=" M 294.342 481.077 C 294.349 481.162 294.42 481.228 294.506 481.228 C 294.591 481.228 294.662 481.162 294.669 481.077 L 294.669 479.369 L 295.142 479.369 C 295.203 479.374 295.262 479.344 295.295 479.291 C 295.327 479.239 295.327 479.172 295.295 479.12 C 295.262 479.067 295.203 479.037 295.142 479.042 L 293.906 479.042 C 293.845 479.037 293.786 479.067 293.753 479.12 C 293.721 479.172 293.721 479.239 293.753 479.291 C 293.786 479.344 293.845 479.374 293.906 479.369 L 294.378 479.369 L 294.378 481.077 L 294.342 481.077 Z " fill="rgb(255,255,255)"/><path d=" M 302.7 479.06 L 301.464 479.06 C 301.403 479.055 301.344 479.085 301.311 479.138 C 301.279 479.19 301.279 479.257 301.311 479.309 C 301.344 479.362 301.403 479.392 301.464 479.387 L 301.936 479.387 L 301.936 481.095 C 301.931 481.156 301.961 481.215 302.014 481.248 C 302.066 481.28 302.133 481.28 302.185 481.248 C 302.238 481.215 302.268 481.156 302.263 481.095 L 302.263 479.387 L 302.735 479.387 C 302.779 479.387 302.82 479.37 302.851 479.339 C 302.882 479.308 302.899 479.267 302.899 479.223 C 302.844 479.133 302.772 479.06 302.7 479.06 Z " fill="rgb(255,255,255)"/><path d=" M 295.723 481.222 C 295.767 481.222 295.808 481.205 295.839 481.174 C 295.87 481.143 295.887 481.102 295.887 481.058 L 295.887 479.224 C 295.88 479.139 295.809 479.073 295.724 479.073 C 295.638 479.073 295.567 479.139 295.56 479.224 L 295.56 481.077 C 295.579 481.154 295.644 481.212 295.723 481.222 Z " fill="rgb(255,255,255)"/><path d=" M 298.357 481.222 C 298.401 481.222 298.442 481.205 298.473 481.174 C 298.504 481.143 298.521 481.102 298.521 481.058 L 298.521 480.495 L 298.666 480.313 L 299.175 481.149 C 299.2 481.196 299.249 481.224 299.302 481.222 C 299.328 481.225 299.354 481.218 299.375 481.204 C 299.446 481.156 299.47 481.062 299.43 480.986 L 298.865 480.042 L 299.428 479.297 C 299.464 479.252 299.472 479.191 299.449 479.138 C 299.426 479.085 299.376 479.05 299.319 479.045 C 299.262 479.04 299.206 479.067 299.175 479.115 L 298.539 479.951 L 298.539 479.951 L 298.503 479.987 L 298.503 479.206 C 298.508 479.145 298.478 479.086 298.425 479.053 C 298.373 479.021 298.306 479.021 298.254 479.053 C 298.201 479.086 298.171 479.145 298.176 479.206 L 298.176 481.059 C 298.211 481.149 298.266 481.222 298.357 481.222 Z " fill="rgb(255,255,255)"/><path d=" M 297.122 481.222 C 297.286 481.223 297.444 481.159 297.56 481.042 C 297.677 480.926 297.741 480.768 297.74 480.604 C 297.745 480.543 297.715 480.484 297.662 480.451 C 297.61 480.419 297.543 480.419 297.491 480.451 C 297.438 480.484 297.408 480.543 297.413 480.604 C 297.413 480.775 297.275 480.913 297.104 480.913 C 296.933 480.913 296.795 480.775 296.795 480.604 L 296.795 479.677 C 296.795 479.506 296.933 479.368 297.104 479.368 C 297.275 479.368 297.413 479.506 297.413 479.677 C 297.42 479.762 297.491 479.828 297.577 479.828 C 297.662 479.828 297.733 479.762 297.74 479.677 C 297.727 479.346 297.454 479.084 297.123 479.084 C 296.791 479.084 296.518 479.346 296.505 479.677 L 296.505 480.604 C 296.504 480.768 296.568 480.926 296.684 481.042 C 296.8 481.158 296.958 481.223 297.122 481.222 Z " fill="rgb(255,255,255)"/><path d=" M 300.065 481.221 L 300.992 481.221 C 301.077 481.214 301.143 481.143 301.143 481.058 C 301.143 480.972 301.077 480.901 300.992 480.894 L 300.211 480.894 L 300.211 480.276 L 300.683 480.276 C 300.768 480.269 300.834 480.198 300.834 480.113 C 300.834 480.027 300.768 479.956 300.683 479.949 L 300.211 479.949 L 300.211 479.331 L 300.992 479.331 C 301.053 479.336 301.112 479.306 301.145 479.253 C 301.177 479.201 301.177 479.134 301.145 479.082 C 301.112 479.029 301.053 478.999 300.992 479.004 L 300.065 479.004 C 300.022 479.004 299.98 479.021 299.949 479.051 C 299.918 479.082 299.901 479.124 299.901 479.167 L 299.901 481.02 C 299.901 481.149 299.974 481.221 300.065 481.221 Z " fill="rgb(255,255,255)"/><path d=" M 302.224 482.584 L 294.488 482.584 C 294.427 482.579 294.368 482.609 294.335 482.662 C 294.303 482.714 294.303 482.781 294.335 482.833 C 294.368 482.886 294.427 482.916 294.488 482.911 L 302.224 482.911 C 302.285 482.916 302.344 482.886 302.377 482.833 C 302.409 482.781 302.409 482.714 302.377 482.662 C 302.344 482.609 302.285 482.579 302.224 482.584 Z " fill="rgb(255,255,255)"/><path d=" M 300.21 483.365 C 300.21 483.322 300.193 483.28 300.162 483.249 C 300.131 483.219 300.089 483.202 300.046 483.202 L 296.646 483.202 C 296.585 483.197 296.526 483.227 296.493 483.28 C 296.461 483.332 296.461 483.399 296.493 483.451 C 296.526 483.504 296.585 483.534 296.646 483.529 L 300.046 483.529 C 300.091 483.533 300.134 483.517 300.166 483.485 C 300.198 483.453 300.214 483.41 300.21 483.365 Z " fill="rgb(255,255,255)"/><path d=" M 303.771 480.913 L 303.626 480.913 L 303.626 480.749 C 303.631 480.688 303.601 480.629 303.548 480.596 C 303.496 480.564 303.429 480.564 303.377 480.596 C 303.324 480.629 303.294 480.688 303.299 480.749 L 303.299 480.913 L 303.135 480.913 C 303.05 480.92 302.984 480.991 302.984 481.076 C 302.984 481.162 303.05 481.233 303.135 481.24 L 303.299 481.24 L 303.299 481.404 C 303.306 481.489 303.377 481.555 303.463 481.555 C 303.548 481.555 303.619 481.489 303.626 481.404 L 303.626 481.24 L 303.79 481.24 C 303.833 481.24 303.875 481.223 303.906 481.192 C 303.936 481.161 303.953 481.119 303.953 481.076 C 303.939 480.985 303.863 480.917 303.771 480.913 Z " fill="rgb(255,255,255)"/><path d=" M 292.944 479.369 L 292.78 479.369 L 292.78 479.205 C 292.773 479.12 292.702 479.054 292.617 479.054 C 292.531 479.054 292.46 479.12 292.453 479.205 L 292.453 479.369 L 292.289 479.369 C 292.228 479.364 292.169 479.394 292.136 479.447 C 292.104 479.499 292.104 479.566 292.136 479.618 C 292.169 479.671 292.228 479.701 292.289 479.696 L 292.453 479.696 L 292.453 479.86 C 292.448 479.921 292.478 479.98 292.531 480.013 C 292.583 480.045 292.65 480.045 292.702 480.013 C 292.755 479.98 292.785 479.921 292.78 479.86 L 292.78 479.696 L 292.944 479.696 C 292.988 479.696 293.029 479.679 293.06 479.648 C 293.091 479.617 293.108 479.576 293.108 479.532 C 293.089 479.442 293.034 479.369 292.944 479.369 Z " fill="rgb(255,255,255)"/></g></svg>