<svg xmlns="http://www.w3.org/2000/svg" viewBox="0 0 61.362 68.548">
  <defs>
    <style>
      .cls-1 {
        opacity: 0.59;
      }

      .cls-2 {
        fill: #e2e2e2;
      }
    </style>
  </defs>
  <g id="Notif" class="cls-1" transform="translate(-256 -8.888)">
    <path id="Tracé_1038" data-name="Tracé 1038" class="cls-2" d="M60.323,56.124c-7.283-3.213-7.5-17.351-7.5-17.78V28.919a22.112,22.112,0,0,0-13.5-20.35,8.569,8.569,0,1,0-17.137,0A22.112,22.112,0,0,0,8.7,28.919v9.425c0,.428-.214,14.567-7.5,17.78A1.878,1.878,0,0,0,.129,58.266a2.058,2.058,0,0,0,1.928,1.5H20.479a10.61,10.61,0,0,0,2.785,5.57,10.048,10.048,0,0,0,7.5,3.213,10.393,10.393,0,0,0,7.5-3.213,9.264,9.264,0,0,0,2.785-5.57H59.466a2.058,2.058,0,0,0,1.928-1.5,2.007,2.007,0,0,0-1.071-2.142Zm-9.64-6.855a24.4,24.4,0,0,0,3.427,6.641H7.2a24.394,24.394,0,0,0,3.427-6.641ZM30.547,3.856a4.823,4.823,0,0,1,4.5,3.427,31.958,31.958,0,0,0-4.5-.428,31.958,31.958,0,0,0-4.5.428,4.823,4.823,0,0,1,4.5-3.427ZM12.554,38.344V28.919a18.1,18.1,0,1,1,36.2,0v9.425a33.42,33.42,0,0,0,.857,7.069H11.7c.643-3.856.857-6.855.857-7.069ZM30.547,64.693a6.88,6.88,0,0,1-6.426-4.927H36.76a6.43,6.43,0,0,1-6.212,4.927Zm0,0" transform="translate(255.926 8.888)"/>
    <path id="Tracé_1039" data-name="Tracé 1039" class="cls-2" d="M22.295,6.2A15.039,15.039,0,0,0,7.3,21.195a1.928,1.928,0,0,0,3.856,0A11.063,11.063,0,0,1,22.295,10.056a1.928,1.928,0,0,0,0-3.856Zm0,0" transform="translate(264.178 15.97)"/>
  </g>
</svg>
