<svg xmlns="http://www.w3.org/2000/svg" xmlns:xlink="http://www.w3.org/1999/xlink" width="14" height="18" viewBox="0 0 14 18"><defs><path id="i92ia" d="M35 299.7a3.82 3.82 0 0 1-3.85-3.8c0-2.1 1.74-3.78 3.85-3.78a3.82 3.82 0 0 1 3.85 3.79A3.82 3.82 0 0 1 35 299.7zm7-3.8c0-3.81-3.15-6.9-7-6.9s-7 3.09-7 6.9c0 1.78.7 3.34 1.8 4.6a230.4 230.4 0 0 1 4.25 5.22c.22.3.55.49.95.49.37 0 .7-.18.92-.43 0 0 3.18-4 4.28-5.29a7.1 7.1 0 0 0 1.8-4.58z"/></defs><g><g transform="translate(-28 -289)"><use fill="#fff" xlink:href="#i92ia"/></g></g></svg>