<svg xmlns="http://www.w3.org/2000/svg" xmlns:xlink="http://www.w3.org/1999/xlink" width="15" height="15" viewBox="0 0 15 15"><defs><path id="6o7ra" d="M34.34 167.65c-1.3 0-2.3-1.06-2.3-2.37a2.31 2.31 0 0 1 4.61 0c0 1.3-1 2.37-2.3 2.37zm6.57-3.85l-1-.17a7.22 7.22 0 0 0-.42-1.01l.6-.83a.91.91 0 0 0-.12-1.18l-.9-.9a.95.95 0 0 0-.64-.29.96.96 0 0 0-.53.18l-.83.6a5.7 5.7 0 0 0-1.07-.42l-.18-1.01a.85.85 0 0 0-.89-.77h-1.3c-.47 0-.83.3-.89.77l-.17 1c-.3.12-.66.24-.95.42l-.83-.6a1 1 0 0 0-.6-.17.73.73 0 0 0-.58.3l-.95.89c-.3.3-.36.82-.12 1.18l.6.83c-.13.35-.25.65-.36 1l-1.01.18a.89.89 0 0 0-.77.9v1.3c0 .4.3.82.77.88l1 .18c.12.35.24.65.42 1l-.6.83a.91.91 0 0 0 .13 1.19l.89.89c.17.17.41.23.65.23.17 0 .35-.06.53-.17l.89-.6c.3.18.65.3.95.42l.17 1c.06.42.48.78.9.78H35c.47 0 .82-.3.88-.77l.18-1.01c.35-.12.71-.24 1-.42l.84.6c.17.11.35.17.53.17.23 0 .47-.11.65-.3l.89-.88c.3-.3.35-.83.12-1.18l-.6-.83c.18-.3.3-.65.42-1.01l1-.18a.95.95 0 0 0 .77-.89v-1.3c0-.41-.35-.77-.77-.83z"/></defs><g><g transform="translate(-27 -158)"><use fill="#fff" xlink:href="#6o7ra"/></g></g></svg>