<svg xmlns="http://www.w3.org/2000/svg" xmlns:xlink="http://www.w3.org/1999/xlink" viewBox="0 0 25.065 25.065"><defs><style>.a{fill:url(#a);}.b{fill:#fff;}</style><linearGradient id="a" x2="0" y2="1" gradientUnits="objectBoundingBox"><stop offset="0" stop-color="#ffac3b"/><stop offset="0.3" stop-color="#e65e5f"/><stop offset="0.6" stop-color="#d82486"/><stop offset="1" stop-color="#8a2bf3"/></linearGradient></defs><g transform="translate(-227.432 -602.341)"><g transform="translate(221.863 602.468)"><g transform="translate(-290.345 -1071.041)"><circle class="a" cx="12.532" cy="12.532" r="12.532" transform="translate(320.979 1095.978) rotate(180)"/><g transform="translate(302.207 1077.207)"><path class="b" d="M8.832,0H3.747A3.752,3.752,0,0,0,0,3.747V8.832a3.752,3.752,0,0,0,3.747,3.747H8.832a3.752,3.752,0,0,0,3.747-3.747V3.747A3.752,3.752,0,0,0,8.832,0Zm2.482,8.832a2.482,2.482,0,0,1-2.482,2.482H3.747A2.482,2.482,0,0,1,1.265,8.832V3.747A2.482,2.482,0,0,1,3.747,1.265H8.832a2.482,2.482,0,0,1,2.482,2.482V8.832Z" transform="translate(0 0)"/><path class="b" d="M136.253,133a3.253,3.253,0,1,0,3.253,3.253A3.257,3.257,0,0,0,136.253,133Zm0,5.241a1.988,1.988,0,1,1,1.988-1.988A1.988,1.988,0,0,1,136.253,138.241Z" transform="translate(-129.964 -129.964)"/><circle class="b" cx="0.78" cy="0.78" r="0.78" transform="translate(8.769 2.281)"/></g></g></g></g></svg>