<svg xmlns="http://www.w3.org/2000/svg" xmlns:xlink="http://www.w3.org/1999/xlink" width="13" height="13" viewBox="0 0 13 13"><defs><path id="scpua" d="M41.6 553.12a2.48 2.48 0 0 1-2.48 2.49h-5.08a2.48 2.48 0 0 1-2.48-2.49v-5.08a2.48 2.48 0 0 1 2.48-2.48h5.08a2.48 2.48 0 0 1 2.49 2.48zm-2.48-8.83h-5.08a3.75 3.75 0 0 0-3.75 3.75v5.08a3.75 3.75 0 0 0 3.75 3.75h5.08a3.75 3.75 0 0 0 3.75-3.75v-5.08a3.75 3.75 0 0 0-3.75-3.75z"/></defs><g><g transform="translate(-30 -544)"><use fill="#fff" xlink:href="#scpua"/></g></g></svg>