<svg xmlns="http://www.w3.org/2000/svg" xmlns:xlink="http://www.w3.org/1999/xlink" width="14" height="18" viewBox="0 0 14 18"><defs><path id="ezf4a" d="M38.66 207.24h-7.32v-1.99a3.65 3.65 0 0 1 3.66-3.66 3.65 3.65 0 0 1 3.66 3.66zm-2.39 5.69c0 .71-.55 1.27-1.27 1.27s-1.27-.56-1.27-1.27v-1.91c0-.72.55-1.28 1.27-1.28s1.27.56 1.27 1.28zm3.98-5.65v-2.03a5.24 5.24 0 1 0-10.5 0v2.03A2.3 2.3 0 0 0 28 209.5v6.2a2.3 2.3 0 0 0 2.3 2.3h9.4a2.3 2.3 0 0 0 2.3-2.3v-6.2a2.3 2.3 0 0 0-1.75-2.23z"/></defs><g><g transform="translate(-28 -200)"><use fill="#fff" xlink:href="#ezf4a"/></g></g></svg>