<svg xmlns="http://www.w3.org/2000/svg" xmlns:xlink="http://www.w3.org/1999/xlink" width="13" height="13" viewBox="0 0 13 13"><defs><path id="8s3va" d="M34.43 347.3c-1.69.01-3.37-.07-5.03-.42l-.48-.12c-.88-.24-1.19-1.15-.66-1.9.4-.57.79-1.14 1.14-1.74.52-.9.8-1.87.84-2.92a4.1 4.1 0 0 1 2.6-3.76c.14-.06.2-.14.22-.3a1.4 1.4 0 0 1 2.75 0c.02.14.07.23.22.3a4.04 4.04 0 0 1 2.6 3.67c.07 1.49.63 2.77 1.42 3.97.18.27.38.52.56.78.55.75.23 1.66-.68 1.9-1.44.39-2.92.5-4.4.55h-1.1z"/></defs><g><g transform="translate(-28 -335)"><use fill="#fff" xlink:href="#8s3va"/></g></g></svg>