<svg xmlns="http://www.w3.org/2000/svg" viewBox="0 0 25.065 25.065">
  <defs>
    <style>
      .cls-1 {
        fill: #fffb01;
      }

      .cls-2 {
        fill: #fff;
      }
    </style>
  </defs>
  <g id="Facebook_btn" data-name="Facebook btn" transform="translate(-227.431 -602.341)">
    <g id="facebook" transform="translate(221.863 602.468)">
      <g id="Instagram" transform="translate(-290.345 -1071.041)">
        <circle id="instagram_PNG11" class="cls-1" cx="12.532" cy="12.532" r="12.532" transform="translate(320.978 1095.979) rotate(180)"/>
        <g id="snapchat" transform="translate(311.49 1075.746)">
          <circle id="instagram_PNG11-2" data-name="instagram_PNG11" class="cls-2" cx="6.532" cy="6.532" r="6.532" transform="translate(4.065 14.873) rotate(180)"/>
          <path id="Tracé_778" data-name="Tracé 778" class="cls-1" d="M13.045,0H4.353A4.366,4.366,0,0,0,0,4.354V13.02a4.364,4.364,0,0,0,4.353,4.34h8.692a4.369,4.369,0,0,0,4.367-4.354V4.354A4.369,4.369,0,0,0,13.045,0Zm.871,11.532a.646.646,0,0,1-.3.248,3.707,3.707,0,0,1-1.023.262.215.215,0,0,0-.111.083,1.106,1.106,0,0,0-.069.262l-.014.069c-.014.055-.028.124-.041.179a.15.15,0,0,1-.152.11.833.833,0,0,1-.221-.028,3.062,3.062,0,0,0-.594-.069,2.151,2.151,0,0,0-.428.041,2.231,2.231,0,0,0-.829.413,2.35,2.35,0,0,1-1.423.565H8.581A2.428,2.428,0,0,1,7.144,13.1a2.177,2.177,0,0,0-.815-.413,2.256,2.256,0,0,0-.428-.041,2.774,2.774,0,0,0-.58.069H5.306a1.213,1.213,0,0,1-.221.028.152.152,0,0,1-.166-.11.764.764,0,0,1-.1-.234l-.014-.041a.834.834,0,0,0-.083-.262.1.1,0,0,0-.1-.069,4.626,4.626,0,0,1-1.036-.262.627.627,0,0,1-.3-.234.149.149,0,0,1-.014-.069v-.028a.336.336,0,0,1,.124-.1,2.442,2.442,0,0,0,.981-.386,2.838,2.838,0,0,0,.691-.606,3.522,3.522,0,0,0,.567-.882V9.451a.534.534,0,0,0,.055-.468c-.111-.248-.442-.358-.677-.427l-.041-.014A.954.954,0,0,1,4.864,8.5,1.169,1.169,0,0,1,4.5,8.294a.259.259,0,0,1-.111-.248.329.329,0,0,1,.166-.207A.44.44,0,0,1,4.947,7.8a.9.9,0,0,0,.774.1A.151.151,0,0,0,5.8,7.757c0-.083-.014-.165-.014-.248V7.495a5.519,5.519,0,0,1,.124-2.122,2.906,2.906,0,0,1,.636-.909,2.586,2.586,0,0,1,.76-.5A2.957,2.957,0,0,1,8.5,3.72h.207a2.957,2.957,0,0,1,1.188.248,2.586,2.586,0,0,1,.76.5,2.7,2.7,0,0,1,.636.909,5.208,5.208,0,0,1,.124,2.108v.041c0,.055-.014.1-.014.152v.069a.151.151,0,0,0,.083.138.442.442,0,0,0,.193.041H11.7a1.51,1.51,0,0,0,.5-.138.447.447,0,0,1,.166-.028.489.489,0,0,1,.193.041c.152.055.263.165.263.276a.273.273,0,0,1-.1.193,1.345,1.345,0,0,1-.387.234.257.257,0,0,1-.1.028l-.041.014c-.221.069-.567.179-.677.427a.567.567,0,0,0,.055.482c0,.014,0,.014.014.028a3.252,3.252,0,0,0,2.239,1.86.121.121,0,0,1,.1.124A.6.6,0,0,1,13.915,11.532Z" transform="translate(-11.577 -0.832)"/>
        </g>
      </g>
    </g>
  </g>
</svg>
