<svg xmlns="http://www.w3.org/2000/svg" viewBox="0 0 20.199 20.089"><defs><style>.a{fill:#fff;}.b,.c{fill:#606c7d;}.b{stroke:#fff;stroke-width:0.2px;}.d{fill:none;stroke:#606c7d;stroke-linecap:round;stroke-linejoin:round;stroke-miterlimit:10;stroke-width:0.9px;}</style></defs><g transform="translate(0.1 -0.068)"><ellipse class="a" cx="10" cy="9.882" rx="10" ry="9.882" transform="translate(0 0.393)"/><path class="b" d="M19.2,6.2A9.742,9.742,0,0,0,13.877.957,9.93,9.93,0,0,0,9.984.168,9.828,9.828,0,0,0,6.1.957,9.772,9.772,0,0,0,.787,6.2a9.766,9.766,0,0,0,0,7.683A9.793,9.793,0,0,0,6.1,19.133a9.828,9.828,0,0,0,3.882.789,9.934,9.934,0,0,0,3.893-.789A9.763,9.763,0,0,0,19.2,13.881a9.642,9.642,0,0,0,0-7.683Zm-1.6,8.2a8.84,8.84,0,0,1-7.622,4.333,8.555,8.555,0,0,1-3.412-.692,8.949,8.949,0,0,1-2.8-1.848A8.776,8.776,0,0,1,1.9,13.416a8.421,8.421,0,0,1-.689-3.382A8.418,8.418,0,0,1,2.384,5.69a8.727,8.727,0,0,1,3.2-3.166,8.624,8.624,0,0,1,4.4-1.167A8.84,8.84,0,0,1,17.605,5.69a8.37,8.37,0,0,1,1.181,4.344A8.45,8.45,0,0,1,17.605,14.4Z" transform="translate(0 0)"/><path class="c" d="M288.329,117.124v-5.6a.627.627,0,0,0-.634-.605.613.613,0,0,0-.6.605v5.684a.488.488,0,0,1,.022.086.561.561,0,0,0,.164.486l2.413,2.524a.628.628,0,0,0,.842,0,.578.578,0,0,0,0-.843Z" transform="translate(-277.711 -107.176)"/><g transform="translate(3.584 11.714)"><path class="d" d="M17.556,4.2A8.117,8.117,0,0,1,10.81,7.774,8.082,8.082,0,0,1,4.6,4.882" transform="translate(-4.172 -3.824)"/><path class="d" d="M1,8.484a.95.95,0,0,1,1.071-.835" transform="translate(-1 -6.862)"/><path class="d" d="M108.9,1a.947.947,0,0,1,.845,1.058" transform="translate(-96.063 -1)"/></g></g></svg>