<svg xmlns="http://www.w3.org/2000/svg" xmlns:xlink="http://www.w3.org/1999/xlink" width="71" height="60" viewBox="0 0 71 60"><defs><path id="gq73a" d="M138.9 271.56c-.33-1.37-1.99-2.49-3.67-2.49h-20.74a8.49 8.49 0 0 1-5.23-2.2l-1.82-1.83a8.48 8.48 0 0 0-5.23-2.2H92.3a3.54 3.54 0 0 0-3.4 3.1l-.9 8.11h51.52zm2.03 6.85H85.74c-2.8 0-2.94 1.4-2.79 3.1l2.51 28.07c.15 1.7.55 3.1 3.35 3.1h49.06c2.85 0 3.19-1.4 3.34-3.1l2.51-28.06c.15-1.7.01-3.1-2.79-3.1z"/><mask id="gq73c" width="2" height="2" x="-1" y="-1"><path fill="#fff" d="M82 262h62v51H82z"/><use xlink:href="#gq73a"/></mask><filter id="gq73b" width="94" height="86" x="66" y="246" filterUnits="userSpaceOnUse"><feOffset dy="3" in="SourceGraphic" result="FeOffset1023Out"/><feGaussianBlur in="FeOffset1023Out" result="FeGaussianBlur1024Out" stdDeviation="2.4 2.4"/></filter></defs><g><g transform="translate(-78 -261)"><g filter="url(#gq73b)"><use fill="none" stroke-opacity=".16" stroke-width="0" mask="url(&quot;#gq73c&quot;)" xlink:href="#gq73a"/><use fill-opacity=".16" xlink:href="#gq73a"/></g><use fill="#fb527d" xlink:href="#gq73a"/></g></g></svg>