<svg xmlns="http://www.w3.org/2000/svg" xmlns:xlink="http://www.w3.org/1999/xlink" width="10" height="9" viewBox="0 0 10 9"><defs><path id="w3usa" d="M319.37 541.02c-.07.04-.1.1-.1.2 0 .06.03.16.1.2l4.13 3.4c.07.07.2.07.26.04.1-.03.17-.13.17-.23v-1.8c1.67 0 2.82.13 4.23 2.59.03.1.13.13.23.13h.07c.13-.03.2-.13.2-.26v-.2c0-.89 0-2.26-.6-3.38-.72-1.31-2.1-2.03-4.1-2.1v-1.8c0-.1-.06-.2-.13-.23-.1-.03-.2-.03-.26.03l-4.2 3.41z"/></defs><g><g transform="translate(-319 -537)"><use fill="#b1b1b1" xlink:href="#w3usa"/></g></g></svg>