<svg xmlns="http://www.w3.org/2000/svg" viewBox="0 0 8.933 6.295"><defs><style>.a{fill:#fff;}</style></defs><g transform="translate(0 0)"><g transform="translate(0 0)"><path class="a" d="M10.414,5.958A31.566,31.566,0,0,0,6.577,3.74L6.7,3.5l-.36.18-.3-.18.12.24c-.24.12-1.079.54-1.859.959A16.575,16.575,0,0,0,2.26,5.958,1.628,1.628,0,0,0,1.9,6.977,1.281,1.281,0,0,0,2.38,8a1.7,1.7,0,0,0,1.019.42h.06a1.281,1.281,0,0,0,1.019-.48l.12-.12A1.821,1.821,0,0,0,5.977,9.136h.06l.3.66.36-.6h.06a1.57,1.57,0,0,0,.779-.36,1.648,1.648,0,0,0,.6-.959c.06.06.12.12.12.18a1.5,1.5,0,0,0,1.079.48,1.4,1.4,0,0,0,1.019-.42,1.5,1.5,0,0,0,.48-1.079A2.155,2.155,0,0,0,10.414,5.958ZM6.337,4.219c.18.36.54,1.139.9,1.919h-1.8c.12-.24.24-.54.36-.779C6.037,4.879,6.217,4.459,6.337,4.219ZM4.9,7.157a2.607,2.607,0,0,0,.24-.42h0c0-.06.06-.12.12-.24H7.416a6.54,6.54,0,0,0,.36.66Zm-.779.54a1.109,1.109,0,0,1-1.5.06,1.634,1.634,0,0,1-.36-.719h0a1.3,1.3,0,0,1,.3-.839,18.254,18.254,0,0,1,3.3-1.859c-.12.24-.24.54-.36.839h0c-.24.48-.48.959-.719,1.379h0A5.13,5.13,0,0,1,4.118,7.7ZM7.3,8.476a1.292,1.292,0,0,1-1.019.3A1.3,1.3,0,0,1,4.9,7.517H7.776v.12A1.1,1.1,0,0,1,7.3,8.476Zm2.758-.719a1.051,1.051,0,0,1-1.5-.06A31.96,31.96,0,0,1,6.816,4.339a30.759,30.759,0,0,1,3.3,1.919A1.051,1.051,0,0,1,10.054,7.757Z" transform="translate(-1.9 -3.5)"/></g></g></svg>