<svg xmlns="http://www.w3.org/2000/svg" viewBox="0 0 41 41"><defs><style>.a{fill:#f22876;}.b{fill:#fff;fill-rule:evenodd;}</style></defs><g transform="translate(-92 -381)"><g transform="translate(3.645 2)"><g transform="translate(74.691 391.928)"><circle class="a" cx="20.5" cy="20.5" r="20.5" transform="translate(13.664 -12.928)"/><path class="b" d="M13,6.375a6.5,6.5,0,0,0-13,0,6.465,6.465,0,0,0,1.688,4.25c1,1.25,3.937,4.938,3.937,4.938A1.094,1.094,0,0,0,6.5,16a1.194,1.194,0,0,0,.875-.437s2.938-3.75,4-4.938A6.606,6.606,0,0,0,13,6.375ZM6.5,10.688a4.308,4.308,0,0,1-4.312-4.25,4.313,4.313,0,0,1,8.625,0A4.308,4.308,0,0,1,6.5,10.688Zm0,0" transform="translate(27.664 0.072)"/></g></g></g></svg>