<svg xmlns="http://www.w3.org/2000/svg" viewBox="0 0 14.057 14"><defs><style>.a{fill:#b2b1b2;}</style></defs><path class="a" d="M13.32,5.555l-.964-.17a6.914,6.914,0,0,0-.4-.964l.567-.794a.872.872,0,0,0-.113-1.134l-.85-.85a.852.852,0,0,0-.623-.227.914.914,0,0,0-.51.17l-.794.567a6.914,6.914,0,0,0-.964-.4L8.5.794A.909.909,0,0,0,7.6,0H6.348A.852.852,0,0,0,5.5.737l-.17.964c-.34.113-.623.283-.964.4L3.571,1.53a.693.693,0,0,0-.51-.17.7.7,0,0,0-.567.283l-.907.85a.939.939,0,0,0-.113,1.134l.567.85c-.113.283-.227.567-.34.907l-.964.17A.852.852,0,0,0,0,6.4V7.652a.852.852,0,0,0,.737.85l.964.17a6.914,6.914,0,0,0,.4.964l-.567.794a.872.872,0,0,0,.113,1.134l.85.85a.852.852,0,0,0,.623.227.914.914,0,0,0,.51-.17l.85-.567a6.3,6.3,0,0,0,.907.4l.17.964A.905.905,0,0,0,6.4,14H7.652a.852.852,0,0,0,.85-.737l.17-.964a6.914,6.914,0,0,0,.964-.4l.794.567a.914.914,0,0,0,.51.17,1.189,1.189,0,0,0,.623-.227l.85-.85a.939.939,0,0,0,.113-1.134l-.567-.794a4.9,4.9,0,0,0,.4-.964l.964-.17a.905.905,0,0,0,.737-.85V6.4a.912.912,0,0,0-.737-.85Zm-.113,2.1c0,.057,0,.057-.057.057l-1.19.227a.359.359,0,0,0-.34.283,4.811,4.811,0,0,1-.51,1.247.621.621,0,0,0,0,.453l.737,1.02v.113L11,11.9h-.113l-1.02-.737a.343.343,0,0,0-.453,0,4.811,4.811,0,0,1-1.247.51.359.359,0,0,0-.283.34l-.227,1.247a.056.056,0,0,1-.057.057H6.348c-.057,0-.057,0-.057-.057l-.227-1.247a.359.359,0,0,0-.283-.34,4.442,4.442,0,0,1-1.19-.51c-.057-.057-.113-.057-.227-.057a.341.341,0,0,0-.227.057l-.964.737H3.061l-.85-.85a.079.079,0,0,1,0-.113l.737-1.02a.343.343,0,0,0,0-.453,4.811,4.811,0,0,1-.51-1.247.58.58,0,0,0-.34-.283L.85,7.709a.056.056,0,0,1-.057-.057V6.4c0-.057,0-.057.057-.057L2.1,6.121a.359.359,0,0,0,.34-.283,4.811,4.811,0,0,1,.51-1.247.621.621,0,0,0,0-.453l-.794-.964V3.061L3,2.211h.113l1.02.737a.343.343,0,0,0,.453,0,4.811,4.811,0,0,1,1.247-.51.359.359,0,0,0,.283-.34L6.348.85A.056.056,0,0,1,6.4.794H7.652c.057,0,.057,0,.057.057L7.935,2.1a.359.359,0,0,0,.283.34,4.811,4.811,0,0,1,1.247.51.621.621,0,0,0,.453,0l1.02-.737h.113l.85.85a.079.079,0,0,1,0,.113l-.737,1.02a.343.343,0,0,0,0,.453,4.811,4.811,0,0,1,.51,1.247.359.359,0,0,0,.34.283l1.247.227a.056.056,0,0,1,.057.057l-.113,1.19Zm0,0"/><path class="a" d="M10.061,7a3.033,3.033,0,1,0,2.947,3.061A2.954,2.954,0,0,0,10.061,7Zm0,5.271a2.211,2.211,0,1,1,2.211-2.211,2.251,2.251,0,0,1-2.211,2.211Zm0,0" transform="translate(-3.032 -3.032)"/></svg>