<svg xmlns="http://www.w3.org/2000/svg" viewBox="0 0 41 41"><defs><style>.a{fill:#f22876;}.b{fill:#fff;}</style></defs><g transform="translate(-13.664 12.928)"><circle class="a" cx="20.5" cy="20.5" r="20.5" transform="translate(13.664 -12.928)"/><g transform="translate(5.664 4.427)"><g transform="translate(24.828 -0.527)"><path class="b" d="M8,0a8,8,0,1,0,8,8A8,8,0,0,0,8,0Zm3.459,9.521H8.067c-.011,0-.022,0-.033,0s-.022,0-.033,0a.553.553,0,0,1-.553-.553V3.32a.553.553,0,1,1,1.107,0V8.415h2.905a.553.553,0,0,1,0,1.107Z" transform="translate(-3.828 -3.828)"/></g></g></g></svg>